<svg xmlns="http://www.w3.org/2000/svg" xmlns:xlink="http://www.w3.org/1999/xlink" id="body_1" preserveAspectRatio="xMinYMin meet" viewBox="0 0 793 1121"><defs><clipPath id="1"><path id="" clip-rule="evenodd" transform="matrix(1 0 0 1 0 0)" d="M0 841L0 -0.9199829L0 -0.9199829L595.32 -0.9199829L595.32 -0.9199829L595.32 841L595.32 841L0 841z" /></clipPath></defs><g transform="matrix(1.333333 0 0 1.333333 0 0)"><g clip-path="url(#1)"><path id="83" transform="matrix(1 0 0 -1 0 841)" d="M489.48 601.18L499.92 601.18L499.92 601.18L499.92 614.86L499.92 614.86L489.48 614.86z" stroke="none" fill="#D9D9D9" fill-rule="evenodd" /><path id="121" transform="matrix(1 0 0 -1 0 841)" d="M111.14 582.07L500.04 582.07L500.04 582.07L500.04 595.75L500.04 595.75L111.14 595.75z" stroke="none" fill="#D9D9D9" fill-rule="evenodd" /><path id="159" transform="matrix(1 0 0 -1 0 841)" d="M111.14 563.11L163.724 563.11L163.724 563.11L163.724 576.79L163.724 576.79L111.14 576.79z" stroke="none" fill="#D9D9D9" fill-rule="evenodd" /></g></g></svg>