<svg xmlns="http://www.w3.org/2000/svg" xmlns:xlink="http://www.w3.org/1999/xlink" id="body_1" preserveAspectRatio="xMinYMin meet" viewBox="0 0 793 1121"><defs><clipPath id="1"><path id="" clip-rule="evenodd" transform="matrix(1 0 0 1 0 0)" d="M0 841L0 -0.6799927L0 -0.6799927L595.44 -0.6799927L595.44 -0.6799927L595.44 841L595.44 841L0 841z" /></clipPath></defs><g transform="matrix(1.333333 0 0 1.333333 0 0)"><g clip-path="url(#1)"><path id="127" transform="matrix(1 0 0 -1 0 841)" d="M93.504 689.74L505.654 689.74L505.654 689.74L505.654 703.42L505.654 703.42L93.504 703.42z" stroke="none" fill="#D9D9D9" fill-rule="evenodd" /><path id="168" transform="matrix(1 0 0 -1 0 841)" d="M92.184 676.06L502.414 676.06L502.414 676.06L502.414 689.74L502.414 689.74L92.184 689.74z" stroke="none" fill="#D9D9D9" fill-rule="evenodd" /><path id="208" transform="matrix(1 0 0 -1 0 841)" d="M92.184 662.38L281.444 662.38L281.444 662.38L281.444 676.06L281.444 676.06L92.184 676.06z" stroke="none" fill="#D9D9D9" fill-rule="evenodd" /><path id="234" transform="matrix(1 0 0 -1 0 841)" d="M92.184 598.66L502.414 598.66L502.414 598.66L502.414 614.3799L502.414 614.3799L92.184 614.3799z" stroke="none" fill="#D9D9D9" fill-rule="evenodd" /><path id="274" transform="matrix(1 0 0 -1 0 841)" d="M92.184 583.06L292.004 583.06L292.004 583.06L292.004 598.78L292.004 598.78L92.184 598.78z" stroke="none" fill="#D9D9D9" fill-rule="evenodd" /><path id="294" transform="matrix(1 0 0 -1 0 841)" d="M92.184 563.35L505.654 563.35L505.654 563.35L505.654 577.054L505.654 577.054L92.184 577.054z" stroke="none" fill="#D9D9D9" fill-rule="evenodd" /><path id="334" transform="matrix(1 0 0 -1 0 841)" d="M92.184 549.67L292.004 549.67L292.004 549.67L292.004 563.35L292.004 563.35L92.184 563.35z" stroke="none" fill="#D9D9D9" fill-rule="evenodd" /><path id="354" transform="matrix(1 0 0 -1 0 841)" d="M92.184 528.67L276.164 528.67L276.164 528.67L276.164 543.91L276.164 543.91L92.184 543.91z" stroke="none" fill="#D9D9D9" fill-rule="evenodd" /><path id="373" transform="matrix(1 0 0 -1 0 841)" d="M92.184 507.55L505.654 507.55L505.654 507.55L505.654 522.79L505.654 522.79L92.184 522.79z" stroke="none" fill="#D9D9D9" fill-rule="evenodd" /><path id="414" transform="matrix(1 0 0 -1 0 841)" d="M118.46 492.43L234.16 492.43L234.16 492.43L234.16 507.67L234.16 507.67L118.46 507.67z" stroke="none" fill="#D9D9D9" fill-rule="evenodd" /><path id="426" transform="matrix(1 0 0 -1 0 841)" d="M92.184 471.31L505.654 471.31L505.654 471.31L505.654 486.55L505.654 486.55L92.184 486.55z" stroke="none" fill="#D9D9D9" fill-rule="evenodd" /><path id="467" transform="matrix(1 0 0 -1 0 841)" d="M118.46 456.19L318.28 456.19L318.28 456.19L318.28 471.43L318.28 471.43L118.46 471.43z" stroke="none" fill="#D9D9D9" fill-rule="evenodd" /><path id="487" transform="matrix(1 0 0 -1 0 841)" d="M92.184 435.19L349.754 435.19L349.754 435.19L349.754 450.43L349.754 450.43L92.184 450.43z" stroke="none" fill="#D9D9D9" fill-rule="evenodd" /><path id="513" transform="matrix(1 0 0 -1 0 841)" d="M92.184 414.07L213.044 414.07L213.044 414.07L213.044 429.31L213.044 429.31L92.184 429.31z" stroke="none" fill="#D9D9D9" fill-rule="evenodd" /><path id="526" transform="matrix(1 0 0 -1 0 841)" d="M92.184 392.95L423.314 392.95L423.314 392.95L423.314 408.19L423.314 408.19L92.184 408.19z" stroke="none" fill="#D9D9D9" fill-rule="evenodd" /><path id="559" transform="matrix(1 0 0 -1 0 841)" d="M92.184 371.81L402.314 371.81L402.314 371.81L402.314 387.074L402.314 387.074L92.184 387.074z" stroke="none" fill="#D9D9D9" fill-rule="evenodd" /><path id="590" transform="matrix(1 0 0 -1 0 841)" d="M92.184 350.81L505.654 350.81L505.654 350.81L505.654 366.05L505.654 366.05L92.184 366.05z" stroke="none" fill="#D9D9D9" fill-rule="evenodd" /><path id="631" transform="matrix(1 0 0 -1 0 841)" d="M118.46 335.69L505.65 335.69L505.65 335.69L505.65 350.93L505.65 350.93L118.46 350.93z" stroke="none" fill="#D9D9D9" fill-rule="evenodd" /><path id="669" transform="matrix(1 0 0 -1 0 841)" d="M118.46 320.57L505.65 320.57L505.65 320.57L505.65 335.81L505.65 335.81L118.46 335.81z" stroke="none" fill="#D9D9D9" fill-rule="evenodd" /><path id="707" transform="matrix(1 0 0 -1 0 841)" d="M118.46 305.45L360.43 305.45L360.43 305.45L360.43 320.69L360.43 320.69L118.46 320.69z" stroke="none" fill="#D9D9D9" fill-rule="evenodd" /></g></g></svg>