<svg xmlns="http://www.w3.org/2000/svg" xmlns:xlink="http://www.w3.org/1999/xlink" id="body_1" preserveAspectRatio="xMinYMin meet" viewBox="0 0 793 1121"><defs><clipPath id="1"><path id="" clip-rule="evenodd" transform="matrix(1 0 0 1 0 0)" d="M0 841L0 -0.6799927L0 -0.6799927L595.44 -0.6799927L595.44 -0.6799927L595.44 841L595.44 841L0 841z" /></clipPath></defs><g transform="matrix(1.333333 0 0 1.333333 0 0)"><g clip-path="url(#1)"><path id="750" transform="matrix(1 0 0 -1 0 841)" d="M165.74 158.78L502.29 158.78L502.29 158.78L502.29 174.5L502.29 174.5L165.74 174.5z" stroke="none" fill="#D9D9D9" fill-rule="evenodd" /><path id="790" transform="matrix(1 0 0 -1 0 841)" d="M92.184 128.54L505.654 128.54L505.654 128.54L505.654 143.78L505.654 143.78L92.184 143.78z" stroke="none" fill="#D9D9D9" fill-rule="evenodd" /><path id="831" transform="matrix(1 0 0 -1 0 841)" d="M92.184 113.42L505.654 113.42L505.654 113.42L505.654 128.66L505.654 128.66L92.184 128.66z" stroke="none" fill="#D9D9D9" fill-rule="evenodd" /><path id="872" transform="matrix(1 0 0 -1 0 841)" d="M92.184 98.304L505.654 98.304L505.654 98.304L505.654 113.544L505.654 113.544L92.184 113.544z" stroke="none" fill="#D9D9D9" fill-rule="evenodd" /><path id="912" transform="matrix(1 0 0 -1 0 841)" d="M92.184 83.184L323.354 83.184L323.354 83.184L323.354 98.424L323.354 98.424L92.184 98.424z" stroke="none" fill="#D9D9D9" fill-rule="evenodd" /></g></g></svg>