<svg xmlns="http://www.w3.org/2000/svg" xmlns:xlink="http://www.w3.org/1999/xlink" id="body_1" preserveAspectRatio="xMinYMin meet" viewBox="0 0 793 1121"><defs><clipPath id="1"><path id="" clip-rule="evenodd" transform="matrix(1 0 0 1 0 0)" d="M0 841L0 -0.6799927L0 -0.6799927L595.44 -0.6799927L595.44 -0.6799927L595.44 841L595.44 841L0 841z" /></clipPath></defs><g transform="matrix(1.333333 0 0 1.333333 0 0)"><g clip-path="url(#1)"><path id="628" transform="matrix(1 0 0 -1 0 841)" d="M377.35 227.21L505.65 227.21L505.65 227.21L505.65 242.93L505.65 242.93L377.35 242.93z" stroke="none" fill="#D9D9D9" fill-rule="evenodd" /><path id="665" transform="matrix(1 0 0 -1 0 841)" d="M120.5 211.61L467.61 211.61L467.61 211.61L467.61 227.33L467.61 227.33L120.5 227.33z" stroke="none" fill="#D9D9D9" fill-rule="evenodd" /></g></g></svg>