<svg xmlns="http://www.w3.org/2000/svg" xmlns:xlink="http://www.w3.org/1999/xlink" id="body_1" preserveAspectRatio="xMinYMin meet" viewBox="0 0 793 1121"><defs><clipPath id="1"><path id="" clip-rule="evenodd" transform="matrix(1 0 0 1 0 0)" d="M0 841L0 -0.9199829L0 -0.9199829L595.32 -0.9199829L595.32 -0.9199829L595.32 841L595.32 841L0 841z" /></clipPath></defs><g transform="matrix(1.333333 0 0 1.333333 0 0)"><g clip-path="url(#1)"><path id="5" transform="matrix(1 0 0 -1 0 841)" d="M118.1 753.58L496.68 753.58L496.68 753.58L496.68 767.284L496.68 767.284L118.1 767.284z" stroke="none" fill="#D9D9D9" fill-rule="evenodd" /><path id="45" transform="matrix(1 0 0 -1 0 841)" d="M118.1 734.5L160.1 734.5L160.1 734.5L160.1 748.18L160.1 748.18L118.1 748.18z" stroke="none" fill="#D9D9D9" fill-rule="evenodd" /><path id="50" transform="matrix(1 0 0 -1 0 841)" d="M89.904 715.54L394.894 715.54L394.894 715.54L394.894 729.22L394.894 729.22L89.904 729.22z" stroke="none" fill="#D9D9D9" fill-rule="evenodd" /><path id="81" transform="matrix(1 0 0 -1 0 841)" d="M89.904 696.46L500.044 696.46L500.044 696.46L500.044 710.14L500.044 710.14L89.904 710.14z" stroke="none" fill="#D9D9D9" fill-rule="evenodd" /><path id="122" transform="matrix(1 0 0 -1 0 841)" d="M118.1 677.38L317.95 677.38L317.95 677.38L317.95 691.06L317.95 691.06L118.1 691.06z" stroke="none" fill="#D9D9D9" fill-rule="evenodd" /><path id="142" transform="matrix(1 0 0 -1 0 841)" d="M89.904 658.3L500.044 658.3L500.044 658.3L500.044 671.98L500.044 671.98L89.904 671.98z" stroke="none" fill="#D9D9D9" fill-rule="evenodd" /><path id="183" transform="matrix(1 0 0 -1 0 841)" d="M118.1 639.34L496.8 639.34L496.8 639.34L496.8 653.02L496.8 653.02L118.1 653.02z" stroke="none" fill="#D9D9D9" fill-rule="evenodd" /><path id="220" transform="matrix(1 0 0 -1 0 841)" d="M118.1 620.26L328.39 620.26L328.39 620.26L328.39 633.94L328.39 633.94L118.1 633.94z" stroke="none" fill="#D9D9D9" fill-rule="evenodd" /><path id="241" transform="matrix(1 0 0 -1 0 841)" d="M89.904 601.18L373.874 601.18L373.874 601.18L373.874 614.86L373.874 614.86L89.904 614.86z" stroke="none" fill="#D9D9D9" fill-rule="evenodd" /><path id="270" transform="matrix(1 0 0 -1 0 841)" d="M89.904 582.07L500.044 582.07L500.044 582.07L500.044 595.75L500.044 595.75L89.904 595.75z" stroke="none" fill="#D9D9D9" fill-rule="evenodd" /><path id="311" transform="matrix(1 0 0 -1 0 841)" d="M118.1 563.11L275.83 563.11L275.83 563.11L275.83 576.79L275.83 576.79L118.1 576.79z" stroke="none" fill="#D9D9D9" fill-rule="evenodd" /><path id="327" transform="matrix(1 0 0 -1 0 841)" d="M89.904 544.03L195.164 544.03L195.164 544.03L195.164 557.71L195.164 557.71L89.904 557.71z" stroke="none" fill="#D9D9D9" fill-rule="evenodd" /></g></g></svg>