<svg xmlns="http://www.w3.org/2000/svg" xmlns:xlink="http://www.w3.org/1999/xlink" id="body_1" preserveAspectRatio="xMinYMin meet" viewBox="0 0 793 1121"><defs><clipPath id="1"><path id="" clip-rule="evenodd" transform="matrix(1 0 0 1 0 0)" d="M0 841L0 -0.6799927L0 -0.6799927L595.44 -0.6799927L595.44 -0.6799927L595.44 841L595.44 841L0 841z" /></clipPath><clipPath id="2"><path id="" clip-rule="evenodd" transform="matrix(1 0 0 1 0 0)" d="M8.873E-06 841L595.44 841L595.44 841L595.44 -0.6799927L595.44 -0.6799927L8.873E-06 -0.6799927z" /></clipPath><clipPath id="3"><path id="" clip-rule="evenodd" transform="matrix(1 0 0 1 0 0)" d="M8.873E-06 841L595.44 841L595.44 841L595.44 -0.6799927L595.44 -0.6799927L8.873E-06 -0.6799927z" /></clipPath><clipPath id="4"><path id="" clip-rule="evenodd" transform="matrix(1 0 0 1 0 0)" d="M8.873E-06 841L595.44 841L595.44 841L595.44 -0.6799927L595.44 -0.6799927L8.873E-06 -0.6799927z" /></clipPath><clipPath id="5"><path id="" clip-rule="evenodd" transform="matrix(1 0 0 1 0 0)" d="M8.873E-06 841L595.44 841L595.44 841L595.44 -0.6799927L595.44 -0.6799927L8.873E-06 -0.6799927z" /></clipPath><clipPath id="6"><path id="" clip-rule="evenodd" transform="matrix(1 0 0 1 0 0)" d="M8.873E-06 841L595.44 841L595.44 841L595.44 -0.6799927L595.44 -0.6799927L8.873E-06 -0.6799927z" /></clipPath><clipPath id="7"><path id="" clip-rule="evenodd" transform="matrix(1 0 0 1 0 0)" d="M8.873E-06 841L595.44 841L595.44 841L595.44 -0.6799927L595.44 -0.6799927L8.873E-06 -0.6799927z" /></clipPath><clipPath id="8"><path id="" clip-rule="evenodd" transform="matrix(1 0 0 1 0 0)" d="M8.873E-06 841L595.44 841L595.44 841L595.44 -0.6799927L595.44 -0.6799927L8.873E-06 -0.6799927z" /></clipPath><clipPath id="9"><path id="" clip-rule="evenodd" transform="matrix(1 0 0 1 0 0)" d="M8.873E-06 841L595.44 841L595.44 841L595.44 -0.6799927L595.44 -0.6799927L8.873E-06 -0.6799927z" /></clipPath><clipPath id="10"><path id="" clip-rule="evenodd" transform="matrix(1 0 0 1 0 0)" d="M8.873E-06 841L595.44 841L595.44 841L595.44 -0.6799927L595.44 -0.6799927L8.873E-06 -0.6799927z" /></clipPath><clipPath id="11"><path id="" clip-rule="evenodd" transform="matrix(1 0 0 1 0 0)" d="M8.873E-06 841L595.44 841L595.44 841L595.44 -0.6799927L595.44 -0.6799927L8.873E-06 -0.6799927z" /></clipPath><clipPath id="12"><path id="" clip-rule="evenodd" transform="matrix(1 0 0 1 0 0)" d="M8.873E-06 841L595.44 841L595.44 841L595.44 -0.6799927L595.44 -0.6799927L8.873E-06 -0.6799927z" /></clipPath><clipPath id="13"><path id="" clip-rule="evenodd" transform="matrix(1 0 0 1 0 0)" d="M8.873E-06 841L595.44 841L595.44 841L595.44 -0.6799927L595.44 -0.6799927L8.873E-06 -0.6799927z" /></clipPath><clipPath id="14"><path id="" clip-rule="evenodd" transform="matrix(1 0 0 1 0 0)" d="M8.873E-06 841L595.44 841L595.44 841L595.44 -0.6799927L595.44 -0.6799927L8.873E-06 -0.6799927z" /></clipPath><clipPath id="15"><path id="" clip-rule="evenodd" transform="matrix(1 0 0 1 0 0)" d="M8.873E-06 841L595.44 841L595.44 841L595.44 -0.6799927L595.44 -0.6799927L8.873E-06 -0.6799927z" /></clipPath><clipPath id="16"><path id="" clip-rule="evenodd" transform="matrix(1 0 0 1 0 0)" d="M8.873E-06 841L595.44 841L595.44 841L595.44 -0.6799927L595.44 -0.6799927L8.873E-06 -0.6799927z" /></clipPath><clipPath id="17"><path id="" clip-rule="evenodd" transform="matrix(1 0 0 1 0 0)" d="M8.873E-06 841L595.44 841L595.44 841L595.44 -0.6799927L595.44 -0.6799927L8.873E-06 -0.6799927z" /></clipPath><clipPath id="18"><path id="" clip-rule="evenodd" transform="matrix(1 0 0 1 0 0)" d="M49.68 653.06L545.86 653.06L545.86 653.06L545.86 92.34998L545.86 92.34998L49.68 92.34998z" /></clipPath><clipPath id="19"><path id="" clip-rule="evenodd" transform="matrix(1 0 0 1 0 0)" d="M83.784 236.37L536.254 236.37L536.254 236.37L536.254 92.34998L536.254 92.34998L83.784 92.34998z" /></clipPath><clipPath id="20"><path id="" clip-rule="evenodd" transform="matrix(1 0 0 1 0 0)" d="M83.784 236.37L536.254 236.37L536.254 236.37L536.254 92.34998L536.254 92.34998L83.784 92.34998z" /></clipPath><clipPath id="21"><path id="" clip-rule="evenodd" transform="matrix(1 0 0 1 0 0)" d="M59.4 308.37L536.14 308.37L536.14 308.37L536.14 236.37L536.14 236.37L59.4 236.37z" /></clipPath><clipPath id="22"><path id="" clip-rule="evenodd" transform="matrix(1 0 0 1 0 0)" d="M59.4 308.37L536.14 308.37L536.14 308.37L536.14 236.37L536.14 236.37L59.4 236.37z" /></clipPath><clipPath id="23"><path id="" clip-rule="evenodd" transform="matrix(1 0 0 1 0 0)" d="M59.4 308.37L536.14 308.37L536.14 308.37L536.14 236.37L536.14 236.37L59.4 236.37z" /></clipPath><clipPath id="24"><path id="" clip-rule="evenodd" transform="matrix(1 0 0 1 0 0)" d="M83.784 344.85L536.254 344.85L536.254 344.85L536.254 308.85L536.254 308.85L83.784 308.85z" /></clipPath><clipPath id="25"><path id="" clip-rule="evenodd" transform="matrix(1 0 0 1 0 0)" d="M83.784 344.85L536.254 344.85L536.254 344.85L536.254 308.85L536.254 308.85L83.784 308.85z" /></clipPath><clipPath id="26"><path id="" clip-rule="evenodd" transform="matrix(1 0 0 1 0 0)" d="M83.784 344.85L536.254 344.85L536.254 344.85L536.254 308.85L536.254 308.85L83.784 308.85z" /></clipPath><clipPath id="27"><path id="" clip-rule="evenodd" transform="matrix(1 0 0 1 0 0)" d="M83.784 362.85L536.254 362.85L536.254 362.85L536.254 344.85L536.254 344.85L83.784 344.85z" /></clipPath><clipPath id="28"><path id="" clip-rule="evenodd" transform="matrix(1 0 0 1 0 0)" d="M83.784 362.85L536.254 362.85L536.254 362.85L536.254 344.85L536.254 344.85L83.784 344.85z" /></clipPath><clipPath id="29"><path id="" clip-rule="evenodd" transform="matrix(1 0 0 1 0 0)" d="M83.784 635.06L536.254 635.06L536.254 635.06L536.254 362.85L536.254 362.85L83.784 362.85z" /></clipPath><clipPath id="30"><path id="" clip-rule="evenodd" transform="matrix(1 0 0 1 0 0)" d="M83.784 635.06L536.254 635.06L536.254 635.06L536.254 362.85L536.254 362.85L83.784 362.85z" /></clipPath><clipPath id="31"><path id="" clip-rule="evenodd" transform="matrix(1 0 0 1 0 0)" d="M83.784 635.06L536.254 635.06L536.254 635.06L536.254 362.85L536.254 362.85L83.784 362.85z" /></clipPath><clipPath id="32"><path id="" clip-rule="evenodd" transform="matrix(1 0 0 1 0 0)" d="M83.784 635.06L536.254 635.06L536.254 635.06L536.254 362.85L536.254 362.85L83.784 362.85z" /></clipPath><clipPath id="33"><path id="" clip-rule="evenodd" transform="matrix(1 0 0 1 0 0)" d="M83.784 635.06L536.254 635.06L536.254 635.06L536.254 362.85L536.254 362.85L83.784 362.85z" /></clipPath><clipPath id="34"><path id="" clip-rule="evenodd" transform="matrix(1 0 0 1 0 0)" d="M83.784 635.06L536.254 635.06L536.254 635.06L536.254 362.85L536.254 362.85L83.784 362.85z" /></clipPath><clipPath id="35"><path id="" clip-rule="evenodd" transform="matrix(1 0 0 1 0 0)" d="M83.784 635.06L536.254 635.06L536.254 635.06L536.254 362.85L536.254 362.85L83.784 362.85z" /></clipPath><clipPath id="36"><path id="" clip-rule="evenodd" transform="matrix(1 0 0 1 0 0)" d="M83.784 635.06L536.254 635.06L536.254 635.06L536.254 362.85L536.254 362.85L83.784 362.85z" /></clipPath><clipPath id="37"><path id="" clip-rule="evenodd" transform="matrix(1 0 0 1 0 0)" d="M83.784 635.06L536.254 635.06L536.254 635.06L536.254 362.85L536.254 362.85L83.784 362.85z" /></clipPath><clipPath id="38"><path id="" clip-rule="evenodd" transform="matrix(1 0 0 1 0 0)" d="M83.784 635.06L536.254 635.06L536.254 635.06L536.254 362.85L536.254 362.85L83.784 362.85z" /></clipPath><clipPath id="39"><path id="" clip-rule="evenodd" transform="matrix(1 0 0 1 0 0)" d="M83.784 635.06L536.254 635.06L536.254 635.06L536.254 362.85L536.254 362.85L83.784 362.85z" /></clipPath><clipPath id="40"><path id="" clip-rule="evenodd" transform="matrix(1 0 0 1 0 0)" d="M83.784 635.06L536.254 635.06L536.254 635.06L536.254 362.85L536.254 362.85L83.784 362.85z" /></clipPath><clipPath id="41"><path id="" clip-rule="evenodd" transform="matrix(1 0 0 1 0 0)" d="M83.784 635.06L536.254 635.06L536.254 635.06L536.254 362.85L536.254 362.85L83.784 362.85z" /></clipPath><clipPath id="42"><path id="" clip-rule="evenodd" transform="matrix(1 0 0 1 0 0)" d="M83.784 635.06L536.254 635.06L536.254 635.06L536.254 362.85L536.254 362.85L83.784 362.85z" /></clipPath><clipPath id="43"><path id="" clip-rule="evenodd" transform="matrix(1 0 0 1 0 0)" d="M83.784 635.06L536.254 635.06L536.254 635.06L536.254 362.85L536.254 362.85L83.784 362.85z" /></clipPath><clipPath id="44"><path id="" clip-rule="evenodd" transform="matrix(1 0 0 1 0 0)" d="M83.784 635.06L536.254 635.06L536.254 635.06L536.254 362.85L536.254 362.85L83.784 362.85z" /></clipPath><clipPath id="45"><path id="" clip-rule="evenodd" transform="matrix(1 0 0 1 0 0)" d="M83.784 653.06L536.254 653.06L536.254 653.06L536.254 635.06L536.254 635.06L83.784 635.06z" /></clipPath><clipPath id="46"><path id="" clip-rule="evenodd" transform="matrix(1 0 0 1 0 0)" d="M83.784 653.06L536.254 653.06L536.254 653.06L536.254 635.06L536.254 635.06L83.784 635.06z" /></clipPath></defs><g transform="matrix(1.333333 0 0 1.333333 0 0)"><g clip-path="url(#1)"><g clip-path="url(#2)"></g><g clip-path="url(#3)"></g><g clip-path="url(#4)"></g><g clip-path="url(#5)"></g><g clip-path="url(#6)"></g><g clip-path="url(#7)"></g><g clip-path="url(#8)"></g><g clip-path="url(#9)"></g><g clip-path="url(#10)"></g><g clip-path="url(#11)"></g><g clip-path="url(#12)"></g><g clip-path="url(#13)"></g><g clip-path="url(#14)"></g><g clip-path="url(#15)"></g><g clip-path="url(#16)"></g><g clip-path="url(#17)"></g><g clip-path="url(#18)"><g clip-path="url(#19)"><g clip-path="url(#20)"></g></g><g clip-path="url(#21)"><g clip-path="url(#22)"></g><g clip-path="url(#23)"></g></g><g clip-path="url(#24)"><g clip-path="url(#25)"></g><g clip-path="url(#26)"></g></g><path id="17" transform="matrix(1 0 0 -1 0 841)" d="M59.4 532.15L83.784 532.15L83.784 532.15L83.784 532.63L83.784 532.63L59.4 532.63z" stroke="none" fill="#4F81BD" fill-rule="evenodd" /><path id="18" transform="matrix(1 0 0 -1 0 841)" d="M83.784 532.15L84.264 532.15L84.264 532.15L84.264 532.63L84.264 532.63L83.784 532.63z" stroke="none" fill="#4F81BD" fill-rule="evenodd" /><path id="19" transform="matrix(1 0 0 -1 0 841)" d="M84.264 532.15L536.134 532.15L536.134 532.15L536.134 532.63L536.134 532.63L84.264 532.63z" stroke="none" fill="#4F81BD" fill-rule="evenodd" /><g clip-path="url(#27)"><g clip-path="url(#28)"></g></g><g clip-path="url(#29)"><g clip-path="url(#30)"></g><g clip-path="url(#31)"></g><g clip-path="url(#32)"></g><g clip-path="url(#33)"></g><g clip-path="url(#34)"></g><g clip-path="url(#35)"></g><g clip-path="url(#36)"></g><g clip-path="url(#37)"></g><g clip-path="url(#38)"></g><g clip-path="url(#39)"></g><g clip-path="url(#40)"></g><g clip-path="url(#41)"></g><g clip-path="url(#42)"></g><g clip-path="url(#43)"></g><g clip-path="url(#44)"></g></g><g clip-path="url(#45)"><g clip-path="url(#46)"></g></g></g></g></g></svg>