<svg xmlns="http://www.w3.org/2000/svg" xmlns:xlink="http://www.w3.org/1999/xlink" id="body_1" preserveAspectRatio="xMinYMin meet" viewBox="0 0 793 1121"><defs><clipPath id="1"><path id="" clip-rule="evenodd" transform="matrix(1 0 0 1 0 0)" d="M0 841L0 -0.6799927L0 -0.6799927L595.44 -0.6799927L595.44 -0.6799927L595.44 841L595.44 841L0 841z" /></clipPath></defs><g transform="matrix(1.333333 0 0 1.333333 0 0)"><g clip-path="url(#1)"><path id="432" transform="matrix(1 0 0 -1 0 841)" d="M306.05 476.23L505.66 476.23L505.66 476.23L505.66 489.91L505.66 489.91L306.05 489.91z" stroke="none" fill="#D9D9D9" fill-rule="evenodd" /><path id="470" transform="matrix(1 0 0 -1 0 841)" d="M118.46 462.55L265.72 462.55L265.72 462.55L265.72 476.23L265.72 476.23L118.46 476.23z" stroke="none" fill="#D9D9D9" fill-rule="evenodd" /><path id="485" transform="matrix(1 0 0 -1 0 841)" d="M123.74 442.87L502.29 442.87L502.29 442.87L502.29 456.55L502.29 456.55L123.74 456.55z" stroke="none" fill="#D9D9D9" fill-rule="evenodd" /><path id="524" transform="matrix(1 0 0 -1 0 841)" d="M118.46 429.31L505.65 429.31L505.65 429.31L505.65 442.99L505.65 442.99L118.46 442.99z" stroke="none" fill="#D9D9D9" fill-rule="evenodd" /><path id="562" transform="matrix(1 0 0 -1 0 841)" d="M118.46 415.63L497.13 415.63L497.13 415.63L497.13 429.31L497.13 429.31L118.46 429.31z" stroke="none" fill="#D9D9D9" fill-rule="evenodd" /><path id="599" transform="matrix(1 0 0 -1 0 841)" d="M118.46 401.95L150.02 401.95L150.02 401.95L150.02 415.63L150.02 415.63L118.46 415.63z" stroke="none" fill="#D9D9D9" fill-rule="evenodd" /><path id="720" transform="matrix(1 0 0 -1 0 841)" d="M379.75 341.33L505.65 341.33L505.65 341.33L505.65 355.01L505.65 355.01L379.75 355.01z" stroke="none" fill="#D9D9D9" fill-rule="evenodd" /><path id="758" transform="matrix(1 0 0 -1 0 841)" d="M118.46 327.65L234.16 327.65L234.16 327.65L234.16 341.33L234.16 341.33L118.46 341.33z" stroke="none" fill="#D9D9D9" fill-rule="evenodd" /><path id="770" transform="matrix(1 0 0 -1 0 841)" d="M117.14 308.09L500.97 308.09L500.97 308.09L500.97 321.77L500.97 321.77L117.14 321.77z" stroke="none" fill="#D9D9D9" fill-rule="evenodd" /><path id="809" transform="matrix(1 0 0 -1 0 841)" d="M117.14 294.41L148.7 294.41L148.7 294.41L148.7 308.09L148.7 308.09L117.14 308.09z" stroke="none" fill="#D9D9D9" fill-rule="evenodd" /><path id="813" transform="matrix(1 0 0 -1 0 841)" d="M117.14 274.73L385.27 274.73L385.27 274.73L385.27 288.41L385.27 288.41L117.14 288.41z" stroke="none" fill="#D9D9D9" fill-rule="evenodd" /><path id="840" transform="matrix(1 0 0 -1 0 841)" d="M117.14 255.05L505.65 255.05L505.65 255.05L505.65 268.73L505.65 268.73L117.14 268.73z" stroke="none" fill="#D9D9D9" fill-rule="evenodd" /><path id="878" transform="matrix(1 0 0 -1 0 841)" d="M117.14 241.49L306.52 241.49L306.52 241.49L306.52 255.17L306.52 255.17L117.14 255.17z" stroke="none" fill="#D9D9D9" fill-rule="evenodd" /></g></g></svg>