<svg xmlns="http://www.w3.org/2000/svg" xmlns:xlink="http://www.w3.org/1999/xlink" id="body_1" preserveAspectRatio="xMinYMin meet" viewBox="0 0 793 1121"><defs><clipPath id="1"><path id="" clip-rule="evenodd" transform="matrix(1 0 0 1 0 0)" d="M0 841L0 -0.6799927L0 -0.6799927L595.44 -0.6799927L595.44 -0.6799927L595.44 841L595.44 841L0 841z" /></clipPath></defs><g transform="matrix(1.333333 0 0 1.333333 0 0)"><g clip-path="url(#1)"><path id="6" transform="matrix(1 0 0 -1 0 841)" d="M92.184 741.82L505.654 741.82L505.654 741.82L505.654 755.524L505.654 755.524L92.184 755.524z" stroke="none" fill="#D9D9D9" fill-rule="evenodd" /><path id="48" transform="matrix(1 0 0 -1 0 841)" d="M92.184 728.14L505.654 728.14L505.654 728.14L505.654 741.82L505.654 741.82L92.184 741.82z" stroke="none" fill="#D9D9D9" fill-rule="evenodd" /><path id="89" transform="matrix(1 0 0 -1 0 841)" d="M92.184 714.46L186.744 714.46L186.744 714.46L186.744 728.14L186.744 728.14L92.184 728.14z" stroke="none" fill="#D9D9D9" fill-rule="evenodd" /><path id="99" transform="matrix(1 0 0 -1 0 841)" d="M92.184 688.78L505.654 688.78L505.654 688.78L505.654 702.46L505.654 702.46L92.184 702.46z" stroke="none" fill="#D9D9D9" fill-rule="evenodd" /><path id="139" transform="matrix(1 0 0 -1 0 841)" d="M92.184 675.1L249.884 675.1L249.884 675.1L249.884 688.78L249.884 688.78L92.184 688.78z" stroke="none" fill="#D9D9D9" fill-rule="evenodd" /><path id="155" transform="matrix(1 0 0 -1 0 841)" d="M92.184 643.42L505.654 643.42L505.654 643.42L505.654 657.1L505.654 657.1L92.184 657.1z" stroke="none" fill="#D9D9D9" fill-rule="evenodd" /><path id="196" transform="matrix(1 0 0 -1 0 841)" d="M120.38 629.74L236.08 629.74L236.08 629.74L236.08 643.42L236.08 643.42L120.38 643.42z" stroke="none" fill="#D9D9D9" fill-rule="evenodd" /><path id="208" transform="matrix(1 0 0 -1 0 841)" d="M92.184 616.18L486.454 616.18L486.454 616.18L486.454 629.86L486.454 629.86L92.184 629.86z" stroke="none" fill="#D9D9D9" fill-rule="evenodd" /><path id="247" transform="matrix(1 0 0 -1 0 841)" d="M92.184 602.5L505.654 602.5L505.654 602.5L505.654 616.18L505.654 616.18L92.184 616.18z" stroke="none" fill="#D9D9D9" fill-rule="evenodd" /><path id="288" transform="matrix(1 0 0 -1 0 841)" d="M120.38 588.82L193.964 588.82L193.964 588.82L193.964 602.5L193.964 602.5L120.38 602.5z" stroke="none" fill="#D9D9D9" fill-rule="evenodd" /><path id="296" transform="matrix(1 0 0 -1 0 841)" d="M92.184 575.14L486.454 575.14L486.454 575.14L486.454 588.82L486.454 588.82L92.184 588.82z" stroke="none" fill="#D9D9D9" fill-rule="evenodd" /><path id="335" transform="matrix(1 0 0 -1 0 841)" d="M92.184 561.55L349.754 561.55L349.754 561.55L349.754 575.254L349.754 575.254L92.184 575.254z" stroke="none" fill="#D9D9D9" fill-rule="evenodd" /><path id="361" transform="matrix(1 0 0 -1 0 841)" d="M92.184 547.87L160.464 547.87L160.464 547.87L160.464 561.55L160.464 561.55L92.184 561.55z" stroke="none" fill="#D9D9D9" fill-rule="evenodd" /><path id="369" transform="matrix(1 0 0 -1 0 841)" d="M92.184 534.19L244.604 534.19L244.604 534.19L244.604 547.87L244.604 547.87L92.184 547.87z" stroke="none" fill="#D9D9D9" fill-rule="evenodd" /><path id="385" transform="matrix(1 0 0 -1 0 841)" d="M92.184 520.51L465.454 520.51L465.454 520.51L465.454 534.19L465.454 534.19L92.184 534.19z" stroke="none" fill="#D9D9D9" fill-rule="evenodd" /><path id="422" transform="matrix(1 0 0 -1 0 841)" d="M92.184 506.95L425.834 506.95L425.834 506.95L425.834 520.63L425.834 520.63L92.184 520.63z" stroke="none" fill="#D9D9D9" fill-rule="evenodd" /><path id="455" transform="matrix(1 0 0 -1 0 841)" d="M92.184 493.27L428.594 493.27L428.594 493.27L428.594 506.95L428.594 506.95L92.184 506.95z" stroke="none" fill="#D9D9D9" fill-rule="evenodd" /><path id="489" transform="matrix(1 0 0 -1 0 841)" d="M92.184 479.59L281.324 479.59L281.324 479.59L281.324 493.27L281.324 493.27L92.184 493.27z" stroke="none" fill="#D9D9D9" fill-rule="evenodd" /><path id="509" transform="matrix(1 0 0 -1 0 841)" d="M92.184 465.91L439.154 465.91L439.154 465.91L439.154 479.59L439.154 479.59L92.184 479.59z" stroke="none" fill="#D9D9D9" fill-rule="evenodd" /><path id="544" transform="matrix(1 0 0 -1 0 841)" d="M92.184 452.35L505.654 452.35L505.654 452.35L505.654 466.03L505.654 466.03L92.184 466.03z" stroke="none" fill="#D9D9D9" fill-rule="evenodd" /><path id="585" transform="matrix(1 0 0 -1 0 841)" d="M120.38 438.67L299.2 438.67L299.2 438.67L299.2 452.35L299.2 452.35L120.38 452.35z" stroke="none" fill="#D9D9D9" fill-rule="evenodd" /><path id="603" transform="matrix(1 0 0 -1 0 841)" d="M92.184 424.99L252.404 424.99L252.404 424.99L252.404 438.67L252.404 438.67L92.184 438.67z" stroke="none" fill="#D9D9D9" fill-rule="evenodd" /><path id="620" transform="matrix(1 0 0 -1 0 841)" d="M92.184 411.31L407.594 411.31L407.594 411.31L407.594 424.99L407.594 424.99L92.184 424.99z" stroke="none" fill="#D9D9D9" fill-rule="evenodd" /></g></g></svg>