<svg xmlns="http://www.w3.org/2000/svg" xmlns:xlink="http://www.w3.org/1999/xlink" id="body_1" preserveAspectRatio="xMinYMin meet" viewBox="0 0 793 1121"><defs><clipPath id="1"><path id="" clip-rule="evenodd" transform="matrix(1 0 0 1 0 0)" d="M0 841L0 -0.9199829L0 -0.9199829L595.32 -0.9199829L595.32 -0.9199829L595.32 841L595.32 841L0 841z" /></clipPath></defs><g transform="matrix(1.333333 0 0 1.333333 0 0)"><g clip-path="url(#1)"><path id="598" transform="matrix(1 0 0 -1 0 841)" d="M111.26 258.26L500.04 258.26L500.04 258.26L500.04 271.964L500.04 271.964L111.26 271.964z" stroke="none" fill="#D9D9D9" fill-rule="evenodd" /><path id="636" transform="matrix(1 0 0 -1 0 841)" d="M111.26 239.18L205.844 239.18L205.844 239.18L205.844 252.86L205.844 252.86L111.26 252.86z" stroke="none" fill="#D9D9D9" fill-rule="evenodd" /></g></g></svg>