<svg xmlns="http://www.w3.org/2000/svg" xmlns:xlink="http://www.w3.org/1999/xlink" id="body_1" preserveAspectRatio="xMinYMin meet" viewBox="0 0 793 1121"><defs><clipPath id="1"><path id="" clip-rule="evenodd" transform="matrix(1 0 0 1 0 0)" d="M0 841L0 -0.9199829L0 -0.9199829L595.32 -0.9199829L595.32 -0.9199829L595.32 841L595.32 841L0 841z" /></clipPath><clipPath id="2"><path id="" clip-rule="evenodd" transform="matrix(1 0 0 1 0 0)" d="M109.23 166.75L355.64 166.75L355.64 166.75L355.64 148.75L355.64 148.75L109.23 148.75z" /></clipPath><clipPath id="3"><path id="" clip-rule="evenodd" transform="matrix(1 0 0 1 0 0)" d="M109.22 166.74L355.63 166.74L355.63 166.74L355.63 148.74L355.63 148.74L109.22 148.74z" /></clipPath><clipPath id="4"><path id="" clip-rule="evenodd" transform="matrix(1 0 0 1 0 0)" d="M109.22 166.74L355.63 166.74L355.63 166.74L355.63 148.74L355.63 148.74L109.22 148.74z" /></clipPath><clipPath id="5"><path id="" clip-rule="evenodd" transform="matrix(1 0 0 1 0 0)" d="M356.36 166.75L512.88 166.75L512.88 166.75L512.88 148.75L512.88 148.75L356.36 148.75z" /></clipPath><clipPath id="6"><path id="" clip-rule="evenodd" transform="matrix(1 0 0 1 0 0)" d="M356.35 166.74L512.88 166.74L512.88 166.74L512.88 148.74L512.88 148.74L356.35 148.74z" /></clipPath><clipPath id="7"><path id="" clip-rule="evenodd" transform="matrix(1 0 0 1 0 0)" d="M356.35 166.74L512.88 166.74L512.88 166.74L512.88 148.74L512.88 148.74L356.35 148.74z" /></clipPath><clipPath id="8"><path id="" clip-rule="evenodd" transform="matrix(1 0 0 1 0 0)" d="M109.23 183.07L355.64 183.07L355.64 183.07L355.64 167.47L355.64 167.47L109.23 167.47z" /></clipPath><clipPath id="9"><path id="" clip-rule="evenodd" transform="matrix(1 0 0 1 0 0)" d="M109.22 183.06L355.63 183.06L355.63 183.06L355.63 167.46L355.63 167.46L109.22 167.46z" /></clipPath><clipPath id="10"><path id="" clip-rule="evenodd" transform="matrix(1 0 0 1 0 0)" d="M109.22 183.06L355.63 183.06L355.63 183.06L355.63 167.46L355.63 167.46L109.22 167.46z" /></clipPath><clipPath id="11"><path id="" clip-rule="evenodd" transform="matrix(1 0 0 1 0 0)" d="M109.22 183.06L355.63 183.06L355.63 183.06L355.63 167.46L355.63 167.46L109.22 167.46z" /></clipPath><clipPath id="12"><path id="" clip-rule="evenodd" transform="matrix(1 0 0 1 0 0)" d="M109.22 183.06L355.63 183.06L355.63 183.06L355.63 167.46L355.63 167.46L109.22 167.46z" /></clipPath><clipPath id="13"><path id="" clip-rule="evenodd" transform="matrix(1 0 0 1 0 0)" d="M356.36 183.07L512.88 183.07L512.88 183.07L512.88 167.47L512.88 167.47L356.36 167.47z" /></clipPath><clipPath id="14"><path id="" clip-rule="evenodd" transform="matrix(1 0 0 1 0 0)" d="M356.35 183.06L512.88 183.06L512.88 183.06L512.88 167.46L512.88 167.46L356.35 167.46z" /></clipPath><clipPath id="15"><path id="" clip-rule="evenodd" transform="matrix(1 0 0 1 0 0)" d="M356.35 183.06L512.88 183.06L512.88 183.06L512.88 167.46L512.88 167.46L356.35 167.46z" /></clipPath><clipPath id="16"><path id="" clip-rule="evenodd" transform="matrix(1 0 0 1 0 0)" d="M109.23 199.39L355.64 199.39L355.64 199.39L355.64 183.91L355.64 183.91L109.23 183.91z" /></clipPath><clipPath id="17"><path id="" clip-rule="evenodd" transform="matrix(1 0 0 1 0 0)" d="M109.22 199.38L355.63 199.38L355.63 199.38L355.63 183.9L355.63 183.9L109.22 183.9z" /></clipPath><clipPath id="18"><path id="" clip-rule="evenodd" transform="matrix(1 0 0 1 0 0)" d="M109.22 199.38L355.63 199.38L355.63 199.38L355.63 183.9L355.63 183.9L109.22 183.9z" /></clipPath><clipPath id="19"><path id="" clip-rule="evenodd" transform="matrix(1 0 0 1 0 0)" d="M109.22 199.38L355.63 199.38L355.63 199.38L355.63 183.9L355.63 183.9L109.22 183.9z" /></clipPath><clipPath id="20"><path id="" clip-rule="evenodd" transform="matrix(1 0 0 1 0 0)" d="M109.22 199.38L355.63 199.38L355.63 199.38L355.63 183.9L355.63 183.9L109.22 183.9z" /></clipPath><clipPath id="21"><path id="" clip-rule="evenodd" transform="matrix(1 0 0 1 0 0)" d="M109.22 199.38L355.63 199.38L355.63 199.38L355.63 183.9L355.63 183.9L109.22 183.9z" /></clipPath><clipPath id="22"><path id="" clip-rule="evenodd" transform="matrix(1 0 0 1 0 0)" d="M109.22 199.38L355.63 199.38L355.63 199.38L355.63 183.9L355.63 183.9L109.22 183.9z" /></clipPath><clipPath id="23"><path id="" clip-rule="evenodd" transform="matrix(1 0 0 1 0 0)" d="M356.36 199.39L512.88 199.39L512.88 199.39L512.88 183.91L512.88 183.91L356.36 183.91z" /></clipPath><clipPath id="24"><path id="" clip-rule="evenodd" transform="matrix(1 0 0 1 0 0)" d="M356.35 199.38L512.88 199.38L512.88 199.38L512.88 183.9L512.88 183.9L356.35 183.9z" /></clipPath><clipPath id="25"><path id="" clip-rule="evenodd" transform="matrix(1 0 0 1 0 0)" d="M356.35 199.38L512.88 199.38L512.88 199.38L512.88 183.9L512.88 183.9L356.35 183.9z" /></clipPath><clipPath id="26"><path id="" clip-rule="evenodd" transform="matrix(1 0 0 1 0 0)" d="M109.23 215.83L355.64 215.83L355.64 215.83L355.64 200.23L355.64 200.23L109.23 200.23z" /></clipPath><clipPath id="27"><path id="" clip-rule="evenodd" transform="matrix(1 0 0 1 0 0)" d="M109.22 215.82L355.63 215.82L355.63 215.82L355.63 200.22L355.63 200.22L109.22 200.22z" /></clipPath><clipPath id="28"><path id="" clip-rule="evenodd" transform="matrix(1 0 0 1 0 0)" d="M109.22 215.82L355.63 215.82L355.63 215.82L355.63 200.22L355.63 200.22L109.22 200.22z" /></clipPath><clipPath id="29"><path id="" clip-rule="evenodd" transform="matrix(1 0 0 1 0 0)" d="M109.22 215.82L355.63 215.82L355.63 215.82L355.63 200.22L355.63 200.22L109.22 200.22z" /></clipPath><clipPath id="30"><path id="" clip-rule="evenodd" transform="matrix(1 0 0 1 0 0)" d="M109.22 215.82L355.63 215.82L355.63 215.82L355.63 200.22L355.63 200.22L109.22 200.22z" /></clipPath><clipPath id="31"><path id="" clip-rule="evenodd" transform="matrix(1 0 0 1 0 0)" d="M109.22 215.82L355.63 215.82L355.63 215.82L355.63 200.22L355.63 200.22L109.22 200.22z" /></clipPath><clipPath id="32"><path id="" clip-rule="evenodd" transform="matrix(1 0 0 1 0 0)" d="M109.22 215.82L355.63 215.82L355.63 215.82L355.63 200.22L355.63 200.22L109.22 200.22z" /></clipPath><clipPath id="33"><path id="" clip-rule="evenodd" transform="matrix(1 0 0 1 0 0)" d="M356.36 215.83L512.88 215.83L512.88 215.83L512.88 200.23L512.88 200.23L356.36 200.23z" /></clipPath><clipPath id="34"><path id="" clip-rule="evenodd" transform="matrix(1 0 0 1 0 0)" d="M356.35 215.82L512.88 215.82L512.88 215.82L512.88 200.22L512.88 200.22L356.35 200.22z" /></clipPath><clipPath id="35"><path id="" clip-rule="evenodd" transform="matrix(1 0 0 1 0 0)" d="M356.35 215.82L512.88 215.82L512.88 215.82L512.88 200.22L512.88 200.22L356.35 200.22z" /></clipPath><clipPath id="36"><path id="" clip-rule="evenodd" transform="matrix(1 0 0 1 0 0)" d="M109.23 232.15L355.64 232.15L355.64 232.15L355.64 216.55L355.64 216.55L109.23 216.55z" /></clipPath><clipPath id="37"><path id="" clip-rule="evenodd" transform="matrix(1 0 0 1 0 0)" d="M109.22 232.14L355.63 232.14L355.63 232.14L355.63 216.54L355.63 216.54L109.22 216.54z" /></clipPath><clipPath id="38"><path id="" clip-rule="evenodd" transform="matrix(1 0 0 1 0 0)" d="M109.22 232.14L355.63 232.14L355.63 232.14L355.63 216.54L355.63 216.54L109.22 216.54z" /></clipPath><clipPath id="39"><path id="" clip-rule="evenodd" transform="matrix(1 0 0 1 0 0)" d="M109.22 232.14L355.63 232.14L355.63 232.14L355.63 216.54L355.63 216.54L109.22 216.54z" /></clipPath><clipPath id="40"><path id="" clip-rule="evenodd" transform="matrix(1 0 0 1 0 0)" d="M109.22 232.14L355.63 232.14L355.63 232.14L355.63 216.54L355.63 216.54L109.22 216.54z" /></clipPath><clipPath id="41"><path id="" clip-rule="evenodd" transform="matrix(1 0 0 1 0 0)" d="M109.22 232.14L355.63 232.14L355.63 232.14L355.63 216.54L355.63 216.54L109.22 216.54z" /></clipPath><clipPath id="42"><path id="" clip-rule="evenodd" transform="matrix(1 0 0 1 0 0)" d="M109.22 232.14L355.63 232.14L355.63 232.14L355.63 216.54L355.63 216.54L109.22 216.54z" /></clipPath><clipPath id="43"><path id="" clip-rule="evenodd" transform="matrix(1 0 0 1 0 0)" d="M356.36 232.15L512.88 232.15L512.88 232.15L512.88 216.55L512.88 216.55L356.36 216.55z" /></clipPath><clipPath id="44"><path id="" clip-rule="evenodd" transform="matrix(1 0 0 1 0 0)" d="M356.35 232.14L512.88 232.14L512.88 232.14L512.88 216.54L512.88 216.54L356.35 216.54z" /></clipPath><clipPath id="45"><path id="" clip-rule="evenodd" transform="matrix(1 0 0 1 0 0)" d="M356.35 232.14L512.88 232.14L512.88 232.14L512.88 216.54L512.88 216.54L356.35 216.54z" /></clipPath><clipPath id="46"><path id="" clip-rule="evenodd" transform="matrix(1 0 0 1 0 0)" d="M109.23 248.49L355.64 248.49L355.64 248.49L355.64 232.875L355.64 232.875L109.23 232.875z" /></clipPath><clipPath id="47"><path id="" clip-rule="evenodd" transform="matrix(1 0 0 1 0 0)" d="M109.22 248.49L355.63 248.49L355.63 248.49L355.63 232.866L355.63 232.866L109.22 232.866z" /></clipPath><clipPath id="48"><path id="" clip-rule="evenodd" transform="matrix(1 0 0 1 0 0)" d="M109.22 248.49L355.63 248.49L355.63 248.49L355.63 232.866L355.63 232.866L109.22 232.866z" /></clipPath><clipPath id="49"><path id="" clip-rule="evenodd" transform="matrix(1 0 0 1 0 0)" d="M109.22 248.49L355.63 248.49L355.63 248.49L355.63 232.866L355.63 232.866L109.22 232.866z" /></clipPath><clipPath id="50"><path id="" clip-rule="evenodd" transform="matrix(1 0 0 1 0 0)" d="M109.22 248.49L355.63 248.49L355.63 248.49L355.63 232.866L355.63 232.866L109.22 232.866z" /></clipPath><clipPath id="51"><path id="" clip-rule="evenodd" transform="matrix(1 0 0 1 0 0)" d="M109.22 248.49L355.63 248.49L355.63 248.49L355.63 232.866L355.63 232.866L109.22 232.866z" /></clipPath><clipPath id="52"><path id="" clip-rule="evenodd" transform="matrix(1 0 0 1 0 0)" d="M109.22 248.49L355.63 248.49L355.63 248.49L355.63 232.866L355.63 232.866L109.22 232.866z" /></clipPath><clipPath id="53"><path id="" clip-rule="evenodd" transform="matrix(1 0 0 1 0 0)" d="M109.22 248.49L355.63 248.49L355.63 248.49L355.63 232.866L355.63 232.866L109.22 232.866z" /></clipPath><clipPath id="54"><path id="" clip-rule="evenodd" transform="matrix(1 0 0 1 0 0)" d="M356.36 248.49L512.88 248.49L512.88 248.49L512.88 232.875L512.88 232.875L356.36 232.875z" /></clipPath><clipPath id="55"><path id="" clip-rule="evenodd" transform="matrix(1 0 0 1 0 0)" d="M356.35 248.49L512.88 248.49L512.88 248.49L512.88 232.866L512.88 232.866L356.35 232.866z" /></clipPath><clipPath id="56"><path id="" clip-rule="evenodd" transform="matrix(1 0 0 1 0 0)" d="M356.35 248.49L512.88 248.49L512.88 248.49L512.88 232.866L512.88 232.866L356.35 232.866z" /></clipPath><clipPath id="57"><path id="" clip-rule="evenodd" transform="matrix(1 0 0 1 0 0)" d="M109.23 264.81L355.64 264.81L355.64 264.81L355.64 249.21L355.64 249.21L109.23 249.21z" /></clipPath><clipPath id="58"><path id="" clip-rule="evenodd" transform="matrix(1 0 0 1 0 0)" d="M109.22 264.81L355.63 264.81L355.63 264.81L355.63 249.21L355.63 249.21L109.22 249.21z" /></clipPath><clipPath id="59"><path id="" clip-rule="evenodd" transform="matrix(1 0 0 1 0 0)" d="M109.22 264.81L355.63 264.81L355.63 264.81L355.63 249.21L355.63 249.21L109.22 249.21z" /></clipPath><clipPath id="60"><path id="" clip-rule="evenodd" transform="matrix(1 0 0 1 0 0)" d="M109.22 264.81L355.63 264.81L355.63 264.81L355.63 249.21L355.63 249.21L109.22 249.21z" /></clipPath><clipPath id="61"><path id="" clip-rule="evenodd" transform="matrix(1 0 0 1 0 0)" d="M109.22 264.81L355.63 264.81L355.63 264.81L355.63 249.21L355.63 249.21L109.22 249.21z" /></clipPath><clipPath id="62"><path id="" clip-rule="evenodd" transform="matrix(1 0 0 1 0 0)" d="M109.22 264.81L355.63 264.81L355.63 264.81L355.63 249.21L355.63 249.21L109.22 249.21z" /></clipPath><clipPath id="63"><path id="" clip-rule="evenodd" transform="matrix(1 0 0 1 0 0)" d="M356.36 264.81L512.88 264.81L512.88 264.81L512.88 249.21L512.88 249.21L356.36 249.21z" /></clipPath><clipPath id="64"><path id="" clip-rule="evenodd" transform="matrix(1 0 0 1 0 0)" d="M356.35 264.81L512.88 264.81L512.88 264.81L512.88 249.21L512.88 249.21L356.35 249.21z" /></clipPath><clipPath id="65"><path id="" clip-rule="evenodd" transform="matrix(1 0 0 1 0 0)" d="M356.35 264.81L512.88 264.81L512.88 264.81L512.88 249.21L512.88 249.21L356.35 249.21z" /></clipPath></defs><g transform="matrix(1.333333 0 0 1.333333 0 0)"><g clip-path="url(#1)"><g clip-path="url(#2)"><g clip-path="url(#3)"></g><g clip-path="url(#4)"></g></g><g clip-path="url(#5)"><g clip-path="url(#6)"></g><g clip-path="url(#7)"></g></g><path id="117" transform="matrix(1 0 0 -1 0 841)" d="M107.78 692.14L109.22 692.14L109.22 692.14L109.22 693.7L109.22 693.7L107.78 693.7z" stroke="none" fill="#000000" fill-rule="evenodd" /><path id="118" transform="matrix(1 0 0 -1 0 841)" d="M107.78 692.26L109.22 692.26L109.22 692.26L109.22 693.7L109.22 693.7L107.78 693.7z" stroke="none" fill="#000000" fill-rule="evenodd" /><path id="119" transform="matrix(1 0 0 -1 0 841)" d="M109.22 692.26L355.75 692.26L355.75 692.26L355.75 693.7L355.75 693.7L109.22 693.7z" stroke="none" fill="#000000" fill-rule="evenodd" /><path id="120" transform="matrix(1 0 0 -1 0 841)" d="M355.75 692.14L356.47 692.14L356.47 692.14L356.47 692.26L356.47 692.26L355.75 692.26z" stroke="none" fill="#000000" fill-rule="evenodd" /><path id="121" transform="matrix(1 0 0 -1 0 841)" d="M355.75 692.26L357.19 692.26L357.19 692.26L357.19 693.7L357.19 693.7L355.75 693.7z" stroke="none" fill="#000000" fill-rule="evenodd" /><path id="122" transform="matrix(1 0 0 -1 0 841)" d="M357.19 692.26L512.88 692.26L512.88 692.26L512.88 693.7L512.88 693.7L357.19 693.7z" stroke="none" fill="#000000" fill-rule="evenodd" /><path id="123" transform="matrix(1 0 0 -1 0 841)" d="M512.88 692.14L514.32 692.14L514.32 692.14L514.32 693.7L514.32 693.7L512.88 693.7z" stroke="none" fill="#000000" fill-rule="evenodd" /><path id="124" transform="matrix(1 0 0 -1 0 841)" d="M512.88 692.26L514.32 692.26L514.32 692.26L514.32 693.7L514.32 693.7L512.88 693.7z" stroke="none" fill="#000000" fill-rule="evenodd" /><path id="125" transform="matrix(1 0 0 -1 0 841)" d="M107.78 674.26L109.22 674.26L109.22 674.26L109.22 692.14L109.22 692.14L107.78 692.14z" stroke="none" fill="#000000" fill-rule="evenodd" /><path id="126" transform="matrix(1 0 0 -1 0 841)" d="M355.75 674.26L356.47 674.26L356.47 674.26L356.47 692.14L356.47 692.14L355.75 692.14z" stroke="none" fill="#000000" fill-rule="evenodd" /><path id="127" transform="matrix(1 0 0 -1 0 841)" d="M512.88 674.26L514.32 674.26L514.32 674.26L514.32 692.14L514.32 692.14L512.88 692.14z" stroke="none" fill="#000000" fill-rule="evenodd" /><g clip-path="url(#8)"><g clip-path="url(#9)"></g><g clip-path="url(#10)"></g><g clip-path="url(#11)"></g><g clip-path="url(#12)"></g></g><g clip-path="url(#13)"><g clip-path="url(#14)"></g><g clip-path="url(#15)"></g></g><path id="139" transform="matrix(1 0 0 -1 0 841)" d="M107.78 673.54L109.22 673.54L109.22 673.54L109.22 674.2599L109.22 674.2599L107.78 674.2599z" stroke="none" fill="#000000" fill-rule="evenodd" /><path id="140" transform="matrix(1 0 0 -1 0 841)" d="M109.22 673.54L355.75 673.54L355.75 673.54L355.75 674.2599L355.75 674.2599L109.22 674.2599z" stroke="none" fill="#000000" fill-rule="evenodd" /><path id="141" transform="matrix(1 0 0 -1 0 841)" d="M355.75 673.54L356.47 673.54L356.47 673.54L356.47 674.2599L356.47 674.2599L355.75 674.2599z" stroke="none" fill="#000000" fill-rule="evenodd" /><path id="142" transform="matrix(1 0 0 -1 0 841)" d="M356.47 673.54L512.88 673.54L512.88 673.54L512.88 674.2599L512.88 674.2599L356.47 674.2599z" stroke="none" fill="#000000" fill-rule="evenodd" /><path id="143" transform="matrix(1 0 0 -1 0 841)" d="M512.88 673.54L514.32 673.54L514.32 673.54L514.32 674.2599L514.32 674.2599L512.88 674.2599z" stroke="none" fill="#000000" fill-rule="evenodd" /><path id="144" transform="matrix(1 0 0 -1 0 841)" d="M107.78 657.94L109.22 657.94L109.22 657.94L109.22 673.54L109.22 673.54L107.78 673.54z" stroke="none" fill="#000000" fill-rule="evenodd" /><path id="145" transform="matrix(1 0 0 -1 0 841)" d="M355.75 657.94L356.47 657.94L356.47 657.94L356.47 673.54L356.47 673.54L355.75 673.54z" stroke="none" fill="#000000" fill-rule="evenodd" /><path id="146" transform="matrix(1 0 0 -1 0 841)" d="M512.88 657.94L514.32 657.94L514.32 657.94L514.32 673.54L514.32 673.54L512.88 673.54z" stroke="none" fill="#000000" fill-rule="evenodd" /><g clip-path="url(#16)"><g clip-path="url(#17)"></g><g clip-path="url(#18)"></g><g clip-path="url(#19)"></g><g clip-path="url(#20)"></g><g clip-path="url(#21)"></g><g clip-path="url(#22)"></g></g><g clip-path="url(#23)"><g clip-path="url(#24)"></g><g clip-path="url(#25)"></g></g><path id="161" transform="matrix(1 0 0 -1 0 841)" d="M107.78 657.22L109.22 657.22L109.22 657.22L109.22 657.9399L109.22 657.9399L107.78 657.9399z" stroke="none" fill="#000000" fill-rule="evenodd" /><path id="162" transform="matrix(1 0 0 -1 0 841)" d="M109.22 657.22L355.75 657.22L355.75 657.22L355.75 657.9399L355.75 657.9399L109.22 657.9399z" stroke="none" fill="#000000" fill-rule="evenodd" /><path id="163" transform="matrix(1 0 0 -1 0 841)" d="M355.75 657.22L356.47 657.22L356.47 657.22L356.47 657.9399L356.47 657.9399L355.75 657.9399z" stroke="none" fill="#000000" fill-rule="evenodd" /><path id="164" transform="matrix(1 0 0 -1 0 841)" d="M356.47 657.22L512.88 657.22L512.88 657.22L512.88 657.9399L512.88 657.9399L356.47 657.9399z" stroke="none" fill="#000000" fill-rule="evenodd" /><path id="165" transform="matrix(1 0 0 -1 0 841)" d="M512.88 657.22L514.32 657.22L514.32 657.22L514.32 657.9399L514.32 657.9399L512.88 657.9399z" stroke="none" fill="#000000" fill-rule="evenodd" /><path id="166" transform="matrix(1 0 0 -1 0 841)" d="M107.78 641.62L109.22 641.62L109.22 641.62L109.22 657.22L109.22 657.22L107.78 657.22z" stroke="none" fill="#000000" fill-rule="evenodd" /><path id="167" transform="matrix(1 0 0 -1 0 841)" d="M355.75 641.62L356.47 641.62L356.47 641.62L356.47 657.22L356.47 657.22L355.75 657.22z" stroke="none" fill="#000000" fill-rule="evenodd" /><path id="168" transform="matrix(1 0 0 -1 0 841)" d="M512.88 641.62L514.32 641.62L514.32 641.62L514.32 657.22L514.32 657.22L512.88 657.22z" stroke="none" fill="#000000" fill-rule="evenodd" /><g clip-path="url(#26)"><g clip-path="url(#27)"></g><g clip-path="url(#28)"></g><g clip-path="url(#29)"></g><g clip-path="url(#30)"></g><g clip-path="url(#31)"></g><g clip-path="url(#32)"></g></g><g clip-path="url(#33)"><g clip-path="url(#34)"></g><g clip-path="url(#35)"></g></g><path id="183" transform="matrix(1 0 0 -1 0 841)" d="M107.78 640.9L109.22 640.9L109.22 640.9L109.22 641.62L109.22 641.62L107.78 641.62z" stroke="none" fill="#000000" fill-rule="evenodd" /><path id="184" transform="matrix(1 0 0 -1 0 841)" d="M109.22 640.9L355.75 640.9L355.75 640.9L355.75 641.62L355.75 641.62L109.22 641.62z" stroke="none" fill="#000000" fill-rule="evenodd" /><path id="185" transform="matrix(1 0 0 -1 0 841)" d="M355.75 640.9L356.47 640.9L356.47 640.9L356.47 641.62L356.47 641.62L355.75 641.62z" stroke="none" fill="#000000" fill-rule="evenodd" /><path id="186" transform="matrix(1 0 0 -1 0 841)" d="M356.47 640.9L512.88 640.9L512.88 640.9L512.88 641.62L512.88 641.62L356.47 641.62z" stroke="none" fill="#000000" fill-rule="evenodd" /><path id="187" transform="matrix(1 0 0 -1 0 841)" d="M512.88 640.9L514.32 640.9L514.32 640.9L514.32 641.62L514.32 641.62L512.88 641.62z" stroke="none" fill="#000000" fill-rule="evenodd" /><path id="188" transform="matrix(1 0 0 -1 0 841)" d="M107.78 625.18L109.22 625.18L109.22 625.18L109.22 640.9L109.22 640.9L107.78 640.9z" stroke="none" fill="#000000" fill-rule="evenodd" /><path id="189" transform="matrix(1 0 0 -1 0 841)" d="M355.75 625.18L356.47 625.18L356.47 625.18L356.47 640.9L356.47 640.9L355.75 640.9z" stroke="none" fill="#000000" fill-rule="evenodd" /><path id="190" transform="matrix(1 0 0 -1 0 841)" d="M512.88 625.18L514.32 625.18L514.32 625.18L514.32 640.9L514.32 640.9L512.88 640.9z" stroke="none" fill="#000000" fill-rule="evenodd" /><g clip-path="url(#36)"><g clip-path="url(#37)"></g><g clip-path="url(#38)"></g><g clip-path="url(#39)"></g><g clip-path="url(#40)"></g><g clip-path="url(#41)"></g><g clip-path="url(#42)"></g></g><g clip-path="url(#43)"><g clip-path="url(#44)"></g><g clip-path="url(#45)"></g></g><path id="205" transform="matrix(1 0 0 -1 0 841)" d="M107.78 624.46L109.22 624.46L109.22 624.46L109.22 625.18L109.22 625.18L107.78 625.18z" stroke="none" fill="#000000" fill-rule="evenodd" /><path id="206" transform="matrix(1 0 0 -1 0 841)" d="M109.22 624.46L355.75 624.46L355.75 624.46L355.75 625.18L355.75 625.18L109.22 625.18z" stroke="none" fill="#000000" fill-rule="evenodd" /><path id="207" transform="matrix(1 0 0 -1 0 841)" d="M355.75 624.46L356.47 624.46L356.47 624.46L356.47 625.18L356.47 625.18L355.75 625.18z" stroke="none" fill="#000000" fill-rule="evenodd" /><path id="208" transform="matrix(1 0 0 -1 0 841)" d="M356.47 624.46L512.88 624.46L512.88 624.46L512.88 625.18L512.88 625.18L356.47 625.18z" stroke="none" fill="#000000" fill-rule="evenodd" /><path id="209" transform="matrix(1 0 0 -1 0 841)" d="M512.88 624.46L514.32 624.46L514.32 624.46L514.32 625.18L514.32 625.18L512.88 625.18z" stroke="none" fill="#000000" fill-rule="evenodd" /><path id="210" transform="matrix(1 0 0 -1 0 841)" d="M107.78 608.86L109.22 608.86L109.22 608.86L109.22 624.46L109.22 624.46L107.78 624.46z" stroke="none" fill="#000000" fill-rule="evenodd" /><path id="211" transform="matrix(1 0 0 -1 0 841)" d="M355.75 608.86L356.47 608.86L356.47 608.86L356.47 624.46L356.47 624.46L355.75 624.46z" stroke="none" fill="#000000" fill-rule="evenodd" /><path id="212" transform="matrix(1 0 0 -1 0 841)" d="M512.88 608.86L514.32 608.86L514.32 608.86L514.32 624.46L514.32 624.46L512.88 624.46z" stroke="none" fill="#000000" fill-rule="evenodd" /><g clip-path="url(#46)"><g clip-path="url(#47)"></g><g clip-path="url(#48)"></g><g clip-path="url(#49)"></g><g clip-path="url(#50)"></g><g clip-path="url(#51)"></g><g clip-path="url(#52)"></g><g clip-path="url(#53)"></g></g><g clip-path="url(#54)"><g clip-path="url(#55)"></g><g clip-path="url(#56)"></g></g><path id="227" transform="matrix(1 0 0 -1 0 841)" d="M107.78 608.14L109.22 608.14L109.22 608.14L109.22 608.86L109.22 608.86L107.78 608.86z" stroke="none" fill="#000000" fill-rule="evenodd" /><path id="228" transform="matrix(1 0 0 -1 0 841)" d="M109.22 608.14L355.75 608.14L355.75 608.14L355.75 608.86L355.75 608.86L109.22 608.86z" stroke="none" fill="#000000" fill-rule="evenodd" /><path id="229" transform="matrix(1 0 0 -1 0 841)" d="M355.75 608.14L356.47 608.14L356.47 608.14L356.47 608.86L356.47 608.86L355.75 608.86z" stroke="none" fill="#000000" fill-rule="evenodd" /><path id="230" transform="matrix(1 0 0 -1 0 841)" d="M356.47 608.14L512.88 608.14L512.88 608.14L512.88 608.86L512.88 608.86L356.47 608.86z" stroke="none" fill="#000000" fill-rule="evenodd" /><path id="231" transform="matrix(1 0 0 -1 0 841)" d="M512.88 608.14L514.32 608.14L514.32 608.14L514.32 608.86L514.32 608.86L512.88 608.86z" stroke="none" fill="#000000" fill-rule="evenodd" /><path id="232" transform="matrix(1 0 0 -1 0 841)" d="M107.78 592.51L109.22 592.51L109.22 592.51L109.22 608.134L109.22 608.134L107.78 608.134z" stroke="none" fill="#000000" fill-rule="evenodd" /><path id="233" transform="matrix(1 0 0 -1 0 841)" d="M355.75 592.51L356.47 592.51L356.47 592.51L356.47 608.134L356.47 608.134L355.75 608.134z" stroke="none" fill="#000000" fill-rule="evenodd" /><path id="234" transform="matrix(1 0 0 -1 0 841)" d="M512.88 592.51L514.32 592.51L514.32 592.51L514.32 608.134L514.32 608.134L512.88 608.134z" stroke="none" fill="#000000" fill-rule="evenodd" /><g clip-path="url(#57)"><g clip-path="url(#58)"></g><g clip-path="url(#59)"></g><g clip-path="url(#60)"></g><g clip-path="url(#61)"></g><g clip-path="url(#62)"></g></g><g clip-path="url(#63)"><g clip-path="url(#64)"></g><g clip-path="url(#65)"></g></g><path id="243" transform="matrix(1 0 0 -1 0 841)" d="M107.78 591.79L109.22 591.79L109.22 591.79L109.22 592.5099L109.22 592.5099L107.78 592.5099z" stroke="none" fill="#000000" fill-rule="evenodd" /><path id="244" transform="matrix(1 0 0 -1 0 841)" d="M109.22 591.79L355.75 591.79L355.75 591.79L355.75 592.5099L355.75 592.5099L109.22 592.5099z" stroke="none" fill="#000000" fill-rule="evenodd" /><path id="245" transform="matrix(1 0 0 -1 0 841)" d="M355.75 591.79L356.47 591.79L356.47 591.79L356.47 592.5099L356.47 592.5099L355.75 592.5099z" stroke="none" fill="#000000" fill-rule="evenodd" /><path id="246" transform="matrix(1 0 0 -1 0 841)" d="M356.47 591.79L512.88 591.79L512.88 591.79L512.88 592.5099L512.88 592.5099L356.47 592.5099z" stroke="none" fill="#000000" fill-rule="evenodd" /><path id="247" transform="matrix(1 0 0 -1 0 841)" d="M512.88 591.79L514.32 591.79L514.32 591.79L514.32 592.5099L514.32 592.5099L512.88 592.5099z" stroke="none" fill="#000000" fill-rule="evenodd" /><path id="248" transform="matrix(1 0 0 -1 0 841)" d="M107.78 576.07L109.22 576.07L109.22 576.07L109.22 591.79L109.22 591.79L107.78 591.79z" stroke="none" fill="#000000" fill-rule="evenodd" /><path id="249" transform="matrix(1 0 0 -1 0 841)" d="M107.78 574.63L109.22 574.63L109.22 574.63L109.22 576.07L109.22 576.07L107.78 576.07z" stroke="none" fill="#000000" fill-rule="evenodd" /><path id="250" transform="matrix(1 0 0 -1 0 841)" d="M107.78 574.63L109.22 574.63L109.22 574.63L109.22 576.07L109.22 576.07L107.78 576.07z" stroke="none" fill="#000000" fill-rule="evenodd" /><path id="251" transform="matrix(1 0 0 -1 0 841)" d="M109.22 574.63L355.75 574.63L355.75 574.63L355.75 576.07L355.75 576.07L109.22 576.07z" stroke="none" fill="#000000" fill-rule="evenodd" /><path id="252" transform="matrix(1 0 0 -1 0 841)" d="M355.75 576.07L356.47 576.07L356.47 576.07L356.47 591.79L356.47 591.79L355.75 591.79z" stroke="none" fill="#000000" fill-rule="evenodd" /><path id="253" transform="matrix(1 0 0 -1 0 841)" d="M355.75 574.63L357.19 574.63L357.19 574.63L357.19 576.07L357.19 576.07L355.75 576.07z" stroke="none" fill="#000000" fill-rule="evenodd" /><path id="254" transform="matrix(1 0 0 -1 0 841)" d="M357.19 574.63L512.88 574.63L512.88 574.63L512.88 576.07L512.88 576.07L357.19 576.07z" stroke="none" fill="#000000" fill-rule="evenodd" /><path id="255" transform="matrix(1 0 0 -1 0 841)" d="M512.88 576.07L514.32 576.07L514.32 576.07L514.32 591.79L514.32 591.79L512.88 591.79z" stroke="none" fill="#000000" fill-rule="evenodd" /><path id="256" transform="matrix(1 0 0 -1 0 841)" d="M512.88 574.63L514.32 574.63L514.32 574.63L514.32 576.07L514.32 576.07L512.88 576.07z" stroke="none" fill="#000000" fill-rule="evenodd" /><path id="257" transform="matrix(1 0 0 -1 0 841)" d="M512.88 574.63L514.32 574.63L514.32 574.63L514.32 576.07L514.32 576.07L512.88 576.07z" stroke="none" fill="#000000" fill-rule="evenodd" /></g></g></svg>