<svg xmlns="http://www.w3.org/2000/svg" xmlns:xlink="http://www.w3.org/1999/xlink" id="body_1" preserveAspectRatio="xMinYMin meet" viewBox="0 0 793 1121"><defs><clipPath id="1"><path id="" clip-rule="evenodd" transform="matrix(1 0 0 1 0 0)" d="M0 841L0 -0.6799927L0 -0.6799927L595.44 -0.6799927L595.44 -0.6799927L595.44 841L595.44 841L0 841z" /></clipPath></defs><g transform="matrix(1.333333 0 0 1.333333 0 0)"><g clip-path="url(#1)"><path id="6" transform="matrix(1 0 0 -1 0 841)" d="M92.184 756.12L505.654 756.12L505.654 756.12L505.654 769.8L505.654 769.8L92.184 769.8z" stroke="none" fill="#D9D9D9" fill-rule="evenodd" /><path id="47" transform="matrix(1 0 0 -1 0 841)" d="M120.38 742.42L351.79 742.42L351.79 742.42L351.79 756.124L351.79 756.124L120.38 756.124z" stroke="none" fill="#D9D9D9" fill-rule="evenodd" /><path id="70" transform="matrix(1 0 0 -1 0 841)" d="M92.184 728.86L455.014 728.86L455.014 728.86L455.014 742.54L455.014 742.54L92.184 742.54z" stroke="none" fill="#D9D9D9" fill-rule="evenodd" /><path id="106" transform="matrix(1 0 0 -1 0 841)" d="M92.184 715.18L349.754 715.18L349.754 715.18L349.754 728.86L349.754 728.86L92.184 728.86z" stroke="none" fill="#D9D9D9" fill-rule="evenodd" /><path id="132" transform="matrix(1 0 0 -1 0 841)" d="M92.184 701.5L505.654 701.5L505.654 701.5L505.654 715.18L505.654 715.18L92.184 715.18z" stroke="none" fill="#D9D9D9" fill-rule="evenodd" /><path id="173" transform="matrix(1 0 0 -1 0 841)" d="M120.38 687.82L505.65 687.82L505.65 687.82L505.65 701.5L505.65 701.5L120.38 701.5z" stroke="none" fill="#D9D9D9" fill-rule="evenodd" /><path id="211" transform="matrix(1 0 0 -1 0 841)" d="M120.38 674.26L446.35 674.26L446.35 674.26L446.35 687.94L446.35 687.94L120.38 687.94z" stroke="none" fill="#D9D9D9" fill-rule="evenodd" /><path id="243" transform="matrix(1 0 0 -1 0 841)" d="M92.184 660.58L297.164 660.58L297.164 660.58L297.164 674.26L297.164 674.26L92.184 674.26z" stroke="none" fill="#D9D9D9" fill-rule="evenodd" /><path id="688" transform="matrix(1 0 0 -1 0 841)" d="M113.18 317.93L502.29 317.93L502.29 317.93L502.29 333.17L502.29 333.17L113.18 333.17z" stroke="none" fill="#D9D9D9" fill-rule="evenodd" /><path id="726" transform="matrix(1 0 0 -1 0 841)" d="M113.18 302.81L228.88 302.81L228.88 302.81L228.88 318.05L228.88 318.05L113.18 318.05z" stroke="none" fill="#D9D9D9" fill-rule="evenodd" /></g></g></svg>