<svg xmlns="http://www.w3.org/2000/svg" xmlns:xlink="http://www.w3.org/1999/xlink" id="body_1" preserveAspectRatio="xMinYMin meet" viewBox="0 0 793 1121"><defs><clipPath id="1"><path id="" clip-rule="evenodd" transform="matrix(1 0 0 1 0 0)" d="M0 841L0 -0.6799927L0 -0.6799927L595.44 -0.6799927L595.44 -0.6799927L595.44 841L595.44 841L0 841z" /></clipPath></defs><g transform="matrix(1.333333 0 0 1.333333 0 0)"><g clip-path="url(#1)"><path id="6" transform="matrix(1 0 0 -1 0 841)" d="M92.184 756.12L504.214 756.12L504.214 756.12L504.214 769.8L504.214 769.8L92.184 769.8z" stroke="none" fill="#D9D9D9" fill-rule="evenodd" /><path id="47" transform="matrix(1 0 0 -1 0 841)" d="M120.38 742.42L193.964 742.42L193.964 742.42L193.964 756.124L193.964 756.124L120.38 756.124z" stroke="none" fill="#D9D9D9" fill-rule="evenodd" /><path id="55" transform="matrix(1 0 0 -1 0 841)" d="M92.184 728.86L486.454 728.86L486.454 728.86L486.454 742.54L486.454 742.54L92.184 742.54z" stroke="none" fill="#D9D9D9" fill-rule="evenodd" /><path id="94" transform="matrix(1 0 0 -1 0 841)" d="M92.184 715.18L349.754 715.18L349.754 715.18L349.754 728.86L349.754 728.86L92.184 728.86z" stroke="none" fill="#D9D9D9" fill-rule="evenodd" /><path id="120" transform="matrix(1 0 0 -1 0 841)" d="M92.184 701.5L160.464 701.5L160.464 701.5L160.464 715.18L160.464 715.18L92.184 715.18z" stroke="none" fill="#D9D9D9" fill-rule="evenodd" /><path id="128" transform="matrix(1 0 0 -1 0 841)" d="M92.184 687.82L244.604 687.82L244.604 687.82L244.604 701.5L244.604 701.5L92.184 701.5z" stroke="none" fill="#D9D9D9" fill-rule="evenodd" /><path id="144" transform="matrix(1 0 0 -1 0 841)" d="M92.184 674.26L276.164 674.26L276.164 674.26L276.164 687.94L276.164 687.94L92.184 687.94z" stroke="none" fill="#D9D9D9" fill-rule="evenodd" /><path id="163" transform="matrix(1 0 0 -1 0 841)" d="M92.184 660.58L465.454 660.58L465.454 660.58L465.454 674.26L465.454 674.26L92.184 674.26z" stroke="none" fill="#D9D9D9" fill-rule="evenodd" /><path id="200" transform="matrix(1 0 0 -1 0 841)" d="M92.184 646.9L423.314 646.9L423.314 646.9L423.314 660.58L423.314 660.58L92.184 660.58z" stroke="none" fill="#D9D9D9" fill-rule="evenodd" /><path id="233" transform="matrix(1 0 0 -1 0 841)" d="M92.184 633.22L423.314 633.22L423.314 633.22L423.314 646.9L423.314 646.9L92.184 646.9z" stroke="none" fill="#D9D9D9" fill-rule="evenodd" /><path id="266" transform="matrix(1 0 0 -1 0 841)" d="M92.184 619.66L312.884 619.66L312.884 619.66L312.884 633.34L312.884 633.34L92.184 633.34z" stroke="none" fill="#D9D9D9" fill-rule="evenodd" /><path id="289" transform="matrix(1 0 0 -1 0 841)" d="M92.184 605.98L439.154 605.98L439.154 605.98L439.154 619.66L439.154 619.66L92.184 619.66z" stroke="none" fill="#D9D9D9" fill-rule="evenodd" /><path id="324" transform="matrix(1 0 0 -1 0 841)" d="M92.184 592.3L407.594 592.3L407.594 592.3L407.594 605.98L407.594 605.98L92.184 605.98z" stroke="none" fill="#D9D9D9" fill-rule="evenodd" /></g></g></svg>