<svg xmlns="http://www.w3.org/2000/svg" xmlns:xlink="http://www.w3.org/1999/xlink" id="body_1" preserveAspectRatio="xMinYMin meet" viewBox="0 0 793 1121"><defs><clipPath id="1"><path id="" clip-rule="evenodd" transform="matrix(1 0 0 1 0 0)" d="M0 841L0 -0.6799927L0 -0.6799927L595.44 -0.6799927L595.44 -0.6799927L595.44 841L595.44 841L0 841z" /></clipPath><clipPath id="2"><path id="" clip-rule="evenodd" transform="matrix(1 0 0 1 0 0)" d="M8.873E-06 841L595.44 841L595.44 841L595.44 -0.6799927L595.44 -0.6799927L8.873E-06 -0.6799927z" /></clipPath><clipPath id="3"><path id="" clip-rule="evenodd" transform="matrix(1 0 0 1 0 0)" d="M8.873E-06 841L595.44 841L595.44 841L595.44 -0.6799927L595.44 -0.6799927L8.873E-06 -0.6799927z" /></clipPath><clipPath id="4"><path id="" clip-rule="evenodd" transform="matrix(1 0 0 1 0 0)" d="M8.873E-06 841L595.44 841L595.44 841L595.44 -0.6799927L595.44 -0.6799927L8.873E-06 -0.6799927z" /></clipPath><clipPath id="5"><path id="" clip-rule="evenodd" transform="matrix(1 0 0 1 0 0)" d="M8.873E-06 841L595.44 841L595.44 841L595.44 -0.6799927L595.44 -0.6799927L8.873E-06 -0.6799927z" /></clipPath><clipPath id="6"><path id="" clip-rule="evenodd" transform="matrix(1 0 0 1 0 0)" d="M8.873E-06 841L595.44 841L595.44 841L595.44 -0.6799927L595.44 -0.6799927L8.873E-06 -0.6799927z" /></clipPath><clipPath id="7"><path id="" clip-rule="evenodd" transform="matrix(1 0 0 1 0 0)" d="M8.873E-06 841L595.44 841L595.44 841L595.44 -0.6799927L595.44 -0.6799927L8.873E-06 -0.6799927z" /></clipPath><clipPath id="8"><path id="" clip-rule="evenodd" transform="matrix(1 0 0 1 0 0)" d="M8.873E-06 841L595.44 841L595.44 841L595.44 -0.6799927L595.44 -0.6799927L8.873E-06 -0.6799927z" /></clipPath><clipPath id="9"><path id="" clip-rule="evenodd" transform="matrix(1 0 0 1 0 0)" d="M8.873E-06 841L595.44 841L595.44 841L595.44 -0.6799927L595.44 -0.6799927L8.873E-06 -0.6799927z" /></clipPath><clipPath id="10"><path id="" clip-rule="evenodd" transform="matrix(1 0 0 1 0 0)" d="M8.873E-06 841L595.44 841L595.44 841L595.44 -0.6799927L595.44 -0.6799927L8.873E-06 -0.6799927z" /></clipPath><clipPath id="11"><path id="" clip-rule="evenodd" transform="matrix(1 0 0 1 0 0)" d="M8.873E-06 841L595.44 841L595.44 841L595.44 -0.6799927L595.44 -0.6799927L8.873E-06 -0.6799927z" /></clipPath><clipPath id="12"><path id="" clip-rule="evenodd" transform="matrix(1 0 0 1 0 0)" d="M8.873E-06 841L595.44 841L595.44 841L595.44 -0.6799927L595.44 -0.6799927L8.873E-06 -0.6799927z" /></clipPath><clipPath id="13"><path id="" clip-rule="evenodd" transform="matrix(1 0 0 1 0 0)" d="M8.873E-06 841L595.44 841L595.44 841L595.44 -0.6799927L595.44 -0.6799927L8.873E-06 -0.6799927z" /></clipPath><clipPath id="14"><path id="" clip-rule="evenodd" transform="matrix(1 0 0 1 0 0)" d="M8.873E-06 841L595.44 841L595.44 841L595.44 -0.6799927L595.44 -0.6799927L8.873E-06 -0.6799927z" /></clipPath><clipPath id="15"><path id="" clip-rule="evenodd" transform="matrix(1 0 0 1 0 0)" d="M8.873E-06 841L595.44 841L595.44 841L595.44 -0.6799927L595.44 -0.6799927L8.873E-06 -0.6799927z" /></clipPath><clipPath id="16"><path id="" clip-rule="evenodd" transform="matrix(1 0 0 1 0 0)" d="M8.873E-06 841L595.44 841L595.44 841L595.44 -0.6799927L595.44 -0.6799927L8.873E-06 -0.6799927z" /></clipPath><clipPath id="17"><path id="" clip-rule="evenodd" transform="matrix(1 0 0 1 0 0)" d="M8.873E-06 841L595.44 841L595.44 841L595.44 -0.6799927L595.44 -0.6799927L8.873E-06 -0.6799927z" /></clipPath><clipPath id="18"><path id="" clip-rule="evenodd" transform="matrix(1 0 0 1 0 0)" d="M8.873E-06 841L595.44 841L595.44 841L595.44 -0.6799927L595.44 -0.6799927L8.873E-06 -0.6799927z" /></clipPath><clipPath id="19"><path id="" clip-rule="evenodd" transform="matrix(1 0 0 1 0 0)" d="M8.873E-06 841L595.44 841L595.44 841L595.44 -0.6799927L595.44 -0.6799927L8.873E-06 -0.6799927z" /></clipPath><clipPath id="20"><path id="" clip-rule="evenodd" transform="matrix(1 0 0 1 0 0)" d="M8.873E-06 841L595.44 841L595.44 841L595.44 -0.6799927L595.44 -0.6799927L8.873E-06 -0.6799927z" /></clipPath><clipPath id="21"><path id="" clip-rule="evenodd" transform="matrix(1 0 0 1 0 0)" d="M8.873E-06 841L595.44 841L595.44 841L595.44 -0.6799927L595.44 -0.6799927L8.873E-06 -0.6799927z" /></clipPath><clipPath id="22"><path id="" clip-rule="evenodd" transform="matrix(1 0 0 1 0 0)" d="M8.873E-06 841L595.44 841L595.44 841L595.44 -0.6799927L595.44 -0.6799927L8.873E-06 -0.6799927z" /></clipPath><clipPath id="23"><path id="" clip-rule="evenodd" transform="matrix(1 0 0 1 0 0)" d="M8.873E-06 841L595.44 841L595.44 841L595.44 -0.6799927L595.44 -0.6799927L8.873E-06 -0.6799927z" /></clipPath><clipPath id="24"><path id="" clip-rule="evenodd" transform="matrix(1 0 0 1 0 0)" d="M8.873E-06 841L595.44 841L595.44 841L595.44 -0.6799927L595.44 -0.6799927L8.873E-06 -0.6799927z" /></clipPath><clipPath id="25"><path id="" clip-rule="evenodd" transform="matrix(1 0 0 1 0 0)" d="M8.873E-06 841L595.44 841L595.44 841L595.44 -0.6799927L595.44 -0.6799927L8.873E-06 -0.6799927z" /></clipPath><clipPath id="26"><path id="" clip-rule="evenodd" transform="matrix(1 0 0 1 0 0)" d="M8.873E-06 841L595.44 841L595.44 841L595.44 -0.6799927L595.44 -0.6799927L8.873E-06 -0.6799927z" /></clipPath><clipPath id="27"><path id="" clip-rule="evenodd" transform="matrix(1 0 0 1 0 0)" d="M8.873E-06 841L595.44 841L595.44 841L595.44 -0.6799927L595.44 -0.6799927L8.873E-06 -0.6799927z" /></clipPath><clipPath id="28"><path id="" clip-rule="evenodd" transform="matrix(1 0 0 1 0 0)" d="M8.873E-06 841L595.44 841L595.44 841L595.44 -0.6799927L595.44 -0.6799927L8.873E-06 -0.6799927z" /></clipPath><clipPath id="29"><path id="" clip-rule="evenodd" transform="matrix(1 0 0 1 0 0)" d="M8.873E-06 841L595.44 841L595.44 841L595.44 -0.6799927L595.44 -0.6799927L8.873E-06 -0.6799927z" /></clipPath><clipPath id="30"><path id="" clip-rule="evenodd" transform="matrix(1 0 0 1 0 0)" d="M8.873E-06 841L595.44 841L595.44 841L595.44 -0.6799927L595.44 -0.6799927L8.873E-06 -0.6799927z" /></clipPath><clipPath id="31"><path id="" clip-rule="evenodd" transform="matrix(1 0 0 1 0 0)" d="M8.873E-06 841L595.44 841L595.44 841L595.44 -0.6799927L595.44 -0.6799927L8.873E-06 -0.6799927z" /></clipPath><clipPath id="32"><path id="" clip-rule="evenodd" transform="matrix(1 0 0 1 0 0)" d="M8.873E-06 841L595.44 841L595.44 841L595.44 -0.6799927L595.44 -0.6799927L8.873E-06 -0.6799927z" /></clipPath><clipPath id="33"><path id="" clip-rule="evenodd" transform="matrix(1 0 0 1 0 0)" d="M91.344 229.62L451.274 229.62L451.274 229.62L451.274 217.62L451.274 217.62L91.344 217.62z" /></clipPath><clipPath id="34"><path id="" clip-rule="evenodd" transform="matrix(1 0 0 1 0 0)" d="M91.344 229.62L451.274 229.62L451.274 229.62L451.274 217.62L451.274 217.62L91.344 217.62z" /></clipPath><clipPath id="35"><path id="" clip-rule="evenodd" transform="matrix(1 0 0 1 0 0)" d="M91.344 229.62L451.274 229.62L451.274 229.62L451.274 217.62L451.274 217.62L91.344 217.62z" /></clipPath><clipPath id="36"><path id="" clip-rule="evenodd" transform="matrix(1 0 0 1 0 0)" d="M451.75 229.62L504.334 229.62L504.334 229.62L504.334 217.62L504.334 217.62L451.75 217.62z" /></clipPath><clipPath id="37"><path id="" clip-rule="evenodd" transform="matrix(1 0 0 1 0 0)" d="M451.75 229.62L504.334 229.62L504.334 229.62L504.334 217.62L504.334 217.62L451.75 217.62z" /></clipPath><clipPath id="38"><path id="" clip-rule="evenodd" transform="matrix(1 0 0 1 0 0)" d="M451.75 229.62L504.334 229.62L504.334 229.62L504.334 217.62L504.334 217.62L451.75 217.62z" /></clipPath><clipPath id="39"><path id="" clip-rule="evenodd" transform="matrix(1 0 0 1 0 0)" d="M451.75 229.62L504.334 229.62L504.334 229.62L504.334 217.62L504.334 217.62L451.75 217.62z" /></clipPath><clipPath id="40"><path id="" clip-rule="evenodd" transform="matrix(1 0 0 1 0 0)" d="M8.873E-06 841L595.44 841L595.44 841L595.44 -0.6799927L595.44 -0.6799927L8.873E-06 -0.6799927z" /></clipPath><clipPath id="41"><path id="" clip-rule="evenodd" transform="matrix(1 0 0 1 0 0)" d="M8.873E-06 841L595.44 841L595.44 841L595.44 -0.6799927L595.44 -0.6799927L8.873E-06 -0.6799927z" /></clipPath><clipPath id="42"><path id="" clip-rule="evenodd" transform="matrix(1 0 0 1 0 0)" d="M8.873E-06 841L595.44 841L595.44 841L595.44 -0.6799927L595.44 -0.6799927L8.873E-06 -0.6799927z" /></clipPath><clipPath id="43"><path id="" clip-rule="evenodd" transform="matrix(1 0 0 1 0 0)" d="M8.873E-06 841L595.44 841L595.44 841L595.44 -0.6799927L595.44 -0.6799927L8.873E-06 -0.6799927z" /></clipPath><clipPath id="44"><path id="" clip-rule="evenodd" transform="matrix(1 0 0 1 0 0)" d="M8.873E-06 841L595.44 841L595.44 841L595.44 -0.6799927L595.44 -0.6799927L8.873E-06 -0.6799927z" /></clipPath><clipPath id="45"><path id="" clip-rule="evenodd" transform="matrix(1 0 0 1 0 0)" d="M8.873E-06 841L595.44 841L595.44 841L595.44 -0.6799927L595.44 -0.6799927L8.873E-06 -0.6799927z" /></clipPath><clipPath id="46"><path id="" clip-rule="evenodd" transform="matrix(1 0 0 1 0 0)" d="M91.464 291.45L451.274 291.45L451.274 291.45L451.274 267.45L451.274 267.45L91.464 267.45z" /></clipPath><clipPath id="47"><path id="" clip-rule="evenodd" transform="matrix(1 0 0 1 0 0)" d="M91.464 291.45L451.274 291.45L451.274 291.45L451.274 267.45L451.274 267.45L91.464 267.45z" /></clipPath><clipPath id="48"><path id="" clip-rule="evenodd" transform="matrix(1 0 0 1 0 0)" d="M91.464 291.45L451.274 291.45L451.274 291.45L451.274 267.45L451.274 267.45L91.464 267.45z" /></clipPath><clipPath id="49"><path id="" clip-rule="evenodd" transform="matrix(1 0 0 1 0 0)" d="M91.464 291.45L451.274 291.45L451.274 291.45L451.274 267.45L451.274 267.45L91.464 267.45z" /></clipPath><clipPath id="50"><path id="" clip-rule="evenodd" transform="matrix(1 0 0 1 0 0)" d="M91.464 291.45L451.274 291.45L451.274 291.45L451.274 267.45L451.274 267.45L91.464 267.45z" /></clipPath><clipPath id="51"><path id="" clip-rule="evenodd" transform="matrix(1 0 0 1 0 0)" d="M91.464 291.45L451.274 291.45L451.274 291.45L451.274 267.45L451.274 267.45L91.464 267.45z" /></clipPath><clipPath id="52"><path id="" clip-rule="evenodd" transform="matrix(1 0 0 1 0 0)" d="M451.75 291.45L504.094 291.45L504.094 291.45L504.094 267.45L504.094 267.45L451.75 267.45z" /></clipPath><clipPath id="53"><path id="" clip-rule="evenodd" transform="matrix(1 0 0 1 0 0)" d="M451.75 291.45L504.094 291.45L504.094 291.45L504.094 267.45L504.094 267.45L451.75 267.45z" /></clipPath><clipPath id="54"><path id="" clip-rule="evenodd" transform="matrix(1 0 0 1 0 0)" d="M451.75 291.45L504.094 291.45L504.094 291.45L504.094 267.45L504.094 267.45L451.75 267.45z" /></clipPath><clipPath id="55"><path id="" clip-rule="evenodd" transform="matrix(1 0 0 1 0 0)" d="M451.75 291.45L504.094 291.45L504.094 291.45L504.094 267.45L504.094 267.45L451.75 267.45z" /></clipPath><clipPath id="56"><path id="" clip-rule="evenodd" transform="matrix(1 0 0 1 0 0)" d="M91.464 315.93L451.274 315.93L451.274 315.93L451.274 291.93L451.274 291.93L91.464 291.93z" /></clipPath><clipPath id="57"><path id="" clip-rule="evenodd" transform="matrix(1 0 0 1 0 0)" d="M91.464 315.93L451.274 315.93L451.274 315.93L451.274 291.93L451.274 291.93L91.464 291.93z" /></clipPath><clipPath id="58"><path id="" clip-rule="evenodd" transform="matrix(1 0 0 1 0 0)" d="M91.464 315.93L451.274 315.93L451.274 315.93L451.274 291.93L451.274 291.93L91.464 291.93z" /></clipPath><clipPath id="59"><path id="" clip-rule="evenodd" transform="matrix(1 0 0 1 0 0)" d="M91.464 315.93L451.274 315.93L451.274 315.93L451.274 291.93L451.274 291.93L91.464 291.93z" /></clipPath><clipPath id="60"><path id="" clip-rule="evenodd" transform="matrix(1 0 0 1 0 0)" d="M91.464 315.93L451.274 315.93L451.274 315.93L451.274 291.93L451.274 291.93L91.464 291.93z" /></clipPath><clipPath id="61"><path id="" clip-rule="evenodd" transform="matrix(1 0 0 1 0 0)" d="M91.464 315.93L451.274 315.93L451.274 315.93L451.274 291.93L451.274 291.93L91.464 291.93z" /></clipPath><clipPath id="62"><path id="" clip-rule="evenodd" transform="matrix(1 0 0 1 0 0)" d="M451.75 315.93L504.094 315.93L504.094 315.93L504.094 291.93L504.094 291.93L451.75 291.93z" /></clipPath><clipPath id="63"><path id="" clip-rule="evenodd" transform="matrix(1 0 0 1 0 0)" d="M451.75 315.93L504.094 315.93L504.094 315.93L504.094 291.93L504.094 291.93L451.75 291.93z" /></clipPath><clipPath id="64"><path id="" clip-rule="evenodd" transform="matrix(1 0 0 1 0 0)" d="M451.75 315.93L504.094 315.93L504.094 315.93L504.094 291.93L504.094 291.93L451.75 291.93z" /></clipPath><clipPath id="65"><path id="" clip-rule="evenodd" transform="matrix(1 0 0 1 0 0)" d="M451.75 315.93L504.094 315.93L504.094 315.93L504.094 291.93L504.094 291.93L451.75 291.93z" /></clipPath><clipPath id="66"><path id="" clip-rule="evenodd" transform="matrix(1 0 0 1 0 0)" d="M91.464 340.41L451.274 340.41L451.274 340.41L451.274 316.41L451.274 316.41L91.464 316.41z" /></clipPath><clipPath id="67"><path id="" clip-rule="evenodd" transform="matrix(1 0 0 1 0 0)" d="M91.464 340.41L451.274 340.41L451.274 340.41L451.274 316.41L451.274 316.41L91.464 316.41z" /></clipPath><clipPath id="68"><path id="" clip-rule="evenodd" transform="matrix(1 0 0 1 0 0)" d="M91.464 340.41L451.274 340.41L451.274 340.41L451.274 316.41L451.274 316.41L91.464 316.41z" /></clipPath><clipPath id="69"><path id="" clip-rule="evenodd" transform="matrix(1 0 0 1 0 0)" d="M91.464 340.41L451.274 340.41L451.274 340.41L451.274 316.41L451.274 316.41L91.464 316.41z" /></clipPath><clipPath id="70"><path id="" clip-rule="evenodd" transform="matrix(1 0 0 1 0 0)" d="M91.464 340.41L451.274 340.41L451.274 340.41L451.274 316.41L451.274 316.41L91.464 316.41z" /></clipPath><clipPath id="71"><path id="" clip-rule="evenodd" transform="matrix(1 0 0 1 0 0)" d="M91.464 340.41L451.274 340.41L451.274 340.41L451.274 316.41L451.274 316.41L91.464 316.41z" /></clipPath><clipPath id="72"><path id="" clip-rule="evenodd" transform="matrix(1 0 0 1 0 0)" d="M91.464 340.41L451.274 340.41L451.274 340.41L451.274 316.41L451.274 316.41L91.464 316.41z" /></clipPath><clipPath id="73"><path id="" clip-rule="evenodd" transform="matrix(1 0 0 1 0 0)" d="M451.75 340.41L504.094 340.41L504.094 340.41L504.094 316.41L504.094 316.41L451.75 316.41z" /></clipPath><clipPath id="74"><path id="" clip-rule="evenodd" transform="matrix(1 0 0 1 0 0)" d="M451.75 340.41L504.094 340.41L504.094 340.41L504.094 316.41L504.094 316.41L451.75 316.41z" /></clipPath><clipPath id="75"><path id="" clip-rule="evenodd" transform="matrix(1 0 0 1 0 0)" d="M451.75 340.41L504.094 340.41L504.094 340.41L504.094 316.41L504.094 316.41L451.75 316.41z" /></clipPath><clipPath id="76"><path id="" clip-rule="evenodd" transform="matrix(1 0 0 1 0 0)" d="M451.75 340.41L504.094 340.41L504.094 340.41L504.094 316.41L504.094 316.41L451.75 316.41z" /></clipPath><clipPath id="77"><path id="" clip-rule="evenodd" transform="matrix(1 0 0 1 0 0)" d="M91.464 364.89L451.274 364.89L451.274 364.89L451.274 340.89L451.274 340.89L91.464 340.89z" /></clipPath><clipPath id="78"><path id="" clip-rule="evenodd" transform="matrix(1 0 0 1 0 0)" d="M91.464 364.89L451.274 364.89L451.274 364.89L451.274 340.89L451.274 340.89L91.464 340.89z" /></clipPath><clipPath id="79"><path id="" clip-rule="evenodd" transform="matrix(1 0 0 1 0 0)" d="M91.464 364.89L451.274 364.89L451.274 364.89L451.274 340.89L451.274 340.89L91.464 340.89z" /></clipPath><clipPath id="80"><path id="" clip-rule="evenodd" transform="matrix(1 0 0 1 0 0)" d="M91.464 364.89L451.274 364.89L451.274 364.89L451.274 340.89L451.274 340.89L91.464 340.89z" /></clipPath><clipPath id="81"><path id="" clip-rule="evenodd" transform="matrix(1 0 0 1 0 0)" d="M91.464 364.89L451.274 364.89L451.274 364.89L451.274 340.89L451.274 340.89L91.464 340.89z" /></clipPath><clipPath id="82"><path id="" clip-rule="evenodd" transform="matrix(1 0 0 1 0 0)" d="M91.464 364.89L451.274 364.89L451.274 364.89L451.274 340.89L451.274 340.89L91.464 340.89z" /></clipPath><clipPath id="83"><path id="" clip-rule="evenodd" transform="matrix(1 0 0 1 0 0)" d="M451.75 364.89L504.094 364.89L504.094 364.89L504.094 340.89L504.094 340.89L451.75 340.89z" /></clipPath><clipPath id="84"><path id="" clip-rule="evenodd" transform="matrix(1 0 0 1 0 0)" d="M451.75 364.89L504.094 364.89L504.094 364.89L504.094 340.89L504.094 340.89L451.75 340.89z" /></clipPath><clipPath id="85"><path id="" clip-rule="evenodd" transform="matrix(1 0 0 1 0 0)" d="M451.75 364.89L504.094 364.89L504.094 364.89L504.094 340.89L504.094 340.89L451.75 340.89z" /></clipPath><clipPath id="86"><path id="" clip-rule="evenodd" transform="matrix(1 0 0 1 0 0)" d="M451.75 364.89L504.094 364.89L504.094 364.89L504.094 340.89L504.094 340.89L451.75 340.89z" /></clipPath><clipPath id="87"><path id="" clip-rule="evenodd" transform="matrix(1 0 0 1 0 0)" d="M8.873E-06 841L595.44 841L595.44 841L595.44 -0.6799927L595.44 -0.6799927L8.873E-06 -0.6799927z" /></clipPath><clipPath id="88"><path id="" clip-rule="evenodd" transform="matrix(1 0 0 1 0 0)" d="M8.873E-06 841L595.44 841L595.44 841L595.44 -0.6799927L595.44 -0.6799927L8.873E-06 -0.6799927z" /></clipPath><clipPath id="89"><path id="" clip-rule="evenodd" transform="matrix(1 0 0 1 0 0)" d="M8.873E-06 841L595.44 841L595.44 841L595.44 -0.6799927L595.44 -0.6799927L8.873E-06 -0.6799927z" /></clipPath><clipPath id="90"><path id="" clip-rule="evenodd" transform="matrix(1 0 0 1 0 0)" d="M8.873E-06 841L595.44 841L595.44 841L595.44 -0.6799927L595.44 -0.6799927L8.873E-06 -0.6799927z" /></clipPath><clipPath id="91"><path id="" clip-rule="evenodd" transform="matrix(1 0 0 1 0 0)" d="M8.873E-06 841L595.44 841L595.44 841L595.44 -0.6799927L595.44 -0.6799927L8.873E-06 -0.6799927z" /></clipPath><clipPath id="92"><path id="" clip-rule="evenodd" transform="matrix(1 0 0 1 0 0)" d="M8.873E-06 841L595.44 841L595.44 841L595.44 -0.6799927L595.44 -0.6799927L8.873E-06 -0.6799927z" /></clipPath><clipPath id="93"><path id="" clip-rule="evenodd" transform="matrix(1 0 0 1 0 0)" d="M8.873E-06 841L595.44 841L595.44 841L595.44 -0.6799927L595.44 -0.6799927L8.873E-06 -0.6799927z" /></clipPath><clipPath id="94"><path id="" clip-rule="evenodd" transform="matrix(1 0 0 1 0 0)" d="M8.873E-06 841L595.44 841L595.44 841L595.44 -0.6799927L595.44 -0.6799927L8.873E-06 -0.6799927z" /></clipPath><clipPath id="95"><path id="" clip-rule="evenodd" transform="matrix(1 0 0 1 0 0)" d="M8.873E-06 841L595.44 841L595.44 841L595.44 -0.6799927L595.44 -0.6799927L8.873E-06 -0.6799927z" /></clipPath><clipPath id="96"><path id="" clip-rule="evenodd" transform="matrix(1 0 0 1 0 0)" d="M8.873E-06 841L595.44 841L595.44 841L595.44 -0.6799927L595.44 -0.6799927L8.873E-06 -0.6799927z" /></clipPath><clipPath id="97"><path id="" clip-rule="evenodd" transform="matrix(1 0 0 1 0 0)" d="M8.873E-06 841L595.44 841L595.44 841L595.44 -0.6799927L595.44 -0.6799927L8.873E-06 -0.6799927z" /></clipPath><clipPath id="98"><path id="" clip-rule="evenodd" transform="matrix(1 0 0 1 0 0)" d="M8.873E-06 841L595.44 841L595.44 841L595.44 -0.6799927L595.44 -0.6799927L8.873E-06 -0.6799927z" /></clipPath><clipPath id="99"><path id="" clip-rule="evenodd" transform="matrix(1 0 0 1 0 0)" d="M8.873E-06 841L595.44 841L595.44 841L595.44 -0.6799927L595.44 -0.6799927L8.873E-06 -0.6799927z" /></clipPath><clipPath id="100"><path id="" clip-rule="evenodd" transform="matrix(1 0 0 1 0 0)" d="M8.873E-06 841L595.44 841L595.44 841L595.44 -0.6799927L595.44 -0.6799927L8.873E-06 -0.6799927z" /></clipPath><clipPath id="101"><path id="" clip-rule="evenodd" transform="matrix(1 0 0 1 0 0)" d="M8.873E-06 841L595.44 841L595.44 841L595.44 -0.6799927L595.44 -0.6799927L8.873E-06 -0.6799927z" /></clipPath><clipPath id="102"><path id="" clip-rule="evenodd" transform="matrix(1 0 0 1 0 0)" d="M8.873E-06 841L595.44 841L595.44 841L595.44 -0.6799927L595.44 -0.6799927L8.873E-06 -0.6799927z" /></clipPath><clipPath id="103"><path id="" clip-rule="evenodd" transform="matrix(1 0 0 1 0 0)" d="M8.873E-06 841L595.44 841L595.44 841L595.44 -0.6799927L595.44 -0.6799927L8.873E-06 -0.6799927z" /></clipPath><clipPath id="104"><path id="" clip-rule="evenodd" transform="matrix(1 0 0 1 0 0)" d="M8.873E-06 841L595.44 841L595.44 841L595.44 -0.6799927L595.44 -0.6799927L8.873E-06 -0.6799927z" /></clipPath><clipPath id="105"><path id="" clip-rule="evenodd" transform="matrix(1 0 0 1 0 0)" d="M8.873E-06 841L595.44 841L595.44 841L595.44 -0.6799927L595.44 -0.6799927L8.873E-06 -0.6799927z" /></clipPath><clipPath id="106"><path id="" clip-rule="evenodd" transform="matrix(1 0 0 1 0 0)" d="M8.873E-06 841L595.44 841L595.44 841L595.44 -0.6799927L595.44 -0.6799927L8.873E-06 -0.6799927z" /></clipPath><clipPath id="107"><path id="" clip-rule="evenodd" transform="matrix(1 0 0 1 0 0)" d="M8.873E-06 841L595.44 841L595.44 841L595.44 -0.6799927L595.44 -0.6799927L8.873E-06 -0.6799927z" /></clipPath><clipPath id="108"><path id="" clip-rule="evenodd" transform="matrix(1 0 0 1 0 0)" d="M8.873E-06 841L595.44 841L595.44 841L595.44 -0.6799927L595.44 -0.6799927L8.873E-06 -0.6799927z" /></clipPath><clipPath id="109"><path id="" clip-rule="evenodd" transform="matrix(1 0 0 1 0 0)" d="M8.873E-06 841L595.44 841L595.44 841L595.44 -0.6799927L595.44 -0.6799927L8.873E-06 -0.6799927z" /></clipPath><clipPath id="110"><path id="" clip-rule="evenodd" transform="matrix(1 0 0 1 0 0)" d="M8.873E-06 841L595.44 841L595.44 841L595.44 -0.6799927L595.44 -0.6799927L8.873E-06 -0.6799927z" /></clipPath><clipPath id="111"><path id="" clip-rule="evenodd" transform="matrix(1 0 0 1 0 0)" d="M8.873E-06 841L595.44 841L595.44 841L595.44 -0.6799927L595.44 -0.6799927L8.873E-06 -0.6799927z" /></clipPath><clipPath id="112"><path id="" clip-rule="evenodd" transform="matrix(1 0 0 1 0 0)" d="M8.873E-06 841L595.44 841L595.44 841L595.44 -0.6799927L595.44 -0.6799927L8.873E-06 -0.6799927z" /></clipPath><clipPath id="113"><path id="" clip-rule="evenodd" transform="matrix(1 0 0 1 0 0)" d="M8.873E-06 841L595.44 841L595.44 841L595.44 -0.6799927L595.44 -0.6799927L8.873E-06 -0.6799927z" /></clipPath><clipPath id="114"><path id="" clip-rule="evenodd" transform="matrix(1 0 0 1 0 0)" d="M8.873E-06 841L595.44 841L595.44 841L595.44 -0.6799927L595.44 -0.6799927L8.873E-06 -0.6799927z" /></clipPath><clipPath id="115"><path id="" clip-rule="evenodd" transform="matrix(1 0 0 1 0 0)" d="M8.873E-06 841L595.44 841L595.44 841L595.44 -0.6799927L595.44 -0.6799927L8.873E-06 -0.6799927z" /></clipPath><clipPath id="116"><path id="" clip-rule="evenodd" transform="matrix(1 0 0 1 0 0)" d="M8.873E-06 841L595.44 841L595.44 841L595.44 -0.6799927L595.44 -0.6799927L8.873E-06 -0.6799927z" /></clipPath><clipPath id="117"><path id="" clip-rule="evenodd" transform="matrix(1 0 0 1 0 0)" d="M8.873E-06 841L595.44 841L595.44 841L595.44 -0.6799927L595.44 -0.6799927L8.873E-06 -0.6799927z" /></clipPath><clipPath id="118"><path id="" clip-rule="evenodd" transform="matrix(1 0 0 1 0 0)" d="M8.873E-06 841L595.44 841L595.44 841L595.44 -0.6799927L595.44 -0.6799927L8.873E-06 -0.6799927z" /></clipPath><clipPath id="119"><path id="" clip-rule="evenodd" transform="matrix(1 0 0 1 0 0)" d="M8.873E-06 841L595.44 841L595.44 841L595.44 -0.6799927L595.44 -0.6799927L8.873E-06 -0.6799927z" /></clipPath><clipPath id="120"><path id="" clip-rule="evenodd" transform="matrix(1 0 0 1 0 0)" d="M8.873E-06 841L595.44 841L595.44 841L595.44 -0.6799927L595.44 -0.6799927L8.873E-06 -0.6799927z" /></clipPath><clipPath id="121"><path id="" clip-rule="evenodd" transform="matrix(1 0 0 1 0 0)" d="M8.873E-06 841L595.44 841L595.44 841L595.44 -0.6799927L595.44 -0.6799927L8.873E-06 -0.6799927z" /></clipPath><clipPath id="122"><path id="" clip-rule="evenodd" transform="matrix(1 0 0 1 0 0)" d="M8.873E-06 841L595.44 841L595.44 841L595.44 -0.6799927L595.44 -0.6799927L8.873E-06 -0.6799927z" /></clipPath><clipPath id="123"><path id="" clip-rule="evenodd" transform="matrix(1 0 0 1 0 0)" d="M8.873E-06 841L595.44 841L595.44 841L595.44 -0.6799927L595.44 -0.6799927L8.873E-06 -0.6799927z" /></clipPath><clipPath id="124"><path id="" clip-rule="evenodd" transform="matrix(1 0 0 1 0 0)" d="M8.873E-06 841L595.44 841L595.44 841L595.44 -0.6799927L595.44 -0.6799927L8.873E-06 -0.6799927z" /></clipPath><clipPath id="125"><path id="" clip-rule="evenodd" transform="matrix(1 0 0 1 0 0)" d="M8.873E-06 841L595.44 841L595.44 841L595.44 -0.6799927L595.44 -0.6799927L8.873E-06 -0.6799927z" /></clipPath><clipPath id="126"><path id="" clip-rule="evenodd" transform="matrix(1 0 0 1 0 0)" d="M8.873E-06 841L595.44 841L595.44 841L595.44 -0.6799927L595.44 -0.6799927L8.873E-06 -0.6799927z" /></clipPath><clipPath id="127"><path id="" clip-rule="evenodd" transform="matrix(1 0 0 1 0 0)" d="M8.873E-06 841L595.44 841L595.44 841L595.44 -0.6799927L595.44 -0.6799927L8.873E-06 -0.6799927z" /></clipPath><clipPath id="128"><path id="" clip-rule="evenodd" transform="matrix(1 0 0 1 0 0)" d="M8.873E-06 841L595.44 841L595.44 841L595.44 -0.6799927L595.44 -0.6799927L8.873E-06 -0.6799927z" /></clipPath><clipPath id="129"><path id="" clip-rule="evenodd" transform="matrix(1 0 0 1 0 0)" d="M8.873E-06 841L595.44 841L595.44 841L595.44 -0.6799927L595.44 -0.6799927L8.873E-06 -0.6799927z" /></clipPath><clipPath id="130"><path id="" clip-rule="evenodd" transform="matrix(1 0 0 1 0 0)" d="M8.873E-06 841L595.44 841L595.44 841L595.44 -0.6799927L595.44 -0.6799927L8.873E-06 -0.6799927z" /></clipPath><clipPath id="131"><path id="" clip-rule="evenodd" transform="matrix(1 0 0 1 0 0)" d="M8.873E-06 841L595.44 841L595.44 841L595.44 -0.6799927L595.44 -0.6799927L8.873E-06 -0.6799927z" /></clipPath><clipPath id="132"><path id="" clip-rule="evenodd" transform="matrix(1 0 0 1 0 0)" d="M8.873E-06 841L595.44 841L595.44 841L595.44 -0.6799927L595.44 -0.6799927L8.873E-06 -0.6799927z" /></clipPath><clipPath id="133"><path id="" clip-rule="evenodd" transform="matrix(1 0 0 1 0 0)" d="M8.873E-06 841L595.44 841L595.44 841L595.44 -0.6799927L595.44 -0.6799927L8.873E-06 -0.6799927z" /></clipPath><clipPath id="134"><path id="" clip-rule="evenodd" transform="matrix(1 0 0 1 0 0)" d="M8.873E-06 841L595.44 841L595.44 841L595.44 -0.6799927L595.44 -0.6799927L8.873E-06 -0.6799927z" /></clipPath><clipPath id="135"><path id="" clip-rule="evenodd" transform="matrix(1 0 0 1 0 0)" d="M8.873E-06 841L595.44 841L595.44 841L595.44 -0.6799927L595.44 -0.6799927L8.873E-06 -0.6799927z" /></clipPath><clipPath id="136"><path id="" clip-rule="evenodd" transform="matrix(1 0 0 1 0 0)" d="M8.873E-06 841L595.44 841L595.44 841L595.44 -0.6799927L595.44 -0.6799927L8.873E-06 -0.6799927z" /></clipPath><clipPath id="137"><path id="" clip-rule="evenodd" transform="matrix(1 0 0 1 0 0)" d="M8.873E-06 841L595.44 841L595.44 841L595.44 -0.6799927L595.44 -0.6799927L8.873E-06 -0.6799927z" /></clipPath><clipPath id="138"><path id="" clip-rule="evenodd" transform="matrix(1 0 0 1 0 0)" d="M8.873E-06 841L595.44 841L595.44 841L595.44 -0.6799927L595.44 -0.6799927L8.873E-06 -0.6799927z" /></clipPath><clipPath id="139"><path id="" clip-rule="evenodd" transform="matrix(1 0 0 1 0 0)" d="M8.873E-06 841L595.44 841L595.44 841L595.44 -0.6799927L595.44 -0.6799927L8.873E-06 -0.6799927z" /></clipPath><clipPath id="140"><path id="" clip-rule="evenodd" transform="matrix(1 0 0 1 0 0)" d="M8.873E-06 841L595.44 841L595.44 841L595.44 -0.6799927L595.44 -0.6799927L8.873E-06 -0.6799927z" /></clipPath><clipPath id="141"><path id="" clip-rule="evenodd" transform="matrix(1 0 0 1 0 0)" d="M8.873E-06 841L595.44 841L595.44 841L595.44 -0.6799927L595.44 -0.6799927L8.873E-06 -0.6799927z" /></clipPath><clipPath id="142"><path id="" clip-rule="evenodd" transform="matrix(1 0 0 1 0 0)" d="M8.873E-06 841L595.44 841L595.44 841L595.44 -0.6799927L595.44 -0.6799927L8.873E-06 -0.6799927z" /></clipPath><clipPath id="143"><path id="" clip-rule="evenodd" transform="matrix(1 0 0 1 0 0)" d="M8.873E-06 841L595.44 841L595.44 841L595.44 -0.6799927L595.44 -0.6799927L8.873E-06 -0.6799927z" /></clipPath><clipPath id="144"><path id="" clip-rule="evenodd" transform="matrix(1 0 0 1 0 0)" d="M8.873E-06 841L595.44 841L595.44 841L595.44 -0.6799927L595.44 -0.6799927L8.873E-06 -0.6799927z" /></clipPath><clipPath id="145"><path id="" clip-rule="evenodd" transform="matrix(1 0 0 1 0 0)" d="M8.873E-06 841L595.44 841L595.44 841L595.44 -0.6799927L595.44 -0.6799927L8.873E-06 -0.6799927z" /></clipPath><clipPath id="146"><path id="" clip-rule="evenodd" transform="matrix(1 0 0 1 0 0)" d="M8.873E-06 841L595.44 841L595.44 841L595.44 -0.6799927L595.44 -0.6799927L8.873E-06 -0.6799927z" /></clipPath><clipPath id="147"><path id="" clip-rule="evenodd" transform="matrix(1 0 0 1 0 0)" d="M8.873E-06 841L595.44 841L595.44 841L595.44 -0.6799927L595.44 -0.6799927L8.873E-06 -0.6799927z" /></clipPath><clipPath id="148"><path id="" clip-rule="evenodd" transform="matrix(1 0 0 1 0 0)" d="M8.873E-06 841L595.44 841L595.44 841L595.44 -0.6799927L595.44 -0.6799927L8.873E-06 -0.6799927z" /></clipPath><clipPath id="149"><path id="" clip-rule="evenodd" transform="matrix(1 0 0 1 0 0)" d="M8.873E-06 841L595.44 841L595.44 841L595.44 -0.6799927L595.44 -0.6799927L8.873E-06 -0.6799927z" /></clipPath><clipPath id="150"><path id="" clip-rule="evenodd" transform="matrix(1 0 0 1 0 0)" d="M90.744 575.78L451.274 575.78L451.274 575.78L451.274 563.78L451.274 563.78L90.744 563.78z" /></clipPath><clipPath id="151"><path id="" clip-rule="evenodd" transform="matrix(1 0 0 1 0 0)" d="M90.744 575.78L451.274 575.78L451.274 575.78L451.274 563.78L451.274 563.78L90.744 563.78z" /></clipPath><clipPath id="152"><path id="" clip-rule="evenodd" transform="matrix(1 0 0 1 0 0)" d="M90.744 575.78L451.274 575.78L451.274 575.78L451.274 563.78L451.274 563.78L90.744 563.78z" /></clipPath><clipPath id="153"><path id="" clip-rule="evenodd" transform="matrix(1 0 0 1 0 0)" d="M451.75 575.78L504.934 575.78L504.934 575.78L504.934 563.78L504.934 563.78L451.75 563.78z" /></clipPath><clipPath id="154"><path id="" clip-rule="evenodd" transform="matrix(1 0 0 1 0 0)" d="M451.75 575.78L504.934 575.78L504.934 575.78L504.934 563.78L504.934 563.78L451.75 563.78z" /></clipPath><clipPath id="155"><path id="" clip-rule="evenodd" transform="matrix(1 0 0 1 0 0)" d="M451.75 575.78L504.934 575.78L504.934 575.78L504.934 563.78L504.934 563.78L451.75 563.78z" /></clipPath><clipPath id="156"><path id="" clip-rule="evenodd" transform="matrix(1 0 0 1 0 0)" d="M451.75 575.78L504.934 575.78L504.934 575.78L504.934 563.78L504.934 563.78L451.75 563.78z" /></clipPath><clipPath id="157"><path id="" clip-rule="evenodd" transform="matrix(1 0 0 1 0 0)" d="M8.873E-06 841L595.44 841L595.44 841L595.44 -0.6799927L595.44 -0.6799927L8.873E-06 -0.6799927z" /></clipPath><clipPath id="158"><path id="" clip-rule="evenodd" transform="matrix(1 0 0 1 0 0)" d="M8.873E-06 841L595.44 841L595.44 841L595.44 -0.6799927L595.44 -0.6799927L8.873E-06 -0.6799927z" /></clipPath><clipPath id="159"><path id="" clip-rule="evenodd" transform="matrix(1 0 0 1 0 0)" d="M8.873E-06 841L595.44 841L595.44 841L595.44 -0.6799927L595.44 -0.6799927L8.873E-06 -0.6799927z" /></clipPath><clipPath id="160"><path id="" clip-rule="evenodd" transform="matrix(1 0 0 1 0 0)" d="M8.873E-06 841L595.44 841L595.44 841L595.44 -0.6799927L595.44 -0.6799927L8.873E-06 -0.6799927z" /></clipPath><clipPath id="161"><path id="" clip-rule="evenodd" transform="matrix(1 0 0 1 0 0)" d="M8.873E-06 841L595.44 841L595.44 841L595.44 -0.6799927L595.44 -0.6799927L8.873E-06 -0.6799927z" /></clipPath><clipPath id="162"><path id="" clip-rule="evenodd" transform="matrix(1 0 0 1 0 0)" d="M8.873E-06 841L595.44 841L595.44 841L595.44 -0.6799927L595.44 -0.6799927L8.873E-06 -0.6799927z" /></clipPath><clipPath id="163"><path id="" clip-rule="evenodd" transform="matrix(1 0 0 1 0 0)" d="M8.873E-06 841L595.44 841L595.44 841L595.44 -0.6799927L595.44 -0.6799927L8.873E-06 -0.6799927z" /></clipPath><clipPath id="164"><path id="" clip-rule="evenodd" transform="matrix(1 0 0 1 0 0)" d="M8.873E-06 841L595.44 841L595.44 841L595.44 -0.6799927L595.44 -0.6799927L8.873E-06 -0.6799927z" /></clipPath><clipPath id="165"><path id="" clip-rule="evenodd" transform="matrix(1 0 0 1 0 0)" d="M8.873E-06 841L595.44 841L595.44 841L595.44 -0.6799927L595.44 -0.6799927L8.873E-06 -0.6799927z" /></clipPath><clipPath id="166"><path id="" clip-rule="evenodd" transform="matrix(1 0 0 1 0 0)" d="M8.873E-06 841L595.44 841L595.44 841L595.44 -0.6799927L595.44 -0.6799927L8.873E-06 -0.6799927z" /></clipPath><clipPath id="167"><path id="" clip-rule="evenodd" transform="matrix(1 0 0 1 0 0)" d="M8.873E-06 841L595.44 841L595.44 841L595.44 -0.6799927L595.44 -0.6799927L8.873E-06 -0.6799927z" /></clipPath><clipPath id="168"><path id="" clip-rule="evenodd" transform="matrix(1 0 0 1 0 0)" d="M8.873E-06 841L595.44 841L595.44 841L595.44 -0.6799927L595.44 -0.6799927L8.873E-06 -0.6799927z" /></clipPath><clipPath id="169"><path id="" clip-rule="evenodd" transform="matrix(1 0 0 1 0 0)" d="M8.873E-06 841L595.44 841L595.44 841L595.44 -0.6799927L595.44 -0.6799927L8.873E-06 -0.6799927z" /></clipPath><clipPath id="170"><path id="" clip-rule="evenodd" transform="matrix(1 0 0 1 0 0)" d="M8.873E-06 841L595.44 841L595.44 841L595.44 -0.6799927L595.44 -0.6799927L8.873E-06 -0.6799927z" /></clipPath><clipPath id="171"><path id="" clip-rule="evenodd" transform="matrix(1 0 0 1 0 0)" d="M8.873E-06 841L595.44 841L595.44 841L595.44 -0.6799927L595.44 -0.6799927L8.873E-06 -0.6799927z" /></clipPath><clipPath id="172"><path id="" clip-rule="evenodd" transform="matrix(1 0 0 1 0 0)" d="M8.873E-06 841L595.44 841L595.44 841L595.44 -0.6799927L595.44 -0.6799927L8.873E-06 -0.6799927z" /></clipPath><clipPath id="173"><path id="" clip-rule="evenodd" transform="matrix(1 0 0 1 0 0)" d="M8.873E-06 841L595.44 841L595.44 841L595.44 -0.6799927L595.44 -0.6799927L8.873E-06 -0.6799927z" /></clipPath><clipPath id="174"><path id="" clip-rule="evenodd" transform="matrix(1 0 0 1 0 0)" d="M8.873E-06 841L595.44 841L595.44 841L595.44 -0.6799927L595.44 -0.6799927L8.873E-06 -0.6799927z" /></clipPath><clipPath id="175"><path id="" clip-rule="evenodd" transform="matrix(1 0 0 1 0 0)" d="M8.873E-06 841L595.44 841L595.44 841L595.44 -0.6799927L595.44 -0.6799927L8.873E-06 -0.6799927z" /></clipPath><clipPath id="176"><path id="" clip-rule="evenodd" transform="matrix(1 0 0 1 0 0)" d="M90.144 715.48L451.154 715.48L451.154 715.48L451.154 702.856L451.154 702.856L90.144 702.856z" /></clipPath><clipPath id="177"><path id="" clip-rule="evenodd" transform="matrix(1 0 0 1 0 0)" d="M90.144 715.48L451.154 715.48L451.154 715.48L451.154 702.856L451.154 702.856L90.144 702.856z" /></clipPath><clipPath id="178"><path id="" clip-rule="evenodd" transform="matrix(1 0 0 1 0 0)" d="M90.144 715.48L451.154 715.48L451.154 715.48L451.154 702.856L451.154 702.856L90.144 702.856z" /></clipPath><clipPath id="179"><path id="" clip-rule="evenodd" transform="matrix(1 0 0 1 0 0)" d="M451.75 715.48L506.254 715.48L506.254 715.48L506.254 702.856L506.254 702.856L451.75 702.856z" /></clipPath><clipPath id="180"><path id="" clip-rule="evenodd" transform="matrix(1 0 0 1 0 0)" d="M451.75 715.48L506.254 715.48L506.254 715.48L506.254 702.856L506.254 702.856L451.75 702.856z" /></clipPath><clipPath id="181"><path id="" clip-rule="evenodd" transform="matrix(1 0 0 1 0 0)" d="M451.75 715.48L506.254 715.48L506.254 715.48L506.254 702.856L506.254 702.856L451.75 702.856z" /></clipPath><clipPath id="182"><path id="" clip-rule="evenodd" transform="matrix(1 0 0 1 0 0)" d="M451.75 715.48L506.254 715.48L506.254 715.48L506.254 702.856L506.254 702.856L451.75 702.856z" /></clipPath><clipPath id="183"><path id="" clip-rule="evenodd" transform="matrix(1 0 0 1 0 0)" d="M90.144 727.96L451.154 727.96L451.154 727.96L451.154 715.96L451.154 715.96L90.144 715.96z" /></clipPath><clipPath id="184"><path id="" clip-rule="evenodd" transform="matrix(1 0 0 1 0 0)" d="M90.144 727.96L451.154 727.96L451.154 727.96L451.154 715.96L451.154 715.96L90.144 715.96z" /></clipPath><clipPath id="185"><path id="" clip-rule="evenodd" transform="matrix(1 0 0 1 0 0)" d="M90.144 727.96L451.154 727.96L451.154 727.96L451.154 715.96L451.154 715.96L90.144 715.96z" /></clipPath><clipPath id="186"><path id="" clip-rule="evenodd" transform="matrix(1 0 0 1 0 0)" d="M90.144 727.96L451.154 727.96L451.154 727.96L451.154 715.96L451.154 715.96L90.144 715.96z" /></clipPath><clipPath id="187"><path id="" clip-rule="evenodd" transform="matrix(1 0 0 1 0 0)" d="M90.144 727.96L451.154 727.96L451.154 727.96L451.154 715.96L451.154 715.96L90.144 715.96z" /></clipPath><clipPath id="188"><path id="" clip-rule="evenodd" transform="matrix(1 0 0 1 0 0)" d="M451.75 727.96L506.254 727.96L506.254 727.96L506.254 715.96L506.254 715.96L451.75 715.96z" /></clipPath><clipPath id="189"><path id="" clip-rule="evenodd" transform="matrix(1 0 0 1 0 0)" d="M451.75 727.96L506.254 727.96L506.254 727.96L506.254 715.96L506.254 715.96L451.75 715.96z" /></clipPath><clipPath id="190"><path id="" clip-rule="evenodd" transform="matrix(1 0 0 1 0 0)" d="M451.75 727.96L506.254 727.96L506.254 727.96L506.254 715.96L506.254 715.96L451.75 715.96z" /></clipPath><clipPath id="191"><path id="" clip-rule="evenodd" transform="matrix(1 0 0 1 0 0)" d="M451.75 727.96L506.254 727.96L506.254 727.96L506.254 715.96L506.254 715.96L451.75 715.96z" /></clipPath><clipPath id="192"><path id="" clip-rule="evenodd" transform="matrix(1 0 0 1 0 0)" d="M90.144 740.8L451.154 740.8L451.154 740.8L451.154 728.44L451.154 728.44L90.144 728.44z" /></clipPath><clipPath id="193"><path id="" clip-rule="evenodd" transform="matrix(1 0 0 1 0 0)" d="M90.144 740.8L451.154 740.8L451.154 740.8L451.154 728.44L451.154 728.44L90.144 728.44z" /></clipPath><clipPath id="194"><path id="" clip-rule="evenodd" transform="matrix(1 0 0 1 0 0)" d="M90.144 740.8L451.154 740.8L451.154 740.8L451.154 728.44L451.154 728.44L90.144 728.44z" /></clipPath><clipPath id="195"><path id="" clip-rule="evenodd" transform="matrix(1 0 0 1 0 0)" d="M90.144 740.8L451.154 740.8L451.154 740.8L451.154 728.44L451.154 728.44L90.144 728.44z" /></clipPath><clipPath id="196"><path id="" clip-rule="evenodd" transform="matrix(1 0 0 1 0 0)" d="M90.144 740.8L451.154 740.8L451.154 740.8L451.154 728.44L451.154 728.44L90.144 728.44z" /></clipPath><clipPath id="197"><path id="" clip-rule="evenodd" transform="matrix(1 0 0 1 0 0)" d="M451.75 740.8L506.254 740.8L506.254 740.8L506.254 728.44L506.254 728.44L451.75 728.44z" /></clipPath><clipPath id="198"><path id="" clip-rule="evenodd" transform="matrix(1 0 0 1 0 0)" d="M451.75 740.8L506.254 740.8L506.254 740.8L506.254 728.44L506.254 728.44L451.75 728.44z" /></clipPath><clipPath id="199"><path id="" clip-rule="evenodd" transform="matrix(1 0 0 1 0 0)" d="M451.75 740.8L506.254 740.8L506.254 740.8L506.254 728.44L506.254 728.44L451.75 728.44z" /></clipPath><clipPath id="200"><path id="" clip-rule="evenodd" transform="matrix(1 0 0 1 0 0)" d="M451.75 740.8L506.254 740.8L506.254 740.8L506.254 728.44L506.254 728.44L451.75 728.44z" /></clipPath><clipPath id="201"><path id="" clip-rule="evenodd" transform="matrix(1 0 0 1 0 0)" d="M90.144 753.28L451.154 753.28L451.154 753.28L451.154 741.28L451.154 741.28L90.144 741.28z" /></clipPath><clipPath id="202"><path id="" clip-rule="evenodd" transform="matrix(1 0 0 1 0 0)" d="M90.144 753.28L451.154 753.28L451.154 753.28L451.154 741.28L451.154 741.28L90.144 741.28z" /></clipPath><clipPath id="203"><path id="" clip-rule="evenodd" transform="matrix(1 0 0 1 0 0)" d="M90.144 753.28L451.154 753.28L451.154 753.28L451.154 741.28L451.154 741.28L90.144 741.28z" /></clipPath><clipPath id="204"><path id="" clip-rule="evenodd" transform="matrix(1 0 0 1 0 0)" d="M90.144 753.28L451.154 753.28L451.154 753.28L451.154 741.28L451.154 741.28L90.144 741.28z" /></clipPath><clipPath id="205"><path id="" clip-rule="evenodd" transform="matrix(1 0 0 1 0 0)" d="M90.144 753.28L451.154 753.28L451.154 753.28L451.154 741.28L451.154 741.28L90.144 741.28z" /></clipPath><clipPath id="206"><path id="" clip-rule="evenodd" transform="matrix(1 0 0 1 0 0)" d="M451.75 753.28L506.254 753.28L506.254 753.28L506.254 741.28L506.254 741.28L451.75 741.28z" /></clipPath><clipPath id="207"><path id="" clip-rule="evenodd" transform="matrix(1 0 0 1 0 0)" d="M451.75 753.28L506.254 753.28L506.254 753.28L506.254 741.28L506.254 741.28L451.75 741.28z" /></clipPath><clipPath id="208"><path id="" clip-rule="evenodd" transform="matrix(1 0 0 1 0 0)" d="M451.75 753.28L506.254 753.28L506.254 753.28L506.254 741.28L506.254 741.28L451.75 741.28z" /></clipPath><clipPath id="209"><path id="" clip-rule="evenodd" transform="matrix(1 0 0 1 0 0)" d="M451.75 753.28L506.254 753.28L506.254 753.28L506.254 741.28L506.254 741.28L451.75 741.28z" /></clipPath><clipPath id="210"><path id="" clip-rule="evenodd" transform="matrix(1 0 0 1 0 0)" d="M90.144 765.76L451.154 765.76L451.154 765.76L451.154 753.76L451.154 753.76L90.144 753.76z" /></clipPath><clipPath id="211"><path id="" clip-rule="evenodd" transform="matrix(1 0 0 1 0 0)" d="M90.144 765.76L451.154 765.76L451.154 765.76L451.154 753.76L451.154 753.76L90.144 753.76z" /></clipPath><clipPath id="212"><path id="" clip-rule="evenodd" transform="matrix(1 0 0 1 0 0)" d="M90.144 765.76L451.154 765.76L451.154 765.76L451.154 753.76L451.154 753.76L90.144 753.76z" /></clipPath><clipPath id="213"><path id="" clip-rule="evenodd" transform="matrix(1 0 0 1 0 0)" d="M90.144 765.76L451.154 765.76L451.154 765.76L451.154 753.76L451.154 753.76L90.144 753.76z" /></clipPath><clipPath id="214"><path id="" clip-rule="evenodd" transform="matrix(1 0 0 1 0 0)" d="M90.144 765.76L451.154 765.76L451.154 765.76L451.154 753.76L451.154 753.76L90.144 753.76z" /></clipPath><clipPath id="215"><path id="" clip-rule="evenodd" transform="matrix(1 0 0 1 0 0)" d="M451.75 765.76L506.254 765.76L506.254 765.76L506.254 753.76L506.254 753.76L451.75 753.76z" /></clipPath><clipPath id="216"><path id="" clip-rule="evenodd" transform="matrix(1 0 0 1 0 0)" d="M451.75 765.76L506.254 765.76L506.254 765.76L506.254 753.76L506.254 753.76L451.75 753.76z" /></clipPath><clipPath id="217"><path id="" clip-rule="evenodd" transform="matrix(1 0 0 1 0 0)" d="M451.75 765.76L506.254 765.76L506.254 765.76L506.254 753.76L506.254 753.76L451.75 753.76z" /></clipPath><clipPath id="218"><path id="" clip-rule="evenodd" transform="matrix(1 0 0 1 0 0)" d="M451.75 765.76L506.254 765.76L506.254 765.76L506.254 753.76L506.254 753.76L451.75 753.76z" /></clipPath></defs><g transform="matrix(1.333333 0 0 1.333333 0 0)"><g clip-path="url(#1)"><g clip-path="url(#2)"></g><g clip-path="url(#3)"></g><g clip-path="url(#4)"></g><g clip-path="url(#5)"></g><g clip-path="url(#6)"></g><g clip-path="url(#7)"></g><g clip-path="url(#8)"></g><g clip-path="url(#9)"></g><g clip-path="url(#10)"></g><g clip-path="url(#11)"></g><g clip-path="url(#12)"></g><g clip-path="url(#13)"></g><g clip-path="url(#14)"></g><g clip-path="url(#15)"></g><g clip-path="url(#16)"></g><g clip-path="url(#17)"></g><g clip-path="url(#18)"></g><g clip-path="url(#19)"></g><g clip-path="url(#20)"></g><g clip-path="url(#21)"></g><g clip-path="url(#22)"></g><g clip-path="url(#23)"></g><g clip-path="url(#24)"></g><g clip-path="url(#25)"></g><g clip-path="url(#26)"></g><g clip-path="url(#27)"></g><g clip-path="url(#28)"></g><g clip-path="url(#29)"></g><g clip-path="url(#30)"></g><g clip-path="url(#31)"></g><g clip-path="url(#32)"></g><g clip-path="url(#33)"><g clip-path="url(#34)"></g><g clip-path="url(#35)"></g></g><g clip-path="url(#36)"><g clip-path="url(#37)"></g><g clip-path="url(#38)"></g><g clip-path="url(#39)"></g></g><path id="188" transform="matrix(1 0 0 -1 0 841)" d="M90.864 623.38L91.344 623.38L91.344 623.38L91.344 623.86L91.344 623.86L90.864 623.86z" stroke="none" fill="#000000" fill-rule="evenodd" /><path id="189" transform="matrix(1 0 0 -1 0 841)" d="M90.864 623.38L91.344 623.38L91.344 623.38L91.344 623.86L91.344 623.86L90.864 623.86z" stroke="none" fill="#000000" fill-rule="evenodd" /><path id="190" transform="matrix(1 0 0 -1 0 841)" d="M91.344 623.38L451.274 623.38L451.274 623.38L451.274 623.86L451.274 623.86L91.344 623.86z" stroke="none" fill="#000000" fill-rule="evenodd" /><path id="191" transform="matrix(1 0 0 -1 0 841)" d="M451.27 623.38L451.75 623.38L451.75 623.38L451.75 623.86L451.75 623.86L451.27 623.86z" stroke="none" fill="#000000" fill-rule="evenodd" /><path id="192" transform="matrix(1 0 0 -1 0 841)" d="M451.75 623.38L504.334 623.38L504.334 623.38L504.334 623.86L504.334 623.86L451.75 623.86z" stroke="none" fill="#000000" fill-rule="evenodd" /><path id="193" transform="matrix(1 0 0 -1 0 841)" d="M504.34 623.38L504.82 623.38L504.82 623.38L504.82 623.86L504.82 623.86L504.34 623.86z" stroke="none" fill="#000000" fill-rule="evenodd" /><path id="194" transform="matrix(1 0 0 -1 0 841)" d="M504.34 623.38L504.82 623.38L504.82 623.38L504.82 623.86L504.82 623.86L504.34 623.86z" stroke="none" fill="#000000" fill-rule="evenodd" /><path id="195" transform="matrix(1 0 0 -1 0 841)" d="M90.864 611.38L91.344 611.38L91.344 611.38L91.344 623.38L91.344 623.38L90.864 623.38z" stroke="none" fill="#000000" fill-rule="evenodd" /><path id="196" transform="matrix(1 0 0 -1 0 841)" d="M90.864 610.9L91.344 610.9L91.344 610.9L91.344 611.38L91.344 611.38L90.864 611.38z" stroke="none" fill="#000000" fill-rule="evenodd" /><path id="197" transform="matrix(1 0 0 -1 0 841)" d="M90.864 610.9L91.344 610.9L91.344 610.9L91.344 611.38L91.344 611.38L90.864 611.38z" stroke="none" fill="#000000" fill-rule="evenodd" /><path id="198" transform="matrix(1 0 0 -1 0 841)" d="M91.344 610.9L451.274 610.9L451.274 610.9L451.274 611.38L451.274 611.38L91.344 611.38z" stroke="none" fill="#000000" fill-rule="evenodd" /><path id="199" transform="matrix(1 0 0 -1 0 841)" d="M451.27 611.38L451.75 611.38L451.75 611.38L451.75 623.38L451.75 623.38L451.27 623.38z" stroke="none" fill="#000000" fill-rule="evenodd" /><path id="200" transform="matrix(1 0 0 -1 0 841)" d="M451.27 610.9L451.75 610.9L451.75 610.9L451.75 611.38L451.75 611.38L451.27 611.38z" stroke="none" fill="#000000" fill-rule="evenodd" /><path id="201" transform="matrix(1 0 0 -1 0 841)" d="M451.75 610.9L504.334 610.9L504.334 610.9L504.334 611.38L504.334 611.38L451.75 611.38z" stroke="none" fill="#000000" fill-rule="evenodd" /><path id="202" transform="matrix(1 0 0 -1 0 841)" d="M504.34 611.38L504.82 611.38L504.82 611.38L504.82 623.38L504.82 623.38L504.34 623.38z" stroke="none" fill="#000000" fill-rule="evenodd" /><path id="203" transform="matrix(1 0 0 -1 0 841)" d="M504.34 610.9L504.82 610.9L504.82 610.9L504.82 611.38L504.82 611.38L504.34 611.38z" stroke="none" fill="#000000" fill-rule="evenodd" /><path id="204" transform="matrix(1 0 0 -1 0 841)" d="M504.34 610.9L504.82 610.9L504.82 610.9L504.82 611.38L504.82 611.38L504.34 611.38z" stroke="none" fill="#000000" fill-rule="evenodd" /><g clip-path="url(#40)"></g><g clip-path="url(#41)"></g><g clip-path="url(#42)"></g><g clip-path="url(#43)"></g><g clip-path="url(#44)"></g><g clip-path="url(#45)"></g><g clip-path="url(#46)"><g clip-path="url(#47)"></g><g clip-path="url(#48)"></g><g clip-path="url(#49)"></g><g clip-path="url(#50)"></g><g clip-path="url(#51)"></g></g><g clip-path="url(#52)"><g clip-path="url(#53)"></g><g clip-path="url(#54)"></g><g clip-path="url(#55)"></g></g><path id="267" transform="matrix(1 0 0 -1 0 841)" d="M90.984 573.55L91.464 573.55L91.464 573.55L91.464 574.03L91.464 574.03L90.984 574.03z" stroke="none" fill="#000000" fill-rule="evenodd" /><path id="268" transform="matrix(1 0 0 -1 0 841)" d="M90.984 573.55L91.464 573.55L91.464 573.55L91.464 574.03L91.464 574.03L90.984 574.03z" stroke="none" fill="#000000" fill-rule="evenodd" /><path id="269" transform="matrix(1 0 0 -1 0 841)" d="M91.464 573.55L451.274 573.55L451.274 573.55L451.274 574.03L451.274 574.03L91.464 574.03z" stroke="none" fill="#000000" fill-rule="evenodd" /><path id="270" transform="matrix(1 0 0 -1 0 841)" d="M451.27 573.55L451.75 573.55L451.75 573.55L451.75 574.03L451.75 574.03L451.27 574.03z" stroke="none" fill="#000000" fill-rule="evenodd" /><path id="271" transform="matrix(1 0 0 -1 0 841)" d="M451.75 573.55L504.094 573.55L504.094 573.55L504.094 574.03L504.094 574.03L451.75 574.03z" stroke="none" fill="#000000" fill-rule="evenodd" /><path id="272" transform="matrix(1 0 0 -1 0 841)" d="M504.1 573.55L504.58 573.55L504.58 573.55L504.58 574.03L504.58 574.03L504.1 574.03z" stroke="none" fill="#000000" fill-rule="evenodd" /><path id="273" transform="matrix(1 0 0 -1 0 841)" d="M504.1 573.55L504.58 573.55L504.58 573.55L504.58 574.03L504.58 574.03L504.1 574.03z" stroke="none" fill="#000000" fill-rule="evenodd" /><path id="274" transform="matrix(1 0 0 -1 0 841)" d="M90.984 549.55L91.464 549.55L91.464 549.55L91.464 573.55L91.464 573.55L90.984 573.55z" stroke="none" fill="#000000" fill-rule="evenodd" /><path id="275" transform="matrix(1 0 0 -1 0 841)" d="M451.27 549.55L451.75 549.55L451.75 549.55L451.75 573.55L451.75 573.55L451.27 573.55z" stroke="none" fill="#000000" fill-rule="evenodd" /><path id="276" transform="matrix(1 0 0 -1 0 841)" d="M504.1 549.55L504.58 549.55L504.58 549.55L504.58 573.55L504.58 573.55L504.1 573.55z" stroke="none" fill="#000000" fill-rule="evenodd" /><g clip-path="url(#56)"><g clip-path="url(#57)"></g><g clip-path="url(#58)"></g><g clip-path="url(#59)"></g><g clip-path="url(#60)"></g><g clip-path="url(#61)"></g></g><g clip-path="url(#62)"><g clip-path="url(#63)"></g><g clip-path="url(#64)"></g><g clip-path="url(#65)"></g></g><path id="328" transform="matrix(1 0 0 -1 0 841)" d="M90.984 549.07L91.464 549.07L91.464 549.07L91.464 549.55L91.464 549.55L90.984 549.55z" stroke="none" fill="#000000" fill-rule="evenodd" /><path id="329" transform="matrix(1 0 0 -1 0 841)" d="M91.464 549.07L451.274 549.07L451.274 549.07L451.274 549.55L451.274 549.55L91.464 549.55z" stroke="none" fill="#000000" fill-rule="evenodd" /><path id="330" transform="matrix(1 0 0 -1 0 841)" d="M451.27 549.07L451.75 549.07L451.75 549.07L451.75 549.55L451.75 549.55L451.27 549.55z" stroke="none" fill="#000000" fill-rule="evenodd" /><path id="331" transform="matrix(1 0 0 -1 0 841)" d="M451.75 549.07L504.094 549.07L504.094 549.07L504.094 549.55L504.094 549.55L451.75 549.55z" stroke="none" fill="#000000" fill-rule="evenodd" /><path id="332" transform="matrix(1 0 0 -1 0 841)" d="M504.1 549.07L504.58 549.07L504.58 549.07L504.58 549.55L504.58 549.55L504.1 549.55z" stroke="none" fill="#000000" fill-rule="evenodd" /><path id="333" transform="matrix(1 0 0 -1 0 841)" d="M90.984 525.07L91.464 525.07L91.464 525.07L91.464 549.07L91.464 549.07L90.984 549.07z" stroke="none" fill="#000000" fill-rule="evenodd" /><path id="334" transform="matrix(1 0 0 -1 0 841)" d="M451.27 525.07L451.75 525.07L451.75 525.07L451.75 549.07L451.75 549.07L451.27 549.07z" stroke="none" fill="#000000" fill-rule="evenodd" /><path id="335" transform="matrix(1 0 0 -1 0 841)" d="M504.1 525.07L504.58 525.07L504.58 525.07L504.58 549.07L504.58 549.07L504.1 549.07z" stroke="none" fill="#000000" fill-rule="evenodd" /><g clip-path="url(#66)"><g clip-path="url(#67)"></g><g clip-path="url(#68)"></g><g clip-path="url(#69)"></g><g clip-path="url(#70)"></g><g clip-path="url(#71)"></g><g clip-path="url(#72)"></g></g><g clip-path="url(#73)"><g clip-path="url(#74)"></g><g clip-path="url(#75)"></g><g clip-path="url(#76)"></g></g><path id="389" transform="matrix(1 0 0 -1 0 841)" d="M90.984 524.59L91.464 524.59L91.464 524.59L91.464 525.07L91.464 525.07L90.984 525.07z" stroke="none" fill="#000000" fill-rule="evenodd" /><path id="390" transform="matrix(1 0 0 -1 0 841)" d="M91.464 524.59L451.274 524.59L451.274 524.59L451.274 525.07L451.274 525.07L91.464 525.07z" stroke="none" fill="#000000" fill-rule="evenodd" /><path id="391" transform="matrix(1 0 0 -1 0 841)" d="M451.27 524.59L451.75 524.59L451.75 524.59L451.75 525.07L451.75 525.07L451.27 525.07z" stroke="none" fill="#000000" fill-rule="evenodd" /><path id="392" transform="matrix(1 0 0 -1 0 841)" d="M451.75 524.59L504.094 524.59L504.094 524.59L504.094 525.07L504.094 525.07L451.75 525.07z" stroke="none" fill="#000000" fill-rule="evenodd" /><path id="393" transform="matrix(1 0 0 -1 0 841)" d="M504.1 524.59L504.58 524.59L504.58 524.59L504.58 525.07L504.58 525.07L504.1 525.07z" stroke="none" fill="#000000" fill-rule="evenodd" /><path id="394" transform="matrix(1 0 0 -1 0 841)" d="M90.984 500.59L91.464 500.59L91.464 500.59L91.464 524.59L91.464 524.59L90.984 524.59z" stroke="none" fill="#000000" fill-rule="evenodd" /><path id="395" transform="matrix(1 0 0 -1 0 841)" d="M451.27 500.59L451.75 500.59L451.75 500.59L451.75 524.59L451.75 524.59L451.27 524.59z" stroke="none" fill="#000000" fill-rule="evenodd" /><path id="396" transform="matrix(1 0 0 -1 0 841)" d="M504.1 500.59L504.58 500.59L504.58 500.59L504.58 524.59L504.58 524.59L504.1 524.59z" stroke="none" fill="#000000" fill-rule="evenodd" /><g clip-path="url(#77)"><g clip-path="url(#78)"></g><g clip-path="url(#79)"></g><g clip-path="url(#80)"></g><g clip-path="url(#81)"></g><g clip-path="url(#82)"></g></g><g clip-path="url(#83)"><g clip-path="url(#84)"></g><g clip-path="url(#85)"></g><g clip-path="url(#86)"></g></g><path id="451" transform="matrix(1 0 0 -1 0 841)" d="M90.984 500.11L91.464 500.11L91.464 500.11L91.464 500.59L91.464 500.59L90.984 500.59z" stroke="none" fill="#000000" fill-rule="evenodd" /><path id="452" transform="matrix(1 0 0 -1 0 841)" d="M91.464 500.11L451.274 500.11L451.274 500.11L451.274 500.59L451.274 500.59L91.464 500.59z" stroke="none" fill="#000000" fill-rule="evenodd" /><path id="453" transform="matrix(1 0 0 -1 0 841)" d="M451.27 500.11L451.75 500.11L451.75 500.11L451.75 500.59L451.75 500.59L451.27 500.59z" stroke="none" fill="#000000" fill-rule="evenodd" /><path id="454" transform="matrix(1 0 0 -1 0 841)" d="M451.75 500.11L504.094 500.11L504.094 500.11L504.094 500.59L504.094 500.59L451.75 500.59z" stroke="none" fill="#000000" fill-rule="evenodd" /><path id="455" transform="matrix(1 0 0 -1 0 841)" d="M504.1 500.11L504.58 500.11L504.58 500.11L504.58 500.59L504.58 500.59L504.1 500.59z" stroke="none" fill="#000000" fill-rule="evenodd" /><path id="456" transform="matrix(1 0 0 -1 0 841)" d="M90.984 476.11L91.464 476.11L91.464 476.11L91.464 500.11L91.464 500.11L90.984 500.11z" stroke="none" fill="#000000" fill-rule="evenodd" /><path id="457" transform="matrix(1 0 0 -1 0 841)" d="M90.984 475.63L91.464 475.63L91.464 475.63L91.464 476.11L91.464 476.11L90.984 476.11z" stroke="none" fill="#000000" fill-rule="evenodd" /><path id="458" transform="matrix(1 0 0 -1 0 841)" d="M90.984 475.63L91.464 475.63L91.464 475.63L91.464 476.11L91.464 476.11L90.984 476.11z" stroke="none" fill="#000000" fill-rule="evenodd" /><path id="459" transform="matrix(1 0 0 -1 0 841)" d="M91.464 475.63L451.274 475.63L451.274 475.63L451.274 476.11L451.274 476.11L91.464 476.11z" stroke="none" fill="#000000" fill-rule="evenodd" /><path id="460" transform="matrix(1 0 0 -1 0 841)" d="M451.27 476.11L451.75 476.11L451.75 476.11L451.75 500.11L451.75 500.11L451.27 500.11z" stroke="none" fill="#000000" fill-rule="evenodd" /><path id="461" transform="matrix(1 0 0 -1 0 841)" d="M451.27 475.63L451.75 475.63L451.75 475.63L451.75 476.11L451.75 476.11L451.27 476.11z" stroke="none" fill="#000000" fill-rule="evenodd" /><path id="462" transform="matrix(1 0 0 -1 0 841)" d="M451.75 475.63L504.094 475.63L504.094 475.63L504.094 476.11L504.094 476.11L451.75 476.11z" stroke="none" fill="#000000" fill-rule="evenodd" /><path id="463" transform="matrix(1 0 0 -1 0 841)" d="M504.1 476.11L504.58 476.11L504.58 476.11L504.58 500.11L504.58 500.11L504.1 500.11z" stroke="none" fill="#000000" fill-rule="evenodd" /><path id="464" transform="matrix(1 0 0 -1 0 841)" d="M504.1 475.63L504.58 475.63L504.58 475.63L504.58 476.11L504.58 476.11L504.1 476.11z" stroke="none" fill="#000000" fill-rule="evenodd" /><path id="465" transform="matrix(1 0 0 -1 0 841)" d="M504.1 475.63L504.58 475.63L504.58 475.63L504.58 476.11L504.58 476.11L504.1 476.11z" stroke="none" fill="#000000" fill-rule="evenodd" /><g clip-path="url(#87)"></g><g clip-path="url(#88)"></g><g clip-path="url(#89)"></g><g clip-path="url(#90)"></g><g clip-path="url(#91)"></g><g clip-path="url(#92)"></g><g clip-path="url(#93)"></g><g clip-path="url(#94)"></g><g clip-path="url(#95)"></g><g clip-path="url(#96)"></g><g clip-path="url(#97)"></g><g clip-path="url(#98)"></g><g clip-path="url(#99)"></g><g clip-path="url(#100)"></g><g clip-path="url(#101)"></g><g clip-path="url(#102)"></g><g clip-path="url(#103)"></g><g clip-path="url(#104)"></g><g clip-path="url(#105)"></g><g clip-path="url(#106)"></g><g clip-path="url(#107)"></g><g clip-path="url(#108)"></g><g clip-path="url(#109)"></g><g clip-path="url(#110)"></g><g clip-path="url(#111)"></g><g clip-path="url(#112)"></g><g clip-path="url(#113)"></g><g clip-path="url(#114)"></g><g clip-path="url(#115)"></g><g clip-path="url(#116)"></g><g clip-path="url(#117)"></g><g clip-path="url(#118)"></g><g clip-path="url(#119)"></g><g clip-path="url(#120)"></g><g clip-path="url(#121)"></g><g clip-path="url(#122)"></g><g clip-path="url(#123)"></g><g clip-path="url(#124)"></g><g clip-path="url(#125)"></g><g clip-path="url(#126)"></g><g clip-path="url(#127)"></g><g clip-path="url(#128)"></g><g clip-path="url(#129)"></g><g clip-path="url(#130)"></g><g clip-path="url(#131)"></g><g clip-path="url(#132)"></g><g clip-path="url(#133)"></g><g clip-path="url(#134)"></g><g clip-path="url(#135)"></g><g clip-path="url(#136)"></g><g clip-path="url(#137)"></g><g clip-path="url(#138)"></g><g clip-path="url(#139)"></g><g clip-path="url(#140)"></g><g clip-path="url(#141)"></g><g clip-path="url(#142)"></g><g clip-path="url(#143)"></g><g clip-path="url(#144)"></g><g clip-path="url(#145)"></g><g clip-path="url(#146)"></g><g clip-path="url(#147)"></g><g clip-path="url(#148)"></g><g clip-path="url(#149)"></g><g clip-path="url(#150)"><g clip-path="url(#151)"></g><g clip-path="url(#152)"></g></g><g clip-path="url(#153)"><g clip-path="url(#154)"></g><g clip-path="url(#155)"></g><g clip-path="url(#156)"></g></g><path id="849" transform="matrix(1 0 0 -1 0 841)" d="M90.264 277.22L90.744 277.22L90.744 277.22L90.744 277.7L90.744 277.7L90.264 277.7z" stroke="none" fill="#000000" fill-rule="evenodd" /><path id="850" transform="matrix(1 0 0 -1 0 841)" d="M90.264 277.22L90.744 277.22L90.744 277.22L90.744 277.7L90.744 277.7L90.264 277.7z" stroke="none" fill="#000000" fill-rule="evenodd" /><path id="851" transform="matrix(1 0 0 -1 0 841)" d="M90.744 277.22L451.274 277.22L451.274 277.22L451.274 277.7L451.274 277.7L90.744 277.7z" stroke="none" fill="#000000" fill-rule="evenodd" /><path id="852" transform="matrix(1 0 0 -1 0 841)" d="M451.27 277.22L451.75 277.22L451.75 277.22L451.75 277.7L451.75 277.7L451.27 277.7z" stroke="none" fill="#000000" fill-rule="evenodd" /><path id="853" transform="matrix(1 0 0 -1 0 841)" d="M451.75 277.22L504.934 277.22L504.934 277.22L504.934 277.7L504.934 277.7L451.75 277.7z" stroke="none" fill="#000000" fill-rule="evenodd" /><path id="854" transform="matrix(1 0 0 -1 0 841)" d="M504.94 277.22L505.42 277.22L505.42 277.22L505.42 277.7L505.42 277.7L504.94 277.7z" stroke="none" fill="#000000" fill-rule="evenodd" /><path id="855" transform="matrix(1 0 0 -1 0 841)" d="M504.94 277.22L505.42 277.22L505.42 277.22L505.42 277.7L505.42 277.7L504.94 277.7z" stroke="none" fill="#000000" fill-rule="evenodd" /><path id="856" transform="matrix(1 0 0 -1 0 841)" d="M90.264 265.22L90.744 265.22L90.744 265.22L90.744 277.22L90.744 277.22L90.264 277.22z" stroke="none" fill="#000000" fill-rule="evenodd" /><path id="857" transform="matrix(1 0 0 -1 0 841)" d="M90.264 264.74L90.744 264.74L90.744 264.74L90.744 265.22L90.744 265.22L90.264 265.22z" stroke="none" fill="#000000" fill-rule="evenodd" /><path id="858" transform="matrix(1 0 0 -1 0 841)" d="M90.264 264.74L90.744 264.74L90.744 264.74L90.744 265.22L90.744 265.22L90.264 265.22z" stroke="none" fill="#000000" fill-rule="evenodd" /><path id="859" transform="matrix(1 0 0 -1 0 841)" d="M90.744 264.74L451.274 264.74L451.274 264.74L451.274 265.22L451.274 265.22L90.744 265.22z" stroke="none" fill="#000000" fill-rule="evenodd" /><path id="860" transform="matrix(1 0 0 -1 0 841)" d="M451.27 265.22L451.75 265.22L451.75 265.22L451.75 277.22L451.75 277.22L451.27 277.22z" stroke="none" fill="#000000" fill-rule="evenodd" /><path id="861" transform="matrix(1 0 0 -1 0 841)" d="M451.27 264.74L451.75 264.74L451.75 264.74L451.75 265.22L451.75 265.22L451.27 265.22z" stroke="none" fill="#000000" fill-rule="evenodd" /><path id="862" transform="matrix(1 0 0 -1 0 841)" d="M451.75 264.74L504.934 264.74L504.934 264.74L504.934 265.22L504.934 265.22L451.75 265.22z" stroke="none" fill="#000000" fill-rule="evenodd" /><path id="863" transform="matrix(1 0 0 -1 0 841)" d="M504.94 265.22L505.42 265.22L505.42 265.22L505.42 277.22L505.42 277.22L504.94 277.22z" stroke="none" fill="#000000" fill-rule="evenodd" /><path id="864" transform="matrix(1 0 0 -1 0 841)" d="M504.94 264.74L505.42 264.74L505.42 264.74L505.42 265.22L505.42 265.22L504.94 265.22z" stroke="none" fill="#000000" fill-rule="evenodd" /><path id="865" transform="matrix(1 0 0 -1 0 841)" d="M504.94 264.74L505.42 264.74L505.42 264.74L505.42 265.22L505.42 265.22L504.94 265.22z" stroke="none" fill="#000000" fill-rule="evenodd" /><g clip-path="url(#157)"></g><g clip-path="url(#158)"></g><g clip-path="url(#159)"></g><g clip-path="url(#160)"></g><g clip-path="url(#161)"></g><g clip-path="url(#162)"></g><g clip-path="url(#163)"></g><g clip-path="url(#164)"></g><g clip-path="url(#165)"></g><g clip-path="url(#166)"></g><g clip-path="url(#167)"></g><g clip-path="url(#168)"></g><g clip-path="url(#169)"></g><g clip-path="url(#170)"></g><g clip-path="url(#171)"></g><g clip-path="url(#172)"></g><g clip-path="url(#173)"></g><g clip-path="url(#174)"></g><g clip-path="url(#175)"></g><g clip-path="url(#176)"><g clip-path="url(#177)"></g><g clip-path="url(#178)"></g></g><g clip-path="url(#179)"><g clip-path="url(#180)"></g><g clip-path="url(#181)"></g><g clip-path="url(#182)"></g></g><path id="1066" transform="matrix(1 0 0 -1 0 841)" d="M89.664 138.14L90.144 138.14L90.144 138.14L90.144 138.62L90.144 138.62L89.664 138.62z" stroke="none" fill="#000000" fill-rule="evenodd" /><path id="1067" transform="matrix(1 0 0 -1 0 841)" d="M89.664 138.14L90.144 138.14L90.144 138.14L90.144 138.62L90.144 138.62L89.664 138.62z" stroke="none" fill="#000000" fill-rule="evenodd" /><path id="1068" transform="matrix(1 0 0 -1 0 841)" d="M90.144 138.14L451.274 138.14L451.274 138.14L451.274 138.62L451.274 138.62L90.144 138.62z" stroke="none" fill="#000000" fill-rule="evenodd" /><path id="1069" transform="matrix(1 0 0 -1 0 841)" d="M451.27 138.14L451.75 138.14L451.75 138.14L451.75 138.62L451.75 138.62L451.27 138.62z" stroke="none" fill="#000000" fill-rule="evenodd" /><path id="1070" transform="matrix(1 0 0 -1 0 841)" d="M451.75 138.14L506.134 138.14L506.134 138.14L506.134 138.62L506.134 138.62L451.75 138.62z" stroke="none" fill="#000000" fill-rule="evenodd" /><path id="1071" transform="matrix(1 0 0 -1 0 841)" d="M506.14 138.14L506.62 138.14L506.62 138.14L506.62 138.62L506.62 138.62L506.14 138.62z" stroke="none" fill="#000000" fill-rule="evenodd" /><path id="1072" transform="matrix(1 0 0 -1 0 841)" d="M506.14 138.14L506.62 138.14L506.62 138.14L506.62 138.62L506.62 138.62L506.14 138.62z" stroke="none" fill="#000000" fill-rule="evenodd" /><path id="1073" transform="matrix(1 0 0 -1 0 841)" d="M89.664 125.52L90.144 125.52L90.144 125.52L90.144 138.144L90.144 138.144L89.664 138.144z" stroke="none" fill="#000000" fill-rule="evenodd" /><path id="1074" transform="matrix(1 0 0 -1 0 841)" d="M451.27 125.52L451.75 125.52L451.75 125.52L451.75 138.144L451.75 138.144L451.27 138.144z" stroke="none" fill="#000000" fill-rule="evenodd" /><path id="1075" transform="matrix(1 0 0 -1 0 841)" d="M506.14 125.52L506.62 125.52L506.62 125.52L506.62 138.144L506.62 138.144L506.14 138.144z" stroke="none" fill="#000000" fill-rule="evenodd" /><g clip-path="url(#183)"><g clip-path="url(#184)"></g><g clip-path="url(#185)"></g><g clip-path="url(#186)"></g><g clip-path="url(#187)"></g></g><g clip-path="url(#188)"><g clip-path="url(#189)"></g><g clip-path="url(#190)"></g><g clip-path="url(#191)"></g></g><path id="1094" transform="matrix(1 0 0 -1 0 841)" d="M89.664 125.04L90.144 125.04L90.144 125.04L90.144 125.52L90.144 125.52L89.664 125.52z" stroke="none" fill="#000000" fill-rule="evenodd" /><path id="1095" transform="matrix(1 0 0 -1 0 841)" d="M90.144 125.04L451.274 125.04L451.274 125.04L451.274 125.52L451.274 125.52L90.144 125.52z" stroke="none" fill="#000000" fill-rule="evenodd" /><path id="1096" transform="matrix(1 0 0 -1 0 841)" d="M451.27 125.04L451.75 125.04L451.75 125.04L451.75 125.52L451.75 125.52L451.27 125.52z" stroke="none" fill="#000000" fill-rule="evenodd" /><path id="1097" transform="matrix(1 0 0 -1 0 841)" d="M451.75 125.04L506.134 125.04L506.134 125.04L506.134 125.52L506.134 125.52L451.75 125.52z" stroke="none" fill="#000000" fill-rule="evenodd" /><path id="1098" transform="matrix(1 0 0 -1 0 841)" d="M506.14 125.04L506.62 125.04L506.62 125.04L506.62 125.52L506.62 125.52L506.14 125.52z" stroke="none" fill="#000000" fill-rule="evenodd" /><path id="1099" transform="matrix(1 0 0 -1 0 841)" d="M89.664 113.04L90.144 113.04L90.144 113.04L90.144 125.04L90.144 125.04L89.664 125.04z" stroke="none" fill="#000000" fill-rule="evenodd" /><path id="1100" transform="matrix(1 0 0 -1 0 841)" d="M451.27 113.04L451.75 113.04L451.75 113.04L451.75 125.04L451.75 125.04L451.27 125.04z" stroke="none" fill="#000000" fill-rule="evenodd" /><path id="1101" transform="matrix(1 0 0 -1 0 841)" d="M506.14 113.04L506.62 113.04L506.62 113.04L506.62 125.04L506.62 125.04L506.14 125.04z" stroke="none" fill="#000000" fill-rule="evenodd" /><g clip-path="url(#192)"><g clip-path="url(#193)"></g><g clip-path="url(#194)"></g><g clip-path="url(#195)"></g><g clip-path="url(#196)"></g></g><g clip-path="url(#197)"><g clip-path="url(#198)"></g><g clip-path="url(#199)"></g><g clip-path="url(#200)"></g></g><path id="1120" transform="matrix(1 0 0 -1 0 841)" d="M89.664 112.56L90.144 112.56L90.144 112.56L90.144 113.04L90.144 113.04L89.664 113.04z" stroke="none" fill="#000000" fill-rule="evenodd" /><path id="1121" transform="matrix(1 0 0 -1 0 841)" d="M90.144 112.56L451.274 112.56L451.274 112.56L451.274 113.04L451.274 113.04L90.144 113.04z" stroke="none" fill="#000000" fill-rule="evenodd" /><path id="1122" transform="matrix(1 0 0 -1 0 841)" d="M451.27 112.56L451.75 112.56L451.75 112.56L451.75 113.04L451.75 113.04L451.27 113.04z" stroke="none" fill="#000000" fill-rule="evenodd" /><path id="1123" transform="matrix(1 0 0 -1 0 841)" d="M451.75 112.56L506.134 112.56L506.134 112.56L506.134 113.04L506.134 113.04L451.75 113.04z" stroke="none" fill="#000000" fill-rule="evenodd" /><path id="1124" transform="matrix(1 0 0 -1 0 841)" d="M506.14 112.56L506.62 112.56L506.62 112.56L506.62 113.04L506.62 113.04L506.14 113.04z" stroke="none" fill="#000000" fill-rule="evenodd" /><path id="1125" transform="matrix(1 0 0 -1 0 841)" d="M89.664 100.2L90.144 100.2L90.144 100.2L90.144 112.56L90.144 112.56L89.664 112.56z" stroke="none" fill="#000000" fill-rule="evenodd" /><path id="1126" transform="matrix(1 0 0 -1 0 841)" d="M451.27 100.2L451.75 100.2L451.75 100.2L451.75 112.56L451.75 112.56L451.27 112.56z" stroke="none" fill="#000000" fill-rule="evenodd" /><path id="1127" transform="matrix(1 0 0 -1 0 841)" d="M506.14 100.2L506.62 100.2L506.62 100.2L506.62 112.56L506.62 112.56L506.14 112.56z" stroke="none" fill="#000000" fill-rule="evenodd" /><g clip-path="url(#201)"><g clip-path="url(#202)"></g><g clip-path="url(#203)"></g><g clip-path="url(#204)"></g><g clip-path="url(#205)"></g></g><g clip-path="url(#206)"><g clip-path="url(#207)"></g><g clip-path="url(#208)"></g><g clip-path="url(#209)"></g></g><path id="1146" transform="matrix(1 0 0 -1 0 841)" d="M89.664 99.72L90.144 99.72L90.144 99.72L90.144 100.2L90.144 100.2L89.664 100.2z" stroke="none" fill="#000000" fill-rule="evenodd" /><path id="1147" transform="matrix(1 0 0 -1 0 841)" d="M90.144 99.72L451.274 99.72L451.274 99.72L451.274 100.2L451.274 100.2L90.144 100.2z" stroke="none" fill="#000000" fill-rule="evenodd" /><path id="1148" transform="matrix(1 0 0 -1 0 841)" d="M451.27 99.72L451.75 99.72L451.75 99.72L451.75 100.2L451.75 100.2L451.27 100.2z" stroke="none" fill="#000000" fill-rule="evenodd" /><path id="1149" transform="matrix(1 0 0 -1 0 841)" d="M451.75 99.72L506.134 99.72L506.134 99.72L506.134 100.2L506.134 100.2L451.75 100.2z" stroke="none" fill="#000000" fill-rule="evenodd" /><path id="1150" transform="matrix(1 0 0 -1 0 841)" d="M506.14 99.72L506.62 99.72L506.62 99.72L506.62 100.2L506.62 100.2L506.14 100.2z" stroke="none" fill="#000000" fill-rule="evenodd" /><path id="1151" transform="matrix(1 0 0 -1 0 841)" d="M89.664 87.72L90.144 87.72L90.144 87.72L90.144 99.72L90.144 99.72L89.664 99.72z" stroke="none" fill="#000000" fill-rule="evenodd" /><path id="1152" transform="matrix(1 0 0 -1 0 841)" d="M451.27 87.72L451.75 87.72L451.75 87.72L451.75 99.72L451.75 99.72L451.27 99.72z" stroke="none" fill="#000000" fill-rule="evenodd" /><path id="1153" transform="matrix(1 0 0 -1 0 841)" d="M506.14 87.72L506.62 87.72L506.62 87.72L506.62 99.72L506.62 99.72L506.14 99.72z" stroke="none" fill="#000000" fill-rule="evenodd" /><g clip-path="url(#210)"><g clip-path="url(#211)"></g><g clip-path="url(#212)"></g><g clip-path="url(#213)"></g><g clip-path="url(#214)"></g></g><g clip-path="url(#215)"><g clip-path="url(#216)"></g><g clip-path="url(#217)"></g><g clip-path="url(#218)"></g></g><path id="1173" transform="matrix(1 0 0 -1 0 841)" d="M89.664 87.24L90.144 87.24L90.144 87.24L90.144 87.71998L90.144 87.71998L89.664 87.71998z" stroke="none" fill="#000000" fill-rule="evenodd" /><path id="1174" transform="matrix(1 0 0 -1 0 841)" d="M90.144 87.24L451.274 87.24L451.274 87.24L451.274 87.71998L451.274 87.71998L90.144 87.71998z" stroke="none" fill="#000000" fill-rule="evenodd" /><path id="1175" transform="matrix(1 0 0 -1 0 841)" d="M451.27 87.24L451.75 87.24L451.75 87.24L451.75 87.71998L451.75 87.71998L451.27 87.71998z" stroke="none" fill="#000000" fill-rule="evenodd" /><path id="1176" transform="matrix(1 0 0 -1 0 841)" d="M451.75 87.24L506.134 87.24L506.134 87.24L506.134 87.71998L506.134 87.71998L451.75 87.71998z" stroke="none" fill="#000000" fill-rule="evenodd" /><path id="1177" transform="matrix(1 0 0 -1 0 841)" d="M506.14 87.24L506.62 87.24L506.62 87.24L506.62 87.71998L506.62 87.71998L506.14 87.71998z" stroke="none" fill="#000000" fill-rule="evenodd" /><path id="1178" transform="matrix(1 0 0 -1 0 841)" d="M89.664 75.24L90.144 75.24L90.144 75.24L90.144 87.24L90.144 87.24L89.664 87.24z" stroke="none" fill="#000000" fill-rule="evenodd" /><path id="1179" transform="matrix(1 0 0 -1 0 841)" d="M89.664 74.76L90.144 74.76L90.144 74.76L90.144 75.23998L90.144 75.23998L89.664 75.23998z" stroke="none" fill="#000000" fill-rule="evenodd" /><path id="1180" transform="matrix(1 0 0 -1 0 841)" d="M89.664 74.76L90.144 74.76L90.144 74.76L90.144 75.23998L90.144 75.23998L89.664 75.23998z" stroke="none" fill="#000000" fill-rule="evenodd" /><path id="1181" transform="matrix(1 0 0 -1 0 841)" d="M90.144 74.76L451.274 74.76L451.274 74.76L451.274 75.23998L451.274 75.23998L90.144 75.23998z" stroke="none" fill="#000000" fill-rule="evenodd" /><path id="1182" transform="matrix(1 0 0 -1 0 841)" d="M451.27 75.24L451.75 75.24L451.75 75.24L451.75 87.24L451.75 87.24L451.27 87.24z" stroke="none" fill="#000000" fill-rule="evenodd" /><path id="1183" transform="matrix(1 0 0 -1 0 841)" d="M451.27 74.76L451.75 74.76L451.75 74.76L451.75 75.23998L451.75 75.23998L451.27 75.23998z" stroke="none" fill="#000000" fill-rule="evenodd" /><path id="1184" transform="matrix(1 0 0 -1 0 841)" d="M451.75 74.76L506.134 74.76L506.134 74.76L506.134 75.23998L506.134 75.23998L451.75 75.23998z" stroke="none" fill="#000000" fill-rule="evenodd" /><path id="1185" transform="matrix(1 0 0 -1 0 841)" d="M506.14 75.24L506.62 75.24L506.62 75.24L506.62 87.24L506.62 87.24L506.14 87.24z" stroke="none" fill="#000000" fill-rule="evenodd" /><path id="1186" transform="matrix(1 0 0 -1 0 841)" d="M506.14 74.76L506.62 74.76L506.62 74.76L506.62 75.23998L506.62 75.23998L506.14 75.23998z" stroke="none" fill="#000000" fill-rule="evenodd" /><path id="1187" transform="matrix(1 0 0 -1 0 841)" d="M506.14 74.76L506.62 74.76L506.62 74.76L506.62 75.23998L506.62 75.23998L506.14 75.23998z" stroke="none" fill="#000000" fill-rule="evenodd" /></g></g></svg>