<svg xmlns="http://www.w3.org/2000/svg" xmlns:xlink="http://www.w3.org/1999/xlink" id="body_1" preserveAspectRatio="xMinYMin meet" viewBox="0 0 793 1121"><defs><clipPath id="1"><path id="" clip-rule="evenodd" transform="matrix(1 0 0 1 0 0)" d="M0 841L0 -0.6799927L0 -0.6799927L595.44 -0.6799927L595.44 -0.6799927L595.44 841L595.44 841L0 841z" /></clipPath></defs><g transform="matrix(1.333333 0 0 1.333333 0 0)"><g clip-path="url(#1)"><path id="425" transform="matrix(1 0 0 -1 0 841)" d="M139.46 402.55L381.43 402.55L381.43 402.55L381.43 416.23L381.43 416.23L139.46 416.23z" stroke="none" fill="#D9D9D9" fill-rule="evenodd" /><path id="451" transform="matrix(1 0 0 -1 0 841)" d="M117.14 382.97L490.41 382.97L490.41 382.97L490.41 396.674L490.41 396.674L117.14 396.674z" stroke="none" fill="#D9D9D9" fill-rule="evenodd" /><path id="489" transform="matrix(1 0 0 -1 0 841)" d="M117.14 363.29L406.27 363.29L406.27 363.29L406.27 376.97L406.27 376.97L117.14 376.97z" stroke="none" fill="#D9D9D9" fill-rule="evenodd" /><path id="518" transform="matrix(1 0 0 -1 0 841)" d="M117.14 343.61L505.65 343.61L505.65 343.61L505.65 357.29L505.65 357.29L117.14 357.29z" stroke="none" fill="#D9D9D9" fill-rule="evenodd" /><path id="556" transform="matrix(1 0 0 -1 0 841)" d="M117.14 330.05L148.7 330.05L148.7 330.05L148.7 343.73L148.7 343.73L117.14 343.73z" stroke="none" fill="#D9D9D9" fill-rule="evenodd" /><path id="560" transform="matrix(1 0 0 -1 0 841)" d="M117.14 310.37L227.56 310.37L227.56 310.37L227.56 324.05L227.56 324.05L117.14 324.05z" stroke="none" fill="#D9D9D9" fill-rule="evenodd" /><path id="572" transform="matrix(1 0 0 -1 0 841)" d="M327.07 290.69L505.65 290.69L505.65 290.69L505.65 304.37L505.65 304.37L327.07 304.37z" stroke="none" fill="#D9D9D9" fill-rule="evenodd" /><path id="610" transform="matrix(1 0 0 -1 0 841)" d="M117.14 277.01L253.84 277.01L253.84 277.01L253.84 290.69L253.84 290.69L117.14 290.69z" stroke="none" fill="#D9D9D9" fill-rule="evenodd" /><path id="624" transform="matrix(1 0 0 -1 0 841)" d="M117.14 257.45L505.65 257.45L505.65 257.45L505.65 271.13L505.65 271.13L117.14 271.13z" stroke="none" fill="#D9D9D9" fill-rule="evenodd" /><path id="662" transform="matrix(1 0 0 -1 0 841)" d="M117.14 243.77L306.4 243.77L306.4 243.77L306.4 257.45L306.4 257.45L117.14 257.45z" stroke="none" fill="#D9D9D9" fill-rule="evenodd" /></g></g></svg>