<svg xmlns="http://www.w3.org/2000/svg" xmlns:xlink="http://www.w3.org/1999/xlink" id="body_1" preserveAspectRatio="xMinYMin meet" viewBox="0 0 793 1121"><defs><clipPath id="1"><path id="" clip-rule="evenodd" transform="matrix(1 0 0 1 0 0)" d="M0 841L0 -0.6799927L0 -0.6799927L595.44 -0.6799927L595.44 -0.6799927L595.44 841L595.44 841L0 841z" /></clipPath></defs><g transform="matrix(1.333333 0 0 1.333333 0 0)"><g clip-path="url(#1)"><path id="6" transform="matrix(1 0 0 -1 0 841)" d="M92.184 740.98L502.414 740.98L502.414 740.98L502.414 756.244L502.414 756.244L92.184 756.244z" stroke="none" fill="#D9D9D9" fill-rule="evenodd" /><path id="46" transform="matrix(1 0 0 -1 0 841)" d="M92.184 725.86L502.414 725.86L502.414 725.86L502.414 741.1L502.414 741.1L92.184 741.1z" stroke="none" fill="#D9D9D9" fill-rule="evenodd" /><path id="86" transform="matrix(1 0 0 -1 0 841)" d="M92.184 710.86L323.594 710.86L323.594 710.86L323.594 726.1L323.594 726.1L92.184 726.1z" stroke="none" fill="#D9D9D9" fill-rule="evenodd" /><path id="116" transform="matrix(1 0 0 -1 0 841)" d="M92.184 651.94L505.654 651.94L505.654 651.94L505.654 665.62L505.654 665.62L92.184 665.62z" stroke="none" fill="#D9D9D9" fill-rule="evenodd" /><path id="158" transform="matrix(1 0 0 -1 0 841)" d="M92.184 638.26L505.654 638.26L505.654 638.26L505.654 651.94L505.654 651.94L92.184 651.94z" stroke="none" fill="#D9D9D9" fill-rule="evenodd" /><path id="199" transform="matrix(1 0 0 -1 0 841)" d="M92.184 624.58L186.744 624.58L186.744 624.58L186.744 638.26L186.744 638.26L92.184 638.26z" stroke="none" fill="#D9D9D9" fill-rule="evenodd" /><path id="209" transform="matrix(1 0 0 -1 0 841)" d="M92.184 595.3L505.654 595.3L505.654 595.3L505.654 608.98L505.654 608.98L92.184 608.98z" stroke="none" fill="#D9D9D9" fill-rule="evenodd" /><path id="249" transform="matrix(1 0 0 -1 0 841)" d="M92.184 581.74L207.884 581.74L207.884 581.74L207.884 595.42L207.884 595.42L92.184 595.42z" stroke="none" fill="#D9D9D9" fill-rule="evenodd" /><path id="261" transform="matrix(1 0 0 -1 0 841)" d="M92.184 562.03L505.654 562.03L505.654 562.03L505.654 575.734L505.654 575.734L92.184 575.734z" stroke="none" fill="#D9D9D9" fill-rule="evenodd" /><path id="302" transform="matrix(1 0 0 -1 0 841)" d="M120.38 548.35L151.94 548.35L151.94 548.35L151.94 562.03L151.94 562.03L120.38 562.03z" stroke="none" fill="#D9D9D9" fill-rule="evenodd" /><path id="306" transform="matrix(1 0 0 -1 0 841)" d="M92.184 534.67L505.654 534.67L505.654 534.67L505.654 548.35L505.654 548.35L92.184 548.35z" stroke="none" fill="#D9D9D9" fill-rule="evenodd" /><path id="347" transform="matrix(1 0 0 -1 0 841)" d="M120.38 521.11L193.964 521.11L193.964 521.11L193.964 534.79L193.964 534.79L120.38 534.79z" stroke="none" fill="#D9D9D9" fill-rule="evenodd" /><path id="355" transform="matrix(1 0 0 -1 0 841)" d="M92.184 507.43L486.454 507.43L486.454 507.43L486.454 521.11L486.454 521.11L92.184 521.11z" stroke="none" fill="#D9D9D9" fill-rule="evenodd" /><path id="394" transform="matrix(1 0 0 -1 0 841)" d="M92.184 493.75L349.754 493.75L349.754 493.75L349.754 507.43L349.754 507.43L92.184 507.43z" stroke="none" fill="#D9D9D9" fill-rule="evenodd" /><path id="420" transform="matrix(1 0 0 -1 0 841)" d="M92.184 480.07L160.464 480.07L160.464 480.07L160.464 493.75L160.464 493.75L92.184 493.75z" stroke="none" fill="#D9D9D9" fill-rule="evenodd" /><path id="428" transform="matrix(1 0 0 -1 0 841)" d="M92.184 466.51L244.604 466.51L244.604 466.51L244.604 480.19L244.604 480.19L92.184 480.19z" stroke="none" fill="#D9D9D9" fill-rule="evenodd" /><path id="444" transform="matrix(1 0 0 -1 0 841)" d="M92.184 452.83L276.164 452.83L276.164 452.83L276.164 466.51L276.164 466.51L92.184 466.51z" stroke="none" fill="#D9D9D9" fill-rule="evenodd" /><path id="463" transform="matrix(1 0 0 -1 0 841)" d="M92.184 439.15L465.454 439.15L465.454 439.15L465.454 452.83L465.454 452.83L92.184 452.83z" stroke="none" fill="#D9D9D9" fill-rule="evenodd" /><path id="500" transform="matrix(1 0 0 -1 0 841)" d="M92.184 425.47L423.314 425.47L423.314 425.47L423.314 439.15L423.314 439.15L92.184 439.15z" stroke="none" fill="#D9D9D9" fill-rule="evenodd" /><path id="533" transform="matrix(1 0 0 -1 0 841)" d="M92.184 411.91L428.714 411.91L428.714 411.91L428.714 425.59L428.714 425.59L92.184 425.59z" stroke="none" fill="#D9D9D9" fill-rule="evenodd" /><path id="567" transform="matrix(1 0 0 -1 0 841)" d="M92.184 398.23L281.444 398.23L281.444 398.23L281.444 411.91L281.444 411.91L92.184 411.91z" stroke="none" fill="#D9D9D9" fill-rule="evenodd" /><path id="587" transform="matrix(1 0 0 -1 0 841)" d="M92.184 384.53L439.274 384.53L439.274 384.53L439.274 398.234L439.274 398.234L92.184 398.234z" stroke="none" fill="#D9D9D9" fill-rule="evenodd" /><path id="622" transform="matrix(1 0 0 -1 0 841)" d="M92.184 370.85L505.654 370.85L505.654 370.85L505.654 384.53L505.654 384.53L92.184 384.53z" stroke="none" fill="#D9D9D9" fill-rule="evenodd" /><path id="663" transform="matrix(1 0 0 -1 0 841)" d="M120.38 357.29L299.2 357.29L299.2 357.29L299.2 370.97L299.2 370.97L120.38 370.97z" stroke="none" fill="#D9D9D9" fill-rule="evenodd" /><path id="681" transform="matrix(1 0 0 -1 0 841)" d="M92.184 343.61L249.884 343.61L249.884 343.61L249.884 357.29L249.884 357.29L92.184 357.29z" stroke="none" fill="#D9D9D9" fill-rule="evenodd" /><path id="698" transform="matrix(1 0 0 -1 0 841)" d="M92.184 329.93L407.714 329.93L407.714 329.93L407.714 343.61L407.714 343.61L92.184 343.61z" stroke="none" fill="#D9D9D9" fill-rule="evenodd" /></g></g></svg>