<svg xmlns="http://www.w3.org/2000/svg" xmlns:xlink="http://www.w3.org/1999/xlink" id="body_1" preserveAspectRatio="xMinYMin meet" viewBox="0 0 793 1121"><defs><clipPath id="1"><path id="" clip-rule="evenodd" transform="matrix(1 0 0 1 0 0)" d="M0 841L0 -0.6799927L0 -0.6799927L595.44 -0.6799927L595.44 -0.6799927L595.44 841L595.44 841L0 841z" /></clipPath></defs><g transform="matrix(1.333333 0 0 1.333333 0 0)"><g clip-path="url(#1)"><path id="6" transform="matrix(1 0 0 -1 0 841)" d="M92.184 754.68L244.604 754.68L244.604 754.68L244.604 769.92L244.604 769.92L92.184 769.92z" stroke="none" fill="#D9D9D9" fill-rule="evenodd" /><path id="22" transform="matrix(1 0 0 -1 0 841)" d="M92.184 739.54L465.454 739.54L465.454 739.54L465.454 754.804L465.454 754.804L92.184 754.804z" stroke="none" fill="#D9D9D9" fill-rule="evenodd" /><path id="59" transform="matrix(1 0 0 -1 0 841)" d="M92.184 724.42L234.044 724.42L234.044 724.42L234.044 739.66L234.044 739.66L92.184 739.66z" stroke="none" fill="#D9D9D9" fill-rule="evenodd" /><path id="74" transform="matrix(1 0 0 -1 0 841)" d="M92.184 709.42L505.654 709.42L505.654 709.42L505.654 724.66L505.654 724.66L92.184 724.66z" stroke="none" fill="#D9D9D9" fill-rule="evenodd" /><path id="115" transform="matrix(1 0 0 -1 0 841)" d="M120.38 694.3L236.08 694.3L236.08 694.3L236.08 709.54L236.08 709.54L120.38 709.54z" stroke="none" fill="#D9D9D9" fill-rule="evenodd" /><path id="648" transform="matrix(1 0 0 -1 0 841)" d="M470.62 251.21L502.18 251.21L502.18 251.21L502.18 264.89L502.18 264.89L470.62 264.89z" stroke="none" fill="#D9D9D9" fill-rule="evenodd" /><path id="686" transform="matrix(1 0 0 -1 0 841)" d="M113.42 237.53L471.09 237.53L471.09 237.53L471.09 251.21L471.09 251.21L113.42 251.21z" stroke="none" fill="#D9D9D9" fill-rule="evenodd" /></g></g></svg>