<svg xmlns="http://www.w3.org/2000/svg" xmlns:xlink="http://www.w3.org/1999/xlink" id="body_1" preserveAspectRatio="xMinYMin meet" viewBox="0 0 793 1121"><defs><clipPath id="1"><path id="" clip-rule="evenodd" transform="matrix(1 0 0 1 0 0)" d="M0 841L0 -0.9199829L0 -0.9199829L595.32 -0.9199829L595.32 -0.9199829L595.32 841L595.32 841L0 841z" /></clipPath></defs><g transform="matrix(1.333333 0 0 1.333333 0 0)"><g clip-path="url(#1)"><path id="6" transform="matrix(1 0 0 -1 0 841)" d="M89.904 752.5L507.604 752.5L507.604 752.5L507.604 768.244L507.604 768.244L89.904 768.244z" stroke="none" fill="#D9D9D9" fill-rule="evenodd" /><path id="47" transform="matrix(1 0 0 -1 0 841)" d="M89.904 733.42L361.994 733.42L361.994 733.42L361.994 749.14L361.994 749.14L89.904 749.14z" stroke="none" fill="#D9D9D9" fill-rule="evenodd" /><path id="422" transform="matrix(1 0 0 -1 0 841)" d="M188.57 410.69L516.6 410.69L516.6 410.69L516.6 424.37L516.6 424.37L188.57 424.37z" stroke="none" fill="#D9D9D9" fill-rule="evenodd" /><path id="465" transform="matrix(1 0 0 -1 0 841)" d="M89.904 391.61L321.314 391.61L321.314 391.61L321.314 405.29L321.314 405.29L89.904 405.29z" stroke="none" fill="#D9D9D9" fill-rule="evenodd" /></g></g></svg>