<svg xmlns="http://www.w3.org/2000/svg" xmlns:xlink="http://www.w3.org/1999/xlink" id="body_1" preserveAspectRatio="xMinYMin meet" viewBox="0 0 793 1121"><defs><clipPath id="1"><path id="" clip-rule="evenodd" transform="matrix(1 0 0 1 0 0)" d="M0 841L0 -0.6799927L0 -0.6799927L595.44 -0.6799927L595.44 -0.6799927L595.44 841L595.44 841L0 841z" /></clipPath></defs><g transform="matrix(1.333333 0 0 1.333333 0 0)"><g clip-path="url(#1)"><path id="122" transform="matrix(1 0 0 -1 0 841)" d="M232.37 677.38L505.66 677.38L505.66 677.38L505.66 691.06L505.66 691.06L232.37 691.06z" stroke="none" fill="#D9D9D9" fill-rule="evenodd" /><path id="160" transform="matrix(1 0 0 -1 0 841)" d="M120.38 663.7L214.964 663.7L214.964 663.7L214.964 677.38L214.964 677.38L120.38 677.38z" stroke="none" fill="#D9D9D9" fill-rule="evenodd" /></g></g></svg>