<svg xmlns="http://www.w3.org/2000/svg" xmlns:xlink="http://www.w3.org/1999/xlink" id="body_1" preserveAspectRatio="xMinYMin meet" viewBox="0 0 793 1121"><defs><clipPath id="1"><path id="" clip-rule="evenodd" transform="matrix(1 0 0 1 0 0)" d="M0 841L0 -0.6799927L0 -0.6799927L595.44 -0.6799927L595.44 -0.6799927L595.44 841L595.44 841L0 841z" /></clipPath></defs><g transform="matrix(1.333333 0 0 1.333333 0 0)"><g clip-path="url(#1)"><path id="6" transform="matrix(1 0 0 -1 0 841)" d="M92.184 756.12L505.654 756.12L505.654 756.12L505.654 769.8L505.654 769.8L92.184 769.8z" stroke="none" fill="#D9D9D9" fill-rule="evenodd" /><path id="48" transform="matrix(1 0 0 -1 0 841)" d="M92.184 742.42L505.654 742.42L505.654 742.42L505.654 756.124L505.654 756.124L92.184 756.124z" stroke="none" fill="#D9D9D9" fill-rule="evenodd" /><path id="89" transform="matrix(1 0 0 -1 0 841)" d="M92.184 728.86L186.744 728.86L186.744 728.86L186.744 742.54L186.744 742.54L92.184 742.54z" stroke="none" fill="#D9D9D9" fill-rule="evenodd" /><path id="99" transform="matrix(1 0 0 -1 0 841)" d="M92.184 709.18L505.654 709.18L505.654 709.18L505.654 722.86L505.654 722.86L92.184 722.86z" stroke="none" fill="#D9D9D9" fill-rule="evenodd" /><path id="139" transform="matrix(1 0 0 -1 0 841)" d="M92.184 695.5L176.304 695.5L176.304 695.5L176.304 709.18L176.304 709.18L92.184 709.18z" stroke="none" fill="#D9D9D9" fill-rule="evenodd" /><path id="148" transform="matrix(1 0 0 -1 0 841)" d="M92.184 675.82L505.654 675.82L505.654 675.82L505.654 689.5L505.654 689.5L92.184 689.5z" stroke="none" fill="#D9D9D9" fill-rule="evenodd" /><path id="189" transform="matrix(1 0 0 -1 0 841)" d="M118.46 662.26L192.02 662.26L192.02 662.26L192.02 675.94L192.02 675.94L118.46 675.94z" stroke="none" fill="#D9D9D9" fill-rule="evenodd" /><path id="197" transform="matrix(1 0 0 -1 0 841)" d="M92.184 642.58L505.654 642.58L505.654 642.58L505.654 656.26L505.654 656.26L92.184 656.26z" stroke="none" fill="#D9D9D9" fill-rule="evenodd" /><path id="238" transform="matrix(1 0 0 -1 0 841)" d="M118.46 628.9L192.02 628.9L192.02 628.9L192.02 642.58L192.02 642.58L118.46 642.58z" stroke="none" fill="#D9D9D9" fill-rule="evenodd" /><path id="246" transform="matrix(1 0 0 -1 0 841)" d="M92.184 609.22L349.754 609.22L349.754 609.22L349.754 622.9L349.754 622.9L92.184 622.9z" stroke="none" fill="#D9D9D9" fill-rule="evenodd" /><path id="272" transform="matrix(1 0 0 -1 0 841)" d="M92.184 589.66L160.464 589.66L160.464 589.66L160.464 603.34L160.464 603.34L92.184 603.34z" stroke="none" fill="#D9D9D9" fill-rule="evenodd" /><path id="280" transform="matrix(1 0 0 -1 0 841)" d="M92.184 569.98L244.604 569.98L244.604 569.98L244.604 583.66L244.604 583.66L92.184 583.66z" stroke="none" fill="#D9D9D9" fill-rule="evenodd" /><path id="296" transform="matrix(1 0 0 -1 0 841)" d="M92.184 550.27L318.164 550.27L318.164 550.27L318.164 563.95L318.164 563.95L92.184 563.95z" stroke="none" fill="#D9D9D9" fill-rule="evenodd" /><path id="319" transform="matrix(1 0 0 -1 0 841)" d="M92.184 530.59L465.454 530.59L465.454 530.59L465.454 544.27L465.454 544.27L92.184 544.27z" stroke="none" fill="#D9D9D9" fill-rule="evenodd" /><path id="356" transform="matrix(1 0 0 -1 0 841)" d="M92.184 511.03L423.314 511.03L423.314 511.03L423.314 524.71L423.314 524.71L92.184 524.71z" stroke="none" fill="#D9D9D9" fill-rule="evenodd" /><path id="389" transform="matrix(1 0 0 -1 0 841)" d="M92.184 491.35L423.314 491.35L423.314 491.35L423.314 505.03L423.314 505.03L92.184 505.03z" stroke="none" fill="#D9D9D9" fill-rule="evenodd" /><path id="422" transform="matrix(1 0 0 -1 0 841)" d="M92.184 471.67L281.444 471.67L281.444 471.67L281.444 485.35L281.444 485.35L92.184 485.35z" stroke="none" fill="#D9D9D9" fill-rule="evenodd" /><path id="442" transform="matrix(1 0 0 -1 0 841)" d="M92.184 451.99L439.274 451.99L439.274 451.99L439.274 465.67L439.274 465.67L92.184 465.67z" stroke="none" fill="#D9D9D9" fill-rule="evenodd" /><path id="477" transform="matrix(1 0 0 -1 0 841)" d="M92.184 432.43L505.654 432.43L505.654 432.43L505.654 446.11L505.654 446.11L92.184 446.11z" stroke="none" fill="#D9D9D9" fill-rule="evenodd" /><path id="518" transform="matrix(1 0 0 -1 0 841)" d="M123.74 418.75L302.56 418.75L302.56 418.75L302.56 432.43L302.56 432.43L123.74 432.43z" stroke="none" fill="#D9D9D9" fill-rule="evenodd" /><path id="536" transform="matrix(1 0 0 -1 0 841)" d="M92.184 399.07L249.884 399.07L249.884 399.07L249.884 412.75L249.884 412.75L92.184 412.75z" stroke="none" fill="#D9D9D9" fill-rule="evenodd" /><path id="553" transform="matrix(1 0 0 -1 0 841)" d="M92.184 379.37L439.274 379.37L439.274 379.37L439.274 393.074L439.274 393.074L92.184 393.074z" stroke="none" fill="#D9D9D9" fill-rule="evenodd" /><path id="588" transform="matrix(1 0 0 -1 0 841)" d="M92.184 359.81L505.654 359.81L505.654 359.81L505.654 373.49L505.654 373.49L92.184 373.49z" stroke="none" fill="#D9D9D9" fill-rule="evenodd" /><path id="629" transform="matrix(1 0 0 -1 0 841)" d="M123.74 346.13L386.71 346.13L386.71 346.13L386.71 359.81L386.71 359.81L123.74 359.81z" stroke="none" fill="#D9D9D9" fill-rule="evenodd" /><path id="655" transform="matrix(1 0 0 -1 0 841)" d="M92.184 326.45L505.654 326.45L505.654 326.45L505.654 340.13L505.654 340.13L92.184 340.13z" stroke="none" fill="#D9D9D9" fill-rule="evenodd" /><path id="696" transform="matrix(1 0 0 -1 0 841)" d="M123.74 312.77L505.65 312.77L505.65 312.77L505.65 326.45L505.65 326.45L123.74 326.45z" stroke="none" fill="#D9D9D9" fill-rule="evenodd" /><path id="736" transform="matrix(1 0 0 -1 0 841)" d="M123.74 299.21L505.65 299.21L505.65 299.21L505.65 312.89L505.65 312.89L123.74 312.89z" stroke="none" fill="#D9D9D9" fill-rule="evenodd" /><path id="773" transform="matrix(1 0 0 -1 0 841)" d="M123.74 285.53L281.44 285.53L281.44 285.53L281.44 299.21L281.44 299.21L123.74 299.21z" stroke="none" fill="#D9D9D9" fill-rule="evenodd" /></g></g></svg>