<svg xmlns="http://www.w3.org/2000/svg" xmlns:xlink="http://www.w3.org/1999/xlink" id="body_1" preserveAspectRatio="xMinYMin meet" viewBox="0 0 793 1121"><defs><clipPath id="1"><path id="" clip-rule="evenodd" transform="matrix(1 0 0 1 0 0)" d="M0 841L0 -0.9199829L0 -0.9199829L595.32 -0.9199829L595.32 -0.9199829L595.32 841L595.32 841L0 841z" /></clipPath></defs><g transform="matrix(1.333333 0 0 1.333333 0 0)"><g clip-path="url(#1)"><path id="14" transform="matrix(1 0 0 -1 0 841)" d="M89.904 715.54L500.044 715.54L500.044 715.54L500.044 729.22L500.044 729.22L89.904 729.22z" stroke="none" fill="#D9D9D9" fill-rule="evenodd" /><path id="54" transform="matrix(1 0 0 -1 0 841)" d="M89.904 696.46L342.434 696.46L342.434 696.46L342.434 710.14L342.434 710.14L89.904 710.14z" stroke="none" fill="#D9D9D9" fill-rule="evenodd" /></g></g></svg>