<svg xmlns="http://www.w3.org/2000/svg" xmlns:xlink="http://www.w3.org/1999/xlink" id="body_1" preserveAspectRatio="xMinYMin meet" viewBox="0 0 793 1121"><defs><clipPath id="1"><path id="" clip-rule="evenodd" transform="matrix(1 0 0 1 0 0)" d="M0 841L0 -0.6799927L0 -0.6799927L595.44 -0.6799927L595.44 -0.6799927L595.44 841L595.44 841L0 841z" /></clipPath></defs><g transform="matrix(1.333333 0 0 1.333333 0 0)"><g clip-path="url(#1)"><path id="221" transform="matrix(1 0 0 -1 0 841)" d="M432.19 660.58L505.654 660.58L505.654 660.58L505.654 674.26L505.654 674.26L432.19 674.26z" stroke="none" fill="#D9D9D9" fill-rule="evenodd" /><path id="259" transform="matrix(1 0 0 -1 0 841)" d="M134.54 646.9L439.63 646.9L439.63 646.9L439.63 660.58L439.63 660.58L134.54 660.58z" stroke="none" fill="#D9D9D9" fill-rule="evenodd" /></g></g></svg>