<svg xmlns="http://www.w3.org/2000/svg" xmlns:xlink="http://www.w3.org/1999/xlink" id="body_1" preserveAspectRatio="xMinYMin meet" viewBox="0 0 793 1121"><defs><clipPath id="1"><path id="" clip-rule="evenodd" transform="matrix(1 0 0 1 0 0)" d="M0 841L0 -0.6799927L0 -0.6799927L595.44 -0.6799927L595.44 -0.6799927L595.44 841L595.44 841L0 841z" /></clipPath><clipPath id="2"><path id="" clip-rule="evenodd" transform="matrix(1 0 0 1 0 0)" d="M8.873E-06 841L595.44 841L595.44 841L595.44 -0.6799927L595.44 -0.6799927L8.873E-06 -0.6799927z" /></clipPath><clipPath id="3"><path id="" clip-rule="evenodd" transform="matrix(1 0 0 1 0 0)" d="M8.873E-06 841L595.44 841L595.44 841L595.44 -0.6799927L595.44 -0.6799927L8.873E-06 -0.6799927z" /></clipPath><clipPath id="4"><path id="" clip-rule="evenodd" transform="matrix(1 0 0 1 0 0)" d="M8.873E-06 841L595.44 841L595.44 841L595.44 -0.6799927L595.44 -0.6799927L8.873E-06 -0.6799927z" /></clipPath><clipPath id="5"><path id="" clip-rule="evenodd" transform="matrix(1 0 0 1 0 0)" d="M8.873E-06 841L595.44 841L595.44 841L595.44 -0.6799927L595.44 -0.6799927L8.873E-06 -0.6799927z" /></clipPath><clipPath id="6"><path id="" clip-rule="evenodd" transform="matrix(1 0 0 1 0 0)" d="M8.873E-06 841L595.44 841L595.44 841L595.44 -0.6799927L595.44 -0.6799927L8.873E-06 -0.6799927z" /></clipPath><clipPath id="7"><path id="" clip-rule="evenodd" transform="matrix(1 0 0 1 0 0)" d="M8.873E-06 841L595.44 841L595.44 841L595.44 -0.6799927L595.44 -0.6799927L8.873E-06 -0.6799927z" /></clipPath><clipPath id="8"><path id="" clip-rule="evenodd" transform="matrix(1 0 0 1 0 0)" d="M8.873E-06 841L595.44 841L595.44 841L595.44 -0.6799927L595.44 -0.6799927L8.873E-06 -0.6799927z" /></clipPath><clipPath id="9"><path id="" clip-rule="evenodd" transform="matrix(1 0 0 1 0 0)" d="M8.873E-06 841L595.44 841L595.44 841L595.44 -0.6799927L595.44 -0.6799927L8.873E-06 -0.6799927z" /></clipPath><clipPath id="10"><path id="" clip-rule="evenodd" transform="matrix(1 0 0 1 0 0)" d="M8.873E-06 841L595.44 841L595.44 841L595.44 -0.6799927L595.44 -0.6799927L8.873E-06 -0.6799927z" /></clipPath><clipPath id="11"><path id="" clip-rule="evenodd" transform="matrix(1 0 0 1 0 0)" d="M8.873E-06 841L595.44 841L595.44 841L595.44 -0.6799927L595.44 -0.6799927L8.873E-06 -0.6799927z" /></clipPath><clipPath id="12"><path id="" clip-rule="evenodd" transform="matrix(1 0 0 1 0 0)" d="M8.873E-06 841L595.44 841L595.44 841L595.44 -0.6799927L595.44 -0.6799927L8.873E-06 -0.6799927z" /></clipPath><clipPath id="13"><path id="" clip-rule="evenodd" transform="matrix(1 0 0 1 0 0)" d="M8.873E-06 841L595.44 841L595.44 841L595.44 -0.6799927L595.44 -0.6799927L8.873E-06 -0.6799927z" /></clipPath><clipPath id="14"><path id="" clip-rule="evenodd" transform="matrix(1 0 0 1 0 0)" d="M8.873E-06 841L595.44 841L595.44 841L595.44 -0.6799927L595.44 -0.6799927L8.873E-06 -0.6799927z" /></clipPath><clipPath id="15"><path id="" clip-rule="evenodd" transform="matrix(1 0 0 1 0 0)" d="M8.873E-06 841L595.44 841L595.44 841L595.44 -0.6799927L595.44 -0.6799927L8.873E-06 -0.6799927z" /></clipPath><clipPath id="16"><path id="" clip-rule="evenodd" transform="matrix(1 0 0 1 0 0)" d="M8.873E-06 841L595.44 841L595.44 841L595.44 -0.6799927L595.44 -0.6799927L8.873E-06 -0.6799927z" /></clipPath><clipPath id="17"><path id="" clip-rule="evenodd" transform="matrix(1 0 0 1 0 0)" d="M8.873E-06 841L595.44 841L595.44 841L595.44 -0.6799927L595.44 -0.6799927L8.873E-06 -0.6799927z" /></clipPath><clipPath id="18"><path id="" clip-rule="evenodd" transform="matrix(1 0 0 1 0 0)" d="M8.873E-06 841L595.44 841L595.44 841L595.44 -0.6799927L595.44 -0.6799927L8.873E-06 -0.6799927z" /></clipPath><clipPath id="19"><path id="" clip-rule="evenodd" transform="matrix(1 0 0 1 0 0)" d="M8.873E-06 841L595.44 841L595.44 841L595.44 -0.6799927L595.44 -0.6799927L8.873E-06 -0.6799927z" /></clipPath><clipPath id="20"><path id="" clip-rule="evenodd" transform="matrix(1 0 0 1 0 0)" d="M89.424 137.58L451.274 137.58L451.274 137.58L451.274 125.58L451.274 125.58L89.424 125.58z" /></clipPath><clipPath id="21"><path id="" clip-rule="evenodd" transform="matrix(1 0 0 1 0 0)" d="M89.424 137.58L451.274 137.58L451.274 137.58L451.274 125.58L451.274 125.58L89.424 125.58z" /></clipPath><clipPath id="22"><path id="" clip-rule="evenodd" transform="matrix(1 0 0 1 0 0)" d="M89.424 137.58L451.274 137.58L451.274 137.58L451.274 125.58L451.274 125.58L89.424 125.58z" /></clipPath><clipPath id="23"><path id="" clip-rule="evenodd" transform="matrix(1 0 0 1 0 0)" d="M89.424 137.58L451.274 137.58L451.274 137.58L451.274 125.58L451.274 125.58L89.424 125.58z" /></clipPath><clipPath id="24"><path id="" clip-rule="evenodd" transform="matrix(1 0 0 1 0 0)" d="M451.51 137.58L503.494 137.58L503.494 137.58L503.494 125.58L503.494 125.58L451.51 125.58z" /></clipPath><clipPath id="25"><path id="" clip-rule="evenodd" transform="matrix(1 0 0 1 0 0)" d="M451.51 137.58L503.494 137.58L503.494 137.58L503.494 125.58L503.494 125.58L451.51 125.58z" /></clipPath><clipPath id="26"><path id="" clip-rule="evenodd" transform="matrix(1 0 0 1 0 0)" d="M451.51 137.58L503.494 137.58L503.494 137.58L503.494 125.58L503.494 125.58L451.51 125.58z" /></clipPath><clipPath id="27"><path id="" clip-rule="evenodd" transform="matrix(1 0 0 1 0 0)" d="M451.51 137.58L503.494 137.58L503.494 137.58L503.494 125.58L503.494 125.58L451.51 125.58z" /></clipPath><clipPath id="28"><path id="" clip-rule="evenodd" transform="matrix(1 0 0 1 0 0)" d="M89.424 150.06L451.274 150.06L451.274 150.06L451.274 138.06L451.274 138.06L89.424 138.06z" /></clipPath><clipPath id="29"><path id="" clip-rule="evenodd" transform="matrix(1 0 0 1 0 0)" d="M89.424 150.06L451.274 150.06L451.274 150.06L451.274 138.06L451.274 138.06L89.424 138.06z" /></clipPath><clipPath id="30"><path id="" clip-rule="evenodd" transform="matrix(1 0 0 1 0 0)" d="M89.424 150.06L451.274 150.06L451.274 150.06L451.274 138.06L451.274 138.06L89.424 138.06z" /></clipPath><clipPath id="31"><path id="" clip-rule="evenodd" transform="matrix(1 0 0 1 0 0)" d="M89.424 150.06L451.274 150.06L451.274 150.06L451.274 138.06L451.274 138.06L89.424 138.06z" /></clipPath><clipPath id="32"><path id="" clip-rule="evenodd" transform="matrix(1 0 0 1 0 0)" d="M89.424 150.06L451.274 150.06L451.274 150.06L451.274 138.06L451.274 138.06L89.424 138.06z" /></clipPath><clipPath id="33"><path id="" clip-rule="evenodd" transform="matrix(1 0 0 1 0 0)" d="M89.424 150.06L451.274 150.06L451.274 150.06L451.274 138.06L451.274 138.06L89.424 138.06z" /></clipPath><clipPath id="34"><path id="" clip-rule="evenodd" transform="matrix(1 0 0 1 0 0)" d="M89.424 150.06L451.274 150.06L451.274 150.06L451.274 138.06L451.274 138.06L89.424 138.06z" /></clipPath><clipPath id="35"><path id="" clip-rule="evenodd" transform="matrix(1 0 0 1 0 0)" d="M451.51 150.06L503.494 150.06L503.494 150.06L503.494 138.06L503.494 138.06L451.51 138.06z" /></clipPath><clipPath id="36"><path id="" clip-rule="evenodd" transform="matrix(1 0 0 1 0 0)" d="M451.51 150.06L503.494 150.06L503.494 150.06L503.494 138.06L503.494 138.06L451.51 138.06z" /></clipPath><clipPath id="37"><path id="" clip-rule="evenodd" transform="matrix(1 0 0 1 0 0)" d="M451.51 150.06L503.494 150.06L503.494 150.06L503.494 138.06L503.494 138.06L451.51 138.06z" /></clipPath><clipPath id="38"><path id="" clip-rule="evenodd" transform="matrix(1 0 0 1 0 0)" d="M451.51 150.06L503.494 150.06L503.494 150.06L503.494 138.06L503.494 138.06L451.51 138.06z" /></clipPath><clipPath id="39"><path id="" clip-rule="evenodd" transform="matrix(1 0 0 1 0 0)" d="M89.424 162.54L451.274 162.54L451.274 162.54L451.274 150.54L451.274 150.54L89.424 150.54z" /></clipPath><clipPath id="40"><path id="" clip-rule="evenodd" transform="matrix(1 0 0 1 0 0)" d="M89.424 162.54L451.274 162.54L451.274 162.54L451.274 150.54L451.274 150.54L89.424 150.54z" /></clipPath><clipPath id="41"><path id="" clip-rule="evenodd" transform="matrix(1 0 0 1 0 0)" d="M89.424 162.54L451.274 162.54L451.274 162.54L451.274 150.54L451.274 150.54L89.424 150.54z" /></clipPath><clipPath id="42"><path id="" clip-rule="evenodd" transform="matrix(1 0 0 1 0 0)" d="M89.424 162.54L451.274 162.54L451.274 162.54L451.274 150.54L451.274 150.54L89.424 150.54z" /></clipPath><clipPath id="43"><path id="" clip-rule="evenodd" transform="matrix(1 0 0 1 0 0)" d="M451.51 162.54L503.494 162.54L503.494 162.54L503.494 150.54L503.494 150.54L451.51 150.54z" /></clipPath><clipPath id="44"><path id="" clip-rule="evenodd" transform="matrix(1 0 0 1 0 0)" d="M451.51 162.54L503.494 162.54L503.494 162.54L503.494 150.54L503.494 150.54L451.51 150.54z" /></clipPath><clipPath id="45"><path id="" clip-rule="evenodd" transform="matrix(1 0 0 1 0 0)" d="M451.51 162.54L503.494 162.54L503.494 162.54L503.494 150.54L503.494 150.54L451.51 150.54z" /></clipPath><clipPath id="46"><path id="" clip-rule="evenodd" transform="matrix(1 0 0 1 0 0)" d="M451.51 162.54L503.494 162.54L503.494 162.54L503.494 150.54L503.494 150.54L451.51 150.54z" /></clipPath><clipPath id="47"><path id="" clip-rule="evenodd" transform="matrix(1 0 0 1 0 0)" d="M89.424 175.02L451.274 175.02L451.274 175.02L451.274 163.02L451.274 163.02L89.424 163.02z" /></clipPath><clipPath id="48"><path id="" clip-rule="evenodd" transform="matrix(1 0 0 1 0 0)" d="M89.424 175.02L451.274 175.02L451.274 175.02L451.274 163.02L451.274 163.02L89.424 163.02z" /></clipPath><clipPath id="49"><path id="" clip-rule="evenodd" transform="matrix(1 0 0 1 0 0)" d="M89.424 175.02L451.274 175.02L451.274 175.02L451.274 163.02L451.274 163.02L89.424 163.02z" /></clipPath><clipPath id="50"><path id="" clip-rule="evenodd" transform="matrix(1 0 0 1 0 0)" d="M89.424 175.02L451.274 175.02L451.274 175.02L451.274 163.02L451.274 163.02L89.424 163.02z" /></clipPath><clipPath id="51"><path id="" clip-rule="evenodd" transform="matrix(1 0 0 1 0 0)" d="M451.51 175.02L503.494 175.02L503.494 175.02L503.494 163.02L503.494 163.02L451.51 163.02z" /></clipPath><clipPath id="52"><path id="" clip-rule="evenodd" transform="matrix(1 0 0 1 0 0)" d="M451.51 175.02L503.494 175.02L503.494 175.02L503.494 163.02L503.494 163.02L451.51 163.02z" /></clipPath><clipPath id="53"><path id="" clip-rule="evenodd" transform="matrix(1 0 0 1 0 0)" d="M451.51 175.02L503.494 175.02L503.494 175.02L503.494 163.02L503.494 163.02L451.51 163.02z" /></clipPath><clipPath id="54"><path id="" clip-rule="evenodd" transform="matrix(1 0 0 1 0 0)" d="M451.51 175.02L503.494 175.02L503.494 175.02L503.494 163.02L503.494 163.02L451.51 163.02z" /></clipPath><clipPath id="55"><path id="" clip-rule="evenodd" transform="matrix(1 0 0 1 0 0)" d="M89.424 187.5L451.274 187.5L451.274 187.5L451.274 175.5L451.274 175.5L89.424 175.5z" /></clipPath><clipPath id="56"><path id="" clip-rule="evenodd" transform="matrix(1 0 0 1 0 0)" d="M89.424 187.5L451.274 187.5L451.274 187.5L451.274 175.5L451.274 175.5L89.424 175.5z" /></clipPath><clipPath id="57"><path id="" clip-rule="evenodd" transform="matrix(1 0 0 1 0 0)" d="M89.424 187.5L451.274 187.5L451.274 187.5L451.274 175.5L451.274 175.5L89.424 175.5z" /></clipPath><clipPath id="58"><path id="" clip-rule="evenodd" transform="matrix(1 0 0 1 0 0)" d="M89.424 187.5L451.274 187.5L451.274 187.5L451.274 175.5L451.274 175.5L89.424 175.5z" /></clipPath><clipPath id="59"><path id="" clip-rule="evenodd" transform="matrix(1 0 0 1 0 0)" d="M89.424 187.5L451.274 187.5L451.274 187.5L451.274 175.5L451.274 175.5L89.424 175.5z" /></clipPath><clipPath id="60"><path id="" clip-rule="evenodd" transform="matrix(1 0 0 1 0 0)" d="M89.424 187.5L451.274 187.5L451.274 187.5L451.274 175.5L451.274 175.5L89.424 175.5z" /></clipPath><clipPath id="61"><path id="" clip-rule="evenodd" transform="matrix(1 0 0 1 0 0)" d="M89.424 187.5L451.274 187.5L451.274 187.5L451.274 175.5L451.274 175.5L89.424 175.5z" /></clipPath><clipPath id="62"><path id="" clip-rule="evenodd" transform="matrix(1 0 0 1 0 0)" d="M451.51 187.5L503.494 187.5L503.494 187.5L503.494 175.5L503.494 175.5L451.51 175.5z" /></clipPath><clipPath id="63"><path id="" clip-rule="evenodd" transform="matrix(1 0 0 1 0 0)" d="M451.51 187.5L503.494 187.5L503.494 187.5L503.494 175.5L503.494 175.5L451.51 175.5z" /></clipPath><clipPath id="64"><path id="" clip-rule="evenodd" transform="matrix(1 0 0 1 0 0)" d="M451.51 187.5L503.494 187.5L503.494 187.5L503.494 175.5L503.494 175.5L451.51 175.5z" /></clipPath><clipPath id="65"><path id="" clip-rule="evenodd" transform="matrix(1 0 0 1 0 0)" d="M451.51 187.5L503.494 187.5L503.494 187.5L503.494 175.5L503.494 175.5L451.51 175.5z" /></clipPath><clipPath id="66"><path id="" clip-rule="evenodd" transform="matrix(1 0 0 1 0 0)" d="M89.424 199.98L451.274 199.98L451.274 199.98L451.274 187.98L451.274 187.98L89.424 187.98z" /></clipPath><clipPath id="67"><path id="" clip-rule="evenodd" transform="matrix(1 0 0 1 0 0)" d="M89.424 199.98L451.274 199.98L451.274 199.98L451.274 187.98L451.274 187.98L89.424 187.98z" /></clipPath><clipPath id="68"><path id="" clip-rule="evenodd" transform="matrix(1 0 0 1 0 0)" d="M89.424 199.98L451.274 199.98L451.274 199.98L451.274 187.98L451.274 187.98L89.424 187.98z" /></clipPath><clipPath id="69"><path id="" clip-rule="evenodd" transform="matrix(1 0 0 1 0 0)" d="M89.424 199.98L451.274 199.98L451.274 199.98L451.274 187.98L451.274 187.98L89.424 187.98z" /></clipPath><clipPath id="70"><path id="" clip-rule="evenodd" transform="matrix(1 0 0 1 0 0)" d="M451.51 199.98L503.494 199.98L503.494 199.98L503.494 187.98L503.494 187.98L451.51 187.98z" /></clipPath><clipPath id="71"><path id="" clip-rule="evenodd" transform="matrix(1 0 0 1 0 0)" d="M451.51 199.98L503.494 199.98L503.494 199.98L503.494 187.98L503.494 187.98L451.51 187.98z" /></clipPath><clipPath id="72"><path id="" clip-rule="evenodd" transform="matrix(1 0 0 1 0 0)" d="M451.51 199.98L503.494 199.98L503.494 199.98L503.494 187.98L503.494 187.98L451.51 187.98z" /></clipPath><clipPath id="73"><path id="" clip-rule="evenodd" transform="matrix(1 0 0 1 0 0)" d="M451.51 199.98L503.494 199.98L503.494 199.98L503.494 187.98L503.494 187.98L451.51 187.98z" /></clipPath><clipPath id="74"><path id="" clip-rule="evenodd" transform="matrix(1 0 0 1 0 0)" d="M89.424 213.18L451.274 213.18L451.274 213.18L451.274 200.46L451.274 200.46L89.424 200.46z" /></clipPath><clipPath id="75"><path id="" clip-rule="evenodd" transform="matrix(1 0 0 1 0 0)" d="M89.424 213.18L451.274 213.18L451.274 213.18L451.274 200.46L451.274 200.46L89.424 200.46z" /></clipPath><clipPath id="76"><path id="" clip-rule="evenodd" transform="matrix(1 0 0 1 0 0)" d="M89.424 213.18L451.274 213.18L451.274 213.18L451.274 200.46L451.274 200.46L89.424 200.46z" /></clipPath><clipPath id="77"><path id="" clip-rule="evenodd" transform="matrix(1 0 0 1 0 0)" d="M89.424 213.18L451.274 213.18L451.274 213.18L451.274 200.46L451.274 200.46L89.424 200.46z" /></clipPath><clipPath id="78"><path id="" clip-rule="evenodd" transform="matrix(1 0 0 1 0 0)" d="M451.51 213.18L503.494 213.18L503.494 213.18L503.494 200.46L503.494 200.46L451.51 200.46z" /></clipPath><clipPath id="79"><path id="" clip-rule="evenodd" transform="matrix(1 0 0 1 0 0)" d="M451.51 213.18L503.494 213.18L503.494 213.18L503.494 200.46L503.494 200.46L451.51 200.46z" /></clipPath><clipPath id="80"><path id="" clip-rule="evenodd" transform="matrix(1 0 0 1 0 0)" d="M451.51 213.18L503.494 213.18L503.494 213.18L503.494 200.46L503.494 200.46L451.51 200.46z" /></clipPath><clipPath id="81"><path id="" clip-rule="evenodd" transform="matrix(1 0 0 1 0 0)" d="M451.51 213.18L503.494 213.18L503.494 213.18L503.494 200.46L503.494 200.46L451.51 200.46z" /></clipPath><clipPath id="82"><path id="" clip-rule="evenodd" transform="matrix(1 0 0 1 0 0)" d="M89.424 225.66L451.274 225.66L451.274 225.66L451.274 213.66L451.274 213.66L89.424 213.66z" /></clipPath><clipPath id="83"><path id="" clip-rule="evenodd" transform="matrix(1 0 0 1 0 0)" d="M89.424 225.66L451.274 225.66L451.274 225.66L451.274 213.66L451.274 213.66L89.424 213.66z" /></clipPath><clipPath id="84"><path id="" clip-rule="evenodd" transform="matrix(1 0 0 1 0 0)" d="M89.424 225.66L451.274 225.66L451.274 225.66L451.274 213.66L451.274 213.66L89.424 213.66z" /></clipPath><clipPath id="85"><path id="" clip-rule="evenodd" transform="matrix(1 0 0 1 0 0)" d="M89.424 225.66L451.274 225.66L451.274 225.66L451.274 213.66L451.274 213.66L89.424 213.66z" /></clipPath><clipPath id="86"><path id="" clip-rule="evenodd" transform="matrix(1 0 0 1 0 0)" d="M89.424 225.66L451.274 225.66L451.274 225.66L451.274 213.66L451.274 213.66L89.424 213.66z" /></clipPath><clipPath id="87"><path id="" clip-rule="evenodd" transform="matrix(1 0 0 1 0 0)" d="M89.424 225.66L451.274 225.66L451.274 225.66L451.274 213.66L451.274 213.66L89.424 213.66z" /></clipPath><clipPath id="88"><path id="" clip-rule="evenodd" transform="matrix(1 0 0 1 0 0)" d="M89.424 225.66L451.274 225.66L451.274 225.66L451.274 213.66L451.274 213.66L89.424 213.66z" /></clipPath><clipPath id="89"><path id="" clip-rule="evenodd" transform="matrix(1 0 0 1 0 0)" d="M89.424 225.66L451.274 225.66L451.274 225.66L451.274 213.66L451.274 213.66L89.424 213.66z" /></clipPath><clipPath id="90"><path id="" clip-rule="evenodd" transform="matrix(1 0 0 1 0 0)" d="M451.51 225.66L503.494 225.66L503.494 225.66L503.494 213.66L503.494 213.66L451.51 213.66z" /></clipPath><clipPath id="91"><path id="" clip-rule="evenodd" transform="matrix(1 0 0 1 0 0)" d="M451.51 225.66L503.494 225.66L503.494 225.66L503.494 213.66L503.494 213.66L451.51 213.66z" /></clipPath><clipPath id="92"><path id="" clip-rule="evenodd" transform="matrix(1 0 0 1 0 0)" d="M451.51 225.66L503.494 225.66L503.494 225.66L503.494 213.66L503.494 213.66L451.51 213.66z" /></clipPath><clipPath id="93"><path id="" clip-rule="evenodd" transform="matrix(1 0 0 1 0 0)" d="M451.51 225.66L503.494 225.66L503.494 225.66L503.494 213.66L503.494 213.66L451.51 213.66z" /></clipPath><clipPath id="94"><path id="" clip-rule="evenodd" transform="matrix(1 0 0 1 0 0)" d="M89.424 238.17L451.274 238.17L451.274 238.17L451.274 226.146L451.274 226.146L89.424 226.146z" /></clipPath><clipPath id="95"><path id="" clip-rule="evenodd" transform="matrix(1 0 0 1 0 0)" d="M89.424 238.17L451.274 238.17L451.274 238.17L451.274 226.146L451.274 226.146L89.424 226.146z" /></clipPath><clipPath id="96"><path id="" clip-rule="evenodd" transform="matrix(1 0 0 1 0 0)" d="M89.424 238.17L451.274 238.17L451.274 238.17L451.274 226.146L451.274 226.146L89.424 226.146z" /></clipPath><clipPath id="97"><path id="" clip-rule="evenodd" transform="matrix(1 0 0 1 0 0)" d="M89.424 238.17L451.274 238.17L451.274 238.17L451.274 226.146L451.274 226.146L89.424 226.146z" /></clipPath><clipPath id="98"><path id="" clip-rule="evenodd" transform="matrix(1 0 0 1 0 0)" d="M451.51 238.17L503.494 238.17L503.494 238.17L503.494 226.146L503.494 226.146L451.51 226.146z" /></clipPath><clipPath id="99"><path id="" clip-rule="evenodd" transform="matrix(1 0 0 1 0 0)" d="M451.51 238.17L503.494 238.17L503.494 238.17L503.494 226.146L503.494 226.146L451.51 226.146z" /></clipPath><clipPath id="100"><path id="" clip-rule="evenodd" transform="matrix(1 0 0 1 0 0)" d="M451.51 238.17L503.494 238.17L503.494 238.17L503.494 226.146L503.494 226.146L451.51 226.146z" /></clipPath><clipPath id="101"><path id="" clip-rule="evenodd" transform="matrix(1 0 0 1 0 0)" d="M451.51 238.17L503.494 238.17L503.494 238.17L503.494 226.146L503.494 226.146L451.51 226.146z" /></clipPath><clipPath id="102"><path id="" clip-rule="evenodd" transform="matrix(1 0 0 1 0 0)" d="M89.424 250.65L451.274 250.65L451.274 250.65L451.274 238.65L451.274 238.65L89.424 238.65z" /></clipPath><clipPath id="103"><path id="" clip-rule="evenodd" transform="matrix(1 0 0 1 0 0)" d="M89.424 250.65L451.274 250.65L451.274 250.65L451.274 238.65L451.274 238.65L89.424 238.65z" /></clipPath><clipPath id="104"><path id="" clip-rule="evenodd" transform="matrix(1 0 0 1 0 0)" d="M89.424 250.65L451.274 250.65L451.274 250.65L451.274 238.65L451.274 238.65L89.424 238.65z" /></clipPath><clipPath id="105"><path id="" clip-rule="evenodd" transform="matrix(1 0 0 1 0 0)" d="M89.424 250.65L451.274 250.65L451.274 250.65L451.274 238.65L451.274 238.65L89.424 238.65z" /></clipPath><clipPath id="106"><path id="" clip-rule="evenodd" transform="matrix(1 0 0 1 0 0)" d="M451.51 250.65L503.494 250.65L503.494 250.65L503.494 238.65L503.494 238.65L451.51 238.65z" /></clipPath><clipPath id="107"><path id="" clip-rule="evenodd" transform="matrix(1 0 0 1 0 0)" d="M451.51 250.65L503.494 250.65L503.494 250.65L503.494 238.65L503.494 238.65L451.51 238.65z" /></clipPath><clipPath id="108"><path id="" clip-rule="evenodd" transform="matrix(1 0 0 1 0 0)" d="M451.51 250.65L503.494 250.65L503.494 250.65L503.494 238.65L503.494 238.65L451.51 238.65z" /></clipPath><clipPath id="109"><path id="" clip-rule="evenodd" transform="matrix(1 0 0 1 0 0)" d="M451.51 250.65L503.494 250.65L503.494 250.65L503.494 238.65L503.494 238.65L451.51 238.65z" /></clipPath><clipPath id="110"><path id="" clip-rule="evenodd" transform="matrix(1 0 0 1 0 0)" d="M89.424 263.13L451.274 263.13L451.274 263.13L451.274 251.13L451.274 251.13L89.424 251.13z" /></clipPath><clipPath id="111"><path id="" clip-rule="evenodd" transform="matrix(1 0 0 1 0 0)" d="M89.424 263.13L451.274 263.13L451.274 263.13L451.274 251.13L451.274 251.13L89.424 251.13z" /></clipPath><clipPath id="112"><path id="" clip-rule="evenodd" transform="matrix(1 0 0 1 0 0)" d="M89.424 263.13L451.274 263.13L451.274 263.13L451.274 251.13L451.274 251.13L89.424 251.13z" /></clipPath><clipPath id="113"><path id="" clip-rule="evenodd" transform="matrix(1 0 0 1 0 0)" d="M89.424 263.13L451.274 263.13L451.274 263.13L451.274 251.13L451.274 251.13L89.424 251.13z" /></clipPath><clipPath id="114"><path id="" clip-rule="evenodd" transform="matrix(1 0 0 1 0 0)" d="M451.51 263.13L503.494 263.13L503.494 263.13L503.494 251.13L503.494 251.13L451.51 251.13z" /></clipPath><clipPath id="115"><path id="" clip-rule="evenodd" transform="matrix(1 0 0 1 0 0)" d="M451.51 263.13L503.494 263.13L503.494 263.13L503.494 251.13L503.494 251.13L451.51 251.13z" /></clipPath><clipPath id="116"><path id="" clip-rule="evenodd" transform="matrix(1 0 0 1 0 0)" d="M451.51 263.13L503.494 263.13L503.494 263.13L503.494 251.13L503.494 251.13L451.51 251.13z" /></clipPath><clipPath id="117"><path id="" clip-rule="evenodd" transform="matrix(1 0 0 1 0 0)" d="M451.51 263.13L503.494 263.13L503.494 263.13L503.494 251.13L503.494 251.13L451.51 251.13z" /></clipPath><clipPath id="118"><path id="" clip-rule="evenodd" transform="matrix(1 0 0 1 0 0)" d="M89.424 275.61L451.274 275.61L451.274 275.61L451.274 263.61L451.274 263.61L89.424 263.61z" /></clipPath><clipPath id="119"><path id="" clip-rule="evenodd" transform="matrix(1 0 0 1 0 0)" d="M89.424 275.61L451.274 275.61L451.274 275.61L451.274 263.61L451.274 263.61L89.424 263.61z" /></clipPath><clipPath id="120"><path id="" clip-rule="evenodd" transform="matrix(1 0 0 1 0 0)" d="M89.424 275.61L451.274 275.61L451.274 275.61L451.274 263.61L451.274 263.61L89.424 263.61z" /></clipPath><clipPath id="121"><path id="" clip-rule="evenodd" transform="matrix(1 0 0 1 0 0)" d="M89.424 275.61L451.274 275.61L451.274 275.61L451.274 263.61L451.274 263.61L89.424 263.61z" /></clipPath><clipPath id="122"><path id="" clip-rule="evenodd" transform="matrix(1 0 0 1 0 0)" d="M89.424 275.61L451.274 275.61L451.274 275.61L451.274 263.61L451.274 263.61L89.424 263.61z" /></clipPath><clipPath id="123"><path id="" clip-rule="evenodd" transform="matrix(1 0 0 1 0 0)" d="M89.424 275.61L451.274 275.61L451.274 275.61L451.274 263.61L451.274 263.61L89.424 263.61z" /></clipPath><clipPath id="124"><path id="" clip-rule="evenodd" transform="matrix(1 0 0 1 0 0)" d="M89.424 275.61L451.274 275.61L451.274 275.61L451.274 263.61L451.274 263.61L89.424 263.61z" /></clipPath><clipPath id="125"><path id="" clip-rule="evenodd" transform="matrix(1 0 0 1 0 0)" d="M451.51 275.61L503.494 275.61L503.494 275.61L503.494 263.61L503.494 263.61L451.51 263.61z" /></clipPath><clipPath id="126"><path id="" clip-rule="evenodd" transform="matrix(1 0 0 1 0 0)" d="M451.51 275.61L503.494 275.61L503.494 275.61L503.494 263.61L503.494 263.61L451.51 263.61z" /></clipPath><clipPath id="127"><path id="" clip-rule="evenodd" transform="matrix(1 0 0 1 0 0)" d="M451.51 275.61L503.494 275.61L503.494 275.61L503.494 263.61L503.494 263.61L451.51 263.61z" /></clipPath><clipPath id="128"><path id="" clip-rule="evenodd" transform="matrix(1 0 0 1 0 0)" d="M451.51 275.61L503.494 275.61L503.494 275.61L503.494 263.61L503.494 263.61L451.51 263.61z" /></clipPath><clipPath id="129"><path id="" clip-rule="evenodd" transform="matrix(1 0 0 1 0 0)" d="M89.424 288.09L451.274 288.09L451.274 288.09L451.274 276.09L451.274 276.09L89.424 276.09z" /></clipPath><clipPath id="130"><path id="" clip-rule="evenodd" transform="matrix(1 0 0 1 0 0)" d="M89.424 288.09L451.274 288.09L451.274 288.09L451.274 276.09L451.274 276.09L89.424 276.09z" /></clipPath><clipPath id="131"><path id="" clip-rule="evenodd" transform="matrix(1 0 0 1 0 0)" d="M89.424 288.09L451.274 288.09L451.274 288.09L451.274 276.09L451.274 276.09L89.424 276.09z" /></clipPath><clipPath id="132"><path id="" clip-rule="evenodd" transform="matrix(1 0 0 1 0 0)" d="M89.424 288.09L451.274 288.09L451.274 288.09L451.274 276.09L451.274 276.09L89.424 276.09z" /></clipPath><clipPath id="133"><path id="" clip-rule="evenodd" transform="matrix(1 0 0 1 0 0)" d="M451.51 288.09L503.494 288.09L503.494 288.09L503.494 276.09L503.494 276.09L451.51 276.09z" /></clipPath><clipPath id="134"><path id="" clip-rule="evenodd" transform="matrix(1 0 0 1 0 0)" d="M451.51 288.09L503.494 288.09L503.494 288.09L503.494 276.09L503.494 276.09L451.51 276.09z" /></clipPath><clipPath id="135"><path id="" clip-rule="evenodd" transform="matrix(1 0 0 1 0 0)" d="M451.51 288.09L503.494 288.09L503.494 288.09L503.494 276.09L503.494 276.09L451.51 276.09z" /></clipPath><clipPath id="136"><path id="" clip-rule="evenodd" transform="matrix(1 0 0 1 0 0)" d="M451.51 288.09L503.494 288.09L503.494 288.09L503.494 276.09L503.494 276.09L451.51 276.09z" /></clipPath><clipPath id="137"><path id="" clip-rule="evenodd" transform="matrix(1 0 0 1 0 0)" d="M89.424 300.57L451.274 300.57L451.274 300.57L451.274 288.57L451.274 288.57L89.424 288.57z" /></clipPath><clipPath id="138"><path id="" clip-rule="evenodd" transform="matrix(1 0 0 1 0 0)" d="M89.424 300.57L451.274 300.57L451.274 300.57L451.274 288.57L451.274 288.57L89.424 288.57z" /></clipPath><clipPath id="139"><path id="" clip-rule="evenodd" transform="matrix(1 0 0 1 0 0)" d="M89.424 300.57L451.274 300.57L451.274 300.57L451.274 288.57L451.274 288.57L89.424 288.57z" /></clipPath><clipPath id="140"><path id="" clip-rule="evenodd" transform="matrix(1 0 0 1 0 0)" d="M89.424 300.57L451.274 300.57L451.274 300.57L451.274 288.57L451.274 288.57L89.424 288.57z" /></clipPath><clipPath id="141"><path id="" clip-rule="evenodd" transform="matrix(1 0 0 1 0 0)" d="M451.51 300.57L503.494 300.57L503.494 300.57L503.494 288.57L503.494 288.57L451.51 288.57z" /></clipPath><clipPath id="142"><path id="" clip-rule="evenodd" transform="matrix(1 0 0 1 0 0)" d="M451.51 300.57L503.494 300.57L503.494 300.57L503.494 288.57L503.494 288.57L451.51 288.57z" /></clipPath><clipPath id="143"><path id="" clip-rule="evenodd" transform="matrix(1 0 0 1 0 0)" d="M451.51 300.57L503.494 300.57L503.494 300.57L503.494 288.57L503.494 288.57L451.51 288.57z" /></clipPath><clipPath id="144"><path id="" clip-rule="evenodd" transform="matrix(1 0 0 1 0 0)" d="M451.51 300.57L503.494 300.57L503.494 300.57L503.494 288.57L503.494 288.57L451.51 288.57z" /></clipPath><clipPath id="145"><path id="" clip-rule="evenodd" transform="matrix(1 0 0 1 0 0)" d="M8.873E-06 841L595.44 841L595.44 841L595.44 -0.6799927L595.44 -0.6799927L8.873E-06 -0.6799927z" /></clipPath><clipPath id="146"><path id="" clip-rule="evenodd" transform="matrix(1 0 0 1 0 0)" d="M8.873E-06 841L595.44 841L595.44 841L595.44 -0.6799927L595.44 -0.6799927L8.873E-06 -0.6799927z" /></clipPath><clipPath id="147"><path id="" clip-rule="evenodd" transform="matrix(1 0 0 1 0 0)" d="M8.873E-06 841L595.44 841L595.44 841L595.44 -0.6799927L595.44 -0.6799927L8.873E-06 -0.6799927z" /></clipPath><clipPath id="148"><path id="" clip-rule="evenodd" transform="matrix(1 0 0 1 0 0)" d="M8.873E-06 841L595.44 841L595.44 841L595.44 -0.6799927L595.44 -0.6799927L8.873E-06 -0.6799927z" /></clipPath><clipPath id="149"><path id="" clip-rule="evenodd" transform="matrix(1 0 0 1 0 0)" d="M8.873E-06 841L595.44 841L595.44 841L595.44 -0.6799927L595.44 -0.6799927L8.873E-06 -0.6799927z" /></clipPath><clipPath id="150"><path id="" clip-rule="evenodd" transform="matrix(1 0 0 1 0 0)" d="M8.873E-06 841L595.44 841L595.44 841L595.44 -0.6799927L595.44 -0.6799927L8.873E-06 -0.6799927z" /></clipPath><clipPath id="151"><path id="" clip-rule="evenodd" transform="matrix(1 0 0 1 0 0)" d="M8.873E-06 841L595.44 841L595.44 841L595.44 -0.6799927L595.44 -0.6799927L8.873E-06 -0.6799927z" /></clipPath><clipPath id="152"><path id="" clip-rule="evenodd" transform="matrix(1 0 0 1 0 0)" d="M8.873E-06 841L595.44 841L595.44 841L595.44 -0.6799927L595.44 -0.6799927L8.873E-06 -0.6799927z" /></clipPath><clipPath id="153"><path id="" clip-rule="evenodd" transform="matrix(1 0 0 1 0 0)" d="M8.873E-06 841L595.44 841L595.44 841L595.44 -0.6799927L595.44 -0.6799927L8.873E-06 -0.6799927z" /></clipPath><clipPath id="154"><path id="" clip-rule="evenodd" transform="matrix(1 0 0 1 0 0)" d="M8.873E-06 841L595.44 841L595.44 841L595.44 -0.6799927L595.44 -0.6799927L8.873E-06 -0.6799927z" /></clipPath><clipPath id="155"><path id="" clip-rule="evenodd" transform="matrix(1 0 0 1 0 0)" d="M8.873E-06 841L595.44 841L595.44 841L595.44 -0.6799927L595.44 -0.6799927L8.873E-06 -0.6799927z" /></clipPath><clipPath id="156"><path id="" clip-rule="evenodd" transform="matrix(1 0 0 1 0 0)" d="M8.873E-06 841L595.44 841L595.44 841L595.44 -0.6799927L595.44 -0.6799927L8.873E-06 -0.6799927z" /></clipPath><clipPath id="157"><path id="" clip-rule="evenodd" transform="matrix(1 0 0 1 0 0)" d="M8.873E-06 841L595.44 841L595.44 841L595.44 -0.6799927L595.44 -0.6799927L8.873E-06 -0.6799927z" /></clipPath><clipPath id="158"><path id="" clip-rule="evenodd" transform="matrix(1 0 0 1 0 0)" d="M8.873E-06 841L595.44 841L595.44 841L595.44 -0.6799927L595.44 -0.6799927L8.873E-06 -0.6799927z" /></clipPath><clipPath id="159"><path id="" clip-rule="evenodd" transform="matrix(1 0 0 1 0 0)" d="M8.873E-06 841L595.44 841L595.44 841L595.44 -0.6799927L595.44 -0.6799927L8.873E-06 -0.6799927z" /></clipPath><clipPath id="160"><path id="" clip-rule="evenodd" transform="matrix(1 0 0 1 0 0)" d="M8.873E-06 841L595.44 841L595.44 841L595.44 -0.6799927L595.44 -0.6799927L8.873E-06 -0.6799927z" /></clipPath><clipPath id="161"><path id="" clip-rule="evenodd" transform="matrix(1 0 0 1 0 0)" d="M8.873E-06 841L595.44 841L595.44 841L595.44 -0.6799927L595.44 -0.6799927L8.873E-06 -0.6799927z" /></clipPath><clipPath id="162"><path id="" clip-rule="evenodd" transform="matrix(1 0 0 1 0 0)" d="M8.873E-06 841L595.44 841L595.44 841L595.44 -0.6799927L595.44 -0.6799927L8.873E-06 -0.6799927z" /></clipPath><clipPath id="163"><path id="" clip-rule="evenodd" transform="matrix(1 0 0 1 0 0)" d="M8.873E-06 841L595.44 841L595.44 841L595.44 -0.6799927L595.44 -0.6799927L8.873E-06 -0.6799927z" /></clipPath><clipPath id="164"><path id="" clip-rule="evenodd" transform="matrix(1 0 0 1 0 0)" d="M8.873E-06 841L595.44 841L595.44 841L595.44 -0.6799927L595.44 -0.6799927L8.873E-06 -0.6799927z" /></clipPath><clipPath id="165"><path id="" clip-rule="evenodd" transform="matrix(1 0 0 1 0 0)" d="M8.873E-06 841L595.44 841L595.44 841L595.44 -0.6799927L595.44 -0.6799927L8.873E-06 -0.6799927z" /></clipPath><clipPath id="166"><path id="" clip-rule="evenodd" transform="matrix(1 0 0 1 0 0)" d="M8.873E-06 841L595.44 841L595.44 841L595.44 -0.6799927L595.44 -0.6799927L8.873E-06 -0.6799927z" /></clipPath><clipPath id="167"><path id="" clip-rule="evenodd" transform="matrix(1 0 0 1 0 0)" d="M8.873E-06 841L595.44 841L595.44 841L595.44 -0.6799927L595.44 -0.6799927L8.873E-06 -0.6799927z" /></clipPath><clipPath id="168"><path id="" clip-rule="evenodd" transform="matrix(1 0 0 1 0 0)" d="M8.873E-06 841L595.44 841L595.44 841L595.44 -0.6799927L595.44 -0.6799927L8.873E-06 -0.6799927z" /></clipPath><clipPath id="169"><path id="" clip-rule="evenodd" transform="matrix(1 0 0 1 0 0)" d="M8.873E-06 841L595.44 841L595.44 841L595.44 -0.6799927L595.44 -0.6799927L8.873E-06 -0.6799927z" /></clipPath><clipPath id="170"><path id="" clip-rule="evenodd" transform="matrix(1 0 0 1 0 0)" d="M8.873E-06 841L595.44 841L595.44 841L595.44 -0.6799927L595.44 -0.6799927L8.873E-06 -0.6799927z" /></clipPath><clipPath id="171"><path id="" clip-rule="evenodd" transform="matrix(1 0 0 1 0 0)" d="M8.873E-06 841L595.44 841L595.44 841L595.44 -0.6799927L595.44 -0.6799927L8.873E-06 -0.6799927z" /></clipPath><clipPath id="172"><path id="" clip-rule="evenodd" transform="matrix(1 0 0 1 0 0)" d="M8.873E-06 841L595.44 841L595.44 841L595.44 -0.6799927L595.44 -0.6799927L8.873E-06 -0.6799927z" /></clipPath><clipPath id="173"><path id="" clip-rule="evenodd" transform="matrix(1 0 0 1 0 0)" d="M8.873E-06 841L595.44 841L595.44 841L595.44 -0.6799927L595.44 -0.6799927L8.873E-06 -0.6799927z" /></clipPath><clipPath id="174"><path id="" clip-rule="evenodd" transform="matrix(1 0 0 1 0 0)" d="M8.873E-06 841L595.44 841L595.44 841L595.44 -0.6799927L595.44 -0.6799927L8.873E-06 -0.6799927z" /></clipPath><clipPath id="175"><path id="" clip-rule="evenodd" transform="matrix(1 0 0 1 0 0)" d="M8.873E-06 841L595.44 841L595.44 841L595.44 -0.6799927L595.44 -0.6799927L8.873E-06 -0.6799927z" /></clipPath><clipPath id="176"><path id="" clip-rule="evenodd" transform="matrix(1 0 0 1 0 0)" d="M8.873E-06 841L595.44 841L595.44 841L595.44 -0.6799927L595.44 -0.6799927L8.873E-06 -0.6799927z" /></clipPath><clipPath id="177"><path id="" clip-rule="evenodd" transform="matrix(1 0 0 1 0 0)" d="M8.873E-06 841L595.44 841L595.44 841L595.44 -0.6799927L595.44 -0.6799927L8.873E-06 -0.6799927z" /></clipPath><clipPath id="178"><path id="" clip-rule="evenodd" transform="matrix(1 0 0 1 0 0)" d="M8.873E-06 841L595.44 841L595.44 841L595.44 -0.6799927L595.44 -0.6799927L8.873E-06 -0.6799927z" /></clipPath><clipPath id="179"><path id="" clip-rule="evenodd" transform="matrix(1 0 0 1 0 0)" d="M8.873E-06 841L595.44 841L595.44 841L595.44 -0.6799927L595.44 -0.6799927L8.873E-06 -0.6799927z" /></clipPath><clipPath id="180"><path id="" clip-rule="evenodd" transform="matrix(1 0 0 1 0 0)" d="M8.873E-06 841L595.44 841L595.44 841L595.44 -0.6799927L595.44 -0.6799927L8.873E-06 -0.6799927z" /></clipPath><clipPath id="181"><path id="" clip-rule="evenodd" transform="matrix(1 0 0 1 0 0)" d="M8.873E-06 841L595.44 841L595.44 841L595.44 -0.6799927L595.44 -0.6799927L8.873E-06 -0.6799927z" /></clipPath><clipPath id="182"><path id="" clip-rule="evenodd" transform="matrix(1 0 0 1 0 0)" d="M8.873E-06 841L595.44 841L595.44 841L595.44 -0.6799927L595.44 -0.6799927L8.873E-06 -0.6799927z" /></clipPath><clipPath id="183"><path id="" clip-rule="evenodd" transform="matrix(1 0 0 1 0 0)" d="M8.873E-06 841L595.44 841L595.44 841L595.44 -0.6799927L595.44 -0.6799927L8.873E-06 -0.6799927z" /></clipPath><clipPath id="184"><path id="" clip-rule="evenodd" transform="matrix(1 0 0 1 0 0)" d="M8.873E-06 841L595.44 841L595.44 841L595.44 -0.6799927L595.44 -0.6799927L8.873E-06 -0.6799927z" /></clipPath><clipPath id="185"><path id="" clip-rule="evenodd" transform="matrix(1 0 0 1 0 0)" d="M8.873E-06 841L595.44 841L595.44 841L595.44 -0.6799927L595.44 -0.6799927L8.873E-06 -0.6799927z" /></clipPath><clipPath id="186"><path id="" clip-rule="evenodd" transform="matrix(1 0 0 1 0 0)" d="M8.873E-06 841L595.44 841L595.44 841L595.44 -0.6799927L595.44 -0.6799927L8.873E-06 -0.6799927z" /></clipPath><clipPath id="187"><path id="" clip-rule="evenodd" transform="matrix(1 0 0 1 0 0)" d="M8.873E-06 841L595.44 841L595.44 841L595.44 -0.6799927L595.44 -0.6799927L8.873E-06 -0.6799927z" /></clipPath><clipPath id="188"><path id="" clip-rule="evenodd" transform="matrix(1 0 0 1 0 0)" d="M8.873E-06 841L595.44 841L595.44 841L595.44 -0.6799927L595.44 -0.6799927L8.873E-06 -0.6799927z" /></clipPath><clipPath id="189"><path id="" clip-rule="evenodd" transform="matrix(1 0 0 1 0 0)" d="M8.873E-06 841L595.44 841L595.44 841L595.44 -0.6799927L595.44 -0.6799927L8.873E-06 -0.6799927z" /></clipPath><clipPath id="190"><path id="" clip-rule="evenodd" transform="matrix(1 0 0 1 0 0)" d="M8.873E-06 841L595.44 841L595.44 841L595.44 -0.6799927L595.44 -0.6799927L8.873E-06 -0.6799927z" /></clipPath><clipPath id="191"><path id="" clip-rule="evenodd" transform="matrix(1 0 0 1 0 0)" d="M8.873E-06 841L595.44 841L595.44 841L595.44 -0.6799927L595.44 -0.6799927L8.873E-06 -0.6799927z" /></clipPath><clipPath id="192"><path id="" clip-rule="evenodd" transform="matrix(1 0 0 1 0 0)" d="M8.873E-06 841L595.44 841L595.44 841L595.44 -0.6799927L595.44 -0.6799927L8.873E-06 -0.6799927z" /></clipPath><clipPath id="193"><path id="" clip-rule="evenodd" transform="matrix(1 0 0 1 0 0)" d="M8.873E-06 841L595.44 841L595.44 841L595.44 -0.6799927L595.44 -0.6799927L8.873E-06 -0.6799927z" /></clipPath><clipPath id="194"><path id="" clip-rule="evenodd" transform="matrix(1 0 0 1 0 0)" d="M8.873E-06 841L595.44 841L595.44 841L595.44 -0.6799927L595.44 -0.6799927L8.873E-06 -0.6799927z" /></clipPath><clipPath id="195"><path id="" clip-rule="evenodd" transform="matrix(1 0 0 1 0 0)" d="M8.873E-06 841L595.44 841L595.44 841L595.44 -0.6799927L595.44 -0.6799927L8.873E-06 -0.6799927z" /></clipPath><clipPath id="196"><path id="" clip-rule="evenodd" transform="matrix(1 0 0 1 0 0)" d="M8.873E-06 841L595.44 841L595.44 841L595.44 -0.6799927L595.44 -0.6799927L8.873E-06 -0.6799927z" /></clipPath><clipPath id="197"><path id="" clip-rule="evenodd" transform="matrix(1 0 0 1 0 0)" d="M8.873E-06 841L595.44 841L595.44 841L595.44 -0.6799927L595.44 -0.6799927L8.873E-06 -0.6799927z" /></clipPath><clipPath id="198"><path id="" clip-rule="evenodd" transform="matrix(1 0 0 1 0 0)" d="M8.873E-06 841L595.44 841L595.44 841L595.44 -0.6799927L595.44 -0.6799927L8.873E-06 -0.6799927z" /></clipPath><clipPath id="199"><path id="" clip-rule="evenodd" transform="matrix(1 0 0 1 0 0)" d="M8.873E-06 841L595.44 841L595.44 841L595.44 -0.6799927L595.44 -0.6799927L8.873E-06 -0.6799927z" /></clipPath><clipPath id="200"><path id="" clip-rule="evenodd" transform="matrix(1 0 0 1 0 0)" d="M8.873E-06 841L595.44 841L595.44 841L595.44 -0.6799927L595.44 -0.6799927L8.873E-06 -0.6799927z" /></clipPath><clipPath id="201"><path id="" clip-rule="evenodd" transform="matrix(1 0 0 1 0 0)" d="M8.873E-06 841L595.44 841L595.44 841L595.44 -0.6799927L595.44 -0.6799927L8.873E-06 -0.6799927z" /></clipPath><clipPath id="202"><path id="" clip-rule="evenodd" transform="matrix(1 0 0 1 0 0)" d="M8.873E-06 841L595.44 841L595.44 841L595.44 -0.6799927L595.44 -0.6799927L8.873E-06 -0.6799927z" /></clipPath><clipPath id="203"><path id="" clip-rule="evenodd" transform="matrix(1 0 0 1 0 0)" d="M8.873E-06 841L595.44 841L595.44 841L595.44 -0.6799927L595.44 -0.6799927L8.873E-06 -0.6799927z" /></clipPath><clipPath id="204"><path id="" clip-rule="evenodd" transform="matrix(1 0 0 1 0 0)" d="M8.873E-06 841L595.44 841L595.44 841L595.44 -0.6799927L595.44 -0.6799927L8.873E-06 -0.6799927z" /></clipPath><clipPath id="205"><path id="" clip-rule="evenodd" transform="matrix(1 0 0 1 0 0)" d="M8.873E-06 841L595.44 841L595.44 841L595.44 -0.6799927L595.44 -0.6799927L8.873E-06 -0.6799927z" /></clipPath><clipPath id="206"><path id="" clip-rule="evenodd" transform="matrix(1 0 0 1 0 0)" d="M8.873E-06 841L595.44 841L595.44 841L595.44 -0.6799927L595.44 -0.6799927L8.873E-06 -0.6799927z" /></clipPath><clipPath id="207"><path id="" clip-rule="evenodd" transform="matrix(1 0 0 1 0 0)" d="M8.873E-06 841L595.44 841L595.44 841L595.44 -0.6799927L595.44 -0.6799927L8.873E-06 -0.6799927z" /></clipPath><clipPath id="208"><path id="" clip-rule="evenodd" transform="matrix(1 0 0 1 0 0)" d="M8.873E-06 841L595.44 841L595.44 841L595.44 -0.6799927L595.44 -0.6799927L8.873E-06 -0.6799927z" /></clipPath><clipPath id="209"><path id="" clip-rule="evenodd" transform="matrix(1 0 0 1 0 0)" d="M8.873E-06 841L595.44 841L595.44 841L595.44 -0.6799927L595.44 -0.6799927L8.873E-06 -0.6799927z" /></clipPath><clipPath id="210"><path id="" clip-rule="evenodd" transform="matrix(1 0 0 1 0 0)" d="M8.873E-06 841L595.44 841L595.44 841L595.44 -0.6799927L595.44 -0.6799927L8.873E-06 -0.6799927z" /></clipPath></defs><g transform="matrix(1.333333 0 0 1.333333 0 0)"><g clip-path="url(#1)"><g clip-path="url(#2)"></g><g clip-path="url(#3)"></g><g clip-path="url(#4)"></g><g clip-path="url(#5)"></g><g clip-path="url(#6)"></g><g clip-path="url(#7)"></g><g clip-path="url(#8)"></g><g clip-path="url(#9)"></g><g clip-path="url(#10)"></g><g clip-path="url(#11)"></g><g clip-path="url(#12)"></g><g clip-path="url(#13)"></g><g clip-path="url(#14)"></g><g clip-path="url(#15)"></g><g clip-path="url(#16)"></g><g clip-path="url(#17)"></g><g clip-path="url(#18)"></g><g clip-path="url(#19)"></g><g clip-path="url(#20)"><g clip-path="url(#21)"></g><g clip-path="url(#22)"></g><g clip-path="url(#23)"></g></g><g clip-path="url(#24)"><g clip-path="url(#25)"></g><g clip-path="url(#26)"></g><g clip-path="url(#27)"></g></g><path id="86" transform="matrix(1 0 0 -1 0 841)" d="M88.944 715.42L89.424 715.42L89.424 715.42L89.424 715.9L89.424 715.9L88.944 715.9z" stroke="none" fill="#000000" fill-rule="evenodd" /><path id="87" transform="matrix(1 0 0 -1 0 841)" d="M88.944 715.42L89.424 715.42L89.424 715.42L89.424 715.9L89.424 715.9L88.944 715.9z" stroke="none" fill="#000000" fill-rule="evenodd" /><path id="88" transform="matrix(1 0 0 -1 0 841)" d="M89.424 715.42L451.274 715.42L451.274 715.42L451.274 715.9L451.274 715.9L89.424 715.9z" stroke="none" fill="#000000" fill-rule="evenodd" /><path id="89" transform="matrix(1 0 0 -1 0 841)" d="M451.27 715.42L451.75 715.42L451.75 715.42L451.75 715.9L451.75 715.9L451.27 715.9z" stroke="none" fill="#000000" fill-rule="evenodd" /><path id="90" transform="matrix(1 0 0 -1 0 841)" d="M451.75 715.42L503.374 715.42L503.374 715.42L503.374 715.9L503.374 715.9L451.75 715.9z" stroke="none" fill="#000000" fill-rule="evenodd" /><path id="91" transform="matrix(1 0 0 -1 0 841)" d="M503.38 715.42L503.86 715.42L503.86 715.42L503.86 715.9L503.86 715.9L503.38 715.9z" stroke="none" fill="#000000" fill-rule="evenodd" /><path id="92" transform="matrix(1 0 0 -1 0 841)" d="M503.38 715.42L503.86 715.42L503.86 715.42L503.86 715.9L503.86 715.9L503.38 715.9z" stroke="none" fill="#000000" fill-rule="evenodd" /><path id="93" transform="matrix(1 0 0 -1 0 841)" d="M88.944 703.42L89.424 703.42L89.424 703.42L89.424 715.42L89.424 715.42L88.944 715.42z" stroke="none" fill="#000000" fill-rule="evenodd" /><path id="94" transform="matrix(1 0 0 -1 0 841)" d="M451.27 703.42L451.75 703.42L451.75 703.42L451.75 715.42L451.75 715.42L451.27 715.42z" stroke="none" fill="#000000" fill-rule="evenodd" /><path id="95" transform="matrix(1 0 0 -1 0 841)" d="M503.38 703.42L503.86 703.42L503.86 703.42L503.86 715.42L503.86 715.42L503.38 715.42z" stroke="none" fill="#000000" fill-rule="evenodd" /><g clip-path="url(#28)"><g clip-path="url(#29)"></g><g clip-path="url(#30)"></g><g clip-path="url(#31)"></g><g clip-path="url(#32)"></g><g clip-path="url(#33)"></g><g clip-path="url(#34)"></g></g><g clip-path="url(#35)"><g clip-path="url(#36)"></g><g clip-path="url(#37)"></g><g clip-path="url(#38)"></g></g><path id="126" transform="matrix(1 0 0 -1 0 841)" d="M88.944 702.94L89.424 702.94L89.424 702.94L89.424 703.42L89.424 703.42L88.944 703.42z" stroke="none" fill="#000000" fill-rule="evenodd" /><path id="127" transform="matrix(1 0 0 -1 0 841)" d="M89.424 702.94L451.274 702.94L451.274 702.94L451.274 703.42L451.274 703.42L89.424 703.42z" stroke="none" fill="#000000" fill-rule="evenodd" /><path id="128" transform="matrix(1 0 0 -1 0 841)" d="M451.27 702.94L451.75 702.94L451.75 702.94L451.75 703.42L451.75 703.42L451.27 703.42z" stroke="none" fill="#000000" fill-rule="evenodd" /><path id="129" transform="matrix(1 0 0 -1 0 841)" d="M451.75 702.94L503.374 702.94L503.374 702.94L503.374 703.42L503.374 703.42L451.75 703.42z" stroke="none" fill="#000000" fill-rule="evenodd" /><path id="130" transform="matrix(1 0 0 -1 0 841)" d="M503.38 702.94L503.86 702.94L503.86 702.94L503.86 703.42L503.86 703.42L503.38 703.42z" stroke="none" fill="#000000" fill-rule="evenodd" /><path id="131" transform="matrix(1 0 0 -1 0 841)" d="M88.944 690.94L89.424 690.94L89.424 690.94L89.424 702.94L89.424 702.94L88.944 702.94z" stroke="none" fill="#000000" fill-rule="evenodd" /><path id="132" transform="matrix(1 0 0 -1 0 841)" d="M451.27 690.94L451.75 690.94L451.75 690.94L451.75 702.94L451.75 702.94L451.27 702.94z" stroke="none" fill="#000000" fill-rule="evenodd" /><path id="133" transform="matrix(1 0 0 -1 0 841)" d="M503.38 690.94L503.86 690.94L503.86 690.94L503.86 702.94L503.86 702.94L503.38 702.94z" stroke="none" fill="#000000" fill-rule="evenodd" /><g clip-path="url(#39)"><g clip-path="url(#40)"></g><g clip-path="url(#41)"></g><g clip-path="url(#42)"></g></g><g clip-path="url(#43)"><g clip-path="url(#44)"></g><g clip-path="url(#45)"></g><g clip-path="url(#46)"></g></g><path id="166" transform="matrix(1 0 0 -1 0 841)" d="M88.944 690.46L89.424 690.46L89.424 690.46L89.424 690.94L89.424 690.94L88.944 690.94z" stroke="none" fill="#000000" fill-rule="evenodd" /><path id="167" transform="matrix(1 0 0 -1 0 841)" d="M89.424 690.46L451.274 690.46L451.274 690.46L451.274 690.94L451.274 690.94L89.424 690.94z" stroke="none" fill="#000000" fill-rule="evenodd" /><path id="168" transform="matrix(1 0 0 -1 0 841)" d="M451.27 690.46L451.75 690.46L451.75 690.46L451.75 690.94L451.75 690.94L451.27 690.94z" stroke="none" fill="#000000" fill-rule="evenodd" /><path id="169" transform="matrix(1 0 0 -1 0 841)" d="M451.75 690.46L503.374 690.46L503.374 690.46L503.374 690.94L503.374 690.94L451.75 690.94z" stroke="none" fill="#000000" fill-rule="evenodd" /><path id="170" transform="matrix(1 0 0 -1 0 841)" d="M503.38 690.46L503.86 690.46L503.86 690.46L503.86 690.94L503.86 690.94L503.38 690.94z" stroke="none" fill="#000000" fill-rule="evenodd" /><path id="171" transform="matrix(1 0 0 -1 0 841)" d="M88.944 678.46L89.424 678.46L89.424 678.46L89.424 690.46L89.424 690.46L88.944 690.46z" stroke="none" fill="#000000" fill-rule="evenodd" /><path id="172" transform="matrix(1 0 0 -1 0 841)" d="M451.27 678.46L451.75 678.46L451.75 678.46L451.75 690.46L451.75 690.46L451.27 690.46z" stroke="none" fill="#000000" fill-rule="evenodd" /><path id="173" transform="matrix(1 0 0 -1 0 841)" d="M503.38 678.46L503.86 678.46L503.86 678.46L503.86 690.46L503.86 690.46L503.38 690.46z" stroke="none" fill="#000000" fill-rule="evenodd" /><g clip-path="url(#47)"><g clip-path="url(#48)"></g><g clip-path="url(#49)"></g><g clip-path="url(#50)"></g></g><g clip-path="url(#51)"><g clip-path="url(#52)"></g><g clip-path="url(#53)"></g><g clip-path="url(#54)"></g></g><path id="206" transform="matrix(1 0 0 -1 0 841)" d="M88.944 677.98L89.424 677.98L89.424 677.98L89.424 678.46L89.424 678.46L88.944 678.46z" stroke="none" fill="#000000" fill-rule="evenodd" /><path id="207" transform="matrix(1 0 0 -1 0 841)" d="M89.424 677.98L451.274 677.98L451.274 677.98L451.274 678.46L451.274 678.46L89.424 678.46z" stroke="none" fill="#000000" fill-rule="evenodd" /><path id="208" transform="matrix(1 0 0 -1 0 841)" d="M451.27 677.98L451.75 677.98L451.75 677.98L451.75 678.46L451.75 678.46L451.27 678.46z" stroke="none" fill="#000000" fill-rule="evenodd" /><path id="209" transform="matrix(1 0 0 -1 0 841)" d="M451.75 677.98L503.374 677.98L503.374 677.98L503.374 678.46L503.374 678.46L451.75 678.46z" stroke="none" fill="#000000" fill-rule="evenodd" /><path id="210" transform="matrix(1 0 0 -1 0 841)" d="M503.38 677.98L503.86 677.98L503.86 677.98L503.86 678.46L503.86 678.46L503.38 678.46z" stroke="none" fill="#000000" fill-rule="evenodd" /><path id="211" transform="matrix(1 0 0 -1 0 841)" d="M88.944 665.98L89.424 665.98L89.424 665.98L89.424 677.98L89.424 677.98L88.944 677.98z" stroke="none" fill="#000000" fill-rule="evenodd" /><path id="212" transform="matrix(1 0 0 -1 0 841)" d="M451.27 665.98L451.75 665.98L451.75 665.98L451.75 677.98L451.75 677.98L451.27 677.98z" stroke="none" fill="#000000" fill-rule="evenodd" /><path id="213" transform="matrix(1 0 0 -1 0 841)" d="M503.38 665.98L503.86 665.98L503.86 665.98L503.86 677.98L503.86 677.98L503.38 677.98z" stroke="none" fill="#000000" fill-rule="evenodd" /><g clip-path="url(#55)"><g clip-path="url(#56)"></g><g clip-path="url(#57)"></g><g clip-path="url(#58)"></g><g clip-path="url(#59)"></g><g clip-path="url(#60)"></g><g clip-path="url(#61)"></g></g><g clip-path="url(#62)"><g clip-path="url(#63)"></g><g clip-path="url(#64)"></g><g clip-path="url(#65)"></g></g><path id="244" transform="matrix(1 0 0 -1 0 841)" d="M88.944 665.5L89.424 665.5L89.424 665.5L89.424 665.98L89.424 665.98L88.944 665.98z" stroke="none" fill="#000000" fill-rule="evenodd" /><path id="245" transform="matrix(1 0 0 -1 0 841)" d="M89.424 665.5L451.274 665.5L451.274 665.5L451.274 665.98L451.274 665.98L89.424 665.98z" stroke="none" fill="#000000" fill-rule="evenodd" /><path id="246" transform="matrix(1 0 0 -1 0 841)" d="M451.27 665.5L451.75 665.5L451.75 665.5L451.75 665.98L451.75 665.98L451.27 665.98z" stroke="none" fill="#000000" fill-rule="evenodd" /><path id="247" transform="matrix(1 0 0 -1 0 841)" d="M451.75 665.5L503.374 665.5L503.374 665.5L503.374 665.98L503.374 665.98L451.75 665.98z" stroke="none" fill="#000000" fill-rule="evenodd" /><path id="248" transform="matrix(1 0 0 -1 0 841)" d="M503.38 665.5L503.86 665.5L503.86 665.5L503.86 665.98L503.86 665.98L503.38 665.98z" stroke="none" fill="#000000" fill-rule="evenodd" /><path id="249" transform="matrix(1 0 0 -1 0 841)" d="M88.944 653.5L89.424 653.5L89.424 653.5L89.424 665.5L89.424 665.5L88.944 665.5z" stroke="none" fill="#000000" fill-rule="evenodd" /><path id="250" transform="matrix(1 0 0 -1 0 841)" d="M451.27 653.5L451.75 653.5L451.75 653.5L451.75 665.5L451.75 665.5L451.27 665.5z" stroke="none" fill="#000000" fill-rule="evenodd" /><path id="251" transform="matrix(1 0 0 -1 0 841)" d="M503.38 653.5L503.86 653.5L503.86 653.5L503.86 665.5L503.86 665.5L503.38 665.5z" stroke="none" fill="#000000" fill-rule="evenodd" /><g clip-path="url(#66)"><g clip-path="url(#67)"></g><g clip-path="url(#68)"></g><g clip-path="url(#69)"></g></g><g clip-path="url(#70)"><g clip-path="url(#71)"></g><g clip-path="url(#72)"></g><g clip-path="url(#73)"></g></g><path id="284" transform="matrix(1 0 0 -1 0 841)" d="M88.944 653.02L89.424 653.02L89.424 653.02L89.424 653.5L89.424 653.5L88.944 653.5z" stroke="none" fill="#000000" fill-rule="evenodd" /><path id="285" transform="matrix(1 0 0 -1 0 841)" d="M89.424 653.02L451.274 653.02L451.274 653.02L451.274 653.5L451.274 653.5L89.424 653.5z" stroke="none" fill="#000000" fill-rule="evenodd" /><path id="286" transform="matrix(1 0 0 -1 0 841)" d="M451.27 653.02L451.75 653.02L451.75 653.02L451.75 653.5L451.75 653.5L451.27 653.5z" stroke="none" fill="#000000" fill-rule="evenodd" /><path id="287" transform="matrix(1 0 0 -1 0 841)" d="M451.75 653.02L503.374 653.02L503.374 653.02L503.374 653.5L503.374 653.5L451.75 653.5z" stroke="none" fill="#000000" fill-rule="evenodd" /><path id="288" transform="matrix(1 0 0 -1 0 841)" d="M503.38 653.02L503.86 653.02L503.86 653.02L503.86 653.5L503.86 653.5L503.38 653.5z" stroke="none" fill="#000000" fill-rule="evenodd" /><path id="289" transform="matrix(1 0 0 -1 0 841)" d="M88.944 641.02L89.424 641.02L89.424 641.02L89.424 653.02L89.424 653.02L88.944 653.02z" stroke="none" fill="#000000" fill-rule="evenodd" /><path id="290" transform="matrix(1 0 0 -1 0 841)" d="M451.27 641.02L451.75 641.02L451.75 641.02L451.75 653.02L451.75 653.02L451.27 653.02z" stroke="none" fill="#000000" fill-rule="evenodd" /><path id="291" transform="matrix(1 0 0 -1 0 841)" d="M503.38 641.02L503.86 641.02L503.86 641.02L503.86 653.02L503.86 653.02L503.38 653.02z" stroke="none" fill="#000000" fill-rule="evenodd" /><g clip-path="url(#74)"><g clip-path="url(#75)"></g><g clip-path="url(#76)"></g><g clip-path="url(#77)"></g></g><g clip-path="url(#78)"><g clip-path="url(#79)"></g><g clip-path="url(#80)"></g><g clip-path="url(#81)"></g></g><path id="324" transform="matrix(1 0 0 -1 0 841)" d="M88.944 640.54L89.424 640.54L89.424 640.54L89.424 641.02L89.424 641.02L88.944 641.02z" stroke="none" fill="#000000" fill-rule="evenodd" /><path id="325" transform="matrix(1 0 0 -1 0 841)" d="M89.424 640.54L451.274 640.54L451.274 640.54L451.274 641.02L451.274 641.02L89.424 641.02z" stroke="none" fill="#000000" fill-rule="evenodd" /><path id="326" transform="matrix(1 0 0 -1 0 841)" d="M451.27 640.54L451.75 640.54L451.75 640.54L451.75 641.02L451.75 641.02L451.27 641.02z" stroke="none" fill="#000000" fill-rule="evenodd" /><path id="327" transform="matrix(1 0 0 -1 0 841)" d="M451.75 640.54L503.374 640.54L503.374 640.54L503.374 641.02L503.374 641.02L451.75 641.02z" stroke="none" fill="#000000" fill-rule="evenodd" /><path id="328" transform="matrix(1 0 0 -1 0 841)" d="M503.38 640.54L503.86 640.54L503.86 640.54L503.86 641.02L503.86 641.02L503.38 641.02z" stroke="none" fill="#000000" fill-rule="evenodd" /><path id="329" transform="matrix(1 0 0 -1 0 841)" d="M88.944 627.82L89.424 627.82L89.424 627.82L89.424 640.54L89.424 640.54L88.944 640.54z" stroke="none" fill="#000000" fill-rule="evenodd" /><path id="330" transform="matrix(1 0 0 -1 0 841)" d="M451.27 627.82L451.75 627.82L451.75 627.82L451.75 640.54L451.75 640.54L451.27 640.54z" stroke="none" fill="#000000" fill-rule="evenodd" /><path id="331" transform="matrix(1 0 0 -1 0 841)" d="M503.38 627.82L503.86 627.82L503.86 627.82L503.86 640.54L503.86 640.54L503.38 640.54z" stroke="none" fill="#000000" fill-rule="evenodd" /><g clip-path="url(#82)"><g clip-path="url(#83)"></g><g clip-path="url(#84)"></g><g clip-path="url(#85)"></g><g clip-path="url(#86)"></g><g clip-path="url(#87)"></g><g clip-path="url(#88)"></g><g clip-path="url(#89)"></g></g><g clip-path="url(#90)"><g clip-path="url(#91)"></g><g clip-path="url(#92)"></g><g clip-path="url(#93)"></g></g><path id="362" transform="matrix(1 0 0 -1 0 841)" d="M88.944 627.34L89.424 627.34L89.424 627.34L89.424 627.82L89.424 627.82L88.944 627.82z" stroke="none" fill="#000000" fill-rule="evenodd" /><path id="363" transform="matrix(1 0 0 -1 0 841)" d="M89.424 627.34L451.274 627.34L451.274 627.34L451.274 627.82L451.274 627.82L89.424 627.82z" stroke="none" fill="#000000" fill-rule="evenodd" /><path id="364" transform="matrix(1 0 0 -1 0 841)" d="M451.27 627.34L451.75 627.34L451.75 627.34L451.75 627.82L451.75 627.82L451.27 627.82z" stroke="none" fill="#000000" fill-rule="evenodd" /><path id="365" transform="matrix(1 0 0 -1 0 841)" d="M451.75 627.34L503.374 627.34L503.374 627.34L503.374 627.82L503.374 627.82L451.75 627.82z" stroke="none" fill="#000000" fill-rule="evenodd" /><path id="366" transform="matrix(1 0 0 -1 0 841)" d="M503.38 627.34L503.86 627.34L503.86 627.34L503.86 627.82L503.86 627.82L503.38 627.82z" stroke="none" fill="#000000" fill-rule="evenodd" /><path id="367" transform="matrix(1 0 0 -1 0 841)" d="M88.944 615.34L89.424 615.34L89.424 615.34L89.424 627.34L89.424 627.34L88.944 627.34z" stroke="none" fill="#000000" fill-rule="evenodd" /><path id="368" transform="matrix(1 0 0 -1 0 841)" d="M451.27 615.34L451.75 615.34L451.75 615.34L451.75 627.34L451.75 627.34L451.27 627.34z" stroke="none" fill="#000000" fill-rule="evenodd" /><path id="369" transform="matrix(1 0 0 -1 0 841)" d="M503.38 615.34L503.86 615.34L503.86 615.34L503.86 627.34L503.86 627.34L503.38 627.34z" stroke="none" fill="#000000" fill-rule="evenodd" /><g clip-path="url(#94)"><g clip-path="url(#95)"></g><g clip-path="url(#96)"></g><g clip-path="url(#97)"></g></g><g clip-path="url(#98)"><g clip-path="url(#99)"></g><g clip-path="url(#100)"></g><g clip-path="url(#101)"></g></g><path id="402" transform="matrix(1 0 0 -1 0 841)" d="M88.944 614.86L89.424 614.86L89.424 614.86L89.424 615.34L89.424 615.34L88.944 615.34z" stroke="none" fill="#000000" fill-rule="evenodd" /><path id="403" transform="matrix(1 0 0 -1 0 841)" d="M89.424 614.86L451.274 614.86L451.274 614.86L451.274 615.34L451.274 615.34L89.424 615.34z" stroke="none" fill="#000000" fill-rule="evenodd" /><path id="404" transform="matrix(1 0 0 -1 0 841)" d="M451.27 614.86L451.75 614.86L451.75 614.86L451.75 615.34L451.75 615.34L451.27 615.34z" stroke="none" fill="#000000" fill-rule="evenodd" /><path id="405" transform="matrix(1 0 0 -1 0 841)" d="M451.75 614.86L503.374 614.86L503.374 614.86L503.374 615.34L503.374 615.34L451.75 615.34z" stroke="none" fill="#000000" fill-rule="evenodd" /><path id="406" transform="matrix(1 0 0 -1 0 841)" d="M503.38 614.86L503.86 614.86L503.86 614.86L503.86 615.34L503.86 615.34L503.38 615.34z" stroke="none" fill="#000000" fill-rule="evenodd" /><path id="407" transform="matrix(1 0 0 -1 0 841)" d="M88.944 602.83L89.424 602.83L89.424 602.83L89.424 614.854L89.424 614.854L88.944 614.854z" stroke="none" fill="#000000" fill-rule="evenodd" /><path id="408" transform="matrix(1 0 0 -1 0 841)" d="M451.27 602.83L451.75 602.83L451.75 602.83L451.75 614.854L451.75 614.854L451.27 614.854z" stroke="none" fill="#000000" fill-rule="evenodd" /><path id="409" transform="matrix(1 0 0 -1 0 841)" d="M503.38 602.83L503.86 602.83L503.86 602.83L503.86 614.854L503.86 614.854L503.38 614.854z" stroke="none" fill="#000000" fill-rule="evenodd" /><g clip-path="url(#102)"><g clip-path="url(#103)"></g><g clip-path="url(#104)"></g><g clip-path="url(#105)"></g></g><g clip-path="url(#106)"><g clip-path="url(#107)"></g><g clip-path="url(#108)"></g><g clip-path="url(#109)"></g></g><path id="436" transform="matrix(1 0 0 -1 0 841)" d="M88.944 602.35L89.424 602.35L89.424 602.35L89.424 602.83L89.424 602.83L88.944 602.83z" stroke="none" fill="#000000" fill-rule="evenodd" /><path id="437" transform="matrix(1 0 0 -1 0 841)" d="M89.424 602.35L451.274 602.35L451.274 602.35L451.274 602.83L451.274 602.83L89.424 602.83z" stroke="none" fill="#000000" fill-rule="evenodd" /><path id="438" transform="matrix(1 0 0 -1 0 841)" d="M451.27 602.35L451.75 602.35L451.75 602.35L451.75 602.83L451.75 602.83L451.27 602.83z" stroke="none" fill="#000000" fill-rule="evenodd" /><path id="439" transform="matrix(1 0 0 -1 0 841)" d="M451.75 602.35L503.374 602.35L503.374 602.35L503.374 602.83L503.374 602.83L451.75 602.83z" stroke="none" fill="#000000" fill-rule="evenodd" /><path id="440" transform="matrix(1 0 0 -1 0 841)" d="M503.38 602.35L503.86 602.35L503.86 602.35L503.86 602.83L503.86 602.83L503.38 602.83z" stroke="none" fill="#000000" fill-rule="evenodd" /><path id="441" transform="matrix(1 0 0 -1 0 841)" d="M88.944 590.35L89.424 590.35L89.424 590.35L89.424 602.35L89.424 602.35L88.944 602.35z" stroke="none" fill="#000000" fill-rule="evenodd" /><path id="442" transform="matrix(1 0 0 -1 0 841)" d="M451.27 590.35L451.75 590.35L451.75 590.35L451.75 602.35L451.75 602.35L451.27 602.35z" stroke="none" fill="#000000" fill-rule="evenodd" /><path id="443" transform="matrix(1 0 0 -1 0 841)" d="M503.38 590.35L503.86 590.35L503.86 590.35L503.86 602.35L503.86 602.35L503.38 602.35z" stroke="none" fill="#000000" fill-rule="evenodd" /><g clip-path="url(#110)"><g clip-path="url(#111)"></g><g clip-path="url(#112)"></g><g clip-path="url(#113)"></g></g><g clip-path="url(#114)"><g clip-path="url(#115)"></g><g clip-path="url(#116)"></g><g clip-path="url(#117)"></g></g><path id="476" transform="matrix(1 0 0 -1 0 841)" d="M88.944 589.87L89.424 589.87L89.424 589.87L89.424 590.35L89.424 590.35L88.944 590.35z" stroke="none" fill="#000000" fill-rule="evenodd" /><path id="477" transform="matrix(1 0 0 -1 0 841)" d="M89.424 589.87L451.274 589.87L451.274 589.87L451.274 590.35L451.274 590.35L89.424 590.35z" stroke="none" fill="#000000" fill-rule="evenodd" /><path id="478" transform="matrix(1 0 0 -1 0 841)" d="M451.27 589.87L451.75 589.87L451.75 589.87L451.75 590.35L451.75 590.35L451.27 590.35z" stroke="none" fill="#000000" fill-rule="evenodd" /><path id="479" transform="matrix(1 0 0 -1 0 841)" d="M451.75 589.87L503.374 589.87L503.374 589.87L503.374 590.35L503.374 590.35L451.75 590.35z" stroke="none" fill="#000000" fill-rule="evenodd" /><path id="480" transform="matrix(1 0 0 -1 0 841)" d="M503.38 589.87L503.86 589.87L503.86 589.87L503.86 590.35L503.86 590.35L503.38 590.35z" stroke="none" fill="#000000" fill-rule="evenodd" /><path id="481" transform="matrix(1 0 0 -1 0 841)" d="M88.944 577.87L89.424 577.87L89.424 577.87L89.424 589.87L89.424 589.87L88.944 589.87z" stroke="none" fill="#000000" fill-rule="evenodd" /><path id="482" transform="matrix(1 0 0 -1 0 841)" d="M451.27 577.87L451.75 577.87L451.75 577.87L451.75 589.87L451.75 589.87L451.27 589.87z" stroke="none" fill="#000000" fill-rule="evenodd" /><path id="483" transform="matrix(1 0 0 -1 0 841)" d="M503.38 577.87L503.86 577.87L503.86 577.87L503.86 589.87L503.86 589.87L503.38 589.87z" stroke="none" fill="#000000" fill-rule="evenodd" /><g clip-path="url(#118)"><g clip-path="url(#119)"></g><g clip-path="url(#120)"></g><g clip-path="url(#121)"></g><g clip-path="url(#122)"></g><g clip-path="url(#123)"></g><g clip-path="url(#124)"></g></g><g clip-path="url(#125)"><g clip-path="url(#126)"></g><g clip-path="url(#127)"></g><g clip-path="url(#128)"></g></g><path id="514" transform="matrix(1 0 0 -1 0 841)" d="M88.944 577.39L89.424 577.39L89.424 577.39L89.424 577.87L89.424 577.87L88.944 577.87z" stroke="none" fill="#000000" fill-rule="evenodd" /><path id="515" transform="matrix(1 0 0 -1 0 841)" d="M89.424 577.39L451.274 577.39L451.274 577.39L451.274 577.87L451.274 577.87L89.424 577.87z" stroke="none" fill="#000000" fill-rule="evenodd" /><path id="516" transform="matrix(1 0 0 -1 0 841)" d="M451.27 577.39L451.75 577.39L451.75 577.39L451.75 577.87L451.75 577.87L451.27 577.87z" stroke="none" fill="#000000" fill-rule="evenodd" /><path id="517" transform="matrix(1 0 0 -1 0 841)" d="M451.75 577.39L503.374 577.39L503.374 577.39L503.374 577.87L503.374 577.87L451.75 577.87z" stroke="none" fill="#000000" fill-rule="evenodd" /><path id="518" transform="matrix(1 0 0 -1 0 841)" d="M503.38 577.39L503.86 577.39L503.86 577.39L503.86 577.87L503.86 577.87L503.38 577.87z" stroke="none" fill="#000000" fill-rule="evenodd" /><path id="519" transform="matrix(1 0 0 -1 0 841)" d="M88.944 565.39L89.424 565.39L89.424 565.39L89.424 577.39L89.424 577.39L88.944 577.39z" stroke="none" fill="#000000" fill-rule="evenodd" /><path id="520" transform="matrix(1 0 0 -1 0 841)" d="M451.27 565.39L451.75 565.39L451.75 565.39L451.75 577.39L451.75 577.39L451.27 577.39z" stroke="none" fill="#000000" fill-rule="evenodd" /><path id="521" transform="matrix(1 0 0 -1 0 841)" d="M503.38 565.39L503.86 565.39L503.86 565.39L503.86 577.39L503.86 577.39L503.38 577.39z" stroke="none" fill="#000000" fill-rule="evenodd" /><g clip-path="url(#129)"><g clip-path="url(#130)"></g><g clip-path="url(#131)"></g><g clip-path="url(#132)"></g></g><g clip-path="url(#133)"><g clip-path="url(#134)"></g><g clip-path="url(#135)"></g><g clip-path="url(#136)"></g></g><path id="554" transform="matrix(1 0 0 -1 0 841)" d="M88.944 564.91L89.424 564.91L89.424 564.91L89.424 565.39L89.424 565.39L88.944 565.39z" stroke="none" fill="#000000" fill-rule="evenodd" /><path id="555" transform="matrix(1 0 0 -1 0 841)" d="M89.424 564.91L451.274 564.91L451.274 564.91L451.274 565.39L451.274 565.39L89.424 565.39z" stroke="none" fill="#000000" fill-rule="evenodd" /><path id="556" transform="matrix(1 0 0 -1 0 841)" d="M451.27 564.91L451.75 564.91L451.75 564.91L451.75 565.39L451.75 565.39L451.27 565.39z" stroke="none" fill="#000000" fill-rule="evenodd" /><path id="557" transform="matrix(1 0 0 -1 0 841)" d="M451.75 564.91L503.374 564.91L503.374 564.91L503.374 565.39L503.374 565.39L451.75 565.39z" stroke="none" fill="#000000" fill-rule="evenodd" /><path id="558" transform="matrix(1 0 0 -1 0 841)" d="M503.38 564.91L503.86 564.91L503.86 564.91L503.86 565.39L503.86 565.39L503.38 565.39z" stroke="none" fill="#000000" fill-rule="evenodd" /><path id="559" transform="matrix(1 0 0 -1 0 841)" d="M88.944 552.91L89.424 552.91L89.424 552.91L89.424 564.91L89.424 564.91L88.944 564.91z" stroke="none" fill="#000000" fill-rule="evenodd" /><path id="560" transform="matrix(1 0 0 -1 0 841)" d="M451.27 552.91L451.75 552.91L451.75 552.91L451.75 564.91L451.75 564.91L451.27 564.91z" stroke="none" fill="#000000" fill-rule="evenodd" /><path id="561" transform="matrix(1 0 0 -1 0 841)" d="M503.38 552.91L503.86 552.91L503.86 552.91L503.86 564.91L503.86 564.91L503.38 564.91z" stroke="none" fill="#000000" fill-rule="evenodd" /><g clip-path="url(#137)"><g clip-path="url(#138)"></g><g clip-path="url(#139)"></g><g clip-path="url(#140)"></g></g><g clip-path="url(#141)"><g clip-path="url(#142)"></g><g clip-path="url(#143)"></g><g clip-path="url(#144)"></g></g><path id="593" transform="matrix(1 0 0 -1 0 841)" d="M88.944 552.43L89.424 552.43L89.424 552.43L89.424 552.91L89.424 552.91L88.944 552.91z" stroke="none" fill="#000000" fill-rule="evenodd" /><path id="594" transform="matrix(1 0 0 -1 0 841)" d="M89.424 552.43L451.274 552.43L451.274 552.43L451.274 552.91L451.274 552.91L89.424 552.91z" stroke="none" fill="#000000" fill-rule="evenodd" /><path id="595" transform="matrix(1 0 0 -1 0 841)" d="M451.27 552.43L451.75 552.43L451.75 552.43L451.75 552.91L451.75 552.91L451.27 552.91z" stroke="none" fill="#000000" fill-rule="evenodd" /><path id="596" transform="matrix(1 0 0 -1 0 841)" d="M451.75 552.43L503.374 552.43L503.374 552.43L503.374 552.91L503.374 552.91L451.75 552.91z" stroke="none" fill="#000000" fill-rule="evenodd" /><path id="597" transform="matrix(1 0 0 -1 0 841)" d="M503.38 552.43L503.86 552.43L503.86 552.43L503.86 552.91L503.86 552.91L503.38 552.91z" stroke="none" fill="#000000" fill-rule="evenodd" /><path id="598" transform="matrix(1 0 0 -1 0 841)" d="M88.944 540.43L89.424 540.43L89.424 540.43L89.424 552.43L89.424 552.43L88.944 552.43z" stroke="none" fill="#000000" fill-rule="evenodd" /><path id="599" transform="matrix(1 0 0 -1 0 841)" d="M88.944 539.95L89.424 539.95L89.424 539.95L89.424 540.43L89.424 540.43L88.944 540.43z" stroke="none" fill="#000000" fill-rule="evenodd" /><path id="600" transform="matrix(1 0 0 -1 0 841)" d="M88.944 539.95L89.424 539.95L89.424 539.95L89.424 540.43L89.424 540.43L88.944 540.43z" stroke="none" fill="#000000" fill-rule="evenodd" /><path id="601" transform="matrix(1 0 0 -1 0 841)" d="M89.424 539.95L451.274 539.95L451.274 539.95L451.274 540.43L451.274 540.43L89.424 540.43z" stroke="none" fill="#000000" fill-rule="evenodd" /><path id="602" transform="matrix(1 0 0 -1 0 841)" d="M451.27 540.43L451.75 540.43L451.75 540.43L451.75 552.43L451.75 552.43L451.27 552.43z" stroke="none" fill="#000000" fill-rule="evenodd" /><path id="603" transform="matrix(1 0 0 -1 0 841)" d="M451.27 539.95L451.75 539.95L451.75 539.95L451.75 540.43L451.75 540.43L451.27 540.43z" stroke="none" fill="#000000" fill-rule="evenodd" /><path id="604" transform="matrix(1 0 0 -1 0 841)" d="M451.75 539.95L503.374 539.95L503.374 539.95L503.374 540.43L503.374 540.43L451.75 540.43z" stroke="none" fill="#000000" fill-rule="evenodd" /><path id="605" transform="matrix(1 0 0 -1 0 841)" d="M503.38 540.43L503.86 540.43L503.86 540.43L503.86 552.43L503.86 552.43L503.38 552.43z" stroke="none" fill="#000000" fill-rule="evenodd" /><path id="606" transform="matrix(1 0 0 -1 0 841)" d="M503.38 539.95L503.86 539.95L503.86 539.95L503.86 540.43L503.86 540.43L503.38 540.43z" stroke="none" fill="#000000" fill-rule="evenodd" /><path id="607" transform="matrix(1 0 0 -1 0 841)" d="M503.38 539.95L503.86 539.95L503.86 539.95L503.86 540.43L503.86 540.43L503.38 540.43z" stroke="none" fill="#000000" fill-rule="evenodd" /><g clip-path="url(#145)"></g><g clip-path="url(#146)"></g><g clip-path="url(#147)"></g><g clip-path="url(#148)"></g><g clip-path="url(#149)"></g><g clip-path="url(#150)"></g><g clip-path="url(#151)"></g><g clip-path="url(#152)"></g><g clip-path="url(#153)"></g><g clip-path="url(#154)"></g><g clip-path="url(#155)"></g><g clip-path="url(#156)"></g><g clip-path="url(#157)"></g><g clip-path="url(#158)"></g><g clip-path="url(#159)"></g><g clip-path="url(#160)"></g><g clip-path="url(#161)"></g><g clip-path="url(#162)"></g><g clip-path="url(#163)"></g><g clip-path="url(#164)"></g><g clip-path="url(#165)"></g><g clip-path="url(#166)"></g><g clip-path="url(#167)"></g><g clip-path="url(#168)"></g><g clip-path="url(#169)"></g><g clip-path="url(#170)"></g><g clip-path="url(#171)"></g><g clip-path="url(#172)"></g><g clip-path="url(#173)"></g><g clip-path="url(#174)"></g><g clip-path="url(#175)"></g><g clip-path="url(#176)"></g><g clip-path="url(#177)"></g><g clip-path="url(#178)"></g><g clip-path="url(#179)"></g><g clip-path="url(#180)"></g><g clip-path="url(#181)"></g><g clip-path="url(#182)"></g><g clip-path="url(#183)"></g><g clip-path="url(#184)"></g><g clip-path="url(#185)"></g><g clip-path="url(#186)"></g><g clip-path="url(#187)"></g><g clip-path="url(#188)"></g><g clip-path="url(#189)"></g><g clip-path="url(#190)"></g><g clip-path="url(#191)"></g><g clip-path="url(#192)"></g><g clip-path="url(#193)"></g><g clip-path="url(#194)"></g><g clip-path="url(#195)"></g><g clip-path="url(#196)"></g><g clip-path="url(#197)"></g><g clip-path="url(#198)"></g><g clip-path="url(#199)"></g><g clip-path="url(#200)"></g><g clip-path="url(#201)"></g><g clip-path="url(#202)"></g><g clip-path="url(#203)"></g><g clip-path="url(#204)"></g><g clip-path="url(#205)"></g><g clip-path="url(#206)"></g><g clip-path="url(#207)"></g><g clip-path="url(#208)"></g><g clip-path="url(#209)"></g><g clip-path="url(#210)"></g></g></g></svg>