<svg xmlns="http://www.w3.org/2000/svg" xmlns:xlink="http://www.w3.org/1999/xlink" id="body_1" preserveAspectRatio="xMinYMin meet" viewBox="0 0 793 1121"><defs><clipPath id="1"><path id="" clip-rule="evenodd" transform="matrix(1 0 0 1 0 0)" d="M0 841L0 -0.6799927L0 -0.6799927L595.44 -0.6799927L595.44 -0.6799927L595.44 841L595.44 841L0 841z" /></clipPath><clipPath id="2"><path id="" clip-rule="evenodd" transform="matrix(1 0 0 1 0 0)" d="M8.873E-06 841L595.44 841L595.44 841L595.44 -0.6799927L595.44 -0.6799927L8.873E-06 -0.6799927z" /></clipPath><clipPath id="3"><path id="" clip-rule="evenodd" transform="matrix(1 0 0 1 0 0)" d="M8.873E-06 841L595.44 841L595.44 841L595.44 -0.6799927L595.44 -0.6799927L8.873E-06 -0.6799927z" /></clipPath><clipPath id="4"><path id="" clip-rule="evenodd" transform="matrix(1 0 0 1 0 0)" d="M295.25 807.76L300.29 807.76L300.29 807.76L300.29 794.92L300.29 794.92L295.25 794.92z" /></clipPath><clipPath id="5"><path id="" clip-rule="evenodd" transform="matrix(1 0 0 1 0 0)" d="M295.25 807.76L300.29 807.76L300.29 807.76L300.29 794.92L300.29 794.92L295.25 794.92z" /></clipPath><clipPath id="6"><path id="" clip-rule="evenodd" transform="matrix(1 0 0 1 0 0)" d="M295.25 807.76L300.29 807.76L300.29 807.76L300.29 794.92L300.29 794.92L295.25 794.92z" /></clipPath><clipPath id="7"><path id="" clip-rule="evenodd" transform="matrix(1 0 0 1 0 0)" d="M8.873E-06 841L595.44 841L595.44 841L595.44 -0.6799927L595.44 -0.6799927L8.873E-06 -0.6799927z" /></clipPath><clipPath id="8"><path id="" clip-rule="evenodd" transform="matrix(1 0 0 1 0 0)" d="M8.873E-06 841L595.44 841L595.44 841L595.44 -0.6799927L595.44 -0.6799927L8.873E-06 -0.6799927z" /></clipPath><clipPath id="9"><path id="" clip-rule="evenodd" transform="matrix(1 0 0 1 0 0)" d="M8.873E-06 841L595.44 841L595.44 841L595.44 -0.6799927L595.44 -0.6799927L8.873E-06 -0.6799927z" /></clipPath><clipPath id="10"><path id="" clip-rule="evenodd" transform="matrix(1 0 0 1 0 0)" d="M8.873E-06 841L595.44 841L595.44 841L595.44 -0.6799927L595.44 -0.6799927L8.873E-06 -0.6799927z" /></clipPath><clipPath id="11"><path id="" clip-rule="evenodd" transform="matrix(1 0 0 1 0 0)" d="M8.873E-06 841L595.44 841L595.44 841L595.44 -0.6799927L595.44 -0.6799927L8.873E-06 -0.6799927z" /></clipPath><clipPath id="12"><path id="" clip-rule="evenodd" transform="matrix(1 0 0 1 0 0)" d="M8.873E-06 841L595.44 841L595.44 841L595.44 -0.6799927L595.44 -0.6799927L8.873E-06 -0.6799927z" /></clipPath><clipPath id="13"><path id="" clip-rule="evenodd" transform="matrix(1 0 0 1 0 0)" d="M8.873E-06 841L595.44 841L595.44 841L595.44 -0.6799927L595.44 -0.6799927L8.873E-06 -0.6799927z" /></clipPath><clipPath id="14"><path id="" clip-rule="evenodd" transform="matrix(1 0 0 1 0 0)" d="M8.873E-06 841L595.44 841L595.44 841L595.44 -0.6799927L595.44 -0.6799927L8.873E-06 -0.6799927z" /></clipPath><clipPath id="15"><path id="" clip-rule="evenodd" transform="matrix(1 0 0 1 0 0)" d="M8.873E-06 841L595.44 841L595.44 841L595.44 -0.6799927L595.44 -0.6799927L8.873E-06 -0.6799927z" /></clipPath><clipPath id="16"><path id="" clip-rule="evenodd" transform="matrix(1 0 0 1 0 0)" d="M8.873E-06 841L595.44 841L595.44 841L595.44 -0.6799927L595.44 -0.6799927L8.873E-06 -0.6799927z" /></clipPath><clipPath id="17"><path id="" clip-rule="evenodd" transform="matrix(1 0 0 1 0 0)" d="M8.873E-06 841L595.44 841L595.44 841L595.44 -0.6799927L595.44 -0.6799927L8.873E-06 -0.6799927z" /></clipPath><clipPath id="18"><path id="" clip-rule="evenodd" transform="matrix(1 0 0 1 0 0)" d="M8.873E-06 841L595.44 841L595.44 841L595.44 -0.6799927L595.44 -0.6799927L8.873E-06 -0.6799927z" /></clipPath><clipPath id="19"><path id="" clip-rule="evenodd" transform="matrix(1 0 0 1 0 0)" d="M8.873E-06 841L595.44 841L595.44 841L595.44 -0.6799927L595.44 -0.6799927L8.873E-06 -0.6799927z" /></clipPath><clipPath id="20"><path id="" clip-rule="evenodd" transform="matrix(1 0 0 1 0 0)" d="M8.873E-06 841L595.44 841L595.44 841L595.44 -0.6799927L595.44 -0.6799927L8.873E-06 -0.6799927z" /></clipPath><clipPath id="21"><path id="" clip-rule="evenodd" transform="matrix(1 0 0 1 0 0)" d="M8.873E-06 841L595.44 841L595.44 841L595.44 -0.6799927L595.44 -0.6799927L8.873E-06 -0.6799927z" /></clipPath><clipPath id="22"><path id="" clip-rule="evenodd" transform="matrix(1 0 0 1 0 0)" d="M109.22 186.66L355.63 186.66L355.63 186.66L355.63 166.98L355.63 166.98L109.22 166.98z" /></clipPath><clipPath id="23"><path id="" clip-rule="evenodd" transform="matrix(1 0 0 1 0 0)" d="M109.22 186.66L355.63 186.66L355.63 186.66L355.63 166.98L355.63 166.98L109.22 166.98z" /></clipPath><clipPath id="24"><path id="" clip-rule="evenodd" transform="matrix(1 0 0 1 0 0)" d="M109.22 186.66L355.63 186.66L355.63 186.66L355.63 166.98L355.63 166.98L109.22 166.98z" /></clipPath><clipPath id="25"><path id="" clip-rule="evenodd" transform="matrix(1 0 0 1 0 0)" d="M109.22 186.66L355.63 186.66L355.63 186.66L355.63 166.98L355.63 166.98L109.22 166.98z" /></clipPath><clipPath id="26"><path id="" clip-rule="evenodd" transform="matrix(1 0 0 1 0 0)" d="M356.47 186.66L512.85 186.66L512.85 186.66L512.85 166.98L512.85 166.98L356.47 166.98z" /></clipPath><clipPath id="27"><path id="" clip-rule="evenodd" transform="matrix(1 0 0 1 0 0)" d="M356.47 186.66L512.85 186.66L512.85 186.66L512.85 166.98L512.85 166.98L356.47 166.98z" /></clipPath><clipPath id="28"><path id="" clip-rule="evenodd" transform="matrix(1 0 0 1 0 0)" d="M356.47 186.66L512.85 186.66L512.85 186.66L512.85 166.98L512.85 166.98L356.47 166.98z" /></clipPath><clipPath id="29"><path id="" clip-rule="evenodd" transform="matrix(1 0 0 1 0 0)" d="M109.22 209.1L355.63 209.1L355.63 209.1L355.63 187.38L355.63 187.38L109.22 187.38z" /></clipPath><clipPath id="30"><path id="" clip-rule="evenodd" transform="matrix(1 0 0 1 0 0)" d="M109.22 209.1L355.63 209.1L355.63 209.1L355.63 187.38L355.63 187.38L109.22 187.38z" /></clipPath><clipPath id="31"><path id="" clip-rule="evenodd" transform="matrix(1 0 0 1 0 0)" d="M109.22 209.1L355.63 209.1L355.63 209.1L355.63 187.38L355.63 187.38L109.22 187.38z" /></clipPath><clipPath id="32"><path id="" clip-rule="evenodd" transform="matrix(1 0 0 1 0 0)" d="M109.22 209.1L355.63 209.1L355.63 209.1L355.63 187.38L355.63 187.38L109.22 187.38z" /></clipPath><clipPath id="33"><path id="" clip-rule="evenodd" transform="matrix(1 0 0 1 0 0)" d="M109.22 209.1L355.63 209.1L355.63 209.1L355.63 187.38L355.63 187.38L109.22 187.38z" /></clipPath><clipPath id="34"><path id="" clip-rule="evenodd" transform="matrix(1 0 0 1 0 0)" d="M356.47 209.1L512.85 209.1L512.85 209.1L512.85 187.38L512.85 187.38L356.47 187.38z" /></clipPath><clipPath id="35"><path id="" clip-rule="evenodd" transform="matrix(1 0 0 1 0 0)" d="M356.47 209.1L512.85 209.1L512.85 209.1L512.85 187.38L512.85 187.38L356.47 187.38z" /></clipPath><clipPath id="36"><path id="" clip-rule="evenodd" transform="matrix(1 0 0 1 0 0)" d="M356.47 209.1L512.85 209.1L512.85 209.1L512.85 187.38L512.85 187.38L356.47 187.38z" /></clipPath><clipPath id="37"><path id="" clip-rule="evenodd" transform="matrix(1 0 0 1 0 0)" d="M356.47 209.1L512.85 209.1L512.85 209.1L512.85 187.38L512.85 187.38L356.47 187.38z" /></clipPath><clipPath id="38"><path id="" clip-rule="evenodd" transform="matrix(1 0 0 1 0 0)" d="M109.22 231.54L355.63 231.54L355.63 231.54L355.63 209.82L355.63 209.82L109.22 209.82z" /></clipPath><clipPath id="39"><path id="" clip-rule="evenodd" transform="matrix(1 0 0 1 0 0)" d="M109.22 231.54L355.63 231.54L355.63 231.54L355.63 209.82L355.63 209.82L109.22 209.82z" /></clipPath><clipPath id="40"><path id="" clip-rule="evenodd" transform="matrix(1 0 0 1 0 0)" d="M109.22 231.54L355.63 231.54L355.63 231.54L355.63 209.82L355.63 209.82L109.22 209.82z" /></clipPath><clipPath id="41"><path id="" clip-rule="evenodd" transform="matrix(1 0 0 1 0 0)" d="M109.22 231.54L355.63 231.54L355.63 231.54L355.63 209.82L355.63 209.82L109.22 209.82z" /></clipPath><clipPath id="42"><path id="" clip-rule="evenodd" transform="matrix(1 0 0 1 0 0)" d="M109.22 231.54L355.63 231.54L355.63 231.54L355.63 209.82L355.63 209.82L109.22 209.82z" /></clipPath><clipPath id="43"><path id="" clip-rule="evenodd" transform="matrix(1 0 0 1 0 0)" d="M109.22 231.54L355.63 231.54L355.63 231.54L355.63 209.82L355.63 209.82L109.22 209.82z" /></clipPath><clipPath id="44"><path id="" clip-rule="evenodd" transform="matrix(1 0 0 1 0 0)" d="M109.22 231.54L355.63 231.54L355.63 231.54L355.63 209.82L355.63 209.82L109.22 209.82z" /></clipPath><clipPath id="45"><path id="" clip-rule="evenodd" transform="matrix(1 0 0 1 0 0)" d="M356.47 231.54L512.85 231.54L512.85 231.54L512.85 209.82L512.85 209.82L356.47 209.82z" /></clipPath><clipPath id="46"><path id="" clip-rule="evenodd" transform="matrix(1 0 0 1 0 0)" d="M356.47 231.54L512.85 231.54L512.85 231.54L512.85 209.82L512.85 209.82L356.47 209.82z" /></clipPath><clipPath id="47"><path id="" clip-rule="evenodd" transform="matrix(1 0 0 1 0 0)" d="M356.47 231.54L512.85 231.54L512.85 231.54L512.85 209.82L512.85 209.82L356.47 209.82z" /></clipPath><clipPath id="48"><path id="" clip-rule="evenodd" transform="matrix(1 0 0 1 0 0)" d="M356.47 231.54L512.85 231.54L512.85 231.54L512.85 209.82L512.85 209.82L356.47 209.82z" /></clipPath><clipPath id="49"><path id="" clip-rule="evenodd" transform="matrix(1 0 0 1 0 0)" d="M109.22 254.01L355.63 254.01L355.63 254.01L355.63 232.266L355.63 232.266L109.22 232.266z" /></clipPath><clipPath id="50"><path id="" clip-rule="evenodd" transform="matrix(1 0 0 1 0 0)" d="M109.22 254.01L355.63 254.01L355.63 254.01L355.63 232.266L355.63 232.266L109.22 232.266z" /></clipPath><clipPath id="51"><path id="" clip-rule="evenodd" transform="matrix(1 0 0 1 0 0)" d="M109.22 254.01L355.63 254.01L355.63 254.01L355.63 232.266L355.63 232.266L109.22 232.266z" /></clipPath><clipPath id="52"><path id="" clip-rule="evenodd" transform="matrix(1 0 0 1 0 0)" d="M109.22 254.01L355.63 254.01L355.63 254.01L355.63 232.266L355.63 232.266L109.22 232.266z" /></clipPath><clipPath id="53"><path id="" clip-rule="evenodd" transform="matrix(1 0 0 1 0 0)" d="M109.22 254.01L355.63 254.01L355.63 254.01L355.63 232.266L355.63 232.266L109.22 232.266z" /></clipPath><clipPath id="54"><path id="" clip-rule="evenodd" transform="matrix(1 0 0 1 0 0)" d="M109.22 254.01L355.63 254.01L355.63 254.01L355.63 232.266L355.63 232.266L109.22 232.266z" /></clipPath><clipPath id="55"><path id="" clip-rule="evenodd" transform="matrix(1 0 0 1 0 0)" d="M109.22 254.01L355.63 254.01L355.63 254.01L355.63 232.266L355.63 232.266L109.22 232.266z" /></clipPath><clipPath id="56"><path id="" clip-rule="evenodd" transform="matrix(1 0 0 1 0 0)" d="M356.47 254.01L512.85 254.01L512.85 254.01L512.85 232.266L512.85 232.266L356.47 232.266z" /></clipPath><clipPath id="57"><path id="" clip-rule="evenodd" transform="matrix(1 0 0 1 0 0)" d="M356.47 254.01L512.85 254.01L512.85 254.01L512.85 232.266L512.85 232.266L356.47 232.266z" /></clipPath><clipPath id="58"><path id="" clip-rule="evenodd" transform="matrix(1 0 0 1 0 0)" d="M356.47 254.01L512.85 254.01L512.85 254.01L512.85 232.266L512.85 232.266L356.47 232.266z" /></clipPath><clipPath id="59"><path id="" clip-rule="evenodd" transform="matrix(1 0 0 1 0 0)" d="M356.47 254.01L512.85 254.01L512.85 254.01L512.85 232.266L512.85 232.266L356.47 232.266z" /></clipPath><clipPath id="60"><path id="" clip-rule="evenodd" transform="matrix(1 0 0 1 0 0)" d="M109.22 276.45L355.63 276.45L355.63 276.45L355.63 254.73L355.63 254.73L109.22 254.73z" /></clipPath><clipPath id="61"><path id="" clip-rule="evenodd" transform="matrix(1 0 0 1 0 0)" d="M109.22 276.45L355.63 276.45L355.63 276.45L355.63 254.73L355.63 254.73L109.22 254.73z" /></clipPath><clipPath id="62"><path id="" clip-rule="evenodd" transform="matrix(1 0 0 1 0 0)" d="M109.22 276.45L355.63 276.45L355.63 276.45L355.63 254.73L355.63 254.73L109.22 254.73z" /></clipPath><clipPath id="63"><path id="" clip-rule="evenodd" transform="matrix(1 0 0 1 0 0)" d="M109.22 276.45L355.63 276.45L355.63 276.45L355.63 254.73L355.63 254.73L109.22 254.73z" /></clipPath><clipPath id="64"><path id="" clip-rule="evenodd" transform="matrix(1 0 0 1 0 0)" d="M109.22 276.45L355.63 276.45L355.63 276.45L355.63 254.73L355.63 254.73L109.22 254.73z" /></clipPath><clipPath id="65"><path id="" clip-rule="evenodd" transform="matrix(1 0 0 1 0 0)" d="M109.22 276.45L355.63 276.45L355.63 276.45L355.63 254.73L355.63 254.73L109.22 254.73z" /></clipPath><clipPath id="66"><path id="" clip-rule="evenodd" transform="matrix(1 0 0 1 0 0)" d="M109.22 276.45L355.63 276.45L355.63 276.45L355.63 254.73L355.63 254.73L109.22 254.73z" /></clipPath><clipPath id="67"><path id="" clip-rule="evenodd" transform="matrix(1 0 0 1 0 0)" d="M356.47 276.45L512.85 276.45L512.85 276.45L512.85 254.73L512.85 254.73L356.47 254.73z" /></clipPath><clipPath id="68"><path id="" clip-rule="evenodd" transform="matrix(1 0 0 1 0 0)" d="M356.47 276.45L512.85 276.45L512.85 276.45L512.85 254.73L512.85 254.73L356.47 254.73z" /></clipPath><clipPath id="69"><path id="" clip-rule="evenodd" transform="matrix(1 0 0 1 0 0)" d="M356.47 276.45L512.85 276.45L512.85 276.45L512.85 254.73L512.85 254.73L356.47 254.73z" /></clipPath><clipPath id="70"><path id="" clip-rule="evenodd" transform="matrix(1 0 0 1 0 0)" d="M109.22 298.89L355.63 298.89L355.63 298.89L355.63 277.17L355.63 277.17L109.22 277.17z" /></clipPath><clipPath id="71"><path id="" clip-rule="evenodd" transform="matrix(1 0 0 1 0 0)" d="M109.22 298.89L355.63 298.89L355.63 298.89L355.63 277.17L355.63 277.17L109.22 277.17z" /></clipPath><clipPath id="72"><path id="" clip-rule="evenodd" transform="matrix(1 0 0 1 0 0)" d="M109.22 298.89L355.63 298.89L355.63 298.89L355.63 277.17L355.63 277.17L109.22 277.17z" /></clipPath><clipPath id="73"><path id="" clip-rule="evenodd" transform="matrix(1 0 0 1 0 0)" d="M109.22 298.89L355.63 298.89L355.63 298.89L355.63 277.17L355.63 277.17L109.22 277.17z" /></clipPath><clipPath id="74"><path id="" clip-rule="evenodd" transform="matrix(1 0 0 1 0 0)" d="M109.22 298.89L355.63 298.89L355.63 298.89L355.63 277.17L355.63 277.17L109.22 277.17z" /></clipPath><clipPath id="75"><path id="" clip-rule="evenodd" transform="matrix(1 0 0 1 0 0)" d="M109.22 298.89L355.63 298.89L355.63 298.89L355.63 277.17L355.63 277.17L109.22 277.17z" /></clipPath><clipPath id="76"><path id="" clip-rule="evenodd" transform="matrix(1 0 0 1 0 0)" d="M109.22 298.89L355.63 298.89L355.63 298.89L355.63 277.17L355.63 277.17L109.22 277.17z" /></clipPath><clipPath id="77"><path id="" clip-rule="evenodd" transform="matrix(1 0 0 1 0 0)" d="M356.47 298.89L512.85 298.89L512.85 298.89L512.85 277.17L512.85 277.17L356.47 277.17z" /></clipPath><clipPath id="78"><path id="" clip-rule="evenodd" transform="matrix(1 0 0 1 0 0)" d="M356.47 298.89L512.85 298.89L512.85 298.89L512.85 277.17L512.85 277.17L356.47 277.17z" /></clipPath><clipPath id="79"><path id="" clip-rule="evenodd" transform="matrix(1 0 0 1 0 0)" d="M356.47 298.89L512.85 298.89L512.85 298.89L512.85 277.17L512.85 277.17L356.47 277.17z" /></clipPath><clipPath id="80"><path id="" clip-rule="evenodd" transform="matrix(1 0 0 1 0 0)" d="M109.22 321.33L355.63 321.33L355.63 321.33L355.63 299.61L355.63 299.61L109.22 299.61z" /></clipPath><clipPath id="81"><path id="" clip-rule="evenodd" transform="matrix(1 0 0 1 0 0)" d="M109.22 321.33L355.63 321.33L355.63 321.33L355.63 299.61L355.63 299.61L109.22 299.61z" /></clipPath><clipPath id="82"><path id="" clip-rule="evenodd" transform="matrix(1 0 0 1 0 0)" d="M109.22 321.33L355.63 321.33L355.63 321.33L355.63 299.61L355.63 299.61L109.22 299.61z" /></clipPath><clipPath id="83"><path id="" clip-rule="evenodd" transform="matrix(1 0 0 1 0 0)" d="M109.22 321.33L355.63 321.33L355.63 321.33L355.63 299.61L355.63 299.61L109.22 299.61z" /></clipPath><clipPath id="84"><path id="" clip-rule="evenodd" transform="matrix(1 0 0 1 0 0)" d="M109.22 321.33L355.63 321.33L355.63 321.33L355.63 299.61L355.63 299.61L109.22 299.61z" /></clipPath><clipPath id="85"><path id="" clip-rule="evenodd" transform="matrix(1 0 0 1 0 0)" d="M109.22 321.33L355.63 321.33L355.63 321.33L355.63 299.61L355.63 299.61L109.22 299.61z" /></clipPath><clipPath id="86"><path id="" clip-rule="evenodd" transform="matrix(1 0 0 1 0 0)" d="M356.47 321.33L512.85 321.33L512.85 321.33L512.85 299.61L512.85 299.61L356.47 299.61z" /></clipPath><clipPath id="87"><path id="" clip-rule="evenodd" transform="matrix(1 0 0 1 0 0)" d="M356.47 321.33L512.85 321.33L512.85 321.33L512.85 299.61L512.85 299.61L356.47 299.61z" /></clipPath><clipPath id="88"><path id="" clip-rule="evenodd" transform="matrix(1 0 0 1 0 0)" d="M356.47 321.33L512.85 321.33L512.85 321.33L512.85 299.61L512.85 299.61L356.47 299.61z" /></clipPath><clipPath id="89"><path id="" clip-rule="evenodd" transform="matrix(1 0 0 1 0 0)" d="M356.47 321.33L512.85 321.33L512.85 321.33L512.85 299.61L512.85 299.61L356.47 299.61z" /></clipPath><clipPath id="90"><path id="" clip-rule="evenodd" transform="matrix(1 0 0 1 0 0)" d="M8.873E-06 841L595.44 841L595.44 841L595.44 -0.6799927L595.44 -0.6799927L8.873E-06 -0.6799927z" /></clipPath><clipPath id="91"><path id="" clip-rule="evenodd" transform="matrix(1 0 0 1 0 0)" d="M8.873E-06 841L595.44 841L595.44 841L595.44 -0.6799927L595.44 -0.6799927L8.873E-06 -0.6799927z" /></clipPath><clipPath id="92"><path id="" clip-rule="evenodd" transform="matrix(1 0 0 1 0 0)" d="M8.873E-06 841L595.44 841L595.44 841L595.44 -0.6799927L595.44 -0.6799927L8.873E-06 -0.6799927z" /></clipPath><clipPath id="93"><path id="" clip-rule="evenodd" transform="matrix(1 0 0 1 0 0)" d="M8.873E-06 841L595.44 841L595.44 841L595.44 -0.6799927L595.44 -0.6799927L8.873E-06 -0.6799927z" /></clipPath><clipPath id="94"><path id="" clip-rule="evenodd" transform="matrix(1 0 0 1 0 0)" d="M8.873E-06 841L595.44 841L595.44 841L595.44 -0.6799927L595.44 -0.6799927L8.873E-06 -0.6799927z" /></clipPath><clipPath id="95"><path id="" clip-rule="evenodd" transform="matrix(1 0 0 1 0 0)" d="M8.873E-06 841L595.44 841L595.44 841L595.44 -0.6799927L595.44 -0.6799927L8.873E-06 -0.6799927z" /></clipPath><clipPath id="96"><path id="" clip-rule="evenodd" transform="matrix(1 0 0 1 0 0)" d="M8.873E-06 841L595.44 841L595.44 841L595.44 -0.6799927L595.44 -0.6799927L8.873E-06 -0.6799927z" /></clipPath><clipPath id="97"><path id="" clip-rule="evenodd" transform="matrix(1 0 0 1 0 0)" d="M8.873E-06 841L595.44 841L595.44 841L595.44 -0.6799927L595.44 -0.6799927L8.873E-06 -0.6799927z" /></clipPath><clipPath id="98"><path id="" clip-rule="evenodd" transform="matrix(1 0 0 1 0 0)" d="M8.873E-06 841L595.44 841L595.44 841L595.44 -0.6799927L595.44 -0.6799927L8.873E-06 -0.6799927z" /></clipPath><clipPath id="99"><path id="" clip-rule="evenodd" transform="matrix(1 0 0 1 0 0)" d="M8.873E-06 841L595.44 841L595.44 841L595.44 -0.6799927L595.44 -0.6799927L8.873E-06 -0.6799927z" /></clipPath><clipPath id="100"><path id="" clip-rule="evenodd" transform="matrix(1 0 0 1 0 0)" d="M8.873E-06 841L595.44 841L595.44 841L595.44 -0.6799927L595.44 -0.6799927L8.873E-06 -0.6799927z" /></clipPath><clipPath id="101"><path id="" clip-rule="evenodd" transform="matrix(1 0 0 1 0 0)" d="M8.873E-06 841L595.44 841L595.44 841L595.44 -0.6799927L595.44 -0.6799927L8.873E-06 -0.6799927z" /></clipPath><clipPath id="102"><path id="" clip-rule="evenodd" transform="matrix(1 0 0 1 0 0)" d="M8.873E-06 841L595.44 841L595.44 841L595.44 -0.6799927L595.44 -0.6799927L8.873E-06 -0.6799927z" /></clipPath><clipPath id="103"><path id="" clip-rule="evenodd" transform="matrix(1 0 0 1 0 0)" d="M8.873E-06 841L595.44 841L595.44 841L595.44 -0.6799927L595.44 -0.6799927L8.873E-06 -0.6799927z" /></clipPath><clipPath id="104"><path id="" clip-rule="evenodd" transform="matrix(1 0 0 1 0 0)" d="M8.873E-06 841L595.44 841L595.44 841L595.44 -0.6799927L595.44 -0.6799927L8.873E-06 -0.6799927z" /></clipPath><clipPath id="105"><path id="" clip-rule="evenodd" transform="matrix(1 0 0 1 0 0)" d="M8.873E-06 841L595.44 841L595.44 841L595.44 -0.6799927L595.44 -0.6799927L8.873E-06 -0.6799927z" /></clipPath><clipPath id="106"><path id="" clip-rule="evenodd" transform="matrix(1 0 0 1 0 0)" d="M8.873E-06 841L595.44 841L595.44 841L595.44 -0.6799927L595.44 -0.6799927L8.873E-06 -0.6799927z" /></clipPath><clipPath id="107"><path id="" clip-rule="evenodd" transform="matrix(1 0 0 1 0 0)" d="M8.873E-06 841L595.44 841L595.44 841L595.44 -0.6799927L595.44 -0.6799927L8.873E-06 -0.6799927z" /></clipPath><clipPath id="108"><path id="" clip-rule="evenodd" transform="matrix(1 0 0 1 0 0)" d="M8.873E-06 841L595.44 841L595.44 841L595.44 -0.6799927L595.44 -0.6799927L8.873E-06 -0.6799927z" /></clipPath><clipPath id="109"><path id="" clip-rule="evenodd" transform="matrix(1 0 0 1 0 0)" d="M8.873E-06 841L595.44 841L595.44 841L595.44 -0.6799927L595.44 -0.6799927L8.873E-06 -0.6799927z" /></clipPath><clipPath id="110"><path id="" clip-rule="evenodd" transform="matrix(1 0 0 1 0 0)" d="M8.873E-06 841L595.44 841L595.44 841L595.44 -0.6799927L595.44 -0.6799927L8.873E-06 -0.6799927z" /></clipPath><clipPath id="111"><path id="" clip-rule="evenodd" transform="matrix(1 0 0 1 0 0)" d="M8.873E-06 841L595.44 841L595.44 841L595.44 -0.6799927L595.44 -0.6799927L8.873E-06 -0.6799927z" /></clipPath><clipPath id="112"><path id="" clip-rule="evenodd" transform="matrix(1 0 0 1 0 0)" d="M8.873E-06 841L595.44 841L595.44 841L595.44 -0.6799927L595.44 -0.6799927L8.873E-06 -0.6799927z" /></clipPath><clipPath id="113"><path id="" clip-rule="evenodd" transform="matrix(1 0 0 1 0 0)" d="M8.873E-06 841L595.44 841L595.44 841L595.44 -0.6799927L595.44 -0.6799927L8.873E-06 -0.6799927z" /></clipPath><clipPath id="114"><path id="" clip-rule="evenodd" transform="matrix(1 0 0 1 0 0)" d="M8.873E-06 841L595.44 841L595.44 841L595.44 -0.6799927L595.44 -0.6799927L8.873E-06 -0.6799927z" /></clipPath><clipPath id="115"><path id="" clip-rule="evenodd" transform="matrix(1 0 0 1 0 0)" d="M8.873E-06 841L595.44 841L595.44 841L595.44 -0.6799927L595.44 -0.6799927L8.873E-06 -0.6799927z" /></clipPath><clipPath id="116"><path id="" clip-rule="evenodd" transform="matrix(1 0 0 1 0 0)" d="M8.873E-06 841L595.44 841L595.44 841L595.44 -0.6799927L595.44 -0.6799927L8.873E-06 -0.6799927z" /></clipPath><clipPath id="117"><path id="" clip-rule="evenodd" transform="matrix(1 0 0 1 0 0)" d="M8.873E-06 841L595.44 841L595.44 841L595.44 -0.6799927L595.44 -0.6799927L8.873E-06 -0.6799927z" /></clipPath><clipPath id="118"><path id="" clip-rule="evenodd" transform="matrix(1 0 0 1 0 0)" d="M8.873E-06 841L595.44 841L595.44 841L595.44 -0.6799927L595.44 -0.6799927L8.873E-06 -0.6799927z" /></clipPath><clipPath id="119"><path id="" clip-rule="evenodd" transform="matrix(1 0 0 1 0 0)" d="M8.873E-06 841L595.44 841L595.44 841L595.44 -0.6799927L595.44 -0.6799927L8.873E-06 -0.6799927z" /></clipPath><clipPath id="120"><path id="" clip-rule="evenodd" transform="matrix(1 0 0 1 0 0)" d="M8.873E-06 841L595.44 841L595.44 841L595.44 -0.6799927L595.44 -0.6799927L8.873E-06 -0.6799927z" /></clipPath><clipPath id="121"><path id="" clip-rule="evenodd" transform="matrix(1 0 0 1 0 0)" d="M8.873E-06 841L595.44 841L595.44 841L595.44 -0.6799927L595.44 -0.6799927L8.873E-06 -0.6799927z" /></clipPath><clipPath id="122"><path id="" clip-rule="evenodd" transform="matrix(1 0 0 1 0 0)" d="M8.873E-06 841L595.44 841L595.44 841L595.44 -0.6799927L595.44 -0.6799927L8.873E-06 -0.6799927z" /></clipPath><clipPath id="123"><path id="" clip-rule="evenodd" transform="matrix(1 0 0 1 0 0)" d="M8.873E-06 841L595.44 841L595.44 841L595.44 -0.6799927L595.44 -0.6799927L8.873E-06 -0.6799927z" /></clipPath><clipPath id="124"><path id="" clip-rule="evenodd" transform="matrix(1 0 0 1 0 0)" d="M8.873E-06 841L595.44 841L595.44 841L595.44 -0.6799927L595.44 -0.6799927L8.873E-06 -0.6799927z" /></clipPath><clipPath id="125"><path id="" clip-rule="evenodd" transform="matrix(1 0 0 1 0 0)" d="M8.873E-06 841L595.44 841L595.44 841L595.44 -0.6799927L595.44 -0.6799927L8.873E-06 -0.6799927z" /></clipPath><clipPath id="126"><path id="" clip-rule="evenodd" transform="matrix(1 0 0 1 0 0)" d="M8.873E-06 841L595.44 841L595.44 841L595.44 -0.6799927L595.44 -0.6799927L8.873E-06 -0.6799927z" /></clipPath><clipPath id="127"><path id="" clip-rule="evenodd" transform="matrix(1 0 0 1 0 0)" d="M8.873E-06 841L595.44 841L595.44 841L595.44 -0.6799927L595.44 -0.6799927L8.873E-06 -0.6799927z" /></clipPath><clipPath id="128"><path id="" clip-rule="evenodd" transform="matrix(1 0 0 1 0 0)" d="M8.873E-06 841L595.44 841L595.44 841L595.44 -0.6799927L595.44 -0.6799927L8.873E-06 -0.6799927z" /></clipPath><clipPath id="129"><path id="" clip-rule="evenodd" transform="matrix(1 0 0 1 0 0)" d="M8.873E-06 841L595.44 841L595.44 841L595.44 -0.6799927L595.44 -0.6799927L8.873E-06 -0.6799927z" /></clipPath><clipPath id="130"><path id="" clip-rule="evenodd" transform="matrix(1 0 0 1 0 0)" d="M8.873E-06 841L595.44 841L595.44 841L595.44 -0.6799927L595.44 -0.6799927L8.873E-06 -0.6799927z" /></clipPath><clipPath id="131"><path id="" clip-rule="evenodd" transform="matrix(1 0 0 1 0 0)" d="M8.873E-06 841L595.44 841L595.44 841L595.44 -0.6799927L595.44 -0.6799927L8.873E-06 -0.6799927z" /></clipPath><clipPath id="132"><path id="" clip-rule="evenodd" transform="matrix(1 0 0 1 0 0)" d="M8.873E-06 841L595.44 841L595.44 841L595.44 -0.6799927L595.44 -0.6799927L8.873E-06 -0.6799927z" /></clipPath><clipPath id="133"><path id="" clip-rule="evenodd" transform="matrix(1 0 0 1 0 0)" d="M8.873E-06 841L595.44 841L595.44 841L595.44 -0.6799927L595.44 -0.6799927L8.873E-06 -0.6799927z" /></clipPath><clipPath id="134"><path id="" clip-rule="evenodd" transform="matrix(1 0 0 1 0 0)" d="M8.873E-06 841L595.44 841L595.44 841L595.44 -0.6799927L595.44 -0.6799927L8.873E-06 -0.6799927z" /></clipPath><clipPath id="135"><path id="" clip-rule="evenodd" transform="matrix(1 0 0 1 0 0)" d="M8.873E-06 841L595.44 841L595.44 841L595.44 -0.6799927L595.44 -0.6799927L8.873E-06 -0.6799927z" /></clipPath><clipPath id="136"><path id="" clip-rule="evenodd" transform="matrix(1 0 0 1 0 0)" d="M8.873E-06 841L595.44 841L595.44 841L595.44 -0.6799927L595.44 -0.6799927L8.873E-06 -0.6799927z" /></clipPath><clipPath id="137"><path id="" clip-rule="evenodd" transform="matrix(1 0 0 1 0 0)" d="M8.873E-06 841L595.44 841L595.44 841L595.44 -0.6799927L595.44 -0.6799927L8.873E-06 -0.6799927z" /></clipPath><clipPath id="138"><path id="" clip-rule="evenodd" transform="matrix(1 0 0 1 0 0)" d="M8.873E-06 841L595.44 841L595.44 841L595.44 -0.6799927L595.44 -0.6799927L8.873E-06 -0.6799927z" /></clipPath><clipPath id="139"><path id="" clip-rule="evenodd" transform="matrix(1 0 0 1 0 0)" d="M8.873E-06 841L595.44 841L595.44 841L595.44 -0.6799927L595.44 -0.6799927L8.873E-06 -0.6799927z" /></clipPath><clipPath id="140"><path id="" clip-rule="evenodd" transform="matrix(1 0 0 1 0 0)" d="M8.873E-06 841L595.44 841L595.44 841L595.44 -0.6799927L595.44 -0.6799927L8.873E-06 -0.6799927z" /></clipPath><clipPath id="141"><path id="" clip-rule="evenodd" transform="matrix(1 0 0 1 0 0)" d="M8.873E-06 841L595.44 841L595.44 841L595.44 -0.6799927L595.44 -0.6799927L8.873E-06 -0.6799927z" /></clipPath><clipPath id="142"><path id="" clip-rule="evenodd" transform="matrix(1 0 0 1 0 0)" d="M8.873E-06 841L595.44 841L595.44 841L595.44 -0.6799927L595.44 -0.6799927L8.873E-06 -0.6799927z" /></clipPath><clipPath id="143"><path id="" clip-rule="evenodd" transform="matrix(1 0 0 1 0 0)" d="M8.873E-06 841L595.44 841L595.44 841L595.44 -0.6799927L595.44 -0.6799927L8.873E-06 -0.6799927z" /></clipPath><clipPath id="144"><path id="" clip-rule="evenodd" transform="matrix(1 0 0 1 0 0)" d="M8.873E-06 841L595.44 841L595.44 841L595.44 -0.6799927L595.44 -0.6799927L8.873E-06 -0.6799927z" /></clipPath><clipPath id="145"><path id="" clip-rule="evenodd" transform="matrix(1 0 0 1 0 0)" d="M8.873E-06 841L595.44 841L595.44 841L595.44 -0.6799927L595.44 -0.6799927L8.873E-06 -0.6799927z" /></clipPath><clipPath id="146"><path id="" clip-rule="evenodd" transform="matrix(1 0 0 1 0 0)" d="M8.873E-06 841L595.44 841L595.44 841L595.44 -0.6799927L595.44 -0.6799927L8.873E-06 -0.6799927z" /></clipPath><clipPath id="147"><path id="" clip-rule="evenodd" transform="matrix(1 0 0 1 0 0)" d="M8.873E-06 841L595.44 841L595.44 841L595.44 -0.6799927L595.44 -0.6799927L8.873E-06 -0.6799927z" /></clipPath><clipPath id="148"><path id="" clip-rule="evenodd" transform="matrix(1 0 0 1 0 0)" d="M8.873E-06 841L595.44 841L595.44 841L595.44 -0.6799927L595.44 -0.6799927L8.873E-06 -0.6799927z" /></clipPath><clipPath id="149"><path id="" clip-rule="evenodd" transform="matrix(1 0 0 1 0 0)" d="M8.873E-06 841L595.44 841L595.44 841L595.44 -0.6799927L595.44 -0.6799927L8.873E-06 -0.6799927z" /></clipPath></defs><g transform="matrix(1.333333 0 0 1.333333 0 0)"><g clip-path="url(#1)"><g clip-path="url(#2)"></g><g clip-path="url(#3)"></g><g clip-path="url(#4)"><g clip-path="url(#5)"></g><g clip-path="url(#6)"></g></g><g clip-path="url(#7)"></g><g clip-path="url(#8)"></g><g clip-path="url(#9)"></g><g clip-path="url(#10)"></g><g clip-path="url(#11)"></g><g clip-path="url(#12)"></g><g clip-path="url(#13)"></g><g clip-path="url(#14)"></g><g clip-path="url(#15)"></g><g clip-path="url(#16)"></g><g clip-path="url(#17)"></g><g clip-path="url(#18)"></g><g clip-path="url(#19)"></g><g clip-path="url(#20)"></g><g clip-path="url(#21)"></g><g clip-path="url(#22)"><g clip-path="url(#23)"></g><g clip-path="url(#24)"></g><g clip-path="url(#25)"></g></g><g clip-path="url(#26)"><g clip-path="url(#27)"></g><g clip-path="url(#28)"></g></g><path id="193" transform="matrix(1 0 0 -1 0 841)" d="M107.78 674.02L109.22 674.02L109.22 674.02L109.22 675.58L109.22 675.58L107.78 675.58z" stroke="none" fill="#000000" fill-rule="evenodd" /><path id="194" transform="matrix(1 0 0 -1 0 841)" d="M107.78 674.14L109.22 674.14L109.22 674.14L109.22 675.58L109.22 675.58L107.78 675.58z" stroke="none" fill="#000000" fill-rule="evenodd" /><path id="195" transform="matrix(1 0 0 -1 0 841)" d="M109.22 674.14L355.75 674.14L355.75 674.14L355.75 675.58L355.75 675.58L109.22 675.58z" stroke="none" fill="#000000" fill-rule="evenodd" /><path id="196" transform="matrix(1 0 0 -1 0 841)" d="M355.75 674.02L356.47 674.02L356.47 674.02L356.47 674.14L356.47 674.14L355.75 674.14z" stroke="none" fill="#000000" fill-rule="evenodd" /><path id="197" transform="matrix(1 0 0 -1 0 841)" d="M355.75 674.14L357.19 674.14L357.19 674.14L357.19 675.58L357.19 675.58L355.75 675.58z" stroke="none" fill="#000000" fill-rule="evenodd" /><path id="198" transform="matrix(1 0 0 -1 0 841)" d="M357.19 674.14L512.85 674.14L512.85 674.14L512.85 675.58L512.85 675.58L357.19 675.58z" stroke="none" fill="#000000" fill-rule="evenodd" /><path id="199" transform="matrix(1 0 0 -1 0 841)" d="M512.86 674.02L514.3 674.02L514.3 674.02L514.3 675.58L514.3 675.58L512.86 675.58z" stroke="none" fill="#000000" fill-rule="evenodd" /><path id="200" transform="matrix(1 0 0 -1 0 841)" d="M512.86 674.14L514.3 674.14L514.3 674.14L514.3 675.58L514.3 675.58L512.86 675.58z" stroke="none" fill="#000000" fill-rule="evenodd" /><path id="201" transform="matrix(1 0 0 -1 0 841)" d="M107.78 654.34L109.22 654.34L109.22 654.34L109.22 674.02L109.22 674.02L107.78 674.02z" stroke="none" fill="#000000" fill-rule="evenodd" /><path id="202" transform="matrix(1 0 0 -1 0 841)" d="M355.75 654.34L356.47 654.34L356.47 654.34L356.47 674.02L356.47 674.02L355.75 674.02z" stroke="none" fill="#000000" fill-rule="evenodd" /><path id="203" transform="matrix(1 0 0 -1 0 841)" d="M512.86 654.34L514.3 654.34L514.3 654.34L514.3 674.02L514.3 674.02L512.86 674.02z" stroke="none" fill="#000000" fill-rule="evenodd" /><g clip-path="url(#29)"><g clip-path="url(#30)"></g><g clip-path="url(#31)"></g><g clip-path="url(#32)"></g><g clip-path="url(#33)"></g></g><g clip-path="url(#34)"><g clip-path="url(#35)"></g><g clip-path="url(#36)"></g><g clip-path="url(#37)"></g></g><path id="215" transform="matrix(1 0 0 -1 0 841)" d="M107.78 653.62L109.22 653.62L109.22 653.62L109.22 654.34L109.22 654.34L107.78 654.34z" stroke="none" fill="#000000" fill-rule="evenodd" /><path id="216" transform="matrix(1 0 0 -1 0 841)" d="M109.22 653.62L355.75 653.62L355.75 653.62L355.75 654.34L355.75 654.34L109.22 654.34z" stroke="none" fill="#000000" fill-rule="evenodd" /><path id="217" transform="matrix(1 0 0 -1 0 841)" d="M355.75 653.62L356.47 653.62L356.47 653.62L356.47 654.34L356.47 654.34L355.75 654.34z" stroke="none" fill="#000000" fill-rule="evenodd" /><path id="218" transform="matrix(1 0 0 -1 0 841)" d="M356.47 653.62L512.85 653.62L512.85 653.62L512.85 654.34L512.85 654.34L356.47 654.34z" stroke="none" fill="#000000" fill-rule="evenodd" /><path id="219" transform="matrix(1 0 0 -1 0 841)" d="M512.86 653.62L514.3 653.62L514.3 653.62L514.3 654.34L514.3 654.34L512.86 654.34z" stroke="none" fill="#000000" fill-rule="evenodd" /><path id="220" transform="matrix(1 0 0 -1 0 841)" d="M107.78 631.9L109.22 631.9L109.22 631.9L109.22 653.62L109.22 653.62L107.78 653.62z" stroke="none" fill="#000000" fill-rule="evenodd" /><path id="221" transform="matrix(1 0 0 -1 0 841)" d="M355.75 631.9L356.47 631.9L356.47 631.9L356.47 653.62L356.47 653.62L355.75 653.62z" stroke="none" fill="#000000" fill-rule="evenodd" /><path id="222" transform="matrix(1 0 0 -1 0 841)" d="M512.86 631.9L514.3 631.9L514.3 631.9L514.3 653.62L514.3 653.62L512.86 653.62z" stroke="none" fill="#000000" fill-rule="evenodd" /><g clip-path="url(#38)"><g clip-path="url(#39)"></g><g clip-path="url(#40)"></g><g clip-path="url(#41)"></g><g clip-path="url(#42)"></g><g clip-path="url(#43)"></g><g clip-path="url(#44)"></g></g><g clip-path="url(#45)"><g clip-path="url(#46)"></g><g clip-path="url(#47)"></g><g clip-path="url(#48)"></g></g><path id="237" transform="matrix(1 0 0 -1 0 841)" d="M107.78 631.18L109.22 631.18L109.22 631.18L109.22 631.9L109.22 631.9L107.78 631.9z" stroke="none" fill="#000000" fill-rule="evenodd" /><path id="238" transform="matrix(1 0 0 -1 0 841)" d="M109.22 631.18L355.75 631.18L355.75 631.18L355.75 631.9L355.75 631.9L109.22 631.9z" stroke="none" fill="#000000" fill-rule="evenodd" /><path id="239" transform="matrix(1 0 0 -1 0 841)" d="M355.75 631.18L356.47 631.18L356.47 631.18L356.47 631.9L356.47 631.9L355.75 631.9z" stroke="none" fill="#000000" fill-rule="evenodd" /><path id="240" transform="matrix(1 0 0 -1 0 841)" d="M356.47 631.18L512.85 631.18L512.85 631.18L512.85 631.9L512.85 631.9L356.47 631.9z" stroke="none" fill="#000000" fill-rule="evenodd" /><path id="241" transform="matrix(1 0 0 -1 0 841)" d="M512.86 631.18L514.3 631.18L514.3 631.18L514.3 631.9L514.3 631.9L512.86 631.9z" stroke="none" fill="#000000" fill-rule="evenodd" /><path id="242" transform="matrix(1 0 0 -1 0 841)" d="M107.78 609.46L109.22 609.46L109.22 609.46L109.22 631.18L109.22 631.18L107.78 631.18z" stroke="none" fill="#000000" fill-rule="evenodd" /><path id="243" transform="matrix(1 0 0 -1 0 841)" d="M355.75 609.46L356.47 609.46L356.47 609.46L356.47 631.18L356.47 631.18L355.75 631.18z" stroke="none" fill="#000000" fill-rule="evenodd" /><path id="244" transform="matrix(1 0 0 -1 0 841)" d="M512.86 609.46L514.3 609.46L514.3 609.46L514.3 631.18L514.3 631.18L512.86 631.18z" stroke="none" fill="#000000" fill-rule="evenodd" /><g clip-path="url(#49)"><g clip-path="url(#50)"></g><g clip-path="url(#51)"></g><g clip-path="url(#52)"></g><g clip-path="url(#53)"></g><g clip-path="url(#54)"></g><g clip-path="url(#55)"></g></g><g clip-path="url(#56)"><g clip-path="url(#57)"></g><g clip-path="url(#58)"></g><g clip-path="url(#59)"></g></g><path id="259" transform="matrix(1 0 0 -1 0 841)" d="M107.78 608.74L109.22 608.74L109.22 608.74L109.22 609.46L109.22 609.46L107.78 609.46z" stroke="none" fill="#000000" fill-rule="evenodd" /><path id="260" transform="matrix(1 0 0 -1 0 841)" d="M109.22 608.74L355.75 608.74L355.75 608.74L355.75 609.46L355.75 609.46L109.22 609.46z" stroke="none" fill="#000000" fill-rule="evenodd" /><path id="261" transform="matrix(1 0 0 -1 0 841)" d="M355.75 608.74L356.47 608.74L356.47 608.74L356.47 609.46L356.47 609.46L355.75 609.46z" stroke="none" fill="#000000" fill-rule="evenodd" /><path id="262" transform="matrix(1 0 0 -1 0 841)" d="M356.47 608.74L512.85 608.74L512.85 608.74L512.85 609.46L512.85 609.46L356.47 609.46z" stroke="none" fill="#000000" fill-rule="evenodd" /><path id="263" transform="matrix(1 0 0 -1 0 841)" d="M512.86 608.74L514.3 608.74L514.3 608.74L514.3 609.46L514.3 609.46L512.86 609.46z" stroke="none" fill="#000000" fill-rule="evenodd" /><path id="264" transform="matrix(1 0 0 -1 0 841)" d="M107.78 586.99L109.22 586.99L109.22 586.99L109.22 608.734L109.22 608.734L107.78 608.734z" stroke="none" fill="#000000" fill-rule="evenodd" /><path id="265" transform="matrix(1 0 0 -1 0 841)" d="M355.75 586.99L356.47 586.99L356.47 586.99L356.47 608.734L356.47 608.734L355.75 608.734z" stroke="none" fill="#000000" fill-rule="evenodd" /><path id="266" transform="matrix(1 0 0 -1 0 841)" d="M512.86 586.99L514.3 586.99L514.3 586.99L514.3 608.734L514.3 608.734L512.86 608.734z" stroke="none" fill="#000000" fill-rule="evenodd" /><g clip-path="url(#60)"><g clip-path="url(#61)"></g><g clip-path="url(#62)"></g><g clip-path="url(#63)"></g><g clip-path="url(#64)"></g><g clip-path="url(#65)"></g><g clip-path="url(#66)"></g></g><g clip-path="url(#67)"><g clip-path="url(#68)"></g><g clip-path="url(#69)"></g></g><path id="281" transform="matrix(1 0 0 -1 0 841)" d="M107.78 586.27L109.22 586.27L109.22 586.27L109.22 586.99L109.22 586.99L107.78 586.99z" stroke="none" fill="#000000" fill-rule="evenodd" /><path id="282" transform="matrix(1 0 0 -1 0 841)" d="M109.22 586.27L355.75 586.27L355.75 586.27L355.75 586.99L355.75 586.99L109.22 586.99z" stroke="none" fill="#000000" fill-rule="evenodd" /><path id="283" transform="matrix(1 0 0 -1 0 841)" d="M355.75 586.27L356.47 586.27L356.47 586.27L356.47 586.99L356.47 586.99L355.75 586.99z" stroke="none" fill="#000000" fill-rule="evenodd" /><path id="284" transform="matrix(1 0 0 -1 0 841)" d="M356.47 586.27L512.85 586.27L512.85 586.27L512.85 586.99L512.85 586.99L356.47 586.99z" stroke="none" fill="#000000" fill-rule="evenodd" /><path id="285" transform="matrix(1 0 0 -1 0 841)" d="M512.86 586.27L514.3 586.27L514.3 586.27L514.3 586.99L514.3 586.99L512.86 586.99z" stroke="none" fill="#000000" fill-rule="evenodd" /><path id="286" transform="matrix(1 0 0 -1 0 841)" d="M107.78 564.55L109.22 564.55L109.22 564.55L109.22 586.27L109.22 586.27L107.78 586.27z" stroke="none" fill="#000000" fill-rule="evenodd" /><path id="287" transform="matrix(1 0 0 -1 0 841)" d="M355.75 564.55L356.47 564.55L356.47 564.55L356.47 586.27L356.47 586.27L355.75 586.27z" stroke="none" fill="#000000" fill-rule="evenodd" /><path id="288" transform="matrix(1 0 0 -1 0 841)" d="M512.86 564.55L514.3 564.55L514.3 564.55L514.3 586.27L514.3 586.27L512.86 586.27z" stroke="none" fill="#000000" fill-rule="evenodd" /><g clip-path="url(#70)"><g clip-path="url(#71)"></g><g clip-path="url(#72)"></g><g clip-path="url(#73)"></g><g clip-path="url(#74)"></g><g clip-path="url(#75)"></g><g clip-path="url(#76)"></g></g><g clip-path="url(#77)"><g clip-path="url(#78)"></g><g clip-path="url(#79)"></g></g><path id="303" transform="matrix(1 0 0 -1 0 841)" d="M107.78 563.83L109.22 563.83L109.22 563.83L109.22 564.55L109.22 564.55L107.78 564.55z" stroke="none" fill="#000000" fill-rule="evenodd" /><path id="304" transform="matrix(1 0 0 -1 0 841)" d="M109.22 563.83L355.75 563.83L355.75 563.83L355.75 564.55L355.75 564.55L109.22 564.55z" stroke="none" fill="#000000" fill-rule="evenodd" /><path id="305" transform="matrix(1 0 0 -1 0 841)" d="M355.75 563.83L356.47 563.83L356.47 563.83L356.47 564.55L356.47 564.55L355.75 564.55z" stroke="none" fill="#000000" fill-rule="evenodd" /><path id="306" transform="matrix(1 0 0 -1 0 841)" d="M356.47 563.83L512.85 563.83L512.85 563.83L512.85 564.55L512.85 564.55L356.47 564.55z" stroke="none" fill="#000000" fill-rule="evenodd" /><path id="307" transform="matrix(1 0 0 -1 0 841)" d="M512.86 563.83L514.3 563.83L514.3 563.83L514.3 564.55L514.3 564.55L512.86 564.55z" stroke="none" fill="#000000" fill-rule="evenodd" /><path id="308" transform="matrix(1 0 0 -1 0 841)" d="M107.78 542.11L109.22 542.11L109.22 542.11L109.22 563.83L109.22 563.83L107.78 563.83z" stroke="none" fill="#000000" fill-rule="evenodd" /><path id="309" transform="matrix(1 0 0 -1 0 841)" d="M355.75 542.11L356.47 542.11L356.47 542.11L356.47 563.83L356.47 563.83L355.75 563.83z" stroke="none" fill="#000000" fill-rule="evenodd" /><path id="310" transform="matrix(1 0 0 -1 0 841)" d="M512.86 542.11L514.3 542.11L514.3 542.11L514.3 563.83L514.3 563.83L512.86 563.83z" stroke="none" fill="#000000" fill-rule="evenodd" /><g clip-path="url(#80)"><g clip-path="url(#81)"></g><g clip-path="url(#82)"></g><g clip-path="url(#83)"></g><g clip-path="url(#84)"></g><g clip-path="url(#85)"></g></g><g clip-path="url(#86)"><g clip-path="url(#87)"></g><g clip-path="url(#88)"></g><g clip-path="url(#89)"></g></g><path id="319" transform="matrix(1 0 0 -1 0 841)" d="M107.78 541.39L109.22 541.39L109.22 541.39L109.22 542.11L109.22 542.11L107.78 542.11z" stroke="none" fill="#000000" fill-rule="evenodd" /><path id="320" transform="matrix(1 0 0 -1 0 841)" d="M109.22 541.39L355.75 541.39L355.75 541.39L355.75 542.11L355.75 542.11L109.22 542.11z" stroke="none" fill="#000000" fill-rule="evenodd" /><path id="321" transform="matrix(1 0 0 -1 0 841)" d="M355.75 541.39L356.47 541.39L356.47 541.39L356.47 542.11L356.47 542.11L355.75 542.11z" stroke="none" fill="#000000" fill-rule="evenodd" /><path id="322" transform="matrix(1 0 0 -1 0 841)" d="M356.47 541.39L512.85 541.39L512.85 541.39L512.85 542.11L512.85 542.11L356.47 542.11z" stroke="none" fill="#000000" fill-rule="evenodd" /><path id="323" transform="matrix(1 0 0 -1 0 841)" d="M512.86 541.39L514.3 541.39L514.3 541.39L514.3 542.11L514.3 542.11L512.86 542.11z" stroke="none" fill="#000000" fill-rule="evenodd" /><path id="324" transform="matrix(1 0 0 -1 0 841)" d="M107.78 519.55L109.22 519.55L109.22 519.55L109.22 541.39L109.22 541.39L107.78 541.39z" stroke="none" fill="#000000" fill-rule="evenodd" /><path id="325" transform="matrix(1 0 0 -1 0 841)" d="M107.78 518.11L109.22 518.11L109.22 518.11L109.22 519.55L109.22 519.55L107.78 519.55z" stroke="none" fill="#000000" fill-rule="evenodd" /><path id="326" transform="matrix(1 0 0 -1 0 841)" d="M107.78 518.11L109.22 518.11L109.22 518.11L109.22 519.55L109.22 519.55L107.78 519.55z" stroke="none" fill="#000000" fill-rule="evenodd" /><path id="327" transform="matrix(1 0 0 -1 0 841)" d="M109.22 518.11L355.75 518.11L355.75 518.11L355.75 519.55L355.75 519.55L109.22 519.55z" stroke="none" fill="#000000" fill-rule="evenodd" /><path id="328" transform="matrix(1 0 0 -1 0 841)" d="M355.75 519.55L356.47 519.55L356.47 519.55L356.47 541.39L356.47 541.39L355.75 541.39z" stroke="none" fill="#000000" fill-rule="evenodd" /><path id="329" transform="matrix(1 0 0 -1 0 841)" d="M355.75 518.11L357.19 518.11L357.19 518.11L357.19 519.55L357.19 519.55L355.75 519.55z" stroke="none" fill="#000000" fill-rule="evenodd" /><path id="330" transform="matrix(1 0 0 -1 0 841)" d="M357.19 518.11L512.85 518.11L512.85 518.11L512.85 519.55L512.85 519.55L357.19 519.55z" stroke="none" fill="#000000" fill-rule="evenodd" /><path id="331" transform="matrix(1 0 0 -1 0 841)" d="M512.86 519.55L514.3 519.55L514.3 519.55L514.3 541.39L514.3 541.39L512.86 541.39z" stroke="none" fill="#000000" fill-rule="evenodd" /><path id="332" transform="matrix(1 0 0 -1 0 841)" d="M512.86 518.11L514.3 518.11L514.3 518.11L514.3 519.55L514.3 519.55L512.86 519.55z" stroke="none" fill="#000000" fill-rule="evenodd" /><path id="333" transform="matrix(1 0 0 -1 0 841)" d="M512.86 518.11L514.3 518.11L514.3 518.11L514.3 519.55L514.3 519.55L512.86 519.55z" stroke="none" fill="#000000" fill-rule="evenodd" /><g clip-path="url(#90)"></g><g clip-path="url(#91)"></g><g clip-path="url(#92)"></g><g clip-path="url(#93)"></g><g clip-path="url(#94)"></g><g clip-path="url(#95)"></g><g clip-path="url(#96)"></g><g clip-path="url(#97)"></g><g clip-path="url(#98)"></g><g clip-path="url(#99)"></g><g clip-path="url(#100)"></g><g clip-path="url(#101)"></g><g clip-path="url(#102)"></g><g clip-path="url(#103)"></g><g clip-path="url(#104)"></g><g clip-path="url(#105)"></g><g clip-path="url(#106)"></g><g clip-path="url(#107)"></g><g clip-path="url(#108)"></g><g clip-path="url(#109)"></g><g clip-path="url(#110)"></g><g clip-path="url(#111)"></g><g clip-path="url(#112)"></g><g clip-path="url(#113)"></g><g clip-path="url(#114)"></g><g clip-path="url(#115)"></g><g clip-path="url(#116)"></g><g clip-path="url(#117)"></g><g clip-path="url(#118)"></g><g clip-path="url(#119)"></g><g clip-path="url(#120)"></g><g clip-path="url(#121)"></g><g clip-path="url(#122)"></g><g clip-path="url(#123)"></g><g clip-path="url(#124)"></g><g clip-path="url(#125)"></g><g clip-path="url(#126)"></g><g clip-path="url(#127)"></g><g clip-path="url(#128)"></g><g clip-path="url(#129)"></g><g clip-path="url(#130)"></g><g clip-path="url(#131)"></g><g clip-path="url(#132)"></g><g clip-path="url(#133)"></g><g clip-path="url(#134)"></g><g clip-path="url(#135)"></g><g clip-path="url(#136)"></g><g clip-path="url(#137)"></g><g clip-path="url(#138)"></g><g clip-path="url(#139)"></g><g clip-path="url(#140)"></g><g clip-path="url(#141)"></g><g clip-path="url(#142)"></g><g clip-path="url(#143)"></g><g clip-path="url(#144)"></g><g clip-path="url(#145)"></g><g clip-path="url(#146)"></g><g clip-path="url(#147)"></g><g clip-path="url(#148)"></g><g clip-path="url(#149)"></g></g></g></svg>