<svg xmlns="http://www.w3.org/2000/svg" xmlns:xlink="http://www.w3.org/1999/xlink" id="body_1" preserveAspectRatio="xMinYMin meet" viewBox="0 0 793 1121"><defs><clipPath id="1"><path id="" clip-rule="evenodd" transform="matrix(1 0 0 1 0 0)" d="M0 841L0 -0.6799927L0 -0.6799927L595.44 -0.6799927L595.44 -0.6799927L595.44 841L595.44 841L0 841z" /></clipPath></defs><g transform="matrix(1.333333 0 0 1.333333 0 0)"><g clip-path="url(#1)"><path id="428" transform="matrix(1 0 0 -1 0 841)" d="M139.46 426.43L381.31 426.43L381.31 426.43L381.31 440.11L381.31 440.11L139.46 440.11z" stroke="none" fill="#D9D9D9" fill-rule="evenodd" /><path id="454" transform="matrix(1 0 0 -1 0 841)" d="M117.14 406.75L490.41 406.75L490.41 406.75L490.41 420.43L490.41 420.43L117.14 420.43z" stroke="none" fill="#D9D9D9" fill-rule="evenodd" /><path id="492" transform="matrix(1 0 0 -1 0 841)" d="M117.14 387.07L406.27 387.07L406.27 387.07L406.27 400.75L406.27 400.75L117.14 400.75z" stroke="none" fill="#D9D9D9" fill-rule="evenodd" /><path id="521" transform="matrix(1 0 0 -1 0 841)" d="M117.14 367.37L505.65 367.37L505.65 367.37L505.65 381.05L505.65 381.05L117.14 381.05z" stroke="none" fill="#D9D9D9" fill-rule="evenodd" /><path id="559" transform="matrix(1 0 0 -1 0 841)" d="M117.14 353.81L148.7 353.81L148.7 353.81L148.7 367.49L148.7 367.49L117.14 367.49z" stroke="none" fill="#D9D9D9" fill-rule="evenodd" /><path id="563" transform="matrix(1 0 0 -1 0 841)" d="M117.14 334.13L227.56 334.13L227.56 334.13L227.56 347.81L227.56 347.81L117.14 347.81z" stroke="none" fill="#D9D9D9" fill-rule="evenodd" /><path id="575" transform="matrix(1 0 0 -1 0 841)" d="M327.07 314.45L505.65 314.45L505.65 314.45L505.65 328.13L505.65 328.13L327.07 328.13z" stroke="none" fill="#D9D9D9" fill-rule="evenodd" /><path id="613" transform="matrix(1 0 0 -1 0 841)" d="M117.14 300.77L253.84 300.77L253.84 300.77L253.84 314.45L253.84 314.45L117.14 314.45z" stroke="none" fill="#D9D9D9" fill-rule="evenodd" /><path id="627" transform="matrix(1 0 0 -1 0 841)" d="M117.14 281.21L505.65 281.21L505.65 281.21L505.65 294.89L505.65 294.89L117.14 294.89z" stroke="none" fill="#D9D9D9" fill-rule="evenodd" /><path id="665" transform="matrix(1 0 0 -1 0 841)" d="M117.14 267.53L306.4 267.53L306.4 267.53L306.4 281.21L306.4 281.21L117.14 281.21z" stroke="none" fill="#D9D9D9" fill-rule="evenodd" /><path id="861" transform="matrix(1 0 0 -1 0 841)" d="M116.66 167.54L505.65 167.54L505.65 167.54L505.65 181.22L505.65 181.22L116.66 181.22z" stroke="none" fill="#D9D9D9" fill-rule="evenodd" /><path id="901" transform="matrix(1 0 0 -1 0 841)" d="M118.46 153.98L505.65 153.98L505.65 153.98L505.65 167.66L505.65 167.66L118.46 167.66z" stroke="none" fill="#D9D9D9" fill-rule="evenodd" /><path id="939" transform="matrix(1 0 0 -1 0 841)" d="M118.46 140.3L497.13 140.3L497.13 140.3L497.13 153.98L497.13 153.98L118.46 153.98z" stroke="none" fill="#D9D9D9" fill-rule="evenodd" /><path id="976" transform="matrix(1 0 0 -1 0 841)" d="M118.46 126.62L139.46 126.62L139.46 126.62L139.46 140.3L139.46 140.3L118.46 140.3z" stroke="none" fill="#D9D9D9" fill-rule="evenodd" /></g></g></svg>