<svg xmlns="http://www.w3.org/2000/svg" xmlns:xlink="http://www.w3.org/1999/xlink" id="body_1" preserveAspectRatio="xMinYMin meet" viewBox="0 0 793 1121"><defs><clipPath id="1"><path id="" clip-rule="evenodd" transform="matrix(1 0 0 1 0 0)" d="M0 841L0 -0.6799927L0 -0.6799927L595.44 -0.6799927L595.44 -0.6799927L595.44 841L595.44 841L0 841z" /></clipPath></defs><g transform="matrix(1.333333 0 0 1.333333 0 0)"><g clip-path="url(#1)"><path id="585" transform="matrix(1 0 0 -1 0 841)" d="M92.184 238.37L505.654 238.37L505.654 238.37L505.654 253.61L505.654 253.61L92.184 253.61z" stroke="none" fill="#D9D9D9" fill-rule="evenodd" /><path id="625" transform="matrix(1 0 0 -1 0 841)" d="M92.184 223.25L355.154 223.25L355.154 223.25L355.154 238.49L355.154 238.49L92.184 238.49z" stroke="none" fill="#D9D9D9" fill-rule="evenodd" /><path id="658" transform="matrix(1 0 0 -1 0 841)" d="M92.184 165.86L505.654 165.86L505.654 165.86L505.654 179.54L505.654 179.54L92.184 179.54z" stroke="none" fill="#D9D9D9" fill-rule="evenodd" /><path id="698" transform="matrix(1 0 0 -1 0 841)" d="M92.184 152.18L292.004 152.18L292.004 152.18L292.004 165.86L292.004 165.86L92.184 165.86z" stroke="none" fill="#D9D9D9" fill-rule="evenodd" /><path id="718" transform="matrix(1 0 0 -1 0 841)" d="M92.184 124.34L505.654 124.34L505.654 124.34L505.654 138.02L505.654 138.02L92.184 138.02z" stroke="none" fill="#D9D9D9" fill-rule="evenodd" /><path id="759" transform="matrix(1 0 0 -1 0 841)" d="M92.184 110.66L218.444 110.66L218.444 110.66L218.444 124.34L218.444 124.34L92.184 124.34z" stroke="none" fill="#D9D9D9" fill-rule="evenodd" /><path id="772" transform="matrix(1 0 0 -1 0 841)" d="M92.184 89.544L391.874 89.544L391.874 89.544L391.874 104.784L391.874 104.784L92.184 104.784z" stroke="none" fill="#D9D9D9" fill-rule="evenodd" /><path id="802" transform="matrix(1 0 0 -1 0 841)" d="M92.184 74.424L433.994 74.424L433.994 74.424L433.994 89.664L433.994 89.664L92.184 89.664z" stroke="none" fill="#D9D9D9" fill-rule="evenodd" /></g></g></svg>