<svg xmlns="http://www.w3.org/2000/svg" xmlns:xlink="http://www.w3.org/1999/xlink" id="body_1" preserveAspectRatio="xMinYMin meet" viewBox="0 0 793 1121"><defs><clipPath id="1"><path id="" clip-rule="evenodd" transform="matrix(1 0 0 1 0 0)" d="M0 841L0 -0.6799927L0 -0.6799927L595.44 -0.6799927L595.44 -0.6799927L595.44 841L595.44 841L0 841z" /></clipPath></defs><g transform="matrix(1.333333 0 0 1.333333 0 0)"><g clip-path="url(#1)"><path id="611" transform="matrix(1 0 0 -1 0 841)" d="M92.184 254.09L505.654 254.09L505.654 254.09L505.654 267.77L505.654 267.77L92.184 267.77z" stroke="none" fill="#D9D9D9" fill-rule="evenodd" /><path id="651" transform="matrix(1 0 0 -1 0 841)" d="M92.184 240.53L230.204 240.53L230.204 240.53L230.204 254.21L230.204 254.21L92.184 254.21z" stroke="none" fill="#D9D9D9" fill-rule="evenodd" /><path id="770" transform="matrix(1 0 0 -1 0 841)" d="M92.184 149.66L505.654 149.66L505.654 149.66L505.654 163.34L505.654 163.34L92.184 163.34z" stroke="none" fill="#D9D9D9" fill-rule="evenodd" /><path id="810" transform="matrix(1 0 0 -1 0 841)" d="M92.184 135.98L239.444 135.98L239.444 135.98L239.444 149.66L239.444 149.66L92.184 149.66z" stroke="none" fill="#D9D9D9" fill-rule="evenodd" /><path id="825" transform="matrix(1 0 0 -1 0 841)" d="M92.184 108.02L505.654 108.02L505.654 108.02L505.654 121.7L505.654 121.7L92.184 121.7z" stroke="none" fill="#D9D9D9" fill-rule="evenodd" /><path id="865" transform="matrix(1 0 0 -1 0 841)" d="M92.184 94.464L197.324 94.464L197.324 94.464L197.324 108.144L197.324 108.144L92.184 108.144z" stroke="none" fill="#D9D9D9" fill-rule="evenodd" /></g></g></svg>