<svg xmlns="http://www.w3.org/2000/svg" xmlns:xlink="http://www.w3.org/1999/xlink" id="body_1" preserveAspectRatio="xMinYMin meet" viewBox="0 0 793 1121"><defs><clipPath id="1"><path id="" clip-rule="evenodd" transform="matrix(1 0 0 1 0 0)" d="M0 841L0 -0.6799927L0 -0.6799927L595.44 -0.6799927L595.44 -0.6799927L595.44 841L595.44 841L0 841z" /></clipPath></defs><g transform="matrix(1.333333 0 0 1.333333 0 0)"><g clip-path="url(#1)"><path id="6" transform="matrix(1 0 0 -1 0 841)" d="M92.184 754.68L249.884 754.68L249.884 754.68L249.884 769.92L249.884 769.92L92.184 769.92z" stroke="none" fill="#D9D9D9" fill-rule="evenodd" /><path id="23" transform="matrix(1 0 0 -1 0 841)" d="M92.184 733.54L491.854 733.54L491.854 733.54L491.854 748.78L491.854 748.78L92.184 748.78z" stroke="none" fill="#D9D9D9" fill-rule="evenodd" /><path id="63" transform="matrix(1 0 0 -1 0 841)" d="M92.184 712.42L281.444 712.42L281.444 712.42L281.444 727.66L281.444 727.66L92.184 727.66z" stroke="none" fill="#D9D9D9" fill-rule="evenodd" /><path id="83" transform="matrix(1 0 0 -1 0 841)" d="M92.184 691.42L428.714 691.42L428.714 691.42L428.714 706.66L428.714 706.66L92.184 706.66z" stroke="none" fill="#D9D9D9" fill-rule="evenodd" /></g></g></svg>