<svg xmlns="http://www.w3.org/2000/svg" xmlns:xlink="http://www.w3.org/1999/xlink" id="body_1" preserveAspectRatio="xMinYMin meet" viewBox="0 0 793 1121"><defs><clipPath id="1"><path id="" clip-rule="evenodd" transform="matrix(1 0 0 1 0 0)" d="M0 841L0 -0.9199829L0 -0.9199829L595.32 -0.9199829L595.32 -0.9199829L595.32 841L595.32 841L0 841z" /></clipPath></defs><g transform="matrix(1.333333 0 0 1.333333 0 0)"><g clip-path="url(#1)"><path id="263" transform="matrix(1 0 0 -1 0 841)" d="M415.66 314.33L499.804 314.33L499.804 314.33L499.804 330.05L499.804 330.05L415.66 330.05z" stroke="none" fill="#D9D9D9" fill-rule="evenodd" /><path id="303" transform="matrix(1 0 0 -1 0 841)" d="M89.904 295.25L500.044 295.25L500.044 295.25L500.044 310.97L500.044 310.97L89.904 310.97z" stroke="none" fill="#D9D9D9" fill-rule="evenodd" /><path id="344" transform="matrix(1 0 0 -1 0 841)" d="M89.904 276.17L216.164 276.17L216.164 276.17L216.164 291.89L216.164 291.89L89.904 291.89z" stroke="none" fill="#D9D9D9" fill-rule="evenodd" /><path id="357" transform="matrix(1 0 0 -1 0 841)" d="M89.904 238.1L405.574 238.1L405.574 238.1L405.574 253.82L405.574 253.82L89.904 253.82z" stroke="none" fill="#D9D9D9" fill-rule="evenodd" /><path id="424" transform="matrix(1 0 0 -1 0 841)" d="M89.904 181.22L500.044 181.22L500.044 181.22L500.044 196.46L500.044 196.46L89.904 196.46z" stroke="none" fill="#D9D9D9" fill-rule="evenodd" /><path id="464" transform="matrix(1 0 0 -1 0 841)" d="M89.904 162.14L500.044 162.14L500.044 162.14L500.044 177.38L500.044 177.38L89.904 177.38z" stroke="none" fill="#D9D9D9" fill-rule="evenodd" /><path id="504" transform="matrix(1 0 0 -1 0 841)" d="M89.904 143.06L331.874 143.06L331.874 143.06L331.874 158.3L331.874 158.3L89.904 158.3z" stroke="none" fill="#D9D9D9" fill-rule="evenodd" /></g></g></svg>