<svg xmlns="http://www.w3.org/2000/svg" xmlns:xlink="http://www.w3.org/1999/xlink" id="body_1" preserveAspectRatio="xMinYMin meet" viewBox="0 0 793 1121"><defs><clipPath id="1"><path id="" clip-rule="evenodd" transform="matrix(1 0 0 1 0 0)" d="M0 841L0 -0.6799927L0 -0.6799927L595.44 -0.6799927L595.44 -0.6799927L595.44 841L595.44 841L0 841z" /></clipPath></defs><g transform="matrix(1.333333 0 0 1.333333 0 0)"><g clip-path="url(#1)"><path id="547" transform="matrix(1 0 0 -1 0 841)" d="M117.14 487.99L500.97 487.99L500.97 487.99L500.97 501.67L500.97 501.67L117.14 501.67z" stroke="none" fill="#D9D9D9" fill-rule="evenodd" /><path id="583" transform="matrix(1 0 0 -1 0 841)" d="M117.14 474.43L505.65 474.43L505.65 474.43L505.65 488.11L505.65 488.11L117.14 488.11z" stroke="none" fill="#D9D9D9" fill-rule="evenodd" /><path id="621" transform="matrix(1 0 0 -1 0 841)" d="M117.14 460.75L190.7 460.75L190.7 460.75L190.7 474.43L190.7 474.43L117.14 474.43z" stroke="none" fill="#D9D9D9" fill-rule="evenodd" /><path id="904" transform="matrix(1 0 0 -1 0 841)" d="M117.14 319.85L500.97 319.85L500.97 319.85L500.97 333.53L500.97 333.53L117.14 333.53z" stroke="none" fill="#D9D9D9" fill-rule="evenodd" /><path id="942" transform="matrix(1 0 0 -1 0 841)" d="M117.14 306.17L505.65 306.17L505.65 306.17L505.65 319.85L505.65 319.85L117.14 319.85z" stroke="none" fill="#D9D9D9" fill-rule="evenodd" /><path id="980" transform="matrix(1 0 0 -1 0 841)" d="M117.14 292.61L190.7 292.61L190.7 292.61L190.7 306.29L190.7 306.29L117.14 306.29z" stroke="none" fill="#D9D9D9" fill-rule="evenodd" /><path id="988" transform="matrix(1 0 0 -1 0 841)" d="M92.184 272.93L505.654 272.93L505.654 272.93L505.654 286.61L505.654 286.61L92.184 286.61z" stroke="none" fill="#D9D9D9" fill-rule="evenodd" /><path id="1028" transform="matrix(1 0 0 -1 0 841)" d="M118.46 259.25L486.57 259.25L486.57 259.25L486.57 272.93L486.57 272.93L118.46 272.93z" stroke="none" fill="#D9D9D9" fill-rule="evenodd" /><path id="1064" transform="matrix(1 0 0 -1 0 841)" d="M92.184 239.57L505.654 239.57L505.654 239.57L505.654 253.25L505.654 253.25L92.184 253.25z" stroke="none" fill="#D9D9D9" fill-rule="evenodd" /><path id="1104" transform="matrix(1 0 0 -1 0 841)" d="M118.46 226.01L234.16 226.01L234.16 226.01L234.16 239.69L234.16 239.69L118.46 239.69z" stroke="none" fill="#D9D9D9" fill-rule="evenodd" /><path id="1116" transform="matrix(1 0 0 -1 0 841)" d="M92.184 206.33L505.654 206.33L505.654 206.33L505.654 220.01L505.654 220.01L92.184 220.01z" stroke="none" fill="#D9D9D9" fill-rule="evenodd" /><path id="1156" transform="matrix(1 0 0 -1 0 841)" d="M118.46 192.62L505.65 192.62L505.65 192.62L505.65 206.324L505.65 206.324L118.46 206.324z" stroke="none" fill="#D9D9D9" fill-rule="evenodd" /><path id="1194" transform="matrix(1 0 0 -1 0 841)" d="M118.46 178.94L505.65 178.94L505.65 178.94L505.65 192.62L505.65 192.62L118.46 192.62z" stroke="none" fill="#D9D9D9" fill-rule="evenodd" /><path id="1232" transform="matrix(1 0 0 -1 0 841)" d="M118.46 165.38L391.87 165.38L391.87 165.38L391.87 179.06L391.87 179.06L118.46 179.06z" stroke="none" fill="#D9D9D9" fill-rule="evenodd" /><path id="1259" transform="matrix(1 0 0 -1 0 841)" d="M92.184 145.7L505.654 145.7L505.654 145.7L505.654 159.38L505.654 159.38L92.184 159.38z" stroke="none" fill="#D9D9D9" fill-rule="evenodd" /><path id="1299" transform="matrix(1 0 0 -1 0 841)" d="M118.46 132.02L505.65 132.02L505.65 132.02L505.65 145.7L505.65 145.7L118.46 145.7z" stroke="none" fill="#D9D9D9" fill-rule="evenodd" /></g></g></svg>