<svg xmlns="http://www.w3.org/2000/svg" xmlns:xlink="http://www.w3.org/1999/xlink" id="body_1" preserveAspectRatio="xMinYMin meet" viewBox="0 0 793 1121"><defs><clipPath id="1"><path id="" clip-rule="evenodd" transform="matrix(1 0 0 1 0 0)" d="M0 841L0 -0.9199829L0 -0.9199829L595.32 -0.9199829L595.32 -0.9199829L595.32 841L595.32 841L0 841z" /></clipPath><clipPath id="2"><path id="" clip-rule="evenodd" transform="matrix(1 0 0 1 0 0)" d="M109.23 319.17L355.64 319.17L355.64 319.17L355.64 301.17L355.64 301.17L109.23 301.17z" /></clipPath><clipPath id="3"><path id="" clip-rule="evenodd" transform="matrix(1 0 0 1 0 0)" d="M109.22 319.17L355.63 319.17L355.63 319.17L355.63 301.17L355.63 301.17L109.22 301.17z" /></clipPath><clipPath id="4"><path id="" clip-rule="evenodd" transform="matrix(1 0 0 1 0 0)" d="M109.22 319.17L355.63 319.17L355.63 319.17L355.63 301.17L355.63 301.17L109.22 301.17z" /></clipPath><clipPath id="5"><path id="" clip-rule="evenodd" transform="matrix(1 0 0 1 0 0)" d="M109.22 319.17L355.63 319.17L355.63 319.17L355.63 301.17L355.63 301.17L109.22 301.17z" /></clipPath><clipPath id="6"><path id="" clip-rule="evenodd" transform="matrix(1 0 0 1 0 0)" d="M356.36 319.17L512.88 319.17L512.88 319.17L512.88 301.17L512.88 301.17L356.36 301.17z" /></clipPath><clipPath id="7"><path id="" clip-rule="evenodd" transform="matrix(1 0 0 1 0 0)" d="M356.35 319.17L512.88 319.17L512.88 319.17L512.88 301.17L512.88 301.17L356.35 301.17z" /></clipPath><clipPath id="8"><path id="" clip-rule="evenodd" transform="matrix(1 0 0 1 0 0)" d="M356.35 319.17L512.88 319.17L512.88 319.17L512.88 301.17L512.88 301.17L356.35 301.17z" /></clipPath><clipPath id="9"><path id="" clip-rule="evenodd" transform="matrix(1 0 0 1 0 0)" d="M109.23 335.49L355.64 335.49L355.64 335.49L355.64 319.89L355.64 319.89L109.23 319.89z" /></clipPath><clipPath id="10"><path id="" clip-rule="evenodd" transform="matrix(1 0 0 1 0 0)" d="M109.22 335.49L355.63 335.49L355.63 335.49L355.63 319.89L355.63 319.89L109.22 319.89z" /></clipPath><clipPath id="11"><path id="" clip-rule="evenodd" transform="matrix(1 0 0 1 0 0)" d="M109.22 335.49L355.63 335.49L355.63 335.49L355.63 319.89L355.63 319.89L109.22 319.89z" /></clipPath><clipPath id="12"><path id="" clip-rule="evenodd" transform="matrix(1 0 0 1 0 0)" d="M109.22 335.49L355.63 335.49L355.63 335.49L355.63 319.89L355.63 319.89L109.22 319.89z" /></clipPath><clipPath id="13"><path id="" clip-rule="evenodd" transform="matrix(1 0 0 1 0 0)" d="M109.22 335.49L355.63 335.49L355.63 335.49L355.63 319.89L355.63 319.89L109.22 319.89z" /></clipPath><clipPath id="14"><path id="" clip-rule="evenodd" transform="matrix(1 0 0 1 0 0)" d="M356.36 335.49L512.88 335.49L512.88 335.49L512.88 319.89L512.88 319.89L356.36 319.89z" /></clipPath><clipPath id="15"><path id="" clip-rule="evenodd" transform="matrix(1 0 0 1 0 0)" d="M356.35 335.49L512.88 335.49L512.88 335.49L512.88 319.89L512.88 319.89L356.35 319.89z" /></clipPath><clipPath id="16"><path id="" clip-rule="evenodd" transform="matrix(1 0 0 1 0 0)" d="M356.35 335.49L512.88 335.49L512.88 335.49L512.88 319.89L512.88 319.89L356.35 319.89z" /></clipPath><clipPath id="17"><path id="" clip-rule="evenodd" transform="matrix(1 0 0 1 0 0)" d="M356.35 335.49L512.88 335.49L512.88 335.49L512.88 319.89L512.88 319.89L356.35 319.89z" /></clipPath><clipPath id="18"><path id="" clip-rule="evenodd" transform="matrix(1 0 0 1 0 0)" d="M109.23 351.81L355.64 351.81L355.64 351.81L355.64 336.33L355.64 336.33L109.23 336.33z" /></clipPath><clipPath id="19"><path id="" clip-rule="evenodd" transform="matrix(1 0 0 1 0 0)" d="M109.22 351.81L355.63 351.81L355.63 351.81L355.63 336.33L355.63 336.33L109.22 336.33z" /></clipPath><clipPath id="20"><path id="" clip-rule="evenodd" transform="matrix(1 0 0 1 0 0)" d="M109.22 351.81L355.63 351.81L355.63 351.81L355.63 336.33L355.63 336.33L109.22 336.33z" /></clipPath><clipPath id="21"><path id="" clip-rule="evenodd" transform="matrix(1 0 0 1 0 0)" d="M109.22 351.81L355.63 351.81L355.63 351.81L355.63 336.33L355.63 336.33L109.22 336.33z" /></clipPath><clipPath id="22"><path id="" clip-rule="evenodd" transform="matrix(1 0 0 1 0 0)" d="M109.22 351.81L355.63 351.81L355.63 351.81L355.63 336.33L355.63 336.33L109.22 336.33z" /></clipPath><clipPath id="23"><path id="" clip-rule="evenodd" transform="matrix(1 0 0 1 0 0)" d="M109.22 351.81L355.63 351.81L355.63 351.81L355.63 336.33L355.63 336.33L109.22 336.33z" /></clipPath><clipPath id="24"><path id="" clip-rule="evenodd" transform="matrix(1 0 0 1 0 0)" d="M109.22 351.81L355.63 351.81L355.63 351.81L355.63 336.33L355.63 336.33L109.22 336.33z" /></clipPath><clipPath id="25"><path id="" clip-rule="evenodd" transform="matrix(1 0 0 1 0 0)" d="M356.36 351.81L512.88 351.81L512.88 351.81L512.88 336.33L512.88 336.33L356.36 336.33z" /></clipPath><clipPath id="26"><path id="" clip-rule="evenodd" transform="matrix(1 0 0 1 0 0)" d="M356.35 351.81L512.88 351.81L512.88 351.81L512.88 336.33L512.88 336.33L356.35 336.33z" /></clipPath><clipPath id="27"><path id="" clip-rule="evenodd" transform="matrix(1 0 0 1 0 0)" d="M356.35 351.81L512.88 351.81L512.88 351.81L512.88 336.33L512.88 336.33L356.35 336.33z" /></clipPath><clipPath id="28"><path id="" clip-rule="evenodd" transform="matrix(1 0 0 1 0 0)" d="M356.35 351.81L512.88 351.81L512.88 351.81L512.88 336.33L512.88 336.33L356.35 336.33z" /></clipPath><clipPath id="29"><path id="" clip-rule="evenodd" transform="matrix(1 0 0 1 0 0)" d="M109.23 368.25L355.64 368.25L355.64 368.25L355.64 352.65L355.64 352.65L109.23 352.65z" /></clipPath><clipPath id="30"><path id="" clip-rule="evenodd" transform="matrix(1 0 0 1 0 0)" d="M109.22 368.25L355.63 368.25L355.63 368.25L355.63 352.65L355.63 352.65L109.22 352.65z" /></clipPath><clipPath id="31"><path id="" clip-rule="evenodd" transform="matrix(1 0 0 1 0 0)" d="M109.22 368.25L355.63 368.25L355.63 368.25L355.63 352.65L355.63 352.65L109.22 352.65z" /></clipPath><clipPath id="32"><path id="" clip-rule="evenodd" transform="matrix(1 0 0 1 0 0)" d="M109.22 368.25L355.63 368.25L355.63 368.25L355.63 352.65L355.63 352.65L109.22 352.65z" /></clipPath><clipPath id="33"><path id="" clip-rule="evenodd" transform="matrix(1 0 0 1 0 0)" d="M109.22 368.25L355.63 368.25L355.63 368.25L355.63 352.65L355.63 352.65L109.22 352.65z" /></clipPath><clipPath id="34"><path id="" clip-rule="evenodd" transform="matrix(1 0 0 1 0 0)" d="M109.22 368.25L355.63 368.25L355.63 368.25L355.63 352.65L355.63 352.65L109.22 352.65z" /></clipPath><clipPath id="35"><path id="" clip-rule="evenodd" transform="matrix(1 0 0 1 0 0)" d="M109.22 368.25L355.63 368.25L355.63 368.25L355.63 352.65L355.63 352.65L109.22 352.65z" /></clipPath><clipPath id="36"><path id="" clip-rule="evenodd" transform="matrix(1 0 0 1 0 0)" d="M356.36 368.25L512.88 368.25L512.88 368.25L512.88 352.65L512.88 352.65L356.36 352.65z" /></clipPath><clipPath id="37"><path id="" clip-rule="evenodd" transform="matrix(1 0 0 1 0 0)" d="M356.35 368.25L512.88 368.25L512.88 368.25L512.88 352.65L512.88 352.65L356.35 352.65z" /></clipPath><clipPath id="38"><path id="" clip-rule="evenodd" transform="matrix(1 0 0 1 0 0)" d="M356.35 368.25L512.88 368.25L512.88 368.25L512.88 352.65L512.88 352.65L356.35 352.65z" /></clipPath><clipPath id="39"><path id="" clip-rule="evenodd" transform="matrix(1 0 0 1 0 0)" d="M356.35 368.25L512.88 368.25L512.88 368.25L512.88 352.65L512.88 352.65L356.35 352.65z" /></clipPath><clipPath id="40"><path id="" clip-rule="evenodd" transform="matrix(1 0 0 1 0 0)" d="M109.23 384.57L355.64 384.57L355.64 384.57L355.64 368.97L355.64 368.97L109.23 368.97z" /></clipPath><clipPath id="41"><path id="" clip-rule="evenodd" transform="matrix(1 0 0 1 0 0)" d="M109.22 384.57L355.63 384.57L355.63 384.57L355.63 368.97L355.63 368.97L109.22 368.97z" /></clipPath><clipPath id="42"><path id="" clip-rule="evenodd" transform="matrix(1 0 0 1 0 0)" d="M109.22 384.57L355.63 384.57L355.63 384.57L355.63 368.97L355.63 368.97L109.22 368.97z" /></clipPath><clipPath id="43"><path id="" clip-rule="evenodd" transform="matrix(1 0 0 1 0 0)" d="M109.22 384.57L355.63 384.57L355.63 384.57L355.63 368.97L355.63 368.97L109.22 368.97z" /></clipPath><clipPath id="44"><path id="" clip-rule="evenodd" transform="matrix(1 0 0 1 0 0)" d="M109.22 384.57L355.63 384.57L355.63 384.57L355.63 368.97L355.63 368.97L109.22 368.97z" /></clipPath><clipPath id="45"><path id="" clip-rule="evenodd" transform="matrix(1 0 0 1 0 0)" d="M109.22 384.57L355.63 384.57L355.63 384.57L355.63 368.97L355.63 368.97L109.22 368.97z" /></clipPath><clipPath id="46"><path id="" clip-rule="evenodd" transform="matrix(1 0 0 1 0 0)" d="M109.22 384.57L355.63 384.57L355.63 384.57L355.63 368.97L355.63 368.97L109.22 368.97z" /></clipPath><clipPath id="47"><path id="" clip-rule="evenodd" transform="matrix(1 0 0 1 0 0)" d="M356.36 384.57L512.88 384.57L512.88 384.57L512.88 368.97L512.88 368.97L356.36 368.97z" /></clipPath><clipPath id="48"><path id="" clip-rule="evenodd" transform="matrix(1 0 0 1 0 0)" d="M356.35 384.57L512.88 384.57L512.88 384.57L512.88 368.97L512.88 368.97L356.35 368.97z" /></clipPath><clipPath id="49"><path id="" clip-rule="evenodd" transform="matrix(1 0 0 1 0 0)" d="M356.35 384.57L512.88 384.57L512.88 384.57L512.88 368.97L512.88 368.97L356.35 368.97z" /></clipPath><clipPath id="50"><path id="" clip-rule="evenodd" transform="matrix(1 0 0 1 0 0)" d="M109.23 400.89L355.64 400.89L355.64 400.89L355.64 385.29L355.64 385.29L109.23 385.29z" /></clipPath><clipPath id="51"><path id="" clip-rule="evenodd" transform="matrix(1 0 0 1 0 0)" d="M109.22 400.89L355.63 400.89L355.63 400.89L355.63 385.29L355.63 385.29L109.22 385.29z" /></clipPath><clipPath id="52"><path id="" clip-rule="evenodd" transform="matrix(1 0 0 1 0 0)" d="M109.22 400.89L355.63 400.89L355.63 400.89L355.63 385.29L355.63 385.29L109.22 385.29z" /></clipPath><clipPath id="53"><path id="" clip-rule="evenodd" transform="matrix(1 0 0 1 0 0)" d="M109.22 400.89L355.63 400.89L355.63 400.89L355.63 385.29L355.63 385.29L109.22 385.29z" /></clipPath><clipPath id="54"><path id="" clip-rule="evenodd" transform="matrix(1 0 0 1 0 0)" d="M109.22 400.89L355.63 400.89L355.63 400.89L355.63 385.29L355.63 385.29L109.22 385.29z" /></clipPath><clipPath id="55"><path id="" clip-rule="evenodd" transform="matrix(1 0 0 1 0 0)" d="M109.22 400.89L355.63 400.89L355.63 400.89L355.63 385.29L355.63 385.29L109.22 385.29z" /></clipPath><clipPath id="56"><path id="" clip-rule="evenodd" transform="matrix(1 0 0 1 0 0)" d="M109.22 400.89L355.63 400.89L355.63 400.89L355.63 385.29L355.63 385.29L109.22 385.29z" /></clipPath><clipPath id="57"><path id="" clip-rule="evenodd" transform="matrix(1 0 0 1 0 0)" d="M356.36 400.89L512.88 400.89L512.88 400.89L512.88 385.29L512.88 385.29L356.36 385.29z" /></clipPath><clipPath id="58"><path id="" clip-rule="evenodd" transform="matrix(1 0 0 1 0 0)" d="M356.35 400.89L512.88 400.89L512.88 400.89L512.88 385.29L512.88 385.29L356.35 385.29z" /></clipPath><clipPath id="59"><path id="" clip-rule="evenodd" transform="matrix(1 0 0 1 0 0)" d="M356.35 400.89L512.88 400.89L512.88 400.89L512.88 385.29L512.88 385.29L356.35 385.29z" /></clipPath><clipPath id="60"><path id="" clip-rule="evenodd" transform="matrix(1 0 0 1 0 0)" d="M109.23 417.24L355.64 417.24L355.64 417.24L355.64 401.61L355.64 401.61L109.23 401.61z" /></clipPath><clipPath id="61"><path id="" clip-rule="evenodd" transform="matrix(1 0 0 1 0 0)" d="M109.22 417.23L355.63 417.23L355.63 417.23L355.63 401.606L355.63 401.606L109.22 401.606z" /></clipPath><clipPath id="62"><path id="" clip-rule="evenodd" transform="matrix(1 0 0 1 0 0)" d="M109.22 417.23L355.63 417.23L355.63 417.23L355.63 401.606L355.63 401.606L109.22 401.606z" /></clipPath><clipPath id="63"><path id="" clip-rule="evenodd" transform="matrix(1 0 0 1 0 0)" d="M109.22 417.23L355.63 417.23L355.63 417.23L355.63 401.606L355.63 401.606L109.22 401.606z" /></clipPath><clipPath id="64"><path id="" clip-rule="evenodd" transform="matrix(1 0 0 1 0 0)" d="M109.22 417.23L355.63 417.23L355.63 417.23L355.63 401.606L355.63 401.606L109.22 401.606z" /></clipPath><clipPath id="65"><path id="" clip-rule="evenodd" transform="matrix(1 0 0 1 0 0)" d="M109.22 417.23L355.63 417.23L355.63 417.23L355.63 401.606L355.63 401.606L109.22 401.606z" /></clipPath><clipPath id="66"><path id="" clip-rule="evenodd" transform="matrix(1 0 0 1 0 0)" d="M356.36 417.24L512.88 417.24L512.88 417.24L512.88 401.61L512.88 401.61L356.36 401.61z" /></clipPath><clipPath id="67"><path id="" clip-rule="evenodd" transform="matrix(1 0 0 1 0 0)" d="M356.35 417.23L512.88 417.23L512.88 417.23L512.88 401.606L512.88 401.606L356.35 401.606z" /></clipPath><clipPath id="68"><path id="" clip-rule="evenodd" transform="matrix(1 0 0 1 0 0)" d="M356.35 417.23L512.88 417.23L512.88 417.23L512.88 401.606L512.88 401.606L356.35 401.606z" /></clipPath><clipPath id="69"><path id="" clip-rule="evenodd" transform="matrix(1 0 0 1 0 0)" d="M356.35 417.23L512.88 417.23L512.88 417.23L512.88 401.606L512.88 401.606L356.35 401.606z" /></clipPath></defs><g transform="matrix(1.333333 0 0 1.333333 0 0)"><g clip-path="url(#1)"><g clip-path="url(#2)"><g clip-path="url(#3)"></g><g clip-path="url(#4)"></g><g clip-path="url(#5)"></g></g><g clip-path="url(#6)"><g clip-path="url(#7)"></g><g clip-path="url(#8)"></g></g><path id="267" transform="matrix(1 0 0 -1 0 841)" d="M107.78 539.71L109.22 539.71L109.22 539.71L109.22 541.27L109.22 541.27L107.78 541.27z" stroke="none" fill="#000000" fill-rule="evenodd" /><path id="268" transform="matrix(1 0 0 -1 0 841)" d="M107.78 539.83L109.22 539.83L109.22 539.83L109.22 541.27L109.22 541.27L107.78 541.27z" stroke="none" fill="#000000" fill-rule="evenodd" /><path id="269" transform="matrix(1 0 0 -1 0 841)" d="M109.22 539.83L355.75 539.83L355.75 539.83L355.75 541.27L355.75 541.27L109.22 541.27z" stroke="none" fill="#000000" fill-rule="evenodd" /><path id="270" transform="matrix(1 0 0 -1 0 841)" d="M355.75 539.71L356.47 539.71L356.47 539.71L356.47 539.83L356.47 539.83L355.75 539.83z" stroke="none" fill="#000000" fill-rule="evenodd" /><path id="271" transform="matrix(1 0 0 -1 0 841)" d="M355.75 539.83L357.19 539.83L357.19 539.83L357.19 541.27L357.19 541.27L355.75 541.27z" stroke="none" fill="#000000" fill-rule="evenodd" /><path id="272" transform="matrix(1 0 0 -1 0 841)" d="M357.19 539.83L512.88 539.83L512.88 539.83L512.88 541.27L512.88 541.27L357.19 541.27z" stroke="none" fill="#000000" fill-rule="evenodd" /><path id="273" transform="matrix(1 0 0 -1 0 841)" d="M512.88 539.71L514.32 539.71L514.32 539.71L514.32 541.27L514.32 541.27L512.88 541.27z" stroke="none" fill="#000000" fill-rule="evenodd" /><path id="274" transform="matrix(1 0 0 -1 0 841)" d="M512.88 539.83L514.32 539.83L514.32 539.83L514.32 541.27L514.32 541.27L512.88 541.27z" stroke="none" fill="#000000" fill-rule="evenodd" /><path id="275" transform="matrix(1 0 0 -1 0 841)" d="M107.78 521.83L109.22 521.83L109.22 521.83L109.22 539.71L109.22 539.71L107.78 539.71z" stroke="none" fill="#000000" fill-rule="evenodd" /><path id="276" transform="matrix(1 0 0 -1 0 841)" d="M355.75 521.83L356.47 521.83L356.47 521.83L356.47 539.71L356.47 539.71L355.75 539.71z" stroke="none" fill="#000000" fill-rule="evenodd" /><path id="277" transform="matrix(1 0 0 -1 0 841)" d="M512.88 521.83L514.32 521.83L514.32 521.83L514.32 539.71L514.32 539.71L512.88 539.71z" stroke="none" fill="#000000" fill-rule="evenodd" /><g clip-path="url(#9)"><g clip-path="url(#10)"></g><g clip-path="url(#11)"></g><g clip-path="url(#12)"></g><g clip-path="url(#13)"></g></g><g clip-path="url(#14)"><g clip-path="url(#15)"></g><g clip-path="url(#16)"></g><g clip-path="url(#17)"></g></g><path id="289" transform="matrix(1 0 0 -1 0 841)" d="M107.78 521.11L109.22 521.11L109.22 521.11L109.22 521.83L109.22 521.83L107.78 521.83z" stroke="none" fill="#000000" fill-rule="evenodd" /><path id="290" transform="matrix(1 0 0 -1 0 841)" d="M109.22 521.11L355.75 521.11L355.75 521.11L355.75 521.83L355.75 521.83L109.22 521.83z" stroke="none" fill="#000000" fill-rule="evenodd" /><path id="291" transform="matrix(1 0 0 -1 0 841)" d="M355.75 521.11L356.47 521.11L356.47 521.11L356.47 521.83L356.47 521.83L355.75 521.83z" stroke="none" fill="#000000" fill-rule="evenodd" /><path id="292" transform="matrix(1 0 0 -1 0 841)" d="M356.47 521.11L512.88 521.11L512.88 521.11L512.88 521.83L512.88 521.83L356.47 521.83z" stroke="none" fill="#000000" fill-rule="evenodd" /><path id="293" transform="matrix(1 0 0 -1 0 841)" d="M512.88 521.11L514.32 521.11L514.32 521.11L514.32 521.83L514.32 521.83L512.88 521.83z" stroke="none" fill="#000000" fill-rule="evenodd" /><path id="294" transform="matrix(1 0 0 -1 0 841)" d="M107.78 505.51L109.22 505.51L109.22 505.51L109.22 521.11L109.22 521.11L107.78 521.11z" stroke="none" fill="#000000" fill-rule="evenodd" /><path id="295" transform="matrix(1 0 0 -1 0 841)" d="M355.75 505.51L356.47 505.51L356.47 505.51L356.47 521.11L356.47 521.11L355.75 521.11z" stroke="none" fill="#000000" fill-rule="evenodd" /><path id="296" transform="matrix(1 0 0 -1 0 841)" d="M512.88 505.51L514.32 505.51L514.32 505.51L514.32 521.11L514.32 521.11L512.88 521.11z" stroke="none" fill="#000000" fill-rule="evenodd" /><g clip-path="url(#18)"><g clip-path="url(#19)"></g><g clip-path="url(#20)"></g><g clip-path="url(#21)"></g><g clip-path="url(#22)"></g><g clip-path="url(#23)"></g><g clip-path="url(#24)"></g></g><g clip-path="url(#25)"><g clip-path="url(#26)"></g><g clip-path="url(#27)"></g><g clip-path="url(#28)"></g></g><path id="311" transform="matrix(1 0 0 -1 0 841)" d="M107.78 504.79L109.22 504.79L109.22 504.79L109.22 505.51L109.22 505.51L107.78 505.51z" stroke="none" fill="#000000" fill-rule="evenodd" /><path id="312" transform="matrix(1 0 0 -1 0 841)" d="M109.22 504.79L355.75 504.79L355.75 504.79L355.75 505.51L355.75 505.51L109.22 505.51z" stroke="none" fill="#000000" fill-rule="evenodd" /><path id="313" transform="matrix(1 0 0 -1 0 841)" d="M355.75 504.79L356.47 504.79L356.47 504.79L356.47 505.51L356.47 505.51L355.75 505.51z" stroke="none" fill="#000000" fill-rule="evenodd" /><path id="314" transform="matrix(1 0 0 -1 0 841)" d="M356.47 504.79L512.88 504.79L512.88 504.79L512.88 505.51L512.88 505.51L356.47 505.51z" stroke="none" fill="#000000" fill-rule="evenodd" /><path id="315" transform="matrix(1 0 0 -1 0 841)" d="M512.88 504.79L514.32 504.79L514.32 504.79L514.32 505.51L514.32 505.51L512.88 505.51z" stroke="none" fill="#000000" fill-rule="evenodd" /><path id="316" transform="matrix(1 0 0 -1 0 841)" d="M107.78 489.19L109.22 489.19L109.22 489.19L109.22 504.79L109.22 504.79L107.78 504.79z" stroke="none" fill="#000000" fill-rule="evenodd" /><path id="317" transform="matrix(1 0 0 -1 0 841)" d="M355.75 489.19L356.47 489.19L356.47 489.19L356.47 504.79L356.47 504.79L355.75 504.79z" stroke="none" fill="#000000" fill-rule="evenodd" /><path id="318" transform="matrix(1 0 0 -1 0 841)" d="M512.88 489.19L514.32 489.19L514.32 489.19L514.32 504.79L514.32 504.79L512.88 504.79z" stroke="none" fill="#000000" fill-rule="evenodd" /><g clip-path="url(#29)"><g clip-path="url(#30)"></g><g clip-path="url(#31)"></g><g clip-path="url(#32)"></g><g clip-path="url(#33)"></g><g clip-path="url(#34)"></g><g clip-path="url(#35)"></g></g><g clip-path="url(#36)"><g clip-path="url(#37)"></g><g clip-path="url(#38)"></g><g clip-path="url(#39)"></g></g><path id="333" transform="matrix(1 0 0 -1 0 841)" d="M107.78 488.47L109.22 488.47L109.22 488.47L109.22 489.19L109.22 489.19L107.78 489.19z" stroke="none" fill="#000000" fill-rule="evenodd" /><path id="334" transform="matrix(1 0 0 -1 0 841)" d="M109.22 488.47L355.75 488.47L355.75 488.47L355.75 489.19L355.75 489.19L109.22 489.19z" stroke="none" fill="#000000" fill-rule="evenodd" /><path id="335" transform="matrix(1 0 0 -1 0 841)" d="M355.75 488.47L356.47 488.47L356.47 488.47L356.47 489.19L356.47 489.19L355.75 489.19z" stroke="none" fill="#000000" fill-rule="evenodd" /><path id="336" transform="matrix(1 0 0 -1 0 841)" d="M356.47 488.47L512.88 488.47L512.88 488.47L512.88 489.19L512.88 489.19L356.47 489.19z" stroke="none" fill="#000000" fill-rule="evenodd" /><path id="337" transform="matrix(1 0 0 -1 0 841)" d="M512.88 488.47L514.32 488.47L514.32 488.47L514.32 489.19L514.32 489.19L512.88 489.19z" stroke="none" fill="#000000" fill-rule="evenodd" /><path id="338" transform="matrix(1 0 0 -1 0 841)" d="M107.78 472.75L109.22 472.75L109.22 472.75L109.22 488.47L109.22 488.47L107.78 488.47z" stroke="none" fill="#000000" fill-rule="evenodd" /><path id="339" transform="matrix(1 0 0 -1 0 841)" d="M355.75 472.75L356.47 472.75L356.47 472.75L356.47 488.47L356.47 488.47L355.75 488.47z" stroke="none" fill="#000000" fill-rule="evenodd" /><path id="340" transform="matrix(1 0 0 -1 0 841)" d="M512.88 472.75L514.32 472.75L514.32 472.75L514.32 488.47L514.32 488.47L512.88 488.47z" stroke="none" fill="#000000" fill-rule="evenodd" /><g clip-path="url(#40)"><g clip-path="url(#41)"></g><g clip-path="url(#42)"></g><g clip-path="url(#43)"></g><g clip-path="url(#44)"></g><g clip-path="url(#45)"></g><g clip-path="url(#46)"></g></g><g clip-path="url(#47)"><g clip-path="url(#48)"></g><g clip-path="url(#49)"></g></g><path id="355" transform="matrix(1 0 0 -1 0 841)" d="M107.78 472.03L109.22 472.03L109.22 472.03L109.22 472.75L109.22 472.75L107.78 472.75z" stroke="none" fill="#000000" fill-rule="evenodd" /><path id="356" transform="matrix(1 0 0 -1 0 841)" d="M109.22 472.03L355.75 472.03L355.75 472.03L355.75 472.75L355.75 472.75L109.22 472.75z" stroke="none" fill="#000000" fill-rule="evenodd" /><path id="357" transform="matrix(1 0 0 -1 0 841)" d="M355.75 472.03L356.47 472.03L356.47 472.03L356.47 472.75L356.47 472.75L355.75 472.75z" stroke="none" fill="#000000" fill-rule="evenodd" /><path id="358" transform="matrix(1 0 0 -1 0 841)" d="M356.47 472.03L512.88 472.03L512.88 472.03L512.88 472.75L512.88 472.75L356.47 472.75z" stroke="none" fill="#000000" fill-rule="evenodd" /><path id="359" transform="matrix(1 0 0 -1 0 841)" d="M512.88 472.03L514.32 472.03L514.32 472.03L514.32 472.75L514.32 472.75L512.88 472.75z" stroke="none" fill="#000000" fill-rule="evenodd" /><path id="360" transform="matrix(1 0 0 -1 0 841)" d="M107.78 456.43L109.22 456.43L109.22 456.43L109.22 472.03L109.22 472.03L107.78 472.03z" stroke="none" fill="#000000" fill-rule="evenodd" /><path id="361" transform="matrix(1 0 0 -1 0 841)" d="M355.75 456.43L356.47 456.43L356.47 456.43L356.47 472.03L356.47 472.03L355.75 472.03z" stroke="none" fill="#000000" fill-rule="evenodd" /><path id="362" transform="matrix(1 0 0 -1 0 841)" d="M512.88 456.43L514.32 456.43L514.32 456.43L514.32 472.03L514.32 472.03L512.88 472.03z" stroke="none" fill="#000000" fill-rule="evenodd" /><g clip-path="url(#50)"><g clip-path="url(#51)"></g><g clip-path="url(#52)"></g><g clip-path="url(#53)"></g><g clip-path="url(#54)"></g><g clip-path="url(#55)"></g><g clip-path="url(#56)"></g></g><g clip-path="url(#57)"><g clip-path="url(#58)"></g><g clip-path="url(#59)"></g></g><path id="377" transform="matrix(1 0 0 -1 0 841)" d="M107.78 455.71L109.22 455.71L109.22 455.71L109.22 456.43L109.22 456.43L107.78 456.43z" stroke="none" fill="#000000" fill-rule="evenodd" /><path id="378" transform="matrix(1 0 0 -1 0 841)" d="M109.22 455.71L355.75 455.71L355.75 455.71L355.75 456.43L355.75 456.43L109.22 456.43z" stroke="none" fill="#000000" fill-rule="evenodd" /><path id="379" transform="matrix(1 0 0 -1 0 841)" d="M355.75 455.71L356.47 455.71L356.47 455.71L356.47 456.43L356.47 456.43L355.75 456.43z" stroke="none" fill="#000000" fill-rule="evenodd" /><path id="380" transform="matrix(1 0 0 -1 0 841)" d="M356.47 455.71L512.88 455.71L512.88 455.71L512.88 456.43L512.88 456.43L356.47 456.43z" stroke="none" fill="#000000" fill-rule="evenodd" /><path id="381" transform="matrix(1 0 0 -1 0 841)" d="M512.88 455.71L514.32 455.71L514.32 455.71L514.32 456.43L514.32 456.43L512.88 456.43z" stroke="none" fill="#000000" fill-rule="evenodd" /><path id="382" transform="matrix(1 0 0 -1 0 841)" d="M107.78 440.11L109.22 440.11L109.22 440.11L109.22 455.71L109.22 455.71L107.78 455.71z" stroke="none" fill="#000000" fill-rule="evenodd" /><path id="383" transform="matrix(1 0 0 -1 0 841)" d="M355.75 440.11L356.47 440.11L356.47 440.11L356.47 455.71L356.47 455.71L355.75 455.71z" stroke="none" fill="#000000" fill-rule="evenodd" /><path id="384" transform="matrix(1 0 0 -1 0 841)" d="M512.88 440.11L514.32 440.11L514.32 440.11L514.32 455.71L514.32 455.71L512.88 455.71z" stroke="none" fill="#000000" fill-rule="evenodd" /><g clip-path="url(#60)"><g clip-path="url(#61)"></g><g clip-path="url(#62)"></g><g clip-path="url(#63)"></g><g clip-path="url(#64)"></g><g clip-path="url(#65)"></g></g><g clip-path="url(#66)"><g clip-path="url(#67)"></g><g clip-path="url(#68)"></g><g clip-path="url(#69)"></g></g><path id="393" transform="matrix(1 0 0 -1 0 841)" d="M107.78 439.39L109.22 439.39L109.22 439.39L109.22 440.11L109.22 440.11L107.78 440.11z" stroke="none" fill="#000000" fill-rule="evenodd" /><path id="394" transform="matrix(1 0 0 -1 0 841)" d="M109.22 439.39L355.75 439.39L355.75 439.39L355.75 440.11L355.75 440.11L109.22 440.11z" stroke="none" fill="#000000" fill-rule="evenodd" /><path id="395" transform="matrix(1 0 0 -1 0 841)" d="M355.75 439.39L356.47 439.39L356.47 439.39L356.47 440.11L356.47 440.11L355.75 440.11z" stroke="none" fill="#000000" fill-rule="evenodd" /><path id="396" transform="matrix(1 0 0 -1 0 841)" d="M356.47 439.39L512.88 439.39L512.88 439.39L512.88 440.11L512.88 440.11L356.47 440.11z" stroke="none" fill="#000000" fill-rule="evenodd" /><path id="397" transform="matrix(1 0 0 -1 0 841)" d="M512.88 439.39L514.32 439.39L514.32 439.39L514.32 440.11L514.32 440.11L512.88 440.11z" stroke="none" fill="#000000" fill-rule="evenodd" /><path id="398" transform="matrix(1 0 0 -1 0 841)" d="M107.78 423.65L109.22 423.65L109.22 423.65L109.22 439.394L109.22 439.394L107.78 439.394z" stroke="none" fill="#000000" fill-rule="evenodd" /><path id="399" transform="matrix(1 0 0 -1 0 841)" d="M107.78 422.21L109.22 422.21L109.22 422.21L109.22 423.65L109.22 423.65L107.78 423.65z" stroke="none" fill="#000000" fill-rule="evenodd" /><path id="400" transform="matrix(1 0 0 -1 0 841)" d="M107.78 422.21L109.22 422.21L109.22 422.21L109.22 423.65L109.22 423.65L107.78 423.65z" stroke="none" fill="#000000" fill-rule="evenodd" /><path id="401" transform="matrix(1 0 0 -1 0 841)" d="M109.22 422.21L355.75 422.21L355.75 422.21L355.75 423.65L355.75 423.65L109.22 423.65z" stroke="none" fill="#000000" fill-rule="evenodd" /><path id="402" transform="matrix(1 0 0 -1 0 841)" d="M355.75 423.65L356.47 423.65L356.47 423.65L356.47 439.394L356.47 439.394L355.75 439.394z" stroke="none" fill="#000000" fill-rule="evenodd" /><path id="403" transform="matrix(1 0 0 -1 0 841)" d="M355.75 422.21L357.19 422.21L357.19 422.21L357.19 423.65L357.19 423.65L355.75 423.65z" stroke="none" fill="#000000" fill-rule="evenodd" /><path id="404" transform="matrix(1 0 0 -1 0 841)" d="M357.19 422.21L512.88 422.21L512.88 422.21L512.88 423.65L512.88 423.65L357.19 423.65z" stroke="none" fill="#000000" fill-rule="evenodd" /><path id="405" transform="matrix(1 0 0 -1 0 841)" d="M512.88 423.65L514.32 423.65L514.32 423.65L514.32 439.394L514.32 439.394L512.88 439.394z" stroke="none" fill="#000000" fill-rule="evenodd" /><path id="406" transform="matrix(1 0 0 -1 0 841)" d="M512.88 422.21L514.32 422.21L514.32 422.21L514.32 423.65L514.32 423.65L512.88 423.65z" stroke="none" fill="#000000" fill-rule="evenodd" /><path id="407" transform="matrix(1 0 0 -1 0 841)" d="M512.88 422.21L514.32 422.21L514.32 422.21L514.32 423.65L514.32 423.65L512.88 423.65z" stroke="none" fill="#000000" fill-rule="evenodd" /><path id="763" transform="matrix(1 0 0 -1 0 841)" d="M201.29 99.96L500.04 99.96L500.04 99.96L500.04 115.704L500.04 115.704L201.29 115.704z" stroke="none" fill="#D9D9D9" fill-rule="evenodd" /><path id="801" transform="matrix(1 0 0 -1 0 841)" d="M118.22 80.88L328.51 80.88L328.51 80.88L328.51 96.6L328.51 96.6L118.22 96.6z" stroke="none" fill="#D9D9D9" fill-rule="evenodd" /></g></g></svg>