<svg xmlns="http://www.w3.org/2000/svg" xmlns:xlink="http://www.w3.org/1999/xlink" id="body_1" preserveAspectRatio="xMinYMin meet" viewBox="0 0 793 1121"><defs><clipPath id="1"><path id="" clip-rule="evenodd" transform="matrix(1 0 0 1 0 0)" d="M0 841L0 -0.6799927L0 -0.6799927L595.44 -0.6799927L595.44 -0.6799927L595.44 841L595.44 841L0 841z" /></clipPath></defs><g transform="matrix(1.333333 0 0 1.333333 0 0)"><g clip-path="url(#1)"><path id="86" transform="matrix(1 0 0 -1 0 841)" d="M92.184 707.74L502.414 707.74L502.414 707.74L502.414 722.98L502.414 722.98L92.184 722.98z" stroke="none" fill="#D9D9D9" fill-rule="evenodd" /><path id="126" transform="matrix(1 0 0 -1 0 841)" d="M92.184 692.62L376.154 692.62L376.154 692.62L376.154 707.86L376.154 707.86L92.184 707.86z" stroke="none" fill="#D9D9D9" fill-rule="evenodd" /><path id="154" transform="matrix(1 0 0 -1 0 841)" d="M92.184 671.5L502.414 671.5L502.414 671.5L502.414 686.74L502.414 686.74L92.184 686.74z" stroke="none" fill="#D9D9D9" fill-rule="evenodd" /><path id="194" transform="matrix(1 0 0 -1 0 841)" d="M92.184 656.38L365.594 656.38L365.594 656.38L365.594 671.62L365.594 671.62L92.184 671.62z" stroke="none" fill="#D9D9D9" fill-rule="evenodd" /><path id="221" transform="matrix(1 0 0 -1 0 841)" d="M92.184 635.38L502.414 635.38L502.414 635.38L502.414 650.62L502.414 650.62L92.184 650.62z" stroke="none" fill="#D9D9D9" fill-rule="evenodd" /><path id="261" transform="matrix(1 0 0 -1 0 841)" d="M92.184 620.26L176.304 620.26L176.304 620.26L176.304 635.5L176.304 635.5L92.184 635.5z" stroke="none" fill="#D9D9D9" fill-rule="evenodd" /><path id="270" transform="matrix(1 0 0 -1 0 841)" d="M92.184 599.14L502.414 599.14L502.414 599.14L502.414 614.38L502.414 614.38L92.184 614.38z" stroke="none" fill="#D9D9D9" fill-rule="evenodd" /><path id="310" transform="matrix(1 0 0 -1 0 841)" d="M92.184 584.02L239.444 584.02L239.444 584.02L239.444 599.26L239.444 599.26L92.184 599.26z" stroke="none" fill="#D9D9D9" fill-rule="evenodd" /><path id="332" transform="matrix(1 0 0 -1 0 841)" d="M92.184 522.19L505.654 522.19L505.654 522.19L505.654 535.87L505.654 535.87L92.184 535.87z" stroke="none" fill="#D9D9D9" fill-rule="evenodd" /><path id="372" transform="matrix(1 0 0 -1 0 841)" d="M92.184 508.51L292.004 508.51L292.004 508.51L292.004 522.19L292.004 522.19L92.184 522.19z" stroke="none" fill="#D9D9D9" fill-rule="evenodd" /><path id="392" transform="matrix(1 0 0 -1 0 841)" d="M92.184 488.83L505.654 488.83L505.654 488.83L505.654 502.51L505.654 502.51L92.184 502.51z" stroke="none" fill="#D9D9D9" fill-rule="evenodd" /><path id="432" transform="matrix(1 0 0 -1 0 841)" d="M92.184 475.27L197.324 475.27L197.324 475.27L197.324 488.95L197.324 488.95L92.184 488.95z" stroke="none" fill="#D9D9D9" fill-rule="evenodd" /><path id="443" transform="matrix(1 0 0 -1 0 841)" d="M92.184 454.15L223.604 454.15L223.604 454.15L223.604 469.39L223.604 469.39L92.184 469.39z" stroke="none" fill="#D9D9D9" fill-rule="evenodd" /><path id="457" transform="matrix(1 0 0 -1 0 841)" d="M92.184 433.03L349.754 433.03L349.754 433.03L349.754 448.27L349.754 448.27L92.184 448.27z" stroke="none" fill="#D9D9D9" fill-rule="evenodd" /><path id="483" transform="matrix(1 0 0 -1 0 841)" d="M92.184 411.91L181.584 411.91L181.584 411.91L181.584 427.15L181.584 427.15L92.184 427.15z" stroke="none" fill="#D9D9D9" fill-rule="evenodd" /><path id="493" transform="matrix(1 0 0 -1 0 841)" d="M92.184 390.91L286.604 390.91L286.604 390.91L286.604 406.15L286.604 406.15L92.184 406.15z" stroke="none" fill="#D9D9D9" fill-rule="evenodd" /><path id="513" transform="matrix(1 0 0 -1 0 841)" d="M92.184 369.77L255.044 369.77L255.044 369.77L255.044 385.01L255.044 385.01L92.184 385.01z" stroke="none" fill="#D9D9D9" fill-rule="evenodd" /><path id="530" transform="matrix(1 0 0 -1 0 841)" d="M92.184 348.65L505.654 348.65L505.654 348.65L505.654 363.89L505.654 363.89L92.184 363.89z" stroke="none" fill="#D9D9D9" fill-rule="evenodd" /><path id="571" transform="matrix(1 0 0 -1 0 841)" d="M118.46 333.53L505.65 333.53L505.65 333.53L505.65 348.77L505.65 348.77L118.46 348.77z" stroke="none" fill="#D9D9D9" fill-rule="evenodd" /><path id="609" transform="matrix(1 0 0 -1 0 841)" d="M118.46 318.41L339.31 318.41L339.31 318.41L339.31 333.65L339.31 333.65L118.46 333.65z" stroke="none" fill="#D9D9D9" fill-rule="evenodd" /><path id="631" transform="matrix(1 0 0 -1 0 841)" d="M92.184 297.41L505.654 297.41L505.654 297.41L505.654 312.65L505.654 312.65L92.184 312.65z" stroke="none" fill="#D9D9D9" fill-rule="evenodd" /><path id="672" transform="matrix(1 0 0 -1 0 841)" d="M118.46 282.29L423.43 282.29L423.43 282.29L423.43 297.53L423.43 297.53L118.46 297.53z" stroke="none" fill="#D9D9D9" fill-rule="evenodd" /><path id="702" transform="matrix(1 0 0 -1 0 841)" d="M92.184 261.17L505.654 261.17L505.654 261.17L505.654 276.41L505.654 276.41L92.184 276.41z" stroke="none" fill="#D9D9D9" fill-rule="evenodd" /><path id="744" transform="matrix(1 0 0 -1 0 841)" d="M118.46 246.05L412.99 246.05L412.99 246.05L412.99 261.29L412.99 261.29L118.46 261.29z" stroke="none" fill="#D9D9D9" fill-rule="evenodd" /><path id="773" transform="matrix(1 0 0 -1 0 841)" d="M92.184 224.93L370.754 224.93L370.754 224.93L370.754 240.17L370.754 240.17L92.184 240.17z" stroke="none" fill="#D9D9D9" fill-rule="evenodd" /><path id="801" transform="matrix(1 0 0 -1 0 841)" d="M92.184 203.93L376.154 203.93L376.154 203.93L376.154 219.17L376.154 219.17L92.184 219.17z" stroke="none" fill="#D9D9D9" fill-rule="evenodd" /><path id="830" transform="matrix(1 0 0 -1 0 841)" d="M92.184 182.78L281.444 182.78L281.444 182.78L281.444 198.02L281.444 198.02L92.184 198.02z" stroke="none" fill="#D9D9D9" fill-rule="evenodd" /><path id="850" transform="matrix(1 0 0 -1 0 841)" d="M92.184 161.66L355.154 161.66L355.154 161.66L355.154 176.9L355.154 176.9L92.184 176.9z" stroke="none" fill="#D9D9D9" fill-rule="evenodd" /><path id="877" transform="matrix(1 0 0 -1 0 841)" d="M92.184 140.54L460.294 140.54L460.294 140.54L460.294 155.78L460.294 155.78L92.184 155.78z" stroke="none" fill="#D9D9D9" fill-rule="evenodd" /><path id="914" transform="matrix(1 0 0 -1 0 841)" d="M92.184 119.42L355.274 119.42L355.274 119.42L355.274 134.66L355.274 134.66L92.184 134.66z" stroke="none" fill="#D9D9D9" fill-rule="evenodd" /><path id="954" transform="matrix(1 0 0 -1 0 841)" d="M92.184 98.424L155.304 98.424L155.304 98.424L155.304 113.664L155.304 113.664L92.184 113.664z" stroke="none" fill="#D9D9D9" fill-rule="evenodd" /><path id="962" transform="matrix(1 0 0 -1 0 841)" d="M92.184 77.304L186.744 77.304L186.744 77.304L186.744 92.544L186.744 92.544L92.184 92.544z" stroke="none" fill="#D9D9D9" fill-rule="evenodd" /></g></g></svg>