<svg xmlns="http://www.w3.org/2000/svg" xmlns:xlink="http://www.w3.org/1999/xlink" id="body_1" preserveAspectRatio="xMinYMin meet" viewBox="0 0 793 1121"><defs><clipPath id="1"><path id="" clip-rule="evenodd" transform="matrix(1 0 0 1 0 0)" d="M0 841L0 -0.9199829L0 -0.9199829L595.32 -0.9199829L595.32 -0.9199829L595.32 841L595.32 841L0 841z" /></clipPath><clipPath id="2"><path id="" clip-rule="evenodd" transform="matrix(1 0 0 1 0 0)" d="M90.991 141.91L504.961 141.91L504.961 141.91L504.961 76.87L504.961 76.87L90.991 76.87z" /></clipPath><clipPath id="3"><path id="" clip-rule="evenodd" transform="matrix(1 0 0 1 0 0)" d="M90.984 141.9L504.964 141.9L504.964 141.9L504.964 76.836L504.964 76.836L90.984 76.836z" /></clipPath><clipPath id="4"><path id="" clip-rule="evenodd" transform="matrix(1 0 0 1 0 0)" d="M90.984 141.9L504.964 141.9L504.964 141.9L504.964 76.836L504.964 76.836L90.984 76.836z" /></clipPath><clipPath id="5"><path id="" clip-rule="evenodd" transform="matrix(1 0 0 1 0 0)" d="M90.984 141.9L504.964 141.9L504.964 141.9L504.964 76.836L504.964 76.836L90.984 76.836z" /></clipPath><clipPath id="6"><path id="" clip-rule="evenodd" transform="matrix(1 0 0 1 0 0)" d="M90.984 141.9L504.964 141.9L504.964 141.9L504.964 76.836L504.964 76.836L90.984 76.836z" /></clipPath><clipPath id="7"><path id="" clip-rule="evenodd" transform="matrix(1 0 0 1 0 0)" d="M90.984 141.9L504.964 141.9L504.964 141.9L504.964 76.836L504.964 76.836L90.984 76.836z" /></clipPath><clipPath id="8"><path id="" clip-rule="evenodd" transform="matrix(1 0 0 1 0 0)" d="M90.984 141.9L504.964 141.9L504.964 141.9L504.964 76.836L504.964 76.836L90.984 76.836z" /></clipPath><clipPath id="9"><path id="" clip-rule="evenodd" transform="matrix(1 0 0 1 0 0)" d="M90.984 141.9L504.964 141.9L504.964 141.9L504.964 76.836L504.964 76.836L90.984 76.836z" /></clipPath><clipPath id="10"><path id="" clip-rule="evenodd" transform="matrix(1 0 0 1 0 0)" d="M90.984 141.9L504.964 141.9L504.964 141.9L504.964 76.836L504.964 76.836L90.984 76.836z" /></clipPath><clipPath id="11"><path id="" clip-rule="evenodd" transform="matrix(1 0 0 1 0 0)" d="M90.984 141.9L504.964 141.9L504.964 141.9L504.964 76.836L504.964 76.836L90.984 76.836z" /></clipPath><clipPath id="12"><path id="" clip-rule="evenodd" transform="matrix(1 0 0 1 0 0)" d="M90.984 141.9L504.964 141.9L504.964 141.9L504.964 76.836L504.964 76.836L90.984 76.836z" /></clipPath><clipPath id="13"><path id="" clip-rule="evenodd" transform="matrix(1 0 0 1 0 0)" d="M90.984 141.9L504.964 141.9L504.964 141.9L504.964 76.836L504.964 76.836L90.984 76.836z" /></clipPath><clipPath id="14"><path id="" clip-rule="evenodd" transform="matrix(1 0 0 1 0 0)" d="M90.984 141.9L504.964 141.9L504.964 141.9L504.964 76.836L504.964 76.836L90.984 76.836z" /></clipPath><clipPath id="15"><path id="" clip-rule="evenodd" transform="matrix(1 0 0 1 0 0)" d="M90.984 141.9L504.964 141.9L504.964 141.9L504.964 76.836L504.964 76.836L90.984 76.836z" /></clipPath><clipPath id="16"><path id="" clip-rule="evenodd" transform="matrix(1 0 0 1 0 0)" d="M90.984 141.9L504.964 141.9L504.964 141.9L504.964 76.836L504.964 76.836L90.984 76.836z" /></clipPath><clipPath id="17"><path id="" clip-rule="evenodd" transform="matrix(1 0 0 1 0 0)" d="M90.984 141.9L504.964 141.9L504.964 141.9L504.964 76.836L504.964 76.836L90.984 76.836z" /></clipPath><clipPath id="18"><path id="" clip-rule="evenodd" transform="matrix(1 0 0 1 0 0)" d="M90.984 141.9L504.964 141.9L504.964 141.9L504.964 76.836L504.964 76.836L90.984 76.836z" /></clipPath><clipPath id="19"><path id="" clip-rule="evenodd" transform="matrix(1 0 0 1 0 0)" d="M90.984 141.9L504.964 141.9L504.964 141.9L504.964 76.836L504.964 76.836L90.984 76.836z" /></clipPath><clipPath id="20"><path id="" clip-rule="evenodd" transform="matrix(1 0 0 1 0 0)" d="M90.984 141.9L504.964 141.9L504.964 141.9L504.964 76.836L504.964 76.836L90.984 76.836z" /></clipPath><clipPath id="21"><path id="" clip-rule="evenodd" transform="matrix(1 0 0 1 0 0)" d="M90.984 141.9L504.964 141.9L504.964 141.9L504.964 76.836L504.964 76.836L90.984 76.836z" /></clipPath><clipPath id="22"><path id="" clip-rule="evenodd" transform="matrix(1 0 0 1 0 0)" d="M90.984 141.9L504.964 141.9L504.964 141.9L504.964 76.836L504.964 76.836L90.984 76.836z" /></clipPath><clipPath id="23"><path id="" clip-rule="evenodd" transform="matrix(1 0 0 1 0 0)" d="M90.984 141.9L504.964 141.9L504.964 141.9L504.964 76.836L504.964 76.836L90.984 76.836z" /></clipPath><clipPath id="24"><path id="" clip-rule="evenodd" transform="matrix(1 0 0 1 0 0)" d="M90.984 141.9L504.964 141.9L504.964 141.9L504.964 76.836L504.964 76.836L90.984 76.836z" /></clipPath><clipPath id="25"><path id="" clip-rule="evenodd" transform="matrix(1 0 0 1 0 0)" d="M90.984 141.9L504.964 141.9L504.964 141.9L504.964 76.836L504.964 76.836L90.984 76.836z" /></clipPath><clipPath id="26"><path id="" clip-rule="evenodd" transform="matrix(1 0 0 1 0 0)" d="M90.984 141.9L504.964 141.9L504.964 141.9L504.964 76.836L504.964 76.836L90.984 76.836z" /></clipPath><clipPath id="27"><path id="" clip-rule="evenodd" transform="matrix(1 0 0 1 0 0)" d="M90.984 141.9L504.964 141.9L504.964 141.9L504.964 76.836L504.964 76.836L90.984 76.836z" /></clipPath><clipPath id="28"><path id="" clip-rule="evenodd" transform="matrix(1 0 0 1 0 0)" d="M90.984 141.9L504.964 141.9L504.964 141.9L504.964 76.836L504.964 76.836L90.984 76.836z" /></clipPath></defs><g transform="matrix(1.333333 0 0 1.333333 0 0)"><g clip-path="url(#1)"><path id="158" transform="matrix(1 0 0 -1 0 841)" d="M404.38 448.75L509.04 448.75L509.04 448.75L509.04 462.43L509.04 462.43L404.38 462.43z" stroke="none" fill="#D9D9D9" fill-rule="evenodd" /><path id="199" transform="matrix(1 0 0 -1 0 841)" d="M89.904 429.65L204.884 429.65L204.884 429.65L204.884 443.354L204.884 443.354L89.904 443.354z" stroke="none" fill="#D9D9D9" fill-rule="evenodd" /><path id="200" transform="matrix(1 0 0 -1 0 841)" d="M361.87 429.65L509.04 429.65L509.04 429.65L509.04 443.354L509.04 443.354L361.87 443.354z" stroke="none" fill="#D9D9D9" fill-rule="evenodd" /><path id="241" transform="matrix(1 0 0 -1 0 841)" d="M89.904 410.69L505.324 410.69L505.324 410.69L505.324 424.37L505.324 424.37L89.904 424.37z" stroke="none" fill="#D9D9D9" fill-rule="evenodd" /><path id="282" transform="matrix(1 0 0 -1 0 841)" d="M89.904 391.61L505.324 391.61L505.324 391.61L505.324 405.29L505.324 405.29L89.904 405.29z" stroke="none" fill="#D9D9D9" fill-rule="evenodd" /><path id="324" transform="matrix(1 0 0 -1 0 841)" d="M89.904 372.53L505.324 372.53L505.324 372.53L505.324 386.21L505.324 386.21L89.904 386.21z" stroke="none" fill="#D9D9D9" fill-rule="evenodd" /><path id="365" transform="matrix(1 0 0 -1 0 841)" d="M89.904 353.45L274.034 353.45L274.034 353.45L274.034 367.13L274.034 367.13L89.904 367.13z" stroke="none" fill="#D9D9D9" fill-rule="evenodd" /><path id="406" transform="matrix(1 0 0 -1 0 841)" d="M152.54 334.49L509.04 334.49L509.04 334.49L509.04 348.17L509.04 348.17L152.54 348.17z" stroke="none" fill="#D9D9D9" fill-rule="evenodd" /><path id="447" transform="matrix(1 0 0 -1 0 841)" d="M89.904 315.41L184.488 315.41L184.488 315.41L184.488 329.09L184.488 329.09L89.904 329.09z" stroke="none" fill="#D9D9D9" fill-rule="evenodd" /><path id="527" transform="matrix(1 0 0 -1 0 841)" d="M90.6 695.12L505.2 695.12L505.2 695.12L505.2 768.17L505.2 768.17L90.6 768.17z" stroke="none" fill="#EAEAEA" fill-rule="evenodd" /><path id="528" transform="matrix(1 0 0 -1 0 841)" d="M90.6 695.12L505.2 695.12L505.2 695.12L505.2 768.17L505.2 768.17L90.6 768.17z" stroke="#000000" stroke-width="0.75" stroke-linecap="round" fill="none" /><g clip-path="url(#2)"><g clip-path="url(#3)"></g><g clip-path="url(#4)"></g><g clip-path="url(#5)"></g><g clip-path="url(#6)"></g><g clip-path="url(#7)"></g><g clip-path="url(#8)"></g><g clip-path="url(#9)"></g><g clip-path="url(#10)"></g><g clip-path="url(#11)"></g><g clip-path="url(#12)"></g><g clip-path="url(#13)"></g><g clip-path="url(#14)"></g><g clip-path="url(#15)"></g><g clip-path="url(#16)"></g><g clip-path="url(#17)"></g><g clip-path="url(#18)"></g><g clip-path="url(#19)"></g><g clip-path="url(#20)"></g><g clip-path="url(#21)"></g><g clip-path="url(#22)"></g><g clip-path="url(#23)"></g><g clip-path="url(#24)"></g><g clip-path="url(#25)"></g><g clip-path="url(#26)"></g><g clip-path="url(#27)"></g><g clip-path="url(#28)"></g></g></g></g></svg>