<svg xmlns="http://www.w3.org/2000/svg" xmlns:xlink="http://www.w3.org/1999/xlink" id="body_1" preserveAspectRatio="xMinYMin meet" viewBox="0 0 793 1121"><defs><clipPath id="1"><path id="" clip-rule="evenodd" transform="matrix(1 0 0 1 0 0)" d="M0 841L0 -0.6799927L0 -0.6799927L595.44 -0.6799927L595.44 -0.6799927L595.44 841L595.44 841L0 841z" /></clipPath></defs><g transform="matrix(1.333333 0 0 1.333333 0 0)"><g clip-path="url(#1)"><path id="17" transform="matrix(1 0 0 -1 0 841)" d="M92.184 698.26L323.594 698.26L323.594 698.26L323.594 711.94L323.594 711.94L92.184 711.94z" stroke="none" fill="#D9D9D9" fill-rule="evenodd" /><path id="40" transform="matrix(1 0 0 -1 0 841)" d="M92.184 670.9L181.584 670.9L181.584 670.9L181.584 684.58L181.584 684.58L92.184 684.58z" stroke="none" fill="#D9D9D9" fill-rule="evenodd" /><path id="50" transform="matrix(1 0 0 -1 0 841)" d="M102.14 657.34L238.84 657.34L238.84 657.34L238.84 671.02L238.84 671.02L102.14 671.02z" stroke="none" fill="#D9D9D9" fill-rule="evenodd" /><path id="65" transform="matrix(1 0 0 -1 0 841)" d="M102.14 643.66L238.84 643.66L238.84 643.66L238.84 657.34L238.84 657.34L102.14 657.34z" stroke="none" fill="#D9D9D9" fill-rule="evenodd" /><path id="80" transform="matrix(1 0 0 -1 0 841)" d="M102.14 629.98L505.65 629.98L505.65 629.98L505.65 643.66L505.65 643.66L102.14 643.66z" stroke="none" fill="#D9D9D9" fill-rule="evenodd" /><path id="120" transform="matrix(1 0 0 -1 0 841)" d="M119.78 616.3L140.78 616.3L140.78 616.3L140.78 629.98L140.78 629.98L119.78 629.98z" stroke="none" fill="#D9D9D9" fill-rule="evenodd" /><path id="123" transform="matrix(1 0 0 -1 0 841)" d="M102.14 602.74L170.42 602.74L170.42 602.74L170.42 616.42L170.42 616.42L102.14 616.42z" stroke="none" fill="#D9D9D9" fill-rule="evenodd" /><path id="131" transform="matrix(1 0 0 -1 0 841)" d="M102.14 589.06L207.4 589.06L207.4 589.06L207.4 602.74L207.4 602.74L102.14 602.74z" stroke="none" fill="#D9D9D9" fill-rule="evenodd" /><path id="144" transform="matrix(1 0 0 -1 0 841)" d="M102.14 575.38L317.68 575.38L317.68 575.38L317.68 589.06L317.68 589.06L102.14 589.06z" stroke="none" fill="#D9D9D9" fill-rule="evenodd" /><path id="167" transform="matrix(1 0 0 -1 0 841)" d="M102.14 561.67L265.12 561.67L265.12 561.67L265.12 575.374L265.12 575.374L102.14 575.374z" stroke="none" fill="#D9D9D9" fill-rule="evenodd" /><path id="185" transform="matrix(1 0 0 -1 0 841)" d="M102.14 548.11L223 548.11L223 548.11L223 561.79L223 561.79L102.14 561.79z" stroke="none" fill="#D9D9D9" fill-rule="evenodd" /><path id="199" transform="matrix(1 0 0 -1 0 841)" d="M102.14 534.43L233.56 534.43L233.56 534.43L233.56 548.11L233.56 548.11L102.14 548.11z" stroke="none" fill="#D9D9D9" fill-rule="evenodd" /><path id="214" transform="matrix(1 0 0 -1 0 841)" d="M102.14 520.75L176.78 520.75L176.78 520.75L176.78 534.43L176.78 534.43L102.14 534.43z" stroke="none" fill="#D9D9D9" fill-rule="evenodd" /><path id="258" transform="matrix(1 0 0 -1 0 841)" d="M380.95 507.07L505.65 507.07L505.65 507.07L505.65 520.75L505.65 520.75L380.95 520.75z" stroke="none" fill="#D9D9D9" fill-rule="evenodd" /><path id="296" transform="matrix(1 0 0 -1 0 841)" d="M119.78 493.51L505.65 493.51L505.65 493.51L505.65 507.19L505.65 507.19L119.78 507.19z" stroke="none" fill="#D9D9D9" fill-rule="evenodd" /><path id="338" transform="matrix(1 0 0 -1 0 841)" d="M119.78 479.83L505.65 479.83L505.65 479.83L505.65 493.51L505.65 493.51L119.78 493.51z" stroke="none" fill="#D9D9D9" fill-rule="evenodd" /><path id="377" transform="matrix(1 0 0 -1 0 841)" d="M119.78 466.15L182.9 466.15L182.9 466.15L182.9 479.83L182.9 479.83L119.78 479.83z" stroke="none" fill="#D9D9D9" fill-rule="evenodd" /><path id="384" transform="matrix(1 0 0 -1 0 841)" d="M102.14 452.47L196.844 452.47L196.844 452.47L196.844 466.15L196.844 466.15L102.14 466.15z" stroke="none" fill="#D9D9D9" fill-rule="evenodd" /><path id="563" transform="matrix(1 0 0 -1 0 841)" d="M92.184 343.25L276.164 343.25L276.164 343.25L276.164 356.93L276.164 356.93L92.184 356.93z" stroke="none" fill="#D9D9D9" fill-rule="evenodd" /><path id="582" transform="matrix(1 0 0 -1 0 841)" d="M92.184 329.69L207.884 329.69L207.884 329.69L207.884 343.37L207.884 343.37L92.184 343.37z" stroke="none" fill="#D9D9D9" fill-rule="evenodd" /><path id="595" transform="matrix(1 0 0 -1 0 841)" d="M92.184 316.01L202.604 316.01L202.604 316.01L202.604 329.69L202.604 329.69L92.184 329.69z" stroke="none" fill="#D9D9D9" fill-rule="evenodd" /><path id="607" transform="matrix(1 0 0 -1 0 841)" d="M92.184 302.33L255.164 302.33L255.164 302.33L255.164 316.01L255.164 316.01L92.184 316.01z" stroke="none" fill="#D9D9D9" fill-rule="evenodd" /><path id="841" transform="matrix(1 0 0 -1 0 841)" d="M187.58 179.42L505.65 179.42L505.65 179.42L505.65 193.1L505.65 193.1L187.58 193.1z" stroke="none" fill="#D9D9D9" fill-rule="evenodd" /><path id="877" transform="matrix(1 0 0 -1 0 841)" d="M134.54 165.86L187.22 165.86L187.22 165.86L187.22 179.54L187.22 179.54L134.54 179.54z" stroke="none" fill="#D9D9D9" fill-rule="evenodd" /></g></g></svg>