<svg xmlns="http://www.w3.org/2000/svg" xmlns:xlink="http://www.w3.org/1999/xlink" id="body_1" preserveAspectRatio="xMinYMin meet" viewBox="0 0 793 1121"><defs><clipPath id="1"><path id="" clip-rule="evenodd" transform="matrix(1 0 0 1 0 0)" d="M0 841L0 -0.9199829L0 -0.9199829L595.32 -0.9199829L595.32 -0.9199829L595.32 841L595.32 841L0 841z" /></clipPath></defs><g transform="matrix(1.333333 0 0 1.333333 0 0)"><g clip-path="url(#1)"><path id="240" transform="matrix(1 0 0 -1 0 841)" d="M118.22 467.83L500.04 467.83L500.04 467.83L500.04 481.51L500.04 481.51L118.22 481.51z" stroke="none" fill="#D9D9D9" fill-rule="evenodd" /><path id="277" transform="matrix(1 0 0 -1 0 841)" d="M118.1 448.75L370.51 448.75L370.51 448.75L370.51 462.43L370.51 462.43L118.1 462.43z" stroke="none" fill="#D9D9D9" fill-rule="evenodd" /><path id="422" transform="matrix(1 0 0 -1 0 841)" d="M340.99 353.45L500.04 353.45L500.04 353.45L500.04 367.13L500.04 367.13L340.99 367.13z" stroke="none" fill="#D9D9D9" fill-rule="evenodd" /><path id="459" transform="matrix(1 0 0 -1 0 841)" d="M118.22 334.49L500.04 334.49L500.04 334.49L500.04 348.17L500.04 348.17L118.22 348.17z" stroke="none" fill="#D9D9D9" fill-rule="evenodd" /><path id="496" transform="matrix(1 0 0 -1 0 841)" d="M118.22 315.41L212.804 315.41L212.804 315.41L212.804 329.09L212.804 329.09L118.22 329.09z" stroke="none" fill="#D9D9D9" fill-rule="evenodd" /><path id="506" transform="matrix(1 0 0 -1 0 841)" d="M118.1 277.25L500.04 277.25L500.04 277.25L500.04 290.93L500.04 290.93L118.1 290.93z" stroke="none" fill="#D9D9D9" fill-rule="evenodd" /><path id="543" transform="matrix(1 0 0 -1 0 841)" d="M118.22 258.26L500.04 258.26L500.04 258.26L500.04 271.964L500.04 271.964L118.22 271.964z" stroke="none" fill="#D9D9D9" fill-rule="evenodd" /><path id="580" transform="matrix(1 0 0 -1 0 841)" d="M118.22 239.18L500.04 239.18L500.04 239.18L500.04 252.86L500.04 252.86L118.22 252.86z" stroke="none" fill="#D9D9D9" fill-rule="evenodd" /><path id="617" transform="matrix(1 0 0 -1 0 841)" d="M118.22 220.1L500.04 220.1L500.04 220.1L500.04 233.78L500.04 233.78L118.22 233.78z" stroke="none" fill="#D9D9D9" fill-rule="evenodd" /><path id="654" transform="matrix(1 0 0 -1 0 841)" d="M118.22 201.02L202.364 201.02L202.364 201.02L202.364 214.7L202.364 214.7L118.22 214.7z" stroke="none" fill="#D9D9D9" fill-rule="evenodd" /><path id="663" transform="matrix(1 0 0 -1 0 841)" d="M118.22 162.98L500.04 162.98L500.04 162.98L500.04 176.66L500.04 176.66L118.22 176.66z" stroke="none" fill="#D9D9D9" fill-rule="evenodd" /><path id="700" transform="matrix(1 0 0 -1 0 841)" d="M118.22 143.9L500.04 143.9L500.04 143.9L500.04 157.58L500.04 157.58L118.22 157.58z" stroke="none" fill="#D9D9D9" fill-rule="evenodd" /><path id="737" transform="matrix(1 0 0 -1 0 841)" d="M118.22 124.82L500.04 124.82L500.04 124.82L500.04 138.5L500.04 138.5L118.22 138.5z" stroke="none" fill="#D9D9D9" fill-rule="evenodd" /><path id="774" transform="matrix(1 0 0 -1 0 841)" d="M118.22 105.84L500.04 105.84L500.04 105.84L500.04 119.544L500.04 119.544L118.22 119.544z" stroke="none" fill="#D9D9D9" fill-rule="evenodd" /></g></g></svg>