<svg xmlns="http://www.w3.org/2000/svg" xmlns:xlink="http://www.w3.org/1999/xlink" id="body_1" preserveAspectRatio="xMinYMin meet" viewBox="0 0 793 1121"><defs><clipPath id="1"><path id="" clip-rule="evenodd" transform="matrix(1 0 0 1 0 0)" d="M0 841L0 -0.9199829L0 -0.9199829L595.32 -0.9199829L595.32 -0.9199829L595.32 841L595.32 841L0 841z" /></clipPath></defs><g transform="matrix(1.333333 0 0 1.333333 0 0)"><g clip-path="url(#1)"><path id="5" transform="matrix(1 0 0 -1 0 841)" d="M118.22 753.58L500.04 753.58L500.04 753.58L500.04 767.284L500.04 767.284L118.22 767.284z" stroke="none" fill="#D9D9D9" fill-rule="evenodd" /><path id="42" transform="matrix(1 0 0 -1 0 841)" d="M118.22 734.5L202.364 734.5L202.364 734.5L202.364 748.18L202.364 748.18L118.22 748.18z" stroke="none" fill="#D9D9D9" fill-rule="evenodd" /><path id="66" transform="matrix(1 0 0 -1 0 841)" d="M89.904 620.26L500.044 620.26L500.044 620.26L500.044 633.94L500.044 633.94L89.904 633.94z" stroke="none" fill="#D9D9D9" fill-rule="evenodd" /><path id="106" transform="matrix(1 0 0 -1 0 841)" d="M89.904 601.18L458.014 601.18L458.014 601.18L458.014 614.86L458.014 614.86L89.904 614.86z" stroke="none" fill="#D9D9D9" fill-rule="evenodd" /><path id="142" transform="matrix(1 0 0 -1 0 841)" d="M89.904 553.51L500.044 553.51L500.044 553.51L500.044 567.19L500.044 567.19L89.904 567.19z" stroke="none" fill="#D9D9D9" fill-rule="evenodd" /><path id="183" transform="matrix(1 0 0 -1 0 841)" d="M118.1 534.55L212.684 534.55L212.684 534.55L212.684 548.23L212.684 548.23L118.1 548.23z" stroke="none" fill="#D9D9D9" fill-rule="evenodd" /><path id="193" transform="matrix(1 0 0 -1 0 841)" d="M89.904 515.47L210.764 515.47L210.764 515.47L210.764 529.15L210.764 529.15L89.904 529.15z" stroke="none" fill="#D9D9D9" fill-rule="evenodd" /><path id="206" transform="matrix(1 0 0 -1 0 841)" d="M89.904 496.39L484.204 496.39L484.204 496.39L484.204 510.07L484.204 510.07L89.904 510.07z" stroke="none" fill="#D9D9D9" fill-rule="evenodd" /><path id="245" transform="matrix(1 0 0 -1 0 841)" d="M89.904 477.31L500.044 477.31L500.044 477.31L500.044 490.99L500.044 490.99L89.904 490.99z" stroke="none" fill="#D9D9D9" fill-rule="evenodd" /><path id="287" transform="matrix(1 0 0 -1 0 841)" d="M89.904 458.35L400.054 458.35L400.054 458.35L400.054 472.03L400.054 472.03L89.904 472.03z" stroke="none" fill="#D9D9D9" fill-rule="evenodd" /><path id="318" transform="matrix(1 0 0 -1 0 841)" d="M89.904 439.27L368.474 439.27L368.474 439.27L368.474 452.95L368.474 452.95L89.904 452.95z" stroke="none" fill="#D9D9D9" fill-rule="evenodd" /><path id="346" transform="matrix(1 0 0 -1 0 841)" d="M89.904 420.17L500.044 420.17L500.044 420.17L500.044 433.85L500.044 433.85L89.904 433.85z" stroke="none" fill="#D9D9D9" fill-rule="evenodd" /><path id="387" transform="matrix(1 0 0 -1 0 841)" d="M118.1 401.09L191.684 401.09L191.684 401.09L191.684 414.77L191.684 414.77L118.1 414.77z" stroke="none" fill="#D9D9D9" fill-rule="evenodd" /><path id="395" transform="matrix(1 0 0 -1 0 841)" d="M89.904 382.13L421.054 382.13L421.054 382.13L421.054 395.81L421.054 395.81L89.904 395.81z" stroke="none" fill="#D9D9D9" fill-rule="evenodd" /><path id="428" transform="matrix(1 0 0 -1 0 841)" d="M89.904 363.05L431.614 363.05L431.614 363.05L431.614 376.73L431.614 376.73L89.904 376.73z" stroke="none" fill="#D9D9D9" fill-rule="evenodd" /><path id="462" transform="matrix(1 0 0 -1 0 841)" d="M89.904 343.97L415.894 343.97L415.894 343.97L415.894 357.65L415.894 357.65L89.904 357.65z" stroke="none" fill="#D9D9D9" fill-rule="evenodd" /><path id="495" transform="matrix(1 0 0 -1 0 841)" d="M89.904 324.89L405.454 324.89L405.454 324.89L405.454 338.57L405.454 338.57L89.904 338.57z" stroke="none" fill="#D9D9D9" fill-rule="evenodd" /><path id="527" transform="matrix(1 0 0 -1 0 841)" d="M89.904 305.93L500.044 305.93L500.044 305.93L500.044 319.61L500.044 319.61L89.904 319.61z" stroke="none" fill="#D9D9D9" fill-rule="evenodd" /><path id="572" transform="matrix(1 0 0 -1 0 841)" d="M118.1 286.85L496.8 286.85L496.8 286.85L496.8 300.53L496.8 300.53L118.1 300.53z" stroke="none" fill="#D9D9D9" fill-rule="evenodd" /><path id="609" transform="matrix(1 0 0 -1 0 841)" d="M118.1 267.74L254.8 267.74L254.8 267.74L254.8 281.444L254.8 281.444L118.1 281.444z" stroke="none" fill="#D9D9D9" fill-rule="evenodd" /><path id="623" transform="matrix(1 0 0 -1 0 841)" d="M89.904 248.66L468.694 248.66L468.694 248.66L468.694 262.34L468.694 262.34L89.904 262.34z" stroke="none" fill="#D9D9D9" fill-rule="evenodd" /><path id="664" transform="matrix(1 0 0 -1 0 841)" d="M412.3 229.7L496.444 229.7L496.444 229.7L496.444 243.38L496.444 243.38L412.3 243.38z" stroke="none" fill="#D9D9D9" fill-rule="evenodd" /><path id="701" transform="matrix(1 0 0 -1 0 841)" d="M118.1 210.62L296.95 210.62L296.95 210.62L296.95 224.3L296.95 224.3L118.1 224.3z" stroke="none" fill="#D9D9D9" fill-rule="evenodd" /><path id="719" transform="matrix(1 0 0 -1 0 841)" d="M89.904 191.54L279.194 191.54L279.194 191.54L279.194 205.22L279.194 205.22L89.904 205.22z" stroke="none" fill="#D9D9D9" fill-rule="evenodd" /><path id="739" transform="matrix(1 0 0 -1 0 841)" d="M89.904 172.46L268.754 172.46L268.754 172.46L268.754 186.14L268.754 186.14L89.904 186.14z" stroke="none" fill="#D9D9D9" fill-rule="evenodd" /><path id="758" transform="matrix(1 0 0 -1 0 841)" d="M89.904 153.5L394.894 153.5L394.894 153.5L394.894 167.18L394.894 167.18L89.904 167.18z" stroke="none" fill="#D9D9D9" fill-rule="evenodd" /><path id="789" transform="matrix(1 0 0 -1 0 841)" d="M89.904 134.42L500.044 134.42L500.044 134.42L500.044 148.1L500.044 148.1L89.904 148.1z" stroke="none" fill="#D9D9D9" fill-rule="evenodd" /><path id="830" transform="matrix(1 0 0 -1 0 841)" d="M118.1 115.34L233.8 115.34L233.8 115.34L233.8 129.02L233.8 129.02L118.1 129.02z" stroke="none" fill="#D9D9D9" fill-rule="evenodd" /><path id="842" transform="matrix(1 0 0 -1 0 841)" d="M89.904 96.24L500.044 96.24L500.044 96.24L500.044 109.944L500.044 109.944L89.904 109.944z" stroke="none" fill="#D9D9D9" fill-rule="evenodd" /><path id="883" transform="matrix(1 0 0 -1 0 841)" d="M118.1 77.28L496.8 77.28L496.8 77.28L496.8 90.96L496.8 90.96L118.1 90.96z" stroke="none" fill="#D9D9D9" fill-rule="evenodd" /></g></g></svg>