<svg xmlns="http://www.w3.org/2000/svg" xmlns:xlink="http://www.w3.org/1999/xlink" id="body_1" preserveAspectRatio="xMinYMin meet" viewBox="0 0 793 1121"><defs><clipPath id="1"><path id="" clip-rule="evenodd" transform="matrix(1 0 0 1 0 0)" d="M0 841L0 -0.6799927L0 -0.6799927L595.44 -0.6799927L595.44 -0.6799927L595.44 841L595.44 841L0 841z" /></clipPath></defs><g transform="matrix(1.333333 0 0 1.333333 0 0)"><g clip-path="url(#1)"><path id="645" transform="matrix(1 0 0 -1 0 841)" d="M93.504 224.69L503.734 224.69L503.734 224.69L503.734 238.37L503.734 238.37L93.504 238.37z" stroke="none" fill="#D9D9D9" fill-rule="evenodd" /><path id="685" transform="matrix(1 0 0 -1 0 841)" d="M92.184 211.01L502.414 211.01L502.414 211.01L502.414 224.69L502.414 224.69L92.184 224.69z" stroke="none" fill="#D9D9D9" fill-rule="evenodd" /><path id="725" transform="matrix(1 0 0 -1 0 841)" d="M92.184 197.42L281.444 197.42L281.444 197.42L281.444 211.124L281.444 211.124L92.184 211.124z" stroke="none" fill="#D9D9D9" fill-rule="evenodd" /><path id="751" transform="matrix(1 0 0 -1 0 841)" d="M92.184 130.34L502.414 130.34L502.414 130.34L502.414 146.06L502.414 146.06L92.184 146.06z" stroke="none" fill="#D9D9D9" fill-rule="evenodd" /><path id="791" transform="matrix(1 0 0 -1 0 841)" d="M92.184 114.74L292.004 114.74L292.004 114.74L292.004 130.46L292.004 130.46L92.184 130.46z" stroke="none" fill="#D9D9D9" fill-rule="evenodd" /><path id="811" transform="matrix(1 0 0 -1 0 841)" d="M92.184 86.784L505.654 86.784L505.654 86.784L505.654 100.464L505.654 100.464L92.184 100.464z" stroke="none" fill="#D9D9D9" fill-rule="evenodd" /><path id="851" transform="matrix(1 0 0 -1 0 841)" d="M92.184 73.104L176.304 73.104L176.304 73.104L176.304 86.784L176.304 86.784L92.184 86.784z" stroke="none" fill="#D9D9D9" fill-rule="evenodd" /></g></g></svg>