<svg xmlns="http://www.w3.org/2000/svg" xmlns:xlink="http://www.w3.org/1999/xlink" id="body_1" preserveAspectRatio="xMinYMin meet" viewBox="0 0 793 1121"><defs><clipPath id="1"><path id="" clip-rule="evenodd" transform="matrix(1 0 0 1 0 0)" d="M0 841L0 -0.9199829L0 -0.9199829L595.32 -0.9199829L595.32 -0.9199829L595.32 841L595.32 841L0 841z" /></clipPath></defs><g transform="matrix(1.333333 0 0 1.333333 0 0)"><g clip-path="url(#1)"><path id="384" transform="matrix(1 0 0 -1 0 841)" d="M89.904 429.65L500.044 429.65L500.044 429.65L500.044 443.354L500.044 443.354L89.904 443.354z" stroke="none" fill="#D9D9D9" fill-rule="evenodd" /><path id="425" transform="matrix(1 0 0 -1 0 841)" d="M118.1 410.69L500.04 410.69L500.04 410.69L500.04 424.37L500.04 424.37L118.1 424.37z" stroke="none" fill="#D9D9D9" fill-rule="evenodd" /><path id="462" transform="matrix(1 0 0 -1 0 841)" d="M118.1 391.61L500.04 391.61L500.04 391.61L500.04 405.29L500.04 405.29L118.1 405.29z" stroke="none" fill="#D9D9D9" fill-rule="evenodd" /><path id="499" transform="matrix(1 0 0 -1 0 841)" d="M118.1 372.53L500.04 372.53L500.04 372.53L500.04 386.21L500.04 386.21L118.1 386.21z" stroke="none" fill="#D9D9D9" fill-rule="evenodd" /><path id="536" transform="matrix(1 0 0 -1 0 841)" d="M118.1 353.45L500.04 353.45L500.04 353.45L500.04 367.13L500.04 367.13L118.1 367.13z" stroke="none" fill="#D9D9D9" fill-rule="evenodd" /><path id="573" transform="matrix(1 0 0 -1 0 841)" d="M118.1 334.49L307.39 334.49L307.39 334.49L307.39 348.17L307.39 348.17L118.1 348.17z" stroke="none" fill="#D9D9D9" fill-rule="evenodd" /><path id="740" transform="matrix(1 0 0 -1 0 841)" d="M266.69 239.18L500.04 239.18L500.04 239.18L500.04 252.86L500.04 252.86L266.69 252.86z" stroke="none" fill="#D9D9D9" fill-rule="evenodd" /><path id="777" transform="matrix(1 0 0 -1 0 841)" d="M118.22 220.1L500.04 220.1L500.04 220.1L500.04 233.78L500.04 233.78L118.22 233.78z" stroke="none" fill="#D9D9D9" fill-rule="evenodd" /><path id="814" transform="matrix(1 0 0 -1 0 841)" d="M118.22 201.02L202.364 201.02L202.364 201.02L202.364 214.7L202.364 214.7L118.22 214.7z" stroke="none" fill="#D9D9D9" fill-rule="evenodd" /></g></g></svg>